<svg class="main-svg" xmlns="http://www.w3.org/2000/svg" xmlns:xlink="http://www.w3.org/1999/xlink" width="800" height="400" viewBox="0 0 800 400"><rect x="0" y="0" width="800" height="400" style="fill: rgb(255, 255, 255); fill-opacity: 1;"/><defs id="defs-0bc15b"><g class="clips"><clipPath id="clip0bc15bxyplot" class="plotclip"><rect width="590" height="335"/></clipPath><clipPath class="axesclip" id="clip0bc15bx"><rect x="60" y="0" width="590" height="400"/></clipPath><clipPath class="axesclip" id="clip0bc15by"><rect x="0" y="25" width="800" height="335"/></clipPath><clipPath class="axesclip" id="clip0bc15bxy"><rect x="60" y="25" width="590" height="335"/></clipPath></g><g class="gradients"/></defs><g class="bglayer"/><g class="layer-below"><g class="imagelayer"/><g class="shapelayer"/></g><g class="cartesianlayer"><g class="subplot xy"><g class="layer-subplot"><g class="shapelayer"/><g class="imagelayer"/></g><g class="gridlayer"><g class="x"><path class="xgrid crisp" d="M0,25v335" transform="translate(308.9,0)" style="stroke: rgb(238, 238, 238); stroke-opacity: 1; stroke-width: 1px;"/><path class="xgrid crisp" d="M0,25v335" transform="translate(481.63,0)" style="stroke: rgb(238, 238, 238); stroke-opacity: 1; stroke-width: 1px;"/></g><g class="y"><path class="ygrid crisp" d="M60,0h590" transform="translate(0,301.87)" style="stroke: rgb(238, 238, 238); stroke-opacity: 1; stroke-width: 1px;"/><path class="ygrid crisp" d="M60,0h590" transform="translate(0,260.49)" style="stroke: rgb(238, 238, 238); stroke-opacity: 1; stroke-width: 1px;"/><path class="ygrid crisp" d="M60,0h590" transform="translate(0,219.11)" style="stroke: rgb(238, 238, 238); stroke-opacity: 1; stroke-width: 1px;"/><path class="ygrid crisp" d="M60,0h590" transform="translate(0,177.73)" style="stroke: rgb(238, 238, 238); stroke-opacity: 1; stroke-width: 1px;"/><path class="ygrid crisp" d="M60,0h590" transform="translate(0,136.34)" style="stroke: rgb(238, 238, 238); stroke-opacity: 1; stroke-width: 1px;"/><path class="ygrid crisp" d="M60,0h590" transform="translate(0,94.96)" style="stroke: rgb(238, 238, 238); stroke-opacity: 1; stroke-width: 1px;"/><path class="ygrid crisp" d="M60,0h590" transform="translate(0,53.58)" style="stroke: rgb(238, 238, 238); stroke-opacity: 1; stroke-width: 1px;"/></g></g><g class="zerolinelayer"><path class="xzl zl crisp" d="M0,25v335" transform="translate(136.18,0)" style="stroke: rgb(68, 68, 68); stroke-opacity: 1; stroke-width: 1px;"/><path class="yzl zl crisp" d="M60,0h590" transform="translate(0,343.25)" style="stroke: rgb(68, 68, 68); stroke-opacity: 1; stroke-width: 1px;"/></g><path class="xlines-below"/><path class="ylines-below"/><g class="overlines-below"/><g class="xaxislayer-below"/><g class="yaxislayer-below"/><g class="overaxes-below"/><g class="plot" transform="translate(60, 25)" clip-path="url(#clip0bc15bxyplot)"><g class="scatterlayer mlayer"><g class="trace scatter traced9f24a" style="stroke-miterlimit: 2; opacity: 1;"><g class="fills"/><g class="errorbars"/><g class="lines"><path class="js-line" d="M0,317.29L10.39,315.61L11.55,315.32L19.63,312.32L20.78,311.71L26.56,307.92L27.71,306.97L33.48,301.06L34.64,299.64L40.41,290.95L41.57,288.89L47.34,276.79L48.49,273.98L54.27,258.03L55.42,254.41L62.35,230.11L63.5,225.61L72.74,186.15L73.89,180.88L94.68,87.47L95.83,83.04L102.76,59.81L103.91,56.54L109.69,43.19L110.84,41.14L115.46,34.86L116.61,33.75L120.08,31.69L121.23,31.39L124.7,31.43L125.85,31.79L129.32,33.67L130.47,34.57L135.09,39.28L136.24,40.69L143.17,50.69L144.32,52.53L168.57,91.07L169.73,92.62L178.96,103.76L180.12,104.99L189.35,113.83L190.51,114.82L204.36,125.61L205.52,126.46L229.77,145.08L230.92,146.05L249.39,162.54L250.55,163.61L271.33,181.87L272.49,182.77L284.03,190.73L285.19,191.4L295.58,196.57L296.73,197.05L309.43,201.37L310.59,201.7L352.15,213.34L353.31,213.52L361.39,213.98L362.54,213.91L369.47,212.76L370.63,212.43L377.55,209.68L378.71,209.1L387.95,203.45L389.1,202.65L407.57,190.32L408.73,189.74L415.66,187.1L416.81,186.83L422.58,186.23L423.74,186.27L429.51,187.3L430.67,187.65L437.59,190.9L438.75,191.6L446.83,197.69L447.98,198.71L457.22,207.93L458.38,209.2L471.08,224.59L472.23,226.1L487.24,246.97L488.4,248.64L511.49,281.19L512.64,282.66L523.03,294.54L524.19,295.71L533.42,303.71L534.58,304.55L542.66,309.51L543.82,310.09L553.05,313.73L554.21,314.07L564.6,316.31L565.75,316.48L581.92,317.82L583.07,317.86L590,318.05" style="vector-effect: non-scaling-stroke; fill: none; stroke: rgb(31, 119, 180); stroke-opacity: 1; stroke-width: 2px; opacity: 1;"/></g><g class="points"/><g class="text"/></g><g class="trace scatter trace5337ca" style="stroke-miterlimit: 2; opacity: 1;"><g class="fills"/><g class="errorbars"/><g class="lines"><path class="js-line" d="M0,318.25L25.4,317.7L26.56,317.06L28.86,314.59L30.02,312.87L34.64,303.49L35.79,300.66L42.72,280.67L43.87,276.98L54.27,240.9L55.42,236.71L87.75,121.7L88.9,118.08L99.3,88.34L100.45,85.39L109.69,64.17L110.84,61.84L117.77,49.78L118.92,48.14L124.7,41.65L125.85,40.73L130.47,38.15L131.62,37.77L136.24,37.52L137.4,37.79L142.02,39.75L143.17,40.41L147.79,44.27L148.94,45.65L153.56,52.54L154.72,54.64L160.49,67.53L161.64,70.58L169.73,90.96L170.88,93.13L177.81,103.53L178.96,104.93L188.2,114.13L189.35,115.12L204.36,126.67L205.52,127.51L226.3,143.01L227.46,143.97L240.16,155.75L241.31,156.89L251.7,166.23L252.86,167.08L272.49,180.7L273.64,181.48L285.19,188.91L286.34,189.47L307.12,200.47L308.28,201.09L324.44,209L325.6,209.5L335.99,213.28L337.14,213.61L345.23,215.27L346.38,215.17L352.15,213.93L353.31,213.47L360.23,209.66L361.39,208.98L370.63,204.63L371.78,204.24L383.33,201.51L384.48,201.33L392.56,199.67L393.72,199.36L411.04,193.94L412.19,193.56L421.43,191.7L422.58,191.56L434.13,190.74L435.28,190.93L441.06,192.76L442.21,193.28L447.98,196.78L449.14,197.65L456.07,204.1L457.22,205.33L464.15,213.77L465.3,215.33L474.54,229.16L475.69,231.05L491.86,257.14L493.01,258.62L502.25,268.9L503.41,270.14L529.96,298.16L531.12,299.19L541.51,307.52L542.66,308.3L551.9,313.61L553.05,314.14L562.29,317.56L563.44,317.84L569.22,318.25L570.37,318.25L590,318.25" style="vector-effect: non-scaling-stroke; fill: none; stroke: rgb(255, 127, 14); stroke-opacity: 1; stroke-width: 2px; opacity: 1;"/></g><g class="points"/><g class="text"/></g><g class="trace scatter trace48b71c" style="stroke-miterlimit: 2; opacity: 1;"><g class="fills"/><g class="errorbars"/><g class="lines"><path class="js-line" d="M0,318.25L39.26,318.25L40.41,313.97L42.72,298.91L43.87,288.47L48.49,253.73L49.65,247.75L58.88,206.28L60.04,202.71L69.28,172.84L70.43,170.46L80.82,145.37L81.98,141.14L85.44,134.64L86.59,132.76L90.06,123.98L91.21,120.02L94.68,109.91L95.83,107.83L98.14,103.24L99.3,101.02L105.07,91.64L106.22,89.19L117.77,67.97L118.92,65.87L121.23,59.08L122.39,56.14L132.78,36.3L133.93,34.63L142.02,23.02L143.17,21.3L145.48,16.89L146.63,16.75L147.79,19.74L148.94,25.3L154.72,62.16L155.87,66.24L158.18,69.02L159.33,72.95L162.8,81.1L163.95,85.4L172.04,100.93L173.19,102.32L182.43,112.7L183.58,113.91L185.89,114.29L187.05,115.53L189.35,119.85L190.51,120L192.82,119.01L193.97,119.64L197.44,123.39L198.59,126.08L202.05,131.41L203.21,131.74L207.83,133.03L208.98,133.16L211.29,133.95L212.45,134.15L214.76,135.88L215.91,137.39L218.22,139.52L219.37,139.45L221.68,140.05L222.84,141.04L226.3,144.2L227.46,146.37L229.77,150.5L230.92,151.46L236.69,156.01L237.85,157.36L240.16,159.41L241.31,159.65L249.39,165.46L250.55,166.88L252.86,169.54L254.01,170.39L256.32,172.47L257.48,172.15L259.78,173.71L260.94,175.72L263.25,177.85L264.4,181.5L266.71,181.94L267.87,183.29L270.18,183.79L271.33,183.5L278.26,184L279.41,184.45L282.88,186.18L284.03,186.52L288.65,188.42L289.8,189.21L292.11,191.44L293.27,192.8L294.42,193.73L295.58,193.07L301.35,198.54L302.5,199.04L305.97,202.05L307.12,202.28L309.43,202.67L310.59,203.43L312.9,206.29L314.05,207L318.67,209.67L319.82,210.85L322.13,211.59L323.29,211.85L325.6,213.25L326.75,214.4L329.06,216.52L330.22,216.29L333.68,216.14L334.83,216.45L341.76,219.32L342.92,218.93L347.53,218.55L348.69,218L353.31,219.05L354.46,218.27L357.93,217.33L359.08,214.89L362.54,207.91L363.7,206.82L364.85,206.52L366.01,204.17L368.32,197.91L369.47,197.19L371.78,195.6L372.94,195.56L375.24,194.32L376.4,195.3L377.55,195.01L378.71,195.98L381.02,198.99L382.17,199.34L385.64,200.25L386.79,201.1L387.95,202.56L389.1,202.73L396.03,203.51L397.18,201.77L398.34,201.14L399.49,201.49L400.65,201.17L401.8,201.72L402.95,201.97L404.11,200.21L407.57,199.38L408.73,199.67L413.35,199.23L414.5,199.57L421.43,196.36L422.58,196.5L426.05,196.49L427.2,195.21L429.51,195.6L430.67,196.07L432.97,195.04L434.13,194.86L435.28,193.94L436.44,194.51L438.75,194.94L439.9,194.45L442.21,192.08L443.37,190.35L444.52,190.48L445.68,191.51L453.76,198.61L454.91,200.53L465.3,209.41L466.46,213.38L471.08,225.35L472.23,227.74L478,242.82L479.16,245.65L481.47,251.92L482.62,252.67L487.24,255.66L488.4,256.4L495.32,261.43L496.48,262.4L503.41,269.81L504.56,272.22L508.02,273.55L509.18,274.71L512.64,280.23L513.8,281.03L516.11,282.53L517.26,284.26L529.96,296.59L531.12,297.48L532.27,298.32L533.42,300.17L535.73,302.12L536.89,302.58L546.13,310.28L547.28,311.93L550.74,318.25L551.9,318.25L590,318.25" style="vector-effect: non-scaling-stroke; fill: none; stroke: rgb(44, 160, 44); stroke-opacity: 1; stroke-width: 2px; opacity: 1;"/></g><g class="points"/><g class="text"/></g><g class="trace scatter trace0fe6b4" style="stroke-miterlimit: 2; opacity: 1;"><g class="fills"/><g class="errorbars"/><g class="lines"><path class="js-line" d="M0,318.25L19.63,317.71L20.78,317.12L24.25,314.25L25.4,312.93L30.02,306.42L31.17,304.49L38.1,290.7L39.26,288.1L47.34,267.68L48.49,264.49L57.73,236.82L58.88,233.08L70.43,192.63L71.59,188.2L85.44,131.71L86.59,126.69L99.3,73.46L100.45,70.01L106.22,56.5L107.38,54.42L112,47.81L113.15,46.52L117.77,42.68L118.92,42.04L123.54,40.56L124.7,40.39L129.32,40.6L130.47,40.87L137.4,43.6L138.55,44.23L144.32,48.28L145.48,49.43L151.25,56.53L152.41,58.16L161.64,72.66L162.8,74.7L177.81,102.28L178.96,103.88L185.89,112.03L187.05,113.2L195.13,119.91L196.28,120.7L214.76,133.43L215.91,134.49L226.3,143.27L227.46,144.23L259.78,171.47L260.94,172.32L290.96,193.98L292.11,194.55L305.97,200.68L307.12,201.06L329.06,208.48L330.22,208.96L341.76,213.19L342.92,213.4L348.69,213.43L349.84,213.32L364.85,210.19L366.01,209.9L382.17,204.95L383.33,204.49L397.18,198.5L398.34,197.85L416.81,187.6L417.96,187.28L422.58,186.69L423.74,186.82L428.36,188.2L429.51,188.75L441.06,194.95L442.21,195.64L451.45,202.34L452.6,203.35L460.68,211.22L461.84,212.48L472.23,225.13L473.39,226.69L487.24,247.21L488.4,249.03L502.25,269.76L503.41,271.29L514.95,284.8L516.11,286.05L527.65,297.41L528.81,298.39L539.2,306.23L540.35,306.97L550.74,312.54L551.9,313.03L562.29,316.49L563.44,316.77L572.68,318.22L573.84,318.25L590,318.25" style="vector-effect: non-scaling-stroke; fill: none; stroke: rgb(214, 39, 40); stroke-opacity: 1; stroke-width: 2px; opacity: 1;"/></g><g class="points"/><g class="text"/></g><g class="trace scatter tracee01f3c" style="stroke-miterlimit: 2; opacity: 1;"><g class="fills"/><g class="errorbars"/><g class="lines"><path class="js-line" d="M0,318.25L17.32,317.73L18.47,317.43L23.09,315.15L24.25,314.27L28.86,309.46L30.02,307.93L34.64,300.44L35.79,298.22L41.57,285.21L42.72,282.26L50.8,258.5L51.96,254.72L62.35,217.7L63.5,213.32L92.37,104.41L93.52,100.64L102.76,73.62L103.91,70.67L110.84,55.39L112,53.25L117.77,44.56L118.92,43.22L123.54,39.17L124.7,38.49L129.32,37.12L130.47,37.1L135.09,38.13L136.24,38.67L140.86,41.98L142.02,43.07L147.79,49.96L148.94,51.62L155.87,62.97L157.03,65.07L176.65,100.79L177.81,102.42L184.74,110.49L185.89,111.64L196.28,120.46L197.44,121.34L233.23,148.95L234.38,149.97L262.09,173.83L263.25,174.7L280.57,186.82L281.72,187.55L295.58,195.12L296.73,195.67L322.13,207.18L323.29,207.64L337.14,212.41L338.3,212.68L346.38,213.54L347.53,213.5L355.62,212.33L356.77,212.07L369.47,208.2L370.63,207.79L417.96,190.52L419.12,190.27L427.2,189.49L428.36,189.55L435.28,190.75L436.44,191.13L443.37,194.38L444.52,195.11L451.45,200.52L452.6,201.59L460.68,210.38L461.84,211.79L473.39,227.69L474.54,229.41L498.79,264.79L499.94,266.26L513.8,282.51L514.95,283.8L528.81,297.99L529.96,299.03L539.2,306.38L540.35,307.16L549.59,312.43L550.74,312.96L559.98,316.17L561.14,316.46L570.37,317.93L571.53,318.02L585.38,318.25L586.54,318.25L590,318.25" style="vector-effect: non-scaling-stroke; fill: none; stroke: rgb(148, 103, 189); stroke-opacity: 1; stroke-width: 2px; opacity: 1;"/></g><g class="points"/><g class="text"/></g><g class="trace scatter trace5099bb" style="stroke-miterlimit: 2; opacity: 1;"><g class="fills"/><g class="errorbars"/><g class="lines"><path class="js-line" d="M0,318.25L15.01,317.69L16.16,317.41L20.78,315.5L21.94,314.8L26.56,310.96L27.71,309.72L33.48,301.74L34.64,299.81L40.41,288.18L41.57,285.51L48.49,267.03L49.65,263.59L57.73,236.83L58.88,232.68L70.43,188.1L71.59,183.45L90.06,111.31L91.21,107.23L100.45,77.71L101.6,74.48L108.53,57.64L109.69,55.31L115.46,45.62L116.61,44.08L121.23,39.46L122.39,38.67L125.85,37.09L127.01,36.82L130.47,36.81L131.62,37.04L136.24,39.18L137.4,40.01L142.02,44.3L143.17,45.59L150.1,55.08L151.25,56.88L161.64,74.91L162.8,77L175.5,98.61L176.65,100.31L183.58,109.04L184.74,110.26L192.82,117.62L193.97,118.56L218.22,136.64L219.37,137.53L234.38,149.9L235.54,150.91L264.4,175.66L265.56,176.54L279.41,186.34L280.57,187.07L293.27,194.28L294.42,194.85L315.21,204.08L316.36,204.55L333.68,210.95L334.83,211.28L344.07,212.98L345.23,213.06L354.46,212.66L355.62,212.5L366.01,210.15L367.16,209.81L381.02,204.63L382.17,204.14L414.5,190.7L415.66,190.38L423.74,189.07L424.89,189.03L431.82,189.69L432.97,189.96L438.75,192.02L439.9,192.59L446.83,196.98L447.98,197.88L456.07,205.47L457.22,206.72L466.46,218.05L467.61,219.6L481.47,239.61L482.62,241.34L501.1,267.58L502.25,269.06L516.11,285.43L517.26,286.69L528.81,298.3L529.96,299.33L540.35,307.31L541.51,308.05L550.74,312.91L551.9,313.39L561.14,316.28L562.29,316.53L572.68,317.95L573.84,318.03L590,318.25" style="vector-effect: non-scaling-stroke; fill: none; stroke: rgb(140, 86, 75); stroke-opacity: 1; stroke-width: 2px; opacity: 1;"/></g><g class="points"/><g class="text"/></g><g class="trace scatter trace89a6c4" style="stroke-miterlimit: 2; opacity: 1;"><g class="fills"/><g class="errorbars"/><g class="lines"><path class="js-line" d="M0,318.25L24.25,317.52L25.4,316.78L28.86,312.84L30.02,311.05L34.64,302.1L35.79,299.42L42.72,280.8L43.87,277.31L53.11,246.81L54.27,242.77L77.36,157.75L78.51,153.5L91.21,110.15L92.37,106.54L100.45,83.61L101.6,80.67L109.69,61.98L110.84,59.69L117.77,48.1L118.92,46.58L123.54,41.7L124.7,40.8L129.32,38.38L130.47,38.06L133.93,37.84L135.09,38.01L139.71,39.69L140.86,40.32L145.48,43.76L146.63,44.92L151.25,50.81L152.41,52.61L158.18,63.23L159.33,65.66L173.19,96.72L174.34,98.51L181.27,107.33L182.43,108.54L191.66,117L192.82,117.92L234.38,150.11L235.54,151.19L254.01,167.8L255.17,168.66L284.03,188.68L285.19,189.3L324.44,208.71L325.6,209.17L338.3,213.68L339.45,214L345.23,214.76L346.38,214.71L352.15,213.53L353.31,213.15L378.71,203.27L379.86,202.95L401.8,196.56L402.95,196.15L416.81,191.87L417.96,191.65L430.67,190.26L431.82,190.35L437.59,191.54L438.75,191.95L445.68,195.54L446.83,196.32L453.76,202.15L454.91,203.32L462.99,212.62L464.15,214.13L474.54,229.15L475.69,230.95L494.17,259.7L495.32,261.16L505.71,272.87L506.87,274.16L527.65,296.33L528.81,297.42L539.2,305.98L540.35,306.82L549.59,312.41L550.74,312.99L559.98,316.59L561.14,316.92L568.06,318.22L569.22,318.25L590,318.25" style="vector-effect: non-scaling-stroke; fill: none; stroke: rgb(227, 119, 194); stroke-opacity: 1; stroke-width: 2px; opacity: 1;"/></g><g class="points"/><g class="text"/></g></g></g><g class="overplot"/><path class="xlines-above crisp" d="M0,0" style="fill: none;"/><path class="ylines-above crisp" d="M0,0" style="fill: none;"/><g class="overlines-above"/><g class="xaxislayer-above"><g class="xtick"><text text-anchor="middle" x="0" y="373" transform="translate(136.18,0)" style="font-family: 'Open Sans', verdana, arial, sans-serif; font-size: 12px; fill: rgb(68, 68, 68); fill-opacity: 1; white-space: pre;">0</text></g><g class="xtick"><text text-anchor="middle" x="0" y="373" transform="translate(308.9,0)" style="font-family: 'Open Sans', verdana, arial, sans-serif; font-size: 12px; fill: rgb(68, 68, 68); fill-opacity: 1; white-space: pre;">5k</text></g><g class="xtick"><text text-anchor="middle" x="0" y="373" transform="translate(481.63,0)" style="font-family: 'Open Sans', verdana, arial, sans-serif; font-size: 12px; fill: rgb(68, 68, 68); fill-opacity: 1; white-space: pre;">10k</text></g></g><g class="yaxislayer-above"><g class="ytick"><text text-anchor="end" x="59" y="4.199999999999999" transform="translate(0,343.25)" style="font-family: 'Open Sans', verdana, arial, sans-serif; font-size: 12px; fill: rgb(68, 68, 68); fill-opacity: 1; white-space: pre;">0</text></g><g class="ytick"><text text-anchor="end" x="59" y="4.199999999999999" transform="translate(0,301.87)" style="font-family: 'Open Sans', verdana, arial, sans-serif; font-size: 12px; fill: rgb(68, 68, 68); fill-opacity: 1; white-space: pre;">20μ</text></g><g class="ytick"><text text-anchor="end" x="59" y="4.199999999999999" transform="translate(0,260.49)" style="font-family: 'Open Sans', verdana, arial, sans-serif; font-size: 12px; fill: rgb(68, 68, 68); fill-opacity: 1; white-space: pre;">40μ</text></g><g class="ytick"><text text-anchor="end" x="59" y="4.199999999999999" transform="translate(0,219.11)" style="font-family: 'Open Sans', verdana, arial, sans-serif; font-size: 12px; fill: rgb(68, 68, 68); fill-opacity: 1; white-space: pre;">60μ</text></g><g class="ytick"><text text-anchor="end" x="59" y="4.199999999999999" transform="translate(0,177.73)" style="font-family: 'Open Sans', verdana, arial, sans-serif; font-size: 12px; fill: rgb(68, 68, 68); fill-opacity: 1; white-space: pre;">80μ</text></g><g class="ytick"><text text-anchor="end" x="59" y="4.199999999999999" transform="translate(0,136.34)" style="font-family: 'Open Sans', verdana, arial, sans-serif; font-size: 12px; fill: rgb(68, 68, 68); fill-opacity: 1; white-space: pre;">100μ</text></g><g class="ytick"><text text-anchor="end" x="59" y="4.199999999999999" transform="translate(0,94.96)" style="font-family: 'Open Sans', verdana, arial, sans-serif; font-size: 12px; fill: rgb(68, 68, 68); fill-opacity: 1; white-space: pre;">120μ</text></g><g class="ytick"><text text-anchor="end" x="59" y="4.199999999999999" transform="translate(0,53.58)" style="font-family: 'Open Sans', verdana, arial, sans-serif; font-size: 12px; fill: rgb(68, 68, 68); fill-opacity: 1; white-space: pre;">140μ</text></g></g><g class="overaxes-above"/></g></g><g class="polarlayer"/><g class="ternarylayer"/><g class="geolayer"/><g class="pielayer"/><g class="glimages"/><defs id="topdefs-0bc15b"><g class="clips"/><clipPath id="legend0bc15b"><rect width="128" height="143" x="0" y="0"/></clipPath></defs><g class="layer-above"><g class="imagelayer"/><g class="shapelayer"/></g><g class="infolayer"><g class="legend" pointer-events="all" transform="translate(661.8, 25)"><rect class="bg" shape-rendering="crispEdges" style="stroke: rgb(68, 68, 68); stroke-opacity: 1; fill: rgb(255, 255, 255); fill-opacity: 1; stroke-width: 0px;" width="128" height="143" x="0" y="0"/><g class="scrollbox" transform="translate(0, 0)" clip-path="url(#legend0bc15b)"><g class="groups"><g class="traces" transform="translate(0, 14.5)" style="opacity: 1;"><g class="layers" style="opacity: 1;"><g class="legendfill"/><g class="legendlines"><path class="js-line" d="M5,0h30" style="fill: none; stroke: rgb(31, 119, 180); stroke-opacity: 1; stroke-width: 2px;"/></g><g class="legendsymbols"><g class="legendpoints"/></g></g><text class="legendtext user-select-none" text-anchor="start" x="40" y="4.680000000000001" style="font-family: 'Open Sans', verdana, arial, sans-serif; font-size: 12px; fill: rgb(68, 68, 68); fill-opacity: 1; white-space: pre;">gaussian</text><rect class="legendtoggle" pointer-events="all" style="cursor: pointer; fill: rgb(0, 0, 0); fill-opacity: 0;" x="0" y="-9.5" width="168" height="19"/></g><g class="traces" transform="translate(0, 33.5)" style="opacity: 1;"><g class="layers" style="opacity: 1;"><g class="legendfill"/><g class="legendlines"><path class="js-line" d="M5,0h30" style="fill: none; stroke: rgb(255, 127, 14); stroke-opacity: 1; stroke-width: 2px;"/></g><g class="legendsymbols"><g class="legendpoints"/></g></g><text class="legendtext user-select-none" text-anchor="start" x="40" y="4.680000000000001" style="font-family: 'Open Sans', verdana, arial, sans-serif; font-size: 12px; fill: rgb(68, 68, 68); fill-opacity: 1; white-space: pre;">epanechnikov</text><rect class="legendtoggle" pointer-events="all" style="cursor: pointer; fill: rgb(0, 0, 0); fill-opacity: 0;" x="0" y="-9.5" width="168" height="19"/></g><g class="traces" transform="translate(0, 52.5)" style="opacity: 1;"><g class="layers" style="opacity: 1;"><g class="legendfill"/><g class="legendlines"><path class="js-line" d="M5,0h30" style="fill: none; stroke: rgb(44, 160, 44); stroke-opacity: 1; stroke-width: 2px;"/></g><g class="legendsymbols"><g class="legendpoints"/></g></g><text class="legendtext user-select-none" text-anchor="start" x="40" y="4.680000000000001" style="font-family: 'Open Sans', verdana, arial, sans-serif; font-size: 12px; fill: rgb(68, 68, 68); fill-opacity: 1; white-space: pre;">rectangular</text><rect class="legendtoggle" pointer-events="all" style="cursor: pointer; fill: rgb(0, 0, 0); fill-opacity: 0;" x="0" y="-9.5" width="168" height="19"/></g><g class="traces" transform="translate(0, 71.5)" style="opacity: 1;"><g class="layers" style="opacity: 1;"><g class="legendfill"/><g class="legendlines"><path class="js-line" d="M5,0h30" style="fill: none; stroke: rgb(214, 39, 40); stroke-opacity: 1; stroke-width: 2px;"/></g><g class="legendsymbols"><g class="legendpoints"/></g></g><text class="legendtext user-select-none" text-anchor="start" x="40" y="4.680000000000001" style="font-family: 'Open Sans', verdana, arial, sans-serif; font-size: 12px; fill: rgb(68, 68, 68); fill-opacity: 1; white-space: pre;">triangular</text><rect class="legendtoggle" pointer-events="all" style="cursor: pointer; fill: rgb(0, 0, 0); fill-opacity: 0;" x="0" y="-9.5" width="168" height="19"/></g><g class="traces" transform="translate(0, 90.5)" style="opacity: 1;"><g class="layers" style="opacity: 1;"><g class="legendfill"/><g class="legendlines"><path class="js-line" d="M5,0h30" style="fill: none; stroke: rgb(148, 103, 189); stroke-opacity: 1; stroke-width: 2px;"/></g><g class="legendsymbols"><g class="legendpoints"/></g></g><text class="legendtext user-select-none" text-anchor="start" x="40" y="4.680000000000001" style="font-family: 'Open Sans', verdana, arial, sans-serif; font-size: 12px; fill: rgb(68, 68, 68); fill-opacity: 1; white-space: pre;">biweight</text><rect class="legendtoggle" pointer-events="all" style="cursor: pointer; fill: rgb(0, 0, 0); fill-opacity: 0;" x="0" y="-9.5" width="168" height="19"/></g><g class="traces" transform="translate(0, 109.5)" style="opacity: 1;"><g class="layers" style="opacity: 1;"><g class="legendfill"/><g class="legendlines"><path class="js-line" d="M5,0h30" style="fill: none; stroke: rgb(140, 86, 75); stroke-opacity: 1; stroke-width: 2px;"/></g><g class="legendsymbols"><g class="legendpoints"/></g></g><text class="legendtext user-select-none" text-anchor="start" x="40" y="4.680000000000001" style="font-family: 'Open Sans', verdana, arial, sans-serif; font-size: 12px; fill: rgb(68, 68, 68); fill-opacity: 1; white-space: pre;">cosine</text><rect class="legendtoggle" pointer-events="all" style="cursor: pointer; fill: rgb(0, 0, 0); fill-opacity: 0;" x="0" y="-9.5" width="168" height="19"/></g><g class="traces" transform="translate(0, 128.5)" style="opacity: 1;"><g class="layers" style="opacity: 1;"><g class="legendfill"/><g class="legendlines"><path class="js-line" d="M5,0h30" style="fill: none; stroke: rgb(227, 119, 194); stroke-opacity: 1; stroke-width: 2px;"/></g><g class="legendsymbols"><g class="legendpoints"/></g></g><text class="legendtext user-select-none" text-anchor="start" x="40" y="4.680000000000001" style="font-family: 'Open Sans', verdana, arial, sans-serif; font-size: 12px; fill: rgb(68, 68, 68); fill-opacity: 1; white-space: pre;">optcosine</text><rect class="legendtoggle" pointer-events="all" x="0" y="-9.5" width="168" height="19" style="cursor: pointer; fill: rgb(0, 0, 0); fill-opacity: 0;"/></g></g></g><rect class="scrollbar" rx="20" ry="3" width="0" height="0" style="fill: rgb(128, 139, 164); fill-opacity: 1;" x="0" y="0"/></g><g class="g-gtitle"/><g class="g-xtitle"/><g class="g-ytitle"/></g></svg>