<svg class="main-svg" xmlns="http://www.w3.org/2000/svg" xmlns:xlink="http://www.w3.org/1999/xlink" width="600" height="800" viewBox="0 0 600 800"><rect x="0" y="0" width="600" height="800" style="fill: rgb(255, 255, 255); fill-opacity: 1;"/><defs id="defs-67c29a"><g class="clips"><clipPath id="clip67c29axyplot" class="plotclip"><rect width="291" height="735"/></clipPath><clipPath class="axesclip" id="clip67c29ax"><rect x="167" y="0" width="291" height="800"/></clipPath><clipPath class="axesclip" id="clip67c29ay"><rect x="0" y="25" width="600" height="735"/></clipPath><clipPath class="axesclip" id="clip67c29axy"><rect x="167" y="25" width="291" height="735"/></clipPath></g><g class="gradients"/></defs><g class="bglayer"/><g class="layer-below"><g class="imagelayer"/><g class="shapelayer"/></g><g class="cartesianlayer"><g class="subplot xy"><g class="layer-subplot"><g class="shapelayer"/><g class="imagelayer"/></g><g class="gridlayer"><g class="x"><path class="xgrid crisp" d="M0,25v735" transform="translate(170.34,0)" style="stroke: rgb(238, 238, 238); stroke-opacity: 1; stroke-width: 1px;"/><path class="xgrid crisp" d="M0,25v735" transform="translate(282.57,0)" style="stroke: rgb(238, 238, 238); stroke-opacity: 1; stroke-width: 1px;"/><path class="xgrid crisp" d="M0,25v735" transform="translate(394.81,0)" style="stroke: rgb(238, 238, 238); stroke-opacity: 1; stroke-width: 1px;"/></g><g class="y"><path class="ygrid crisp" d="M167,0h291" transform="translate(0,719.5)" style="stroke: rgb(238, 238, 238); stroke-opacity: 1; stroke-width: 1px;"/><path class="ygrid crisp" d="M167,0h291" transform="translate(0,701.82)" style="stroke: rgb(238, 238, 238); stroke-opacity: 1; stroke-width: 1px;"/><path class="ygrid crisp" d="M167,0h291" transform="translate(0,684.15)" style="stroke: rgb(238, 238, 238); stroke-opacity: 1; stroke-width: 1px;"/><path class="ygrid crisp" d="M167,0h291" transform="translate(0,666.47)" style="stroke: rgb(238, 238, 238); stroke-opacity: 1; stroke-width: 1px;"/><path class="ygrid crisp" d="M167,0h291" transform="translate(0,648.8)" style="stroke: rgb(238, 238, 238); stroke-opacity: 1; stroke-width: 1px;"/><path class="ygrid crisp" d="M167,0h291" transform="translate(0,631.12)" style="stroke: rgb(238, 238, 238); stroke-opacity: 1; stroke-width: 1px;"/><path class="ygrid crisp" d="M167,0h291" transform="translate(0,613.45)" style="stroke: rgb(238, 238, 238); stroke-opacity: 1; stroke-width: 1px;"/><path class="ygrid crisp" d="M167,0h291" transform="translate(0,595.77)" style="stroke: rgb(238, 238, 238); stroke-opacity: 1; stroke-width: 1px;"/><path class="ygrid crisp" d="M167,0h291" transform="translate(0,578.09)" style="stroke: rgb(238, 238, 238); stroke-opacity: 1; stroke-width: 1px;"/><path class="ygrid crisp" d="M167,0h291" transform="translate(0,560.42)" style="stroke: rgb(238, 238, 238); stroke-opacity: 1; stroke-width: 1px;"/><path class="ygrid crisp" d="M167,0h291" transform="translate(0,542.74)" style="stroke: rgb(238, 238, 238); stroke-opacity: 1; stroke-width: 1px;"/><path class="ygrid crisp" d="M167,0h291" transform="translate(0,525.0699999999999)" style="stroke: rgb(238, 238, 238); stroke-opacity: 1; stroke-width: 1px;"/><path class="ygrid crisp" d="M167,0h291" transform="translate(0,507.39)" style="stroke: rgb(238, 238, 238); stroke-opacity: 1; stroke-width: 1px;"/><path class="ygrid crisp" d="M167,0h291" transform="translate(0,489.72)" style="stroke: rgb(238, 238, 238); stroke-opacity: 1; stroke-width: 1px;"/><path class="ygrid crisp" d="M167,0h291" transform="translate(0,472.04)" style="stroke: rgb(238, 238, 238); stroke-opacity: 1; stroke-width: 1px;"/><path class="ygrid crisp" d="M167,0h291" transform="translate(0,454.36)" style="stroke: rgb(238, 238, 238); stroke-opacity: 1; stroke-width: 1px;"/><path class="ygrid crisp" d="M167,0h291" transform="translate(0,436.69)" style="stroke: rgb(238, 238, 238); stroke-opacity: 1; stroke-width: 1px;"/><path class="ygrid crisp" d="M167,0h291" transform="translate(0,419.01)" style="stroke: rgb(238, 238, 238); stroke-opacity: 1; stroke-width: 1px;"/><path class="ygrid crisp" d="M167,0h291" transform="translate(0,401.34)" style="stroke: rgb(238, 238, 238); stroke-opacity: 1; stroke-width: 1px;"/><path class="ygrid crisp" d="M167,0h291" transform="translate(0,383.66)" style="stroke: rgb(238, 238, 238); stroke-opacity: 1; stroke-width: 1px;"/><path class="ygrid crisp" d="M167,0h291" transform="translate(0,365.99)" style="stroke: rgb(238, 238, 238); stroke-opacity: 1; stroke-width: 1px;"/><path class="ygrid crisp" d="M167,0h291" transform="translate(0,348.31)" style="stroke: rgb(238, 238, 238); stroke-opacity: 1; stroke-width: 1px;"/><path class="ygrid crisp" d="M167,0h291" transform="translate(0,330.64)" style="stroke: rgb(238, 238, 238); stroke-opacity: 1; stroke-width: 1px;"/><path class="ygrid crisp" d="M167,0h291" transform="translate(0,312.96)" style="stroke: rgb(238, 238, 238); stroke-opacity: 1; stroke-width: 1px;"/><path class="ygrid crisp" d="M167,0h291" transform="translate(0,295.28)" style="stroke: rgb(238, 238, 238); stroke-opacity: 1; stroke-width: 1px;"/><path class="ygrid crisp" d="M167,0h291" transform="translate(0,277.61)" style="stroke: rgb(238, 238, 238); stroke-opacity: 1; stroke-width: 1px;"/><path class="ygrid crisp" d="M167,0h291" transform="translate(0,259.93)" style="stroke: rgb(238, 238, 238); stroke-opacity: 1; stroke-width: 1px;"/><path class="ygrid crisp" d="M167,0h291" transform="translate(0,242.26)" style="stroke: rgb(238, 238, 238); stroke-opacity: 1; stroke-width: 1px;"/><path class="ygrid crisp" d="M167,0h291" transform="translate(0,224.58)" style="stroke: rgb(238, 238, 238); stroke-opacity: 1; stroke-width: 1px;"/><path class="ygrid crisp" d="M167,0h291" transform="translate(0,206.91)" style="stroke: rgb(238, 238, 238); stroke-opacity: 1; stroke-width: 1px;"/><path class="ygrid crisp" d="M167,0h291" transform="translate(0,189.23)" style="stroke: rgb(238, 238, 238); stroke-opacity: 1; stroke-width: 1px;"/><path class="ygrid crisp" d="M167,0h291" transform="translate(0,171.55)" style="stroke: rgb(238, 238, 238); stroke-opacity: 1; stroke-width: 1px;"/><path class="ygrid crisp" d="M167,0h291" transform="translate(0,153.88)" style="stroke: rgb(238, 238, 238); stroke-opacity: 1; stroke-width: 1px;"/><path class="ygrid crisp" d="M167,0h291" transform="translate(0,136.2)" style="stroke: rgb(238, 238, 238); stroke-opacity: 1; stroke-width: 1px;"/><path class="ygrid crisp" d="M167,0h291" transform="translate(0,118.53)" style="stroke: rgb(238, 238, 238); stroke-opacity: 1; stroke-width: 1px;"/><path class="ygrid crisp" d="M167,0h291" transform="translate(0,100.85)" style="stroke: rgb(238, 238, 238); stroke-opacity: 1; stroke-width: 1px;"/><path class="ygrid crisp" d="M167,0h291" transform="translate(0,83.18)" style="stroke: rgb(238, 238, 238); stroke-opacity: 1; stroke-width: 1px;"/><path class="ygrid crisp" d="M167,0h291" transform="translate(0,65.5)" style="stroke: rgb(238, 238, 238); stroke-opacity: 1; stroke-width: 1px;"/></g></g><g class="zerolinelayer"/><path class="xlines-below"/><path class="ylines-below"/><g class="overlines-below"/><g class="xaxislayer-below"/><g class="yaxislayer-below"/><g class="overaxes-below"/><g class="plot" transform="translate(167, 25)" clip-path="url(#clip67c29axyplot)"><g class="scatterlayer mlayer"><g class="trace scatter trace640c91" style="stroke-miterlimit: 2; opacity: 1;"><g class="fills"/><g class="errorbars"/><g class="lines"><path class="js-line" d="M61.32,447.04L102.48,447.04" style="vector-effect: non-scaling-stroke; fill: none; stroke: rgb(190, 190, 190); stroke-opacity: 1; stroke-width: 2px; opacity: 1;"/><path class="js-line" d="M102.74,217.26L208.57,217.26" style="vector-effect: non-scaling-stroke; fill: none; stroke: rgb(190, 190, 190); stroke-opacity: 1; stroke-width: 2px; opacity: 1;"/><path class="js-line" d="M83.3,323.31L180.11,323.31" style="vector-effect: non-scaling-stroke; fill: none; stroke: rgb(190, 190, 190); stroke-opacity: 1; stroke-width: 2px; opacity: 1;"/><path class="js-line" d="M70.68,358.66L160.46,358.66" style="vector-effect: non-scaling-stroke; fill: none; stroke: rgb(190, 190, 190); stroke-opacity: 1; stroke-width: 2px; opacity: 1;"/><path class="js-line" d="M123.05,111.2L212.84,111.2" style="vector-effect: non-scaling-stroke; fill: none; stroke: rgb(190, 190, 190); stroke-opacity: 1; stroke-width: 2px; opacity: 1;"/><path class="js-line" d="M34.76,553.09L90.88,553.09" style="vector-effect: non-scaling-stroke; fill: none; stroke: rgb(190, 190, 190); stroke-opacity: 1; stroke-width: 2px; opacity: 1;"/><path class="js-line" d="M113.97,164.23L208.57,164.23" style="vector-effect: non-scaling-stroke; fill: none; stroke: rgb(190, 190, 190); stroke-opacity: 1; stroke-width: 2px; opacity: 1;"/><path class="js-line" d="M113.97,146.55L206.96,146.55" style="vector-effect: non-scaling-stroke; fill: none; stroke: rgb(190, 190, 190); stroke-opacity: 1; stroke-width: 2px; opacity: 1;"/><path class="js-line" d="M68.64,394.01L142.1,394.01" style="vector-effect: non-scaling-stroke; fill: none; stroke: rgb(190, 190, 190); stroke-opacity: 1; stroke-width: 2px; opacity: 1;"/><path class="js-line" d="M165.45,58.18L256.49,58.18" style="vector-effect: non-scaling-stroke; fill: none; stroke: rgb(190, 190, 190); stroke-opacity: 1; stroke-width: 2px; opacity: 1;"/><path class="js-line" d="M178.42,40.5L272.7,40.5" style="vector-effect: non-scaling-stroke; fill: none; stroke: rgb(190, 190, 190); stroke-opacity: 1; stroke-width: 2px; opacity: 1;"/><path class="js-line" d="M63.94,429.36L169.44,429.36" style="vector-effect: non-scaling-stroke; fill: none; stroke: rgb(190, 190, 190); stroke-opacity: 1; stroke-width: 2px; opacity: 1;"/><path class="js-line" d="M34.51,570.77L81.9,570.77" style="vector-effect: non-scaling-stroke; fill: none; stroke: rgb(190, 190, 190); stroke-opacity: 1; stroke-width: 2px; opacity: 1;"/><path class="js-line" d="M24.18,623.8L70.68,623.8" style="vector-effect: non-scaling-stroke; fill: none; stroke: rgb(190, 190, 190); stroke-opacity: 1; stroke-width: 2px; opacity: 1;"/><path class="js-line" d="M18.3,694.5L85.64,694.5" style="vector-effect: non-scaling-stroke; fill: none; stroke: rgb(190, 190, 190); stroke-opacity: 1; stroke-width: 2px; opacity: 1;"/><path class="js-line" d="M44.49,482.39L93.12,482.39" style="vector-effect: non-scaling-stroke; fill: none; stroke: rgb(190, 190, 190); stroke-opacity: 1; stroke-width: 2px; opacity: 1;"/><path class="js-line" d="M37.01,535.42L75.49,535.42" style="vector-effect: non-scaling-stroke; fill: none; stroke: rgb(190, 190, 190); stroke-opacity: 1; stroke-width: 2px; opacity: 1;"/><path class="js-line" d="M102.48,234.93L171.69,234.93" style="vector-effect: non-scaling-stroke; fill: none; stroke: rgb(190, 190, 190); stroke-opacity: 1; stroke-width: 2px; opacity: 1;"/><path class="js-line" d="M42.62,500.07L88.91,500.07" style="vector-effect: non-scaling-stroke; fill: none; stroke: rgb(190, 190, 190); stroke-opacity: 1; stroke-width: 2px; opacity: 1;"/><path class="js-line" d="M81.9,340.99L187.4,340.99" style="vector-effect: non-scaling-stroke; fill: none; stroke: rgb(190, 190, 190); stroke-opacity: 1; stroke-width: 2px; opacity: 1;"/><path class="js-line" d="M115.57,128.88L198.62,128.88" style="vector-effect: non-scaling-stroke; fill: none; stroke: rgb(190, 190, 190); stroke-opacity: 1; stroke-width: 2px; opacity: 1;"/><path class="js-line" d="M111.36,181.91L182.91,181.91" style="vector-effect: non-scaling-stroke; fill: none; stroke: rgb(190, 190, 190); stroke-opacity: 1; stroke-width: 2px; opacity: 1;"/><path class="js-line" d="M129.29,93.53L217.83,93.53" style="vector-effect: non-scaling-stroke; fill: none; stroke: rgb(190, 190, 190); stroke-opacity: 1; stroke-width: 2px; opacity: 1;"/><path class="js-line" d="M31.39,588.45L73.48,588.45" style="vector-effect: non-scaling-stroke; fill: none; stroke: rgb(190, 190, 190); stroke-opacity: 1; stroke-width: 2px; opacity: 1;"/><path class="js-line" d="M25.78,606.12L76.29,606.12" style="vector-effect: non-scaling-stroke; fill: none; stroke: rgb(190, 190, 190); stroke-opacity: 1; stroke-width: 2px; opacity: 1;"/><path class="js-line" d="M102.1,252.61L200.87,252.61" style="vector-effect: non-scaling-stroke; fill: none; stroke: rgb(190, 190, 190); stroke-opacity: 1; stroke-width: 2px; opacity: 1;"/><path class="js-line" d="M100.61,270.28L175.43,270.28" style="vector-effect: non-scaling-stroke; fill: none; stroke: rgb(190, 190, 190); stroke-opacity: 1; stroke-width: 2px; opacity: 1;"/><path class="js-line" d="M39.81,517.74L93.12,517.74" style="vector-effect: non-scaling-stroke; fill: none; stroke: rgb(190, 190, 190); stroke-opacity: 1; stroke-width: 2px; opacity: 1;"/><path class="js-line" d="M69.43,376.34L151.74,376.34" style="vector-effect: non-scaling-stroke; fill: none; stroke: rgb(190, 190, 190); stroke-opacity: 1; stroke-width: 2px; opacity: 1;"/><path class="js-line" d="M18.3,676.82L81.9,676.82" style="vector-effect: non-scaling-stroke; fill: none; stroke: rgb(190, 190, 190); stroke-opacity: 1; stroke-width: 2px; opacity: 1;"/><path class="js-line" d="M160.46,75.85L259.61,75.85" style="vector-effect: non-scaling-stroke; fill: none; stroke: rgb(190, 190, 190); stroke-opacity: 1; stroke-width: 2px; opacity: 1;"/><path class="js-line" d="M99.54,287.96L200.55,287.96" style="vector-effect: non-scaling-stroke; fill: none; stroke: rgb(190, 190, 190); stroke-opacity: 1; stroke-width: 2px; opacity: 1;"/><path class="js-line" d="M45.42,464.72L93.12,464.72" style="vector-effect: non-scaling-stroke; fill: none; stroke: rgb(190, 190, 190); stroke-opacity: 1; stroke-width: 2px; opacity: 1;"/><path class="js-line" d="M19.05,659.15L62.82,659.15" style="vector-effect: non-scaling-stroke; fill: none; stroke: rgb(190, 190, 190); stroke-opacity: 1; stroke-width: 2px; opacity: 1;"/><path class="js-line" d="M20.17,641.47L76.29,641.47" style="vector-effect: non-scaling-stroke; fill: none; stroke: rgb(190, 190, 190); stroke-opacity: 1; stroke-width: 2px; opacity: 1;"/><path class="js-line" d="M104.35,199.58L202.15,199.58" style="vector-effect: non-scaling-stroke; fill: none; stroke: rgb(190, 190, 190); stroke-opacity: 1; stroke-width: 2px; opacity: 1;"/><path class="js-line" d="M96.33,305.64L182.91,305.64" style="vector-effect: non-scaling-stroke; fill: none; stroke: rgb(190, 190, 190); stroke-opacity: 1; stroke-width: 2px; opacity: 1;"/><path class="js-line" d="M65.87,411.69L109.16,411.69" style="vector-effect: non-scaling-stroke; fill: none; stroke: rgb(190, 190, 190); stroke-opacity: 1; stroke-width: 2px; opacity: 1;"/></g><g class="points"/><g class="text"/></g><g class="trace scatter trace42e248" style="stroke-miterlimit: 2; opacity: 1;"><g class="fills"/><g class="errorbars"/><g class="lines"/><g class="points"><path class="point" transform="translate(61.32,447.04)" d="M3,0A3,3 0 1,1 0,-3A3,3 0 0,1 3,0Z" style="opacity: 1; stroke-width: 0px; fill: rgb(0, 0, 255); fill-opacity: 1;"/><path class="point" transform="translate(102.74,217.26)" d="M3,0A3,3 0 1,1 0,-3A3,3 0 0,1 3,0Z" style="opacity: 1; stroke-width: 0px; fill: rgb(0, 0, 255); fill-opacity: 1;"/><path class="point" transform="translate(83.3,323.31)" d="M3,0A3,3 0 1,1 0,-3A3,3 0 0,1 3,0Z" style="opacity: 1; stroke-width: 0px; fill: rgb(0, 0, 255); fill-opacity: 1;"/><path class="point" transform="translate(70.68,358.66)" d="M3,0A3,3 0 1,1 0,-3A3,3 0 0,1 3,0Z" style="opacity: 1; stroke-width: 0px; fill: rgb(0, 0, 255); fill-opacity: 1;"/><path class="point" transform="translate(123.05,111.2)" d="M3,0A3,3 0 1,1 0,-3A3,3 0 0,1 3,0Z" style="opacity: 1; stroke-width: 0px; fill: rgb(0, 0, 255); fill-opacity: 1;"/><path class="point" transform="translate(34.76,553.09)" d="M3,0A3,3 0 1,1 0,-3A3,3 0 0,1 3,0Z" style="opacity: 1; stroke-width: 0px; fill: rgb(0, 0, 255); fill-opacity: 1;"/><path class="point" transform="translate(113.97,164.23)" d="M3,0A3,3 0 1,1 0,-3A3,3 0 0,1 3,0Z" style="opacity: 1; stroke-width: 0px; fill: rgb(0, 0, 255); fill-opacity: 1;"/><path class="point" transform="translate(113.97,146.55)" d="M3,0A3,3 0 1,1 0,-3A3,3 0 0,1 3,0Z" style="opacity: 1; stroke-width: 0px; fill: rgb(0, 0, 255); fill-opacity: 1;"/><path class="point" transform="translate(68.64,394.01)" d="M3,0A3,3 0 1,1 0,-3A3,3 0 0,1 3,0Z" style="opacity: 1; stroke-width: 0px; fill: rgb(0, 0, 255); fill-opacity: 1;"/><path class="point" transform="translate(165.45,58.18)" d="M3,0A3,3 0 1,1 0,-3A3,3 0 0,1 3,0Z" style="opacity: 1; stroke-width: 0px; fill: rgb(0, 0, 255); fill-opacity: 1;"/><path class="point" transform="translate(178.42,40.5)" d="M3,0A3,3 0 1,1 0,-3A3,3 0 0,1 3,0Z" style="opacity: 1; stroke-width: 0px; fill: rgb(0, 0, 255); fill-opacity: 1;"/><path class="point" transform="translate(63.94,429.36)" d="M3,0A3,3 0 1,1 0,-3A3,3 0 0,1 3,0Z" style="opacity: 1; stroke-width: 0px; fill: rgb(0, 0, 255); fill-opacity: 1;"/><path class="point" transform="translate(34.51,570.77)" d="M3,0A3,3 0 1,1 0,-3A3,3 0 0,1 3,0Z" style="opacity: 1; stroke-width: 0px; fill: rgb(0, 0, 255); fill-opacity: 1;"/><path class="point" transform="translate(24.18,623.8)" d="M3,0A3,3 0 1,1 0,-3A3,3 0 0,1 3,0Z" style="opacity: 1; stroke-width: 0px; fill: rgb(0, 0, 255); fill-opacity: 1;"/><path class="point" transform="translate(18.3,694.5)" d="M3,0A3,3 0 1,1 0,-3A3,3 0 0,1 3,0Z" style="opacity: 1; stroke-width: 0px; fill: rgb(0, 0, 255); fill-opacity: 1;"/><path class="point" transform="translate(44.49,482.39)" d="M3,0A3,3 0 1,1 0,-3A3,3 0 0,1 3,0Z" style="opacity: 1; stroke-width: 0px; fill: rgb(0, 0, 255); fill-opacity: 1;"/><path class="point" transform="translate(37.01,535.42)" d="M3,0A3,3 0 1,1 0,-3A3,3 0 0,1 3,0Z" style="opacity: 1; stroke-width: 0px; fill: rgb(0, 0, 255); fill-opacity: 1;"/><path class="point" transform="translate(102.48,234.93)" d="M3,0A3,3 0 1,1 0,-3A3,3 0 0,1 3,0Z" style="opacity: 1; stroke-width: 0px; fill: rgb(0, 0, 255); fill-opacity: 1;"/><path class="point" transform="translate(42.62,500.07)" d="M3,0A3,3 0 1,1 0,-3A3,3 0 0,1 3,0Z" style="opacity: 1; stroke-width: 0px; fill: rgb(0, 0, 255); fill-opacity: 1;"/><path class="point" transform="translate(81.9,340.99)" d="M3,0A3,3 0 1,1 0,-3A3,3 0 0,1 3,0Z" style="opacity: 1; stroke-width: 0px; fill: rgb(0, 0, 255); fill-opacity: 1;"/><path class="point" transform="translate(115.57,128.88)" d="M3,0A3,3 0 1,1 0,-3A3,3 0 0,1 3,0Z" style="opacity: 1; stroke-width: 0px; fill: rgb(0, 0, 255); fill-opacity: 1;"/><path class="point" transform="translate(111.36,181.91)" d="M3,0A3,3 0 1,1 0,-3A3,3 0 0,1 3,0Z" style="opacity: 1; stroke-width: 0px; fill: rgb(0, 0, 255); fill-opacity: 1;"/><path class="point" transform="translate(129.29,93.53)" d="M3,0A3,3 0 1,1 0,-3A3,3 0 0,1 3,0Z" style="opacity: 1; stroke-width: 0px; fill: rgb(0, 0, 255); fill-opacity: 1;"/><path class="point" transform="translate(31.39,588.45)" d="M3,0A3,3 0 1,1 0,-3A3,3 0 0,1 3,0Z" style="opacity: 1; stroke-width: 0px; fill: rgb(0, 0, 255); fill-opacity: 1;"/><path class="point" transform="translate(25.78,606.12)" d="M3,0A3,3 0 1,1 0,-3A3,3 0 0,1 3,0Z" style="opacity: 1; stroke-width: 0px; fill: rgb(0, 0, 255); fill-opacity: 1;"/><path class="point" transform="translate(102.1,252.61)" d="M3,0A3,3 0 1,1 0,-3A3,3 0 0,1 3,0Z" style="opacity: 1; stroke-width: 0px; fill: rgb(0, 0, 255); fill-opacity: 1;"/><path class="point" transform="translate(100.61,270.28)" d="M3,0A3,3 0 1,1 0,-3A3,3 0 0,1 3,0Z" style="opacity: 1; stroke-width: 0px; fill: rgb(0, 0, 255); fill-opacity: 1;"/><path class="point" transform="translate(39.81,517.74)" d="M3,0A3,3 0 1,1 0,-3A3,3 0 0,1 3,0Z" style="opacity: 1; stroke-width: 0px; fill: rgb(0, 0, 255); fill-opacity: 1;"/><path class="point" transform="translate(69.43,376.34)" d="M3,0A3,3 0 1,1 0,-3A3,3 0 0,1 3,0Z" style="opacity: 1; stroke-width: 0px; fill: rgb(0, 0, 255); fill-opacity: 1;"/><path class="point" transform="translate(18.3,676.82)" d="M3,0A3,3 0 1,1 0,-3A3,3 0 0,1 3,0Z" style="opacity: 1; stroke-width: 0px; fill: rgb(0, 0, 255); fill-opacity: 1;"/><path class="point" transform="translate(160.46,75.85)" d="M3,0A3,3 0 1,1 0,-3A3,3 0 0,1 3,0Z" style="opacity: 1; stroke-width: 0px; fill: rgb(0, 0, 255); fill-opacity: 1;"/><path class="point" transform="translate(99.54,287.96)" d="M3,0A3,3 0 1,1 0,-3A3,3 0 0,1 3,0Z" style="opacity: 1; stroke-width: 0px; fill: rgb(0, 0, 255); fill-opacity: 1;"/><path class="point" transform="translate(45.42,464.72)" d="M3,0A3,3 0 1,1 0,-3A3,3 0 0,1 3,0Z" style="opacity: 1; stroke-width: 0px; fill: rgb(0, 0, 255); fill-opacity: 1;"/><path class="point" transform="translate(19.05,659.15)" d="M3,0A3,3 0 1,1 0,-3A3,3 0 0,1 3,0Z" style="opacity: 1; stroke-width: 0px; fill: rgb(0, 0, 255); fill-opacity: 1;"/><path class="point" transform="translate(20.17,641.47)" d="M3,0A3,3 0 1,1 0,-3A3,3 0 0,1 3,0Z" style="opacity: 1; stroke-width: 0px; fill: rgb(0, 0, 255); fill-opacity: 1;"/><path class="point" transform="translate(104.35,199.58)" d="M3,0A3,3 0 1,1 0,-3A3,3 0 0,1 3,0Z" style="opacity: 1; stroke-width: 0px; fill: rgb(0, 0, 255); fill-opacity: 1;"/><path class="point" transform="translate(96.33,305.64)" d="M3,0A3,3 0 1,1 0,-3A3,3 0 0,1 3,0Z" style="opacity: 1; stroke-width: 0px; fill: rgb(0, 0, 255); fill-opacity: 1;"/><path class="point" transform="translate(65.87,411.69)" d="M3,0A3,3 0 1,1 0,-3A3,3 0 0,1 3,0Z" style="opacity: 1; stroke-width: 0px; fill: rgb(0, 0, 255); fill-opacity: 1;"/></g><g class="text"/></g><g class="trace scatter tracef7a1c6" style="stroke-miterlimit: 2; opacity: 1;"><g class="fills"/><g class="errorbars"/><g class="lines"/><g class="points"><path class="point" transform="translate(102.48,447.04)" d="M3,0A3,3 0 1,1 0,-3A3,3 0 0,1 3,0Z" style="opacity: 1; stroke-width: 0px; fill: rgb(255, 0, 0); fill-opacity: 1;"/><path class="point" transform="translate(208.57,217.26)" d="M3,0A3,3 0 1,1 0,-3A3,3 0 0,1 3,0Z" style="opacity: 1; stroke-width: 0px; fill: rgb(255, 0, 0); fill-opacity: 1;"/><path class="point" transform="translate(180.11,323.31)" d="M3,0A3,3 0 1,1 0,-3A3,3 0 0,1 3,0Z" style="opacity: 1; stroke-width: 0px; fill: rgb(255, 0, 0); fill-opacity: 1;"/><path class="point" transform="translate(160.46,358.66)" d="M3,0A3,3 0 1,1 0,-3A3,3 0 0,1 3,0Z" style="opacity: 1; stroke-width: 0px; fill: rgb(255, 0, 0); fill-opacity: 1;"/><path class="point" transform="translate(212.84,111.2)" d="M3,0A3,3 0 1,1 0,-3A3,3 0 0,1 3,0Z" style="opacity: 1; stroke-width: 0px; fill: rgb(255, 0, 0); fill-opacity: 1;"/><path class="point" transform="translate(90.88,553.09)" d="M3,0A3,3 0 1,1 0,-3A3,3 0 0,1 3,0Z" style="opacity: 1; stroke-width: 0px; fill: rgb(255, 0, 0); fill-opacity: 1;"/><path class="point" transform="translate(208.57,164.23)" d="M3,0A3,3 0 1,1 0,-3A3,3 0 0,1 3,0Z" style="opacity: 1; stroke-width: 0px; fill: rgb(255, 0, 0); fill-opacity: 1;"/><path class="point" transform="translate(206.96,146.55)" d="M3,0A3,3 0 1,1 0,-3A3,3 0 0,1 3,0Z" style="opacity: 1; stroke-width: 0px; fill: rgb(255, 0, 0); fill-opacity: 1;"/><path class="point" transform="translate(142.1,394.01)" d="M3,0A3,3 0 1,1 0,-3A3,3 0 0,1 3,0Z" style="opacity: 1; stroke-width: 0px; fill: rgb(255, 0, 0); fill-opacity: 1;"/><path class="point" transform="translate(256.49,58.18)" d="M3,0A3,3 0 1,1 0,-3A3,3 0 0,1 3,0Z" style="opacity: 1; stroke-width: 0px; fill: rgb(255, 0, 0); fill-opacity: 1;"/><path class="point" transform="translate(272.7,40.5)" d="M3,0A3,3 0 1,1 0,-3A3,3 0 0,1 3,0Z" style="opacity: 1; stroke-width: 0px; fill: rgb(255, 0, 0); fill-opacity: 1;"/><path class="point" transform="translate(169.44,429.36)" d="M3,0A3,3 0 1,1 0,-3A3,3 0 0,1 3,0Z" style="opacity: 1; stroke-width: 0px; fill: rgb(255, 0, 0); fill-opacity: 1;"/><path class="point" transform="translate(81.9,570.77)" d="M3,0A3,3 0 1,1 0,-3A3,3 0 0,1 3,0Z" style="opacity: 1; stroke-width: 0px; fill: rgb(255, 0, 0); fill-opacity: 1;"/><path class="point" transform="translate(70.68,623.8)" d="M3,0A3,3 0 1,1 0,-3A3,3 0 0,1 3,0Z" style="opacity: 1; stroke-width: 0px; fill: rgb(255, 0, 0); fill-opacity: 1;"/><path class="point" transform="translate(85.64,694.5)" d="M3,0A3,3 0 1,1 0,-3A3,3 0 0,1 3,0Z" style="opacity: 1; stroke-width: 0px; fill: rgb(255, 0, 0); fill-opacity: 1;"/><path class="point" transform="translate(93.12,482.39)" d="M3,0A3,3 0 1,1 0,-3A3,3 0 0,1 3,0Z" style="opacity: 1; stroke-width: 0px; fill: rgb(255, 0, 0); fill-opacity: 1;"/><path class="point" transform="translate(75.49,535.42)" d="M3,0A3,3 0 1,1 0,-3A3,3 0 0,1 3,0Z" style="opacity: 1; stroke-width: 0px; fill: rgb(255, 0, 0); fill-opacity: 1;"/><path class="point" transform="translate(171.69,234.93)" d="M3,0A3,3 0 1,1 0,-3A3,3 0 0,1 3,0Z" style="opacity: 1; stroke-width: 0px; fill: rgb(255, 0, 0); fill-opacity: 1;"/><path class="point" transform="translate(88.91,500.07)" d="M3,0A3,3 0 1,1 0,-3A3,3 0 0,1 3,0Z" style="opacity: 1; stroke-width: 0px; fill: rgb(255, 0, 0); fill-opacity: 1;"/><path class="point" transform="translate(187.4,340.99)" d="M3,0A3,3 0 1,1 0,-3A3,3 0 0,1 3,0Z" style="opacity: 1; stroke-width: 0px; fill: rgb(255, 0, 0); fill-opacity: 1;"/><path class="point" transform="translate(198.62,128.88)" d="M3,0A3,3 0 1,1 0,-3A3,3 0 0,1 3,0Z" style="opacity: 1; stroke-width: 0px; fill: rgb(255, 0, 0); fill-opacity: 1;"/><path class="point" transform="translate(182.91,181.91)" d="M3,0A3,3 0 1,1 0,-3A3,3 0 0,1 3,0Z" style="opacity: 1; stroke-width: 0px; fill: rgb(255, 0, 0); fill-opacity: 1;"/><path class="point" transform="translate(217.83,93.53)" d="M3,0A3,3 0 1,1 0,-3A3,3 0 0,1 3,0Z" style="opacity: 1; stroke-width: 0px; fill: rgb(255, 0, 0); fill-opacity: 1;"/><path class="point" transform="translate(73.48,588.45)" d="M3,0A3,3 0 1,1 0,-3A3,3 0 0,1 3,0Z" style="opacity: 1; stroke-width: 0px; fill: rgb(255, 0, 0); fill-opacity: 1;"/><path class="point" transform="translate(76.29,606.12)" d="M3,0A3,3 0 1,1 0,-3A3,3 0 0,1 3,0Z" style="opacity: 1; stroke-width: 0px; fill: rgb(255, 0, 0); fill-opacity: 1;"/><path class="point" transform="translate(200.87,252.61)" d="M3,0A3,3 0 1,1 0,-3A3,3 0 0,1 3,0Z" style="opacity: 1; stroke-width: 0px; fill: rgb(255, 0, 0); fill-opacity: 1;"/><path class="point" transform="translate(175.43,270.28)" d="M3,0A3,3 0 1,1 0,-3A3,3 0 0,1 3,0Z" style="opacity: 1; stroke-width: 0px; fill: rgb(255, 0, 0); fill-opacity: 1;"/><path class="point" transform="translate(93.12,517.74)" d="M3,0A3,3 0 1,1 0,-3A3,3 0 0,1 3,0Z" style="opacity: 1; stroke-width: 0px; fill: rgb(255, 0, 0); fill-opacity: 1;"/><path class="point" transform="translate(151.74,376.34)" d="M3,0A3,3 0 1,1 0,-3A3,3 0 0,1 3,0Z" style="opacity: 1; stroke-width: 0px; fill: rgb(255, 0, 0); fill-opacity: 1;"/><path class="point" transform="translate(81.9,676.82)" d="M3,0A3,3 0 1,1 0,-3A3,3 0 0,1 3,0Z" style="opacity: 1; stroke-width: 0px; fill: rgb(255, 0, 0); fill-opacity: 1;"/><path class="point" transform="translate(259.61,75.85)" d="M3,0A3,3 0 1,1 0,-3A3,3 0 0,1 3,0Z" style="opacity: 1; stroke-width: 0px; fill: rgb(255, 0, 0); fill-opacity: 1;"/><path class="point" transform="translate(200.55,287.96)" d="M3,0A3,3 0 1,1 0,-3A3,3 0 0,1 3,0Z" style="opacity: 1; stroke-width: 0px; fill: rgb(255, 0, 0); fill-opacity: 1;"/><path class="point" transform="translate(93.12,464.72)" d="M3,0A3,3 0 1,1 0,-3A3,3 0 0,1 3,0Z" style="opacity: 1; stroke-width: 0px; fill: rgb(255, 0, 0); fill-opacity: 1;"/><path class="point" transform="translate(62.82,659.15)" d="M3,0A3,3 0 1,1 0,-3A3,3 0 0,1 3,0Z" style="opacity: 1; stroke-width: 0px; fill: rgb(255, 0, 0); fill-opacity: 1;"/><path class="point" transform="translate(76.29,641.47)" d="M3,0A3,3 0 1,1 0,-3A3,3 0 0,1 3,0Z" style="opacity: 1; stroke-width: 0px; fill: rgb(255, 0, 0); fill-opacity: 1;"/><path class="point" transform="translate(202.15,199.58)" d="M3,0A3,3 0 1,1 0,-3A3,3 0 0,1 3,0Z" style="opacity: 1; stroke-width: 0px; fill: rgb(255, 0, 0); fill-opacity: 1;"/><path class="point" transform="translate(182.91,305.64)" d="M3,0A3,3 0 1,1 0,-3A3,3 0 0,1 3,0Z" style="opacity: 1; stroke-width: 0px; fill: rgb(255, 0, 0); fill-opacity: 1;"/><path class="point" transform="translate(109.16,411.69)" d="M3,0A3,3 0 1,1 0,-3A3,3 0 0,1 3,0Z" style="opacity: 1; stroke-width: 0px; fill: rgb(255, 0, 0); fill-opacity: 1;"/></g><g class="text"/></g></g></g><g class="overplot"/><path class="xlines-above crisp" d="M0,0" style="fill: none;"/><path class="ylines-above crisp" d="M0,0" style="fill: none;"/><g class="overlines-above"/><g class="xaxislayer-above"><g class="xtick"><text text-anchor="middle" x="0" y="773" transform="translate(170.34,0)" style="font-family: 'Open Sans', verdana, arial, sans-serif; font-size: 12px; fill: rgb(68, 68, 68); fill-opacity: 1; white-space: pre;">10</text></g><g class="xtick"><text text-anchor="middle" x="0" y="773" transform="translate(282.57,0)" style="font-family: 'Open Sans', verdana, arial, sans-serif; font-size: 12px; fill: rgb(68, 68, 68); fill-opacity: 1; white-space: pre;">20</text></g><g class="xtick"><text text-anchor="middle" x="0" y="773" transform="translate(394.81,0)" style="font-family: 'Open Sans', verdana, arial, sans-serif; font-size: 12px; fill: rgb(68, 68, 68); fill-opacity: 1; white-space: pre;">30</text></g></g><g class="yaxislayer-above"><g class="ytick"><text text-anchor="end" x="166" y="4.199999999999999" transform="translate(0,719.5)" style="font-family: 'Open Sans', verdana, arial, sans-serif; font-size: 12px; fill: rgb(68, 68, 68); fill-opacity: 1; white-space: pre;">expedition 2wd</text></g><g class="ytick"><text text-anchor="end" x="166" y="4.199999999999999" transform="translate(0,701.82)" style="font-family: 'Open Sans', verdana, arial, sans-serif; font-size: 12px; fill: rgb(68, 68, 68); fill-opacity: 1; white-space: pre;">navigator 2wd</text></g><g class="ytick"><text text-anchor="end" x="166" y="4.199999999999999" transform="translate(0,684.15)" style="font-family: 'Open Sans', verdana, arial, sans-serif; font-size: 12px; fill: rgb(68, 68, 68); fill-opacity: 1; white-space: pre;">ram 1500 pickup 4wd</text></g><g class="ytick"><text text-anchor="end" x="166" y="4.199999999999999" transform="translate(0,666.47)" style="font-family: 'Open Sans', verdana, arial, sans-serif; font-size: 12px; fill: rgb(68, 68, 68); fill-opacity: 1; white-space: pre;">range rover</text></g><g class="ytick"><text text-anchor="end" x="166" y="4.199999999999999" transform="translate(0,648.8)" style="font-family: 'Open Sans', verdana, arial, sans-serif; font-size: 12px; fill: rgb(68, 68, 68); fill-opacity: 1; white-space: pre;">durango 4wd</text></g><g class="ytick"><text text-anchor="end" x="166" y="4.199999999999999" transform="translate(0,631.12)" style="font-family: 'Open Sans', verdana, arial, sans-serif; font-size: 12px; fill: rgb(68, 68, 68); fill-opacity: 1; white-space: pre;">land cruiser wagon 4wd</text></g><g class="ytick"><text text-anchor="end" x="166" y="4.199999999999999" transform="translate(0,613.45)" style="font-family: 'Open Sans', verdana, arial, sans-serif; font-size: 12px; fill: rgb(68, 68, 68); fill-opacity: 1; white-space: pre;">k1500 tahoe 4wd</text></g><g class="ytick"><text text-anchor="end" x="166" y="4.199999999999999" transform="translate(0,595.77)" style="font-family: 'Open Sans', verdana, arial, sans-serif; font-size: 12px; fill: rgb(68, 68, 68); fill-opacity: 1; white-space: pre;">dakota pickup 4wd</text></g><g class="ytick"><text text-anchor="end" x="166" y="4.199999999999999" transform="translate(0,578.09)" style="font-family: 'Open Sans', verdana, arial, sans-serif; font-size: 12px; fill: rgb(68, 68, 68); fill-opacity: 1; white-space: pre;">c1500 suburban 2wd</text></g><g class="ytick"><text text-anchor="end" x="166" y="4.199999999999999" transform="translate(0,560.42)" style="font-family: 'Open Sans', verdana, arial, sans-serif; font-size: 12px; fill: rgb(68, 68, 68); fill-opacity: 1; white-space: pre;">f150 pickup 4wd</text></g><g class="ytick"><text text-anchor="end" x="166" y="4.199999999999999" transform="translate(0,542.74)" style="font-family: 'Open Sans', verdana, arial, sans-serif; font-size: 12px; fill: rgb(68, 68, 68); fill-opacity: 1; white-space: pre;">mountaineer 4wd</text></g><g class="ytick"><text text-anchor="end" x="166" y="4.199999999999999" transform="translate(0,525.0699999999999)" style="font-family: 'Open Sans', verdana, arial, sans-serif; font-size: 12px; fill: rgb(68, 68, 68); fill-opacity: 1; white-space: pre;">grand cherokee 4wd</text></g><g class="ytick"><text text-anchor="end" x="166" y="4.199999999999999" transform="translate(0,507.39)" style="font-family: 'Open Sans', verdana, arial, sans-serif; font-size: 12px; fill: rgb(68, 68, 68); fill-opacity: 1; white-space: pre;">explorer 4wd</text></g><g class="ytick"><text text-anchor="end" x="166" y="4.199999999999999" transform="translate(0,489.72)" style="font-family: 'Open Sans', verdana, arial, sans-serif; font-size: 12px; fill: rgb(68, 68, 68); fill-opacity: 1; white-space: pre;">pathfinder 4wd</text></g><g class="ytick"><text text-anchor="end" x="166" y="4.199999999999999" transform="translate(0,472.04)" style="font-family: 'Open Sans', verdana, arial, sans-serif; font-size: 12px; fill: rgb(68, 68, 68); fill-opacity: 1; white-space: pre;">4runner 4wd</text></g><g class="ytick"><text text-anchor="end" x="166" y="4.199999999999999" transform="translate(0,454.36)" style="font-family: 'Open Sans', verdana, arial, sans-serif; font-size: 12px; fill: rgb(68, 68, 68); fill-opacity: 1; white-space: pre;">corvette</text></g><g class="ytick"><text text-anchor="end" x="166" y="4.199999999999999" transform="translate(0,436.69)" style="font-family: 'Open Sans', verdana, arial, sans-serif; font-size: 12px; fill: rgb(68, 68, 68); fill-opacity: 1; white-space: pre;">toyota tacoma 4wd</text></g><g class="ytick"><text text-anchor="end" x="166" y="4.199999999999999" transform="translate(0,419.01)" style="font-family: 'Open Sans', verdana, arial, sans-serif; font-size: 12px; fill: rgb(68, 68, 68); fill-opacity: 1; white-space: pre;">caravan 2wd</text></g><g class="ytick"><text text-anchor="end" x="166" y="4.199999999999999" transform="translate(0,401.34)" style="font-family: 'Open Sans', verdana, arial, sans-serif; font-size: 12px; fill: rgb(68, 68, 68); fill-opacity: 1; white-space: pre;">mustang</text></g><g class="ytick"><text text-anchor="end" x="166" y="4.199999999999999" transform="translate(0,383.66)" style="font-family: 'Open Sans', verdana, arial, sans-serif; font-size: 12px; fill: rgb(68, 68, 68); fill-opacity: 1; white-space: pre;">a6 quattro</text></g><g class="ytick"><text text-anchor="end" x="166" y="4.199999999999999" transform="translate(0,365.99)" style="font-family: 'Open Sans', verdana, arial, sans-serif; font-size: 12px; fill: rgb(68, 68, 68); fill-opacity: 1; white-space: pre;">grand prix</text></g><g class="ytick"><text text-anchor="end" x="166" y="4.199999999999999" transform="translate(0,348.31)" style="font-family: 'Open Sans', verdana, arial, sans-serif; font-size: 12px; fill: rgb(68, 68, 68); fill-opacity: 1; white-space: pre;">a4 quattro</text></g><g class="ytick"><text text-anchor="end" x="166" y="4.199999999999999" transform="translate(0,330.64)" style="font-family: 'Open Sans', verdana, arial, sans-serif; font-size: 12px; fill: rgb(68, 68, 68); fill-opacity: 1; white-space: pre;">tiburon</text></g><g class="ytick"><text text-anchor="end" x="166" y="4.199999999999999" transform="translate(0,312.96)" style="font-family: 'Open Sans', verdana, arial, sans-serif; font-size: 12px; fill: rgb(68, 68, 68); fill-opacity: 1; white-space: pre;">passat</text></g><g class="ytick"><text text-anchor="end" x="166" y="4.199999999999999" transform="translate(0,295.28)" style="font-family: 'Open Sans', verdana, arial, sans-serif; font-size: 12px; fill: rgb(68, 68, 68); fill-opacity: 1; white-space: pre;">maxima</text></g><g class="ytick"><text text-anchor="end" x="166" y="4.199999999999999" transform="translate(0,277.61)" style="font-family: 'Open Sans', verdana, arial, sans-serif; font-size: 12px; fill: rgb(68, 68, 68); fill-opacity: 1; white-space: pre;">malibu</text></g><g class="ytick"><text text-anchor="end" x="166" y="4.199999999999999" transform="translate(0,259.93)" style="font-family: 'Open Sans', verdana, arial, sans-serif; font-size: 12px; fill: rgb(68, 68, 68); fill-opacity: 1; white-space: pre;">forester awd</text></g><g class="ytick"><text text-anchor="end" x="166" y="4.199999999999999" transform="translate(0,242.26)" style="font-family: 'Open Sans', verdana, arial, sans-serif; font-size: 12px; fill: rgb(68, 68, 68); fill-opacity: 1; white-space: pre;">a4</text></g><g class="ytick"><text text-anchor="end" x="166" y="4.199999999999999" transform="translate(0,224.58)" style="font-family: 'Open Sans', verdana, arial, sans-serif; font-size: 12px; fill: rgb(68, 68, 68); fill-opacity: 1; white-space: pre;">sonata</text></g><g class="ytick"><text text-anchor="end" x="166" y="4.199999999999999" transform="translate(0,206.91)" style="font-family: 'Open Sans', verdana, arial, sans-serif; font-size: 12px; fill: rgb(68, 68, 68); fill-opacity: 1; white-space: pre;">impreza awd</text></g><g class="ytick"><text text-anchor="end" x="166" y="4.199999999999999" transform="translate(0,189.23)" style="font-family: 'Open Sans', verdana, arial, sans-serif; font-size: 12px; fill: rgb(68, 68, 68); fill-opacity: 1; white-space: pre;">camry</text></g><g class="ytick"><text text-anchor="end" x="166" y="4.199999999999999" transform="translate(0,171.55)" style="font-family: 'Open Sans', verdana, arial, sans-serif; font-size: 12px; fill: rgb(68, 68, 68); fill-opacity: 1; white-space: pre;">camry solara</text></g><g class="ytick"><text text-anchor="end" x="166" y="4.199999999999999" transform="translate(0,153.88)" style="font-family: 'Open Sans', verdana, arial, sans-serif; font-size: 12px; fill: rgb(68, 68, 68); fill-opacity: 1; white-space: pre;">gti</text></g><g class="ytick"><text text-anchor="end" x="166" y="4.199999999999999" transform="translate(0,136.2)" style="font-family: 'Open Sans', verdana, arial, sans-serif; font-size: 12px; fill: rgb(68, 68, 68); fill-opacity: 1; white-space: pre;">altima</text></g><g class="ytick"><text text-anchor="end" x="166" y="4.199999999999999" transform="translate(0,118.53)" style="font-family: 'Open Sans', verdana, arial, sans-serif; font-size: 12px; fill: rgb(68, 68, 68); fill-opacity: 1; white-space: pre;">jetta</text></g><g class="ytick"><text text-anchor="end" x="166" y="4.199999999999999" transform="translate(0,100.85)" style="font-family: 'Open Sans', verdana, arial, sans-serif; font-size: 12px; fill: rgb(68, 68, 68); fill-opacity: 1; white-space: pre;">new beetle</text></g><g class="ytick"><text text-anchor="end" x="166" y="4.199999999999999" transform="translate(0,83.18)" style="font-family: 'Open Sans', verdana, arial, sans-serif; font-size: 12px; fill: rgb(68, 68, 68); fill-opacity: 1; white-space: pre;">civic</text></g><g class="ytick"><text text-anchor="end" x="166" y="4.199999999999999" transform="translate(0,65.5)" style="font-family: 'Open Sans', verdana, arial, sans-serif; font-size: 12px; fill: rgb(68, 68, 68); fill-opacity: 1; white-space: pre;">corolla</text></g></g><g class="overaxes-above"/></g></g><g class="polarlayer"/><g class="ternarylayer"/><g class="geolayer"/><g class="pielayer"/><g class="glimages"/><defs id="topdefs-67c29a"><g class="clips"/><clipPath id="legend67c29a"><rect width="126" height="48" x="0" y="0"/></clipPath></defs><g class="layer-above"><g class="imagelayer"/><g class="shapelayer"/></g><g class="infolayer"><g class="legend" pointer-events="all" transform="translate(463.82, 25)"><rect class="bg" shape-rendering="crispEdges" style="stroke: rgb(68, 68, 68); stroke-opacity: 1; fill: rgb(255, 255, 255); fill-opacity: 1; stroke-width: 0px;" width="126" height="48" x="0" y="0"/><g class="scrollbox" transform="translate(0, 0)" clip-path="url(#legend67c29a)"><g class="groups"><g class="traces" transform="translate(0, 14.5)" style="opacity: 1;"><g class="layers" style="opacity: 1;"><g class="legendfill"/><g class="legendlines"/><g class="legendsymbols"><g class="legendpoints"><path class="scatterpts" transform="translate(20,0)" d="M3,0A3,3 0 1,1 0,-3A3,3 0 0,1 3,0Z" style="opacity: 1; stroke-width: 0px; fill: rgb(0, 0, 255); fill-opacity: 1;"/></g></g></g><text class="legendtext user-select-none" text-anchor="start" x="40" y="4.680000000000001" style="font-family: 'Open Sans', verdana, arial, sans-serif; font-size: 12px; fill: rgb(68, 68, 68); fill-opacity: 1; white-space: pre;">mpg city</text><rect class="legendtoggle" pointer-events="all" style="cursor: pointer; fill: rgb(0, 0, 0); fill-opacity: 0;" x="0" y="-9.5" width="166" height="19"/></g><g class="traces" transform="translate(0, 33.5)" style="opacity: 1;"><g class="layers" style="opacity: 1;"><g class="legendfill"/><g class="legendlines"/><g class="legendsymbols"><g class="legendpoints"><path class="scatterpts" transform="translate(20,0)" d="M3,0A3,3 0 1,1 0,-3A3,3 0 0,1 3,0Z" style="opacity: 1; stroke-width: 0px; fill: rgb(255, 0, 0); fill-opacity: 1;"/></g></g></g><text class="legendtext user-select-none" text-anchor="start" x="40" y="4.680000000000001" style="font-family: 'Open Sans', verdana, arial, sans-serif; font-size: 12px; fill: rgb(68, 68, 68); fill-opacity: 1; white-space: pre;">mpg highway</text><rect class="legendtoggle" pointer-events="all" x="0" y="-9.5" width="166" height="19" style="cursor: pointer; fill: rgb(0, 0, 0); fill-opacity: 0;"/></g></g></g><rect class="scrollbar" rx="20" ry="3" width="0" height="0" style="fill: rgb(128, 139, 164); fill-opacity: 1;" x="0" y="0"/></g><g class="g-gtitle"/><g class="g-xtitle" transform="translate(0,-15)"><text class="xtitle" x="312.5" y="812" text-anchor="middle" style="font-family: 'Open Sans', verdana, arial, sans-serif; font-size: 14px; fill: rgb(68, 68, 68); opacity: 1; font-weight: normal; white-space: pre;">Miles per gallon</text></g><g class="g-ytitle" transform="translate(-44.84375,0)"><text class="ytitle" transform="rotate(-90,129,392.5)" x="129" y="392.5" text-anchor="middle" style="font-family: 'Open Sans', verdana, arial, sans-serif; font-size: 14px; fill: rgb(68, 68, 68); opacity: 1; font-weight: normal; white-space: pre;">model</text></g></g></svg>