<svg class="main-svg" xmlns="http://www.w3.org/2000/svg" xmlns:xlink="http://www.w3.org/1999/xlink" width="900" height="600" viewBox="0 0 900 600"><rect x="0" y="0" width="900" height="600" style="fill: rgb(255, 255, 255); fill-opacity: 1;"/><defs id="defs-d559d1"><g class="clips"><clipPath id="clipd559d1xyplot" class="plotclip"><rect width="710" height="96.30000000000003"/></clipPath><clipPath id="clipd559d1xy2plot" class="plotclip"><rect width="710" height="85.60000000000002"/></clipPath><clipPath id="clipd559d1xy3plot" class="plotclip"><rect width="710" height="85.59999999999998"/></clipPath><clipPath id="clipd559d1xy4plot" class="plotclip"><rect width="710" height="85.60000000000001"/></clipPath><clipPath id="clipd559d1xy5plot" class="plotclip"><rect width="710" height="96.3"/></clipPath><clipPath class="axesclip" id="clipd559d1x"><rect x="60" y="0" width="710" height="600"/></clipPath><clipPath class="axesclip" id="clipd559d1y"><rect x="0" y="25" width="900" height="96.30000000000003"/></clipPath><clipPath class="axesclip" id="clipd559d1xy"><rect x="60" y="25" width="710" height="96.30000000000003"/></clipPath><clipPath class="axesclip" id="clipd559d1y2"><rect x="0" y="142.7" width="900" height="85.60000000000002"/></clipPath><clipPath class="axesclip" id="clipd559d1xy2"><rect x="60" y="142.7" width="710" height="85.60000000000002"/></clipPath><clipPath class="axesclip" id="clipd559d1y3"><rect x="0" y="249.70000000000002" width="900" height="85.59999999999998"/></clipPath><clipPath class="axesclip" id="clipd559d1xy3"><rect x="60" y="249.70000000000002" width="710" height="85.59999999999998"/></clipPath><clipPath class="axesclip" id="clipd559d1y4"><rect x="0" y="356.7" width="900" height="85.60000000000001"/></clipPath><clipPath class="axesclip" id="clipd559d1xy4"><rect x="60" y="356.7" width="710" height="85.60000000000001"/></clipPath><clipPath class="axesclip" id="clipd559d1y5"><rect x="0" y="463.70000000000005" width="900" height="96.3"/></clipPath><clipPath class="axesclip" id="clipd559d1xy5"><rect x="60" y="463.70000000000005" width="710" height="96.3"/></clipPath></g><g class="gradients"/></defs><g class="bglayer"/><g class="layer-below"><g class="imagelayer"/><g class="shapelayer"/></g><g class="cartesianlayer"><g class="subplot xy"><g class="layer-subplot"><g class="shapelayer"/><g class="imagelayer"/></g><g class="gridlayer"><g class="x"><path class="xgrid crisp" d="M0,25v96.30000000000003" transform="translate(97.25,0)" style="stroke: rgb(238, 238, 238); stroke-opacity: 1; stroke-width: 1px;"/><path class="xgrid crisp" d="M0,25v96.30000000000003" transform="translate(171.57999999999998,0)" style="stroke: rgb(238, 238, 238); stroke-opacity: 1; stroke-width: 1px;"/><path class="xgrid crisp" d="M0,25v96.30000000000003" transform="translate(245.92,0)" style="stroke: rgb(238, 238, 238); stroke-opacity: 1; stroke-width: 1px;"/><path class="xgrid crisp" d="M0,25v96.30000000000003" transform="translate(320.29,0)" style="stroke: rgb(238, 238, 238); stroke-opacity: 1; stroke-width: 1px;"/><path class="xgrid crisp" d="M0,25v96.30000000000003" transform="translate(394.63,0)" style="stroke: rgb(238, 238, 238); stroke-opacity: 1; stroke-width: 1px;"/><path class="xgrid crisp" d="M0,25v96.30000000000003" transform="translate(468.96,0)" style="stroke: rgb(238, 238, 238); stroke-opacity: 1; stroke-width: 1px;"/><path class="xgrid crisp" d="M0,25v96.30000000000003" transform="translate(543.29,0)" style="stroke: rgb(238, 238, 238); stroke-opacity: 1; stroke-width: 1px;"/><path class="xgrid crisp" d="M0,25v96.30000000000003" transform="translate(617.67,0)" style="stroke: rgb(238, 238, 238); stroke-opacity: 1; stroke-width: 1px;"/><path class="xgrid crisp" d="M0,25v96.30000000000003" transform="translate(692,0)" style="stroke: rgb(238, 238, 238); stroke-opacity: 1; stroke-width: 1px;"/><path class="xgrid crisp" d="M0,25v96.30000000000003" transform="translate(766.34,0)" style="stroke: rgb(238, 238, 238); stroke-opacity: 1; stroke-width: 1px;"/></g><g class="y"><path class="ygrid crisp" d="M60,0h710" transform="translate(0,83.16)" style="stroke: rgb(238, 238, 238); stroke-opacity: 1; stroke-width: 1px;"/><path class="ygrid crisp" d="M60,0h710" transform="translate(0,46.08)" style="stroke: rgb(238, 238, 238); stroke-opacity: 1; stroke-width: 1px;"/></g></g><g class="zerolinelayer"><path class="yzl zl crisp" d="M60,0h710" transform="translate(0,120.24)" style="stroke: rgb(68, 68, 68); stroke-opacity: 1; stroke-width: 1px;"/></g><path class="xlines-below"/><path class="ylines-below"/><g class="overlines-below"/><g class="xaxislayer-below"/><g class="yaxislayer-below"/><g class="overaxes-below"/><g class="plot" transform="translate(60, 25)" clip-path="url(#clipd559d1xyplot)"><g class="scatterlayer mlayer"><g class="trace scatter trace2c104b" style="stroke-miterlimit: 2; opacity: 1;"><g class="fills"/><g class="errorbars"/><g class="lines"><path class="js-line" d="M0,91.49L102.87,88.36L104.09,88.29L117.73,87.63L118.95,87.53L153.72,85.4L154.94,85.34L159.86,84.89L161.08,84.77L236.68,78.36L237.9,78.15L288.75,73.02L290.01,73.47L293.67,72.71L294.89,72.64L329.66,68.38L330.88,68.3L341.99,66.9L343.26,66.7L348.22,66.61L349.48,66.76L359.38,65.69L360.6,65.76L380.5,62.94L381.64,62.97L389.13,61.79L390.36,61.63L446.09,54.09L447.35,53.81L457.24,52.32L458.46,51.95L480.81,47.5L482.03,46.75L484.56,46.15L485.74,45.66L488.22,45.5L489.48,45.23L506.82,42.52L508.08,43.24L509.31,41.79L510.57,42.09L513.05,42.04L514.31,41.71L529.17,39.36L530.31,38.89L535.28,37.86L536.54,37.14L541.51,36.44L542.77,36.01L553.92,33.14L555.18,32.8L561.33,31.13L562.55,31.14L567.56,29.35L568.78,29.04L572.53,28.06L573.79,27.83L609.65,20.31L610.92,20.38L613.4,21.38L614.66,22.41L615.88,23.08L617.14,22.69L622.03,22.95L623.29,22.52L625.77,21.37L627.04,21.95L634.4,20.42L635.67,20.25L643.12,18.82L644.38,18.45L659.24,15.45L660.46,15.36L664.16,14.03L665.42,13.82L670.39,13.64L671.65,13.21L679.02,11.98L680.28,12.14L696.36,8.12L697.62,7.61L705.07,5.79L706.34,5.91L710,4.81" style="vector-effect: non-scaling-stroke; fill: none; stroke: rgb(31, 119, 180); stroke-opacity: 1; stroke-width: 2px; opacity: 1;"/></g><g class="points"/><g class="text"/></g></g></g><g class="overplot"/><path class="xlines-above crisp" d="M0,0" style="fill: none;"/><path class="ylines-above crisp" d="M0,0" style="fill: none;"/><g class="overlines-above"/><g class="xaxislayer-above"/><g class="yaxislayer-above"><g class="ytick"><text text-anchor="end" x="59" y="4.199999999999999" transform="translate(0,120.24)" style="font-family: 'Open Sans', verdana, arial, sans-serif; font-size: 12px; fill: rgb(68, 68, 68); fill-opacity: 1; white-space: pre;">0</text></g><g class="ytick"><text text-anchor="end" x="59" y="4.199999999999999" transform="translate(0,83.16)" style="font-family: 'Open Sans', verdana, arial, sans-serif; font-size: 12px; fill: rgb(68, 68, 68); fill-opacity: 1; white-space: pre;">5k</text></g><g class="ytick"><text text-anchor="end" x="59" y="4.199999999999999" transform="translate(0,46.08)" style="font-family: 'Open Sans', verdana, arial, sans-serif; font-size: 12px; fill: rgb(68, 68, 68); fill-opacity: 1; white-space: pre;">10k</text></g></g><g class="overaxes-above"/></g><g class="subplot xy2"><g class="layer-subplot"><g class="shapelayer"/><g class="imagelayer"/></g><g class="gridlayer"><g class="x"><path class="xgrid crisp" d="M0,142.7v85.60000000000002" transform="translate(97.25,0)" style="stroke: rgb(238, 238, 238); stroke-opacity: 1; stroke-width: 1px;"/><path class="xgrid crisp" d="M0,142.7v85.60000000000002" transform="translate(171.57999999999998,0)" style="stroke: rgb(238, 238, 238); stroke-opacity: 1; stroke-width: 1px;"/><path class="xgrid crisp" d="M0,142.7v85.60000000000002" transform="translate(245.92,0)" style="stroke: rgb(238, 238, 238); stroke-opacity: 1; stroke-width: 1px;"/><path class="xgrid crisp" d="M0,142.7v85.60000000000002" transform="translate(320.29,0)" style="stroke: rgb(238, 238, 238); stroke-opacity: 1; stroke-width: 1px;"/><path class="xgrid crisp" d="M0,142.7v85.60000000000002" transform="translate(394.63,0)" style="stroke: rgb(238, 238, 238); stroke-opacity: 1; stroke-width: 1px;"/><path class="xgrid crisp" d="M0,142.7v85.60000000000002" transform="translate(468.96,0)" style="stroke: rgb(238, 238, 238); stroke-opacity: 1; stroke-width: 1px;"/><path class="xgrid crisp" d="M0,142.7v85.60000000000002" transform="translate(543.29,0)" style="stroke: rgb(238, 238, 238); stroke-opacity: 1; stroke-width: 1px;"/><path class="xgrid crisp" d="M0,142.7v85.60000000000002" transform="translate(617.67,0)" style="stroke: rgb(238, 238, 238); stroke-opacity: 1; stroke-width: 1px;"/><path class="xgrid crisp" d="M0,142.7v85.60000000000002" transform="translate(692,0)" style="stroke: rgb(238, 238, 238); stroke-opacity: 1; stroke-width: 1px;"/><path class="xgrid crisp" d="M0,142.7v85.60000000000002" transform="translate(766.34,0)" style="stroke: rgb(238, 238, 238); stroke-opacity: 1; stroke-width: 1px;"/></g><g class="y2"><path class="y2grid crisp" d="M60,0h710" transform="translate(0,223.2)" style="stroke: rgb(238, 238, 238); stroke-opacity: 1; stroke-width: 1px;"/><path class="y2grid crisp" d="M60,0h710" transform="translate(0,191.54999999999998)" style="stroke: rgb(238, 238, 238); stroke-opacity: 1; stroke-width: 1px;"/><path class="y2grid crisp" d="M60,0h710" transform="translate(0,159.89999999999998)" style="stroke: rgb(238, 238, 238); stroke-opacity: 1; stroke-width: 1px;"/></g></g><g class="zerolinelayer"/><path class="xlines-below"/><path class="ylines-below"/><g class="overlines-below"/><g class="xaxislayer-below"/><g class="yaxislayer-below"/><g class="overaxes-below"/><g class="plot" transform="translate(60, 142.7)" clip-path="url(#clipd559d1xy2plot)"><g class="scatterlayer mlayer"><g class="trace scatter trace1f5e2f" style="stroke-miterlimit: 2; opacity: 1;"><g class="fills"/><g class="errorbars"/><g class="lines"><path class="js-line" d="M0,81.32L83.13,73.46L84.27,73.38L180.95,64.33L182.17,64.17L234.2,59.12L235.42,59.03L347,48L348.22,47.82L531.57,23.45L532.8,23.31L650.52,9.96L651.75,9.85L710,4.28" style="vector-effect: non-scaling-stroke; fill: none; stroke: rgb(255, 127, 14); stroke-opacity: 1; stroke-width: 2px; opacity: 1;"/></g><g class="points"/><g class="text"/></g></g></g><g class="overplot"/><path class="xlines-above crisp" d="M0,0" style="fill: none;"/><path class="ylines-above crisp" d="M0,0" style="fill: none;"/><g class="overlines-above"/><g class="xaxislayer-above"/><g class="yaxislayer-above"><g class="y2tick"><text text-anchor="end" x="59" y="4.199999999999999" transform="translate(0,223.2)" style="font-family: 'Open Sans', verdana, arial, sans-serif; font-size: 12px; fill: rgb(68, 68, 68); fill-opacity: 1; white-space: pre;">200k</text></g><g class="y2tick"><text text-anchor="end" x="59" y="4.199999999999999" transform="translate(0,191.54999999999998)" style="font-family: 'Open Sans', verdana, arial, sans-serif; font-size: 12px; fill: rgb(68, 68, 68); fill-opacity: 1; white-space: pre;">250k</text></g><g class="y2tick"><text text-anchor="end" x="59" y="4.199999999999999" transform="translate(0,159.89999999999998)" style="font-family: 'Open Sans', verdana, arial, sans-serif; font-size: 12px; fill: rgb(68, 68, 68); fill-opacity: 1; white-space: pre;">300k</text></g></g><g class="overaxes-above"/></g><g class="subplot xy3"><g class="layer-subplot"><g class="shapelayer"/><g class="imagelayer"/></g><g class="gridlayer"><g class="x"><path class="xgrid crisp" d="M0,249.70000000000002v85.59999999999998" transform="translate(97.25,0)" style="stroke: rgb(238, 238, 238); stroke-opacity: 1; stroke-width: 1px;"/><path class="xgrid crisp" d="M0,249.70000000000002v85.59999999999998" transform="translate(171.57999999999998,0)" style="stroke: rgb(238, 238, 238); stroke-opacity: 1; stroke-width: 1px;"/><path class="xgrid crisp" d="M0,249.70000000000002v85.59999999999998" transform="translate(245.92,0)" style="stroke: rgb(238, 238, 238); stroke-opacity: 1; stroke-width: 1px;"/><path class="xgrid crisp" d="M0,249.70000000000002v85.59999999999998" transform="translate(320.29,0)" style="stroke: rgb(238, 238, 238); stroke-opacity: 1; stroke-width: 1px;"/><path class="xgrid crisp" d="M0,249.70000000000002v85.59999999999998" transform="translate(394.63,0)" style="stroke: rgb(238, 238, 238); stroke-opacity: 1; stroke-width: 1px;"/><path class="xgrid crisp" d="M0,249.70000000000002v85.59999999999998" transform="translate(468.96,0)" style="stroke: rgb(238, 238, 238); stroke-opacity: 1; stroke-width: 1px;"/><path class="xgrid crisp" d="M0,249.70000000000002v85.59999999999998" transform="translate(543.29,0)" style="stroke: rgb(238, 238, 238); stroke-opacity: 1; stroke-width: 1px;"/><path class="xgrid crisp" d="M0,249.70000000000002v85.59999999999998" transform="translate(617.67,0)" style="stroke: rgb(238, 238, 238); stroke-opacity: 1; stroke-width: 1px;"/><path class="xgrid crisp" d="M0,249.70000000000002v85.59999999999998" transform="translate(692,0)" style="stroke: rgb(238, 238, 238); stroke-opacity: 1; stroke-width: 1px;"/><path class="xgrid crisp" d="M0,249.70000000000002v85.59999999999998" transform="translate(766.34,0)" style="stroke: rgb(238, 238, 238); stroke-opacity: 1; stroke-width: 1px;"/></g><g class="y3"><path class="y3grid crisp" d="M60,0h710" transform="translate(0,316.73)" style="stroke: rgb(238, 238, 238); stroke-opacity: 1; stroke-width: 1px;"/><path class="y3grid crisp" d="M60,0h710" transform="translate(0,291.22)" style="stroke: rgb(238, 238, 238); stroke-opacity: 1; stroke-width: 1px;"/><path class="y3grid crisp" d="M60,0h710" transform="translate(0,265.71000000000004)" style="stroke: rgb(238, 238, 238); stroke-opacity: 1; stroke-width: 1px;"/></g></g><g class="zerolinelayer"/><path class="xlines-below"/><path class="ylines-below"/><g class="overlines-below"/><g class="xaxislayer-below"/><g class="yaxislayer-below"/><g class="overaxes-below"/><g class="plot" transform="translate(60, 249.70000000000002)" clip-path="url(#clipd559d1xy3plot)"><g class="scatterlayer mlayer"><g class="trace scatter trace163900" style="stroke-miterlimit: 2; opacity: 1;"><g class="fills"/><g class="errorbars"/><g class="lines"><path class="js-line" d="M0,28.26L1.26,28.26L2.52,31.83L3.75,26.73L5.01,27.24L6.23,32.34L7.49,32.85L8.75,29.79L9.93,32.85L11.19,29.79L12.42,31.32L13.68,32.85L14.9,37.95L16.16,38.97L17.42,38.46L18.64,37.44L19.91,38.46L21.13,35.91L22.39,39.99L23.65,43.06L24.79,40.5L26.05,43.06L27.27,41.01L29.76,32.34L31.02,33.87L32.28,33.36L33.5,34.38L35.99,32.34L37.25,32.34L38.51,32.85L39.65,29.28L40.91,24.69L42.13,29.28L43.4,29.79L44.62,23.67L45.88,24.18L47.14,26.73L48.36,25.71L49.62,23.16L50.85,25.2L52.11,24.69L53.37,24.69L54.51,23.67L55.77,25.2L56.99,23.16L58.25,17.55L59.48,22.14L62,24.69L63.22,24.69L65.7,26.22L66.97,28.77L68.23,27.24L69.41,32.34L70.67,33.87L71.89,32.85L74.37,32.85L75.64,31.32L76.9,30.3L78.12,26.22L79.38,23.16L80.6,22.65L81.87,29.28L83.13,28.77L84.27,27.75L85.53,25.2L86.75,25.2L88.01,23.16L89.23,25.2L90.5,21.63L91.76,25.71L92.98,19.08L94.24,19.08L95.46,17.03L96.72,19.59L97.99,20.1L99.13,24.18L100.39,25.71L101.61,27.24L102.87,27.24L104.09,27.24L105.35,30.81L107.84,24.18L109.1,22.14L110.32,21.12L111.58,25.2L112.84,28.77L113.98,27.75L115.25,20.1L116.47,4.28L118.95,28.26L120.21,26.22L121.47,26.22L122.7,24.18L126.44,32.85L127.7,29.79L128.88,30.3L130.15,32.85L131.37,29.79L132.63,34.38L133.85,32.85L135.11,32.85L137.6,35.91L138.86,34.38L140.08,38.46L141.34,38.46L142.6,45.1L143.74,38.97L145,38.97L146.23,39.99L147.49,38.46L148.71,38.97L151.23,35.91L152.45,36.42L154.94,34.38L156.2,31.83L157.46,35.91L158.6,36.42L159.86,37.44L161.08,39.99L162.35,41.52L163.57,36.93L164.83,38.97L166.09,38.46L167.31,37.95L168.57,38.97L169.8,39.48L171.06,35.91L173.46,35.4L174.72,36.42L177.2,42.03L178.43,38.46L179.69,43.06L180.95,44.59L182.17,43.06L183.43,43.06L184.65,41.01L185.92,42.03L188.36,40.5L189.62,34.89L190.84,34.38L192.1,35.4L194.59,34.89L195.85,32.85L197.07,34.89L198.33,33.36L199.55,34.38L200.82,36.93L203.22,37.44L204.48,36.93L205.7,36.42L206.96,37.44L208.18,29.79L209.45,31.32L213.19,25.2L214.41,28.77L215.67,27.75L216.94,30.81L218.08,30.3L219.34,26.73L220.56,29.79L221.82,29.79L224.3,28.26L225.57,32.34L228.05,36.93L229.27,36.93L230.53,35.91L231.8,35.91L234.2,39.99L235.42,42.03L236.68,46.12L237.9,43.57L239.16,45.61L240.43,43.57L241.65,43.06L242.91,39.99L245.39,41.52L246.65,32.85L247.83,33.87L249.1,33.87L250.32,35.91L251.58,35.91L254.06,32.34L255.32,32.34L256.55,32.85L257.81,36.93L259.03,35.4L260.29,39.99L262.69,48.16L263.96,42.03L265.18,35.91L266.44,43.57L267.66,46.12L268.92,50.71L270.18,55.3L271.4,46.12L272.67,46.63L273.89,48.67L275.15,48.67L276.41,45.1L277.55,42.03L278.81,43.06L280.03,45.1L281.3,44.59L282.52,45.1L283.78,46.63L285.04,55.81L286.26,49.69L287.53,47.65L288.75,56.83L290.01,43.06L291.27,49.18L292.41,49.18L293.67,69.59L294.89,50.71L296.16,53.26L298.64,55.81L299.9,53.77L301.12,50.2L302.38,49.18L303.61,48.16L304.87,51.22L306.13,48.67L307.31,50.71L308.57,47.65L309.79,49.69L311.05,49.69L312.28,48.67L313.54,49.69L314.8,47.14L317.28,49.69L318.5,50.2L319.77,49.18L321.03,46.63L322.17,44.08L323.43,49.69L324.65,51.22L325.91,50.71L327.13,50.71L328.4,53.77L330.88,49.18L332.14,48.67L333.36,52.75L334.63,51.73L335.89,48.67L337.03,50.2L338.29,47.65L339.51,48.16L340.77,48.67L341.99,48.16L343.26,51.22L344.52,51.22L345.74,52.75L347,52.24L349.48,45.1L350.75,47.65L351.89,51.73L353.15,48.67L354.37,49.69L355.63,47.14L356.85,50.71L358.11,48.67L359.38,47.65L360.6,45.1L361.86,46.63L363.08,43.06L364.34,44.59L365.6,42.54L366.79,43.06L368.05,42.03L369.27,42.03L370.53,41.01L371.75,43.57L373.01,43.06L375.5,51.73L376.76,51.73L377.98,38.46L379.24,48.67L380.5,47.14L381.64,47.14L382.91,48.16L384.13,50.2L386.61,53.77L387.87,53.26L390.36,60.4L391.62,60.4L392.84,46.12L394.1,56.32L395.36,59.38L396.5,57.85L397.76,59.89L398.99,53.77L400.25,57.34L401.47,56.83L402.73,59.38L403.99,57.85L405.21,56.32L406.48,56.83L410.22,52.75L411.36,54.28L412.62,57.34L413.84,56.32L415.11,58.36L416.33,56.32L417.59,58.36L418.85,57.85L420.07,56.32L421.33,58.87L422.56,61.42L423.82,58.36L426.26,58.87L427.52,63.46L428.74,58.36L430.01,56.32L431.23,58.36L432.49,58.87L433.75,58.36L434.97,59.89L437.46,59.89L438.72,60.91L439.98,60.91L441.12,59.89L442.38,59.38L443.6,57.85L444.86,58.87L446.09,61.42L447.35,61.93L448.61,60.91L449.83,60.91L451.09,59.89L452.31,59.89L453.58,54.79L455.98,54.28L457.24,55.81L459.72,57.85L460.94,57.34L462.21,57.85L463.47,59.89L464.69,60.91L465.95,60.4L467.17,62.95L468.43,59.89L470.84,62.44L472.1,66.01L474.58,68.05L475.8,68.05L477.06,68.57L478.33,71.12L480.81,68.05L482.03,70.1L483.29,64.99L484.56,68.05L485.74,69.59L487,67.03L489.48,67.54L490.7,66.01L491.96,66.01L493.23,69.59L494.45,69.08L495.71,69.59L496.93,71.12L498.19,68.05L499.45,67.54L500.59,65.5L503.08,69.59L504.34,69.59L506.82,57.85L508.08,56.83L509.31,75.2L510.57,71.63L511.79,69.59L513.05,61.42L514.31,62.95L515.45,62.44L516.72,62.95L517.94,59.38L519.2,59.89L520.42,64.48L521.68,64.99L522.94,63.46L525.43,63.46L526.65,64.48L529.17,63.97L530.31,65.5L531.57,65.5L532.8,62.95L534.06,63.97L535.28,60.4L536.54,61.93L537.8,66.01L541.51,64.99L542.77,67.03L545.21,67.54L546.47,65.5L547.69,65.5L548.96,62.95L550.18,65.5L551.44,66.01L552.7,69.08L553.92,69.59L555.18,71.63L556.41,57.34L557.67,73.67L558.93,75.2L560.07,74.18L561.33,76.73L562.55,74.69L563.82,77.75L565.04,81.32L566.3,78.77L567.56,78.77L568.78,76.73L572.53,71.12L573.79,71.12L574.93,71.12L576.19,72.14L577.41,73.16L578.67,72.14L579.9,75.2L581.16,74.18L583.64,74.18L584.9,72.65L586.12,73.67L587.39,73.67L589.79,70.1L591.05,71.12L596.02,75.2L597.28,74.69L598.5,75.2L599.76,76.73L600.98,74.18L602.24,73.67L603.51,71.63L604.69,72.14L605.95,75.2L607.17,52.75L609.65,70.1L610.92,73.16L614.66,59.89L615.88,59.89L617.14,60.91L618.41,64.48L619.55,62.44L620.81,57.85L622.03,50.71L623.29,58.36L625.77,67.54L627.04,62.44L628.26,64.99L629.52,62.44L630.74,62.44L632,61.42L634.4,63.46L635.67,59.89L636.89,56.83L638.15,57.34L639.37,57.85L640.63,57.34L643.12,58.87L644.38,58.87L646.86,54.79L648.12,53.77L649.26,56.83L650.52,57.34L651.75,57.34L653.01,55.81L654.23,55.3L655.49,55.81L656.75,57.85L657.97,57.85L659.24,56.83L660.46,52.75L661.72,51.73L662.98,51.73L665.42,48.16L666.65,47.65L667.91,46.12L669.13,50.71L670.39,51.73L671.65,50.71L674.14,43.06L675.36,31.32L676.62,60.4L677.88,62.95L679.02,62.44L680.28,59.89L682.77,57.85L683.99,58.87L686.51,57.85L687.73,60.4L688.99,60.91L690.22,59.89L691.48,56.32L692.74,55.3L695.14,54.79L696.36,54.79L698.85,54.28L700.11,55.81L701.37,54.79L702.59,55.81L703.85,55.3L705.07,53.77L707.6,52.24L708.74,54.79L710,53.77" style="vector-effect: non-scaling-stroke; fill: none; stroke: rgb(44, 160, 44); stroke-opacity: 1; stroke-width: 2px; opacity: 1;"/></g><g class="points"/><g class="text"/></g></g></g><g class="overplot"/><path class="xlines-above crisp" d="M0,0" style="fill: none;"/><path class="ylines-above crisp" d="M0,0" style="fill: none;"/><g class="overlines-above"/><g class="xaxislayer-above"/><g class="yaxislayer-above"><g class="y3tick"><text text-anchor="end" x="59" y="4.199999999999999" transform="translate(0,316.73)" style="font-family: 'Open Sans', verdana, arial, sans-serif; font-size: 12px; fill: rgb(68, 68, 68); fill-opacity: 1; white-space: pre;">5</text></g><g class="y3tick"><text text-anchor="end" x="59" y="4.199999999999999" transform="translate(0,291.22)" style="font-family: 'Open Sans', verdana, arial, sans-serif; font-size: 12px; fill: rgb(68, 68, 68); fill-opacity: 1; white-space: pre;">10</text></g><g class="y3tick"><text text-anchor="end" x="59" y="4.199999999999999" transform="translate(0,265.71000000000004)" style="font-family: 'Open Sans', verdana, arial, sans-serif; font-size: 12px; fill: rgb(68, 68, 68); fill-opacity: 1; white-space: pre;">15</text></g></g><g class="overaxes-above"/></g><g class="subplot xy4"><g class="layer-subplot"><g class="shapelayer"/><g class="imagelayer"/></g><g class="gridlayer"><g class="x"><path class="xgrid crisp" d="M0,356.7v85.60000000000001" transform="translate(97.25,0)" style="stroke: rgb(238, 238, 238); stroke-opacity: 1; stroke-width: 1px;"/><path class="xgrid crisp" d="M0,356.7v85.60000000000001" transform="translate(171.57999999999998,0)" style="stroke: rgb(238, 238, 238); stroke-opacity: 1; stroke-width: 1px;"/><path class="xgrid crisp" d="M0,356.7v85.60000000000001" transform="translate(245.92,0)" style="stroke: rgb(238, 238, 238); stroke-opacity: 1; stroke-width: 1px;"/><path class="xgrid crisp" d="M0,356.7v85.60000000000001" transform="translate(320.29,0)" style="stroke: rgb(238, 238, 238); stroke-opacity: 1; stroke-width: 1px;"/><path class="xgrid crisp" d="M0,356.7v85.60000000000001" transform="translate(394.63,0)" style="stroke: rgb(238, 238, 238); stroke-opacity: 1; stroke-width: 1px;"/><path class="xgrid crisp" d="M0,356.7v85.60000000000001" transform="translate(468.96,0)" style="stroke: rgb(238, 238, 238); stroke-opacity: 1; stroke-width: 1px;"/><path class="xgrid crisp" d="M0,356.7v85.60000000000001" transform="translate(543.29,0)" style="stroke: rgb(238, 238, 238); stroke-opacity: 1; stroke-width: 1px;"/><path class="xgrid crisp" d="M0,356.7v85.60000000000001" transform="translate(617.67,0)" style="stroke: rgb(238, 238, 238); stroke-opacity: 1; stroke-width: 1px;"/><path class="xgrid crisp" d="M0,356.7v85.60000000000001" transform="translate(692,0)" style="stroke: rgb(238, 238, 238); stroke-opacity: 1; stroke-width: 1px;"/><path class="xgrid crisp" d="M0,356.7v85.60000000000001" transform="translate(766.34,0)" style="stroke: rgb(238, 238, 238); stroke-opacity: 1; stroke-width: 1px;"/></g><g class="y4"><path class="y4grid crisp" d="M60,0h710" transform="translate(0,434.39)" style="stroke: rgb(238, 238, 238); stroke-opacity: 1; stroke-width: 1px;"/><path class="y4grid crisp" d="M60,0h710" transform="translate(0,416.21999999999997)" style="stroke: rgb(238, 238, 238); stroke-opacity: 1; stroke-width: 1px;"/><path class="y4grid crisp" d="M60,0h710" transform="translate(0,398.05)" style="stroke: rgb(238, 238, 238); stroke-opacity: 1; stroke-width: 1px;"/><path class="y4grid crisp" d="M60,0h710" transform="translate(0,379.88)" style="stroke: rgb(238, 238, 238); stroke-opacity: 1; stroke-width: 1px;"/><path class="y4grid crisp" d="M60,0h710" transform="translate(0,361.71)" style="stroke: rgb(238, 238, 238); stroke-opacity: 1; stroke-width: 1px;"/></g></g><g class="zerolinelayer"/><path class="xlines-below"/><path class="ylines-below"/><g class="overlines-below"/><g class="xaxislayer-below"/><g class="yaxislayer-below"/><g class="overaxes-below"/><g class="plot" transform="translate(60, 356.7)" clip-path="url(#clipd559d1xy4plot)"><g class="scatterlayer mlayer"><g class="trace scatter tracebd0e30" style="stroke-miterlimit: 2; opacity: 1;"><g class="fills"/><g class="errorbars"/><g class="lines"><path class="js-line" d="M0,79.5L1.26,78.78L2.52,79.14L3.75,78.05L5.01,78.78L7.49,77.32L8.75,79.5L9.93,80.96L11.19,79.14L13.68,79.87L14.9,79.5L16.16,80.59L17.42,79.14L18.64,78.41L19.91,79.87L22.39,79.87L23.65,78.05L24.79,81.32L26.05,81.32L29.76,79.87L31.02,79.87L32.28,78.78L33.5,79.5L34.77,78.41L35.99,79.14L39.65,79.14L40.91,80.96L42.13,78.78L43.4,78.05L45.88,76.23L47.14,76.96L48.36,76.96L49.62,75.51L53.37,72.96L54.51,72.6L56.99,71.51L58.25,75.14L60.74,72.6L62,74.78L63.22,72.24L64.48,72.6L66.97,73.33L68.23,71.87L71.89,71.87L73.15,76.23L74.37,73.69L75.64,74.05L76.9,75.51L78.12,75.14L79.38,75.14L80.6,73.69L83.13,76.96L84.27,75.87L85.53,77.69L86.75,78.05L89.23,76.96L90.5,78.05L91.76,76.23L92.98,75.87L95.46,78.78L96.72,77.69L97.99,77.32L99.13,78.41L100.39,77.69L101.61,79.14L104.09,75.14L105.35,77.69L107.84,75.87L109.1,76.96L113.98,69.69L115.25,64.24L116.47,61.7L117.73,63.88L118.95,64.6L120.21,62.42L121.47,62.42L122.7,64.6L123.96,61.33L125.18,63.15L126.44,63.15L127.7,66.06L128.88,64.24L130.15,66.06L131.37,65.69L132.63,67.51L133.85,67.87L135.11,67.15L137.6,67.87L138.86,65.33L142.6,69.69L143.74,69.69L145,69.33L146.23,67.15L147.49,73.33L148.71,70.05L151.23,71.51L152.45,70.78L153.72,70.42L154.94,71.14L156.2,72.24L157.46,71.51L158.6,73.33L159.86,73.69L161.08,75.14L162.35,74.05L166.09,75.51L167.31,74.42L168.57,75.87L169.8,75.51L171.06,74.42L172.32,74.42L173.46,74.42L174.72,76.23L178.43,74.42L179.69,78.41L180.95,75.87L182.17,75.87L183.43,76.6L184.65,75.14L185.92,76.6L187.18,74.78L188.36,74.05L189.62,74.78L190.84,75.14L192.1,72.6L194.59,68.6L195.85,67.87L197.07,68.6L198.33,67.87L203.22,70.05L204.48,68.96L206.96,71.87L208.18,70.05L209.45,69.69L210.71,71.14L214.41,70.78L215.67,70.05L220.56,64.97L221.82,61.33L223.04,64.97L224.3,64.24L225.57,61.33L226.79,60.61L229.27,58.79L230.53,55.52L231.8,60.24L232.94,58.06L234.2,56.25L235.42,51.16L239.16,62.06L240.43,62.06L242.91,62.06L244.13,64.24L245.39,62.79L246.65,65.69L249.1,66.06L250.32,62.79L251.58,68.6L252.8,68.6L254.06,69.33L255.32,68.24L256.55,69.69L257.81,69.69L259.03,69.33L260.29,71.14L262.69,70.05L263.96,70.78L265.18,70.78L266.44,71.87L268.92,70.05L270.18,70.78L271.4,70.05L272.67,70.42L275.15,71.51L276.41,70.78L280.03,71.14L281.3,70.42L282.52,70.78L283.78,70.05L285.04,68.96L286.26,70.42L288.75,70.05L290.01,70.78L292.41,71.87L293.67,70.05L294.89,71.87L296.16,72.24L298.64,72.6L299.9,74.05L301.12,72.96L302.38,73.33L303.61,74.05L304.87,73.33L307.31,72.6L308.57,74.42L311.05,74.78L312.28,73.69L316.02,75.51L317.28,75.14L318.5,74.42L319.77,75.51L322.17,76.23L323.43,76.23L325.91,76.23L327.13,75.51L328.4,77.69L329.66,78.05L333.36,78.05L334.63,77.32L335.89,76.6L337.03,77.32L338.29,78.41L339.51,76.96L343.26,76.23L344.52,75.51L345.74,74.78L347,75.14L350.75,73.33L351.89,71.51L354.37,72.6L355.63,70.78L358.11,69.33L359.38,71.14L363.08,67.51L364.34,66.42L368.05,64.97L369.27,63.88L371.75,64.6L373.01,63.88L374.28,64.6L375.5,63.15L376.76,63.15L377.98,62.06L379.24,64.6L380.5,64.97L382.91,65.33L384.13,66.42L385.39,65.69L386.61,66.06L389.13,65.69L390.36,66.78L391.62,65.69L392.84,65.69L394.1,64.6L395.36,62.42L396.5,62.06L397.76,62.79L400.25,62.06L401.47,63.15L402.73,63.51L403.99,62.42L405.21,59.52L406.48,63.15L407.7,64.24L408.96,66.78L412.62,65.69L413.84,62.79L415.11,67.15L416.33,64.97L418.85,67.15L420.07,66.06L421.33,66.78L422.56,65.69L423.82,65.69L425.08,67.51L427.52,64.6L428.74,64.6L430.01,65.69L431.23,65.69L433.75,64.97L434.97,65.69L436.23,67.87L437.46,67.51L438.72,67.51L439.98,66.42L441.12,67.15L442.38,65.69L443.6,66.78L444.86,66.78L446.09,65.69L447.35,67.51L448.61,66.06L449.83,67.87L453.58,68.96L454.84,70.42L457.24,71.51L458.46,74.05L459.72,70.78L460.94,71.51L463.47,71.51L464.69,74.78L465.95,71.87L467.17,71.14L469.7,71.14L470.84,71.14L472.1,73.33L473.32,72.24L474.58,72.96L475.8,74.78L477.06,72.24L478.33,74.05L480.81,73.33L482.03,74.78L483.29,74.78L484.56,73.69L489.48,75.14L490.7,74.05L491.96,72.96L493.23,76.96L494.45,73.69L495.71,73.69L498.19,74.78L499.45,73.69L500.59,71.87L501.86,74.42L503.08,72.96L504.34,74.05L505.56,71.14L506.82,70.78L510.57,67.87L511.79,66.06L513.05,65.33L514.31,65.69L515.45,65.33L516.72,63.51L517.94,61.33L519.2,55.88L520.42,63.51L521.68,63.15L522.94,61.33L524.16,60.97L525.43,62.06L526.65,60.97L530.31,60.61L531.57,58.79L532.8,59.88L534.06,54.07L535.28,58.43L536.54,59.15L542.77,57.34L544.03,58.79L545.21,58.79L546.47,61.33L547.69,59.88L548.96,55.88L550.18,63.51L551.44,62.42L552.7,60.97L553.92,61.33L555.18,60.61L556.41,61.33L565.04,63.88L566.3,62.42L567.56,65.33L568.78,64.6L570.04,64.97L571.26,64.24L572.53,64.6L573.79,62.79L576.19,65.33L577.41,64.97L578.67,69.33L579.9,66.78L581.16,65.33L582.42,66.78L583.64,67.15L584.9,65.69L586.12,68.6L587.39,65.69L588.65,64.97L589.79,62.79L593.53,67.87L594.75,64.24L597.28,64.24L598.5,65.33L599.76,64.6L600.98,65.33L602.24,63.15L603.51,64.24L604.69,64.24L605.95,61.7L607.17,67.15L608.43,63.15L609.65,60.61L610.92,60.61L613.4,58.06L614.66,60.24L615.88,57.7L617.14,56.97L622.03,44.25L623.29,33.35L624.51,37.71L625.77,36.62L628.26,27.17L629.52,23.9L630.74,22.81L632,23.18L633.26,23.54L634.4,21.72L635.67,15.55L636.89,14.82L638.15,4.28L639.37,14.82L641.89,22.09L643.12,18.82L644.38,19.54L645.6,16.27L648.12,19.18L649.26,17.73L650.52,19.91L651.75,17.36L653.01,14.46L654.23,15.91L655.49,14.46L656.75,15.91L657.97,21L659.24,20.27L660.46,21.36L661.72,20.27L664.16,26.08L665.42,26.45L667.91,21.72L669.13,32.26L672.87,23.54L674.14,28.26L675.36,31.53L676.62,38.44L677.88,33.35L679.02,31.9L680.28,33.72L681.5,33.72L682.77,34.08L683.99,36.99L685.25,35.9L686.51,35.9L687.73,36.62L688.99,33.72L690.22,32.99L691.48,39.89L692.74,38.08L693.88,38.44L695.14,38.8L696.36,42.8L698.85,48.25L700.11,48.98L702.59,46.43L703.85,48.61L705.07,48.98L706.34,47.89L707.6,48.98L708.74,52.25L710,54.07" style="vector-effect: non-scaling-stroke; fill: none; stroke: rgb(214, 39, 40); stroke-opacity: 1; stroke-width: 2px; opacity: 1;"/></g><g class="points"/><g class="text"/></g></g></g><g class="overplot"/><path class="xlines-above crisp" d="M0,0" style="fill: none;"/><path class="ylines-above crisp" d="M0,0" style="fill: none;"/><g class="overlines-above"/><g class="xaxislayer-above"/><g class="yaxislayer-above"><g class="y4tick"><text text-anchor="end" x="59" y="4.199999999999999" transform="translate(0,434.39)" style="font-family: 'Open Sans', verdana, arial, sans-serif; font-size: 12px; fill: rgb(68, 68, 68); fill-opacity: 1; white-space: pre;">5</text></g><g class="y4tick"><text text-anchor="end" x="59" y="4.199999999999999" transform="translate(0,416.21999999999997)" style="font-family: 'Open Sans', verdana, arial, sans-serif; font-size: 12px; fill: rgb(68, 68, 68); fill-opacity: 1; white-space: pre;">10</text></g><g class="y4tick"><text text-anchor="end" x="59" y="4.199999999999999" transform="translate(0,398.05)" style="font-family: 'Open Sans', verdana, arial, sans-serif; font-size: 12px; fill: rgb(68, 68, 68); fill-opacity: 1; white-space: pre;">15</text></g><g class="y4tick"><text text-anchor="end" x="59" y="4.199999999999999" transform="translate(0,379.88)" style="font-family: 'Open Sans', verdana, arial, sans-serif; font-size: 12px; fill: rgb(68, 68, 68); fill-opacity: 1; white-space: pre;">20</text></g><g class="y4tick"><text text-anchor="end" x="59" y="4.199999999999999" transform="translate(0,361.71)" style="font-family: 'Open Sans', verdana, arial, sans-serif; font-size: 12px; fill: rgb(68, 68, 68); fill-opacity: 1; white-space: pre;">25</text></g></g><g class="overaxes-above"/></g><g class="subplot xy5"><g class="layer-subplot"><g class="shapelayer"/><g class="imagelayer"/></g><g class="gridlayer"><g class="x"><path class="xgrid crisp" d="M0,463.70000000000005v96.3" transform="translate(97.25,0)" style="stroke: rgb(238, 238, 238); stroke-opacity: 1; stroke-width: 1px;"/><path class="xgrid crisp" d="M0,463.70000000000005v96.3" transform="translate(171.57999999999998,0)" style="stroke: rgb(238, 238, 238); stroke-opacity: 1; stroke-width: 1px;"/><path class="xgrid crisp" d="M0,463.70000000000005v96.3" transform="translate(245.92,0)" style="stroke: rgb(238, 238, 238); stroke-opacity: 1; stroke-width: 1px;"/><path class="xgrid crisp" d="M0,463.70000000000005v96.3" transform="translate(320.29,0)" style="stroke: rgb(238, 238, 238); stroke-opacity: 1; stroke-width: 1px;"/><path class="xgrid crisp" d="M0,463.70000000000005v96.3" transform="translate(394.63,0)" style="stroke: rgb(238, 238, 238); stroke-opacity: 1; stroke-width: 1px;"/><path class="xgrid crisp" d="M0,463.70000000000005v96.3" transform="translate(468.96,0)" style="stroke: rgb(238, 238, 238); stroke-opacity: 1; stroke-width: 1px;"/><path class="xgrid crisp" d="M0,463.70000000000005v96.3" transform="translate(543.29,0)" style="stroke: rgb(238, 238, 238); stroke-opacity: 1; stroke-width: 1px;"/><path class="xgrid crisp" d="M0,463.70000000000005v96.3" transform="translate(617.67,0)" style="stroke: rgb(238, 238, 238); stroke-opacity: 1; stroke-width: 1px;"/><path class="xgrid crisp" d="M0,463.70000000000005v96.3" transform="translate(692,0)" style="stroke: rgb(238, 238, 238); stroke-opacity: 1; stroke-width: 1px;"/><path class="xgrid crisp" d="M0,463.70000000000005v96.3" transform="translate(766.34,0)" style="stroke: rgb(238, 238, 238); stroke-opacity: 1; stroke-width: 1px;"/></g><g class="y5"><path class="y5grid crisp" d="M60,0h710" transform="translate(0,539.35)" style="stroke: rgb(238, 238, 238); stroke-opacity: 1; stroke-width: 1px;"/><path class="y5grid crisp" d="M60,0h710" transform="translate(0,505.13000000000005)" style="stroke: rgb(238, 238, 238); stroke-opacity: 1; stroke-width: 1px;"/><path class="y5grid crisp" d="M60,0h710" transform="translate(0,470.9200000000001)" style="stroke: rgb(238, 238, 238); stroke-opacity: 1; stroke-width: 1px;"/></g></g><g class="zerolinelayer"/><path class="xlines-below"/><path class="ylines-below"/><g class="overlines-below"/><g class="xaxislayer-below"/><g class="yaxislayer-below"/><g class="overaxes-below"/><g class="plot" transform="translate(60, 463.70000000000005)" clip-path="url(#clipd559d1xy5plot)"><g class="scatterlayer mlayer"><g class="trace scatter trace4b001b" style="stroke-miterlimit: 2; opacity: 1;"><g class="fills"/><g class="errorbars"/><g class="lines"><path class="js-line" d="M0,89.71L2.52,89.62L3.75,88.35L7.49,90.16L8.75,89.32L11.19,91.32L12.42,91.11L13.68,89.75L14.9,90.13L17.42,91.48L18.64,91.46L26.05,90.99L27.27,91.29L29.76,90.23L31.02,90.31L32.28,89.06L33.5,88.99L34.77,90.31L35.99,90.12L39.65,84.98L40.91,83.88L48.36,78.44L49.62,76.34L50.85,75.13L52.11,75.74L53.37,76.31L54.51,75.73L58.25,75.99L59.48,75.41L60.74,74.73L62,75.36L63.22,75.96L64.48,74.54L65.7,74.59L66.97,75.52L68.23,76.14L69.41,75.39L71.89,76.18L73.15,76.17L78.12,76.5L79.38,78.37L80.6,78.77L81.87,80.26L83.13,79.39L84.27,79.79L85.53,79.35L86.75,80.24L89.23,80.4L90.5,80.4L91.76,80.09L92.98,81.5L95.46,79.14L96.72,78.08L97.99,77.49L99.13,78.15L101.61,77.66L102.87,76.14L104.09,75.21L105.35,75.49L106.62,72.66L107.84,72.07L111.58,58.53L112.84,58.4L115.25,53.68L116.47,52.16L120.21,55.61L121.47,55.65L125.18,56.87L126.44,58.31L128.88,60.39L130.15,59.7L131.37,61.6L132.63,59.76L135.11,58.42L136.37,59.36L137.6,59.02L138.86,57.72L140.08,58.23L141.34,60.05L142.6,58.93L143.74,59.86L146.23,62.57L147.49,61.04L148.71,63.13L149.97,62.47L151.23,63.66L152.45,63.58L153.72,63.23L154.94,66.16L156.2,65.46L157.46,66.63L158.6,66.5L159.86,67.57L162.35,68.61L163.57,66.69L164.83,68.26L166.09,67.95L167.31,69.17L168.57,68.28L169.8,67.24L171.06,68.06L172.32,67.62L173.46,68.06L174.72,68.33L175.94,69.9L178.43,68.83L179.69,66.61L180.95,67.5L182.17,66.78L183.43,67.17L184.65,66.58L185.92,64.13L187.18,64L188.36,63.82L189.62,59.51L190.84,55.23L192.1,54.45L193.33,52.64L194.59,53.2L195.85,54.98L197.07,54.52L198.33,54.96L199.55,57.05L200.82,54.63L202.08,54.77L204.48,56.02L205.7,53.93L206.96,54.45L208.18,56.06L210.71,53.55L211.93,50.7L214.41,46.45L215.67,45.56L219.34,39.76L220.56,39.14L223.04,35.63L224.3,35.41L229.27,27.4L230.53,30.94L231.8,30.86L232.94,31.8L235.42,33.54L236.68,32.91L237.9,37.68L239.16,37.17L245.39,48.22L246.65,49.71L249.1,49.91L250.32,52L251.58,53.57L252.8,51.44L254.06,51.57L255.32,52.61L256.55,52.51L257.81,53.76L260.29,52.22L261.55,52.92L263.96,52.42L265.18,53.05L267.66,51.61L268.92,53.78L271.4,53.08L272.67,54.24L273.89,54.17L275.15,56.52L276.41,52.37L277.55,52.5L280.03,52.12L281.3,51.64L283.78,54.2L285.04,53L287.53,54.03L288.75,55.92L292.41,56.06L293.67,58.25L294.89,58.03L296.16,59.24L299.9,61.26L301.12,60.41L303.61,62.4L304.87,62.28L307.31,62.81L308.57,64.69L309.79,63.47L311.05,65.07L312.28,64.66L313.54,63.04L314.8,64.67L316.02,64.92L318.5,65.26L319.77,64.14L322.17,67.4L323.43,65.6L324.65,66.24L325.91,64.86L328.4,65.31L329.66,64.77L334.63,63.66L335.89,64.35L337.03,64.71L338.29,63.35L340.77,64.77L341.99,62.49L344.52,59.44L345.74,58.82L348.22,55.8L349.48,55.02L351.89,51.11L353.15,52.12L354.37,50.08L355.63,50.38L356.85,51.11L358.11,50.56L361.86,48.75L363.08,46.92L366.79,45.13L368.05,45.44L370.53,41.16L371.75,42.46L374.28,42.93L375.5,45.55L376.76,44.41L377.98,44.47L381.64,47.89L382.91,47.52L385.39,47.45L386.61,48.76L389.13,50.23L390.36,49.99L392.84,51.86L394.1,50.81L396.5,51.9L397.76,52.85L398.99,55.7L400.25,55.62L402.73,55.58L403.99,56.94L405.21,57.64L406.48,59.4L407.7,60.39L408.96,59.4L411.36,60.91L412.62,57.55L413.84,59.02L415.11,59.04L416.33,58.36L417.59,58.65L418.85,58.69L420.07,59.72L422.56,59.07L423.82,58.6L425.08,59.82L426.26,59.79L428.74,59.07L430.01,61.31L431.23,59.66L432.49,62.77L437.46,60.23L438.72,60.88L441.12,61.96L442.38,62.83L443.6,64.32L444.86,63.34L447.35,64.64L448.61,64.31L451.09,66.7L452.31,65.55L454.84,66.71L455.98,65.92L457.24,69.21L458.46,68.48L460.94,67.03L462.21,67.58L463.47,66.75L464.69,66.89L467.17,68.58L468.43,68.97L469.7,68.04L470.84,70.29L472.1,68.78L473.32,70.2L475.8,68.63L477.06,69.91L478.33,69.38L479.55,70.32L482.03,71.18L483.29,70.8L484.56,69.77L485.74,70.63L487,72.35L488.22,70.46L489.48,71.19L490.7,70.53L491.96,69.81L493.23,71.37L494.45,71.99L495.71,71.27L496.93,71.31L498.19,68.65L503.08,67.26L504.34,65.49L505.56,64.81L506.82,61.67L508.08,60.99L509.31,57.21L511.79,53.35L513.05,53.87L515.45,53.04L516.72,51.02L517.94,52.39L519.2,52.43L521.68,53.04L522.94,53.4L524.16,53.02L525.43,51.56L526.65,50.74L527.91,51.56L530.31,51.1L531.57,49.36L532.8,48.57L534.06,46.46L536.54,48.99L537.8,48.82L541.51,52.95L542.77,52.59L544.03,53.98L545.21,51.76L546.47,53.96L547.69,53.67L548.96,53.16L550.18,54.19L552.7,55.62L553.92,54.7L557.67,56.6L558.93,55.26L560.07,56.92L561.33,57.36L563.82,58.38L565.04,59.18L566.3,59.6L567.56,58.18L568.78,58.86L570.04,58.09L572.53,61.52L573.79,60.7L574.93,61.47L576.19,61.14L577.41,62.1L578.67,61.95L579.9,60.76L581.16,61.34L583.64,63.83L584.9,62.84L586.12,63.59L587.39,61.17L589.79,63.8L591.05,62.99L592.27,63.56L593.53,62.1L594.75,60.94L596.02,61.5L598.5,60.34L599.76,60.32L600.98,57.55L602.24,57.27L603.51,58.56L604.69,56.34L605.95,57.6L607.17,52.42L608.43,51.18L609.65,48.71L610.92,45.28L612.18,44.9L617.14,27.35L618.41,21.61L622.03,10.65L623.29,9.23L624.51,9.95L625.77,8.5L628.26,4.81L629.52,5.73L632,6.91L633.26,6.45L635.67,5L636.89,8.26L638.15,10.82L639.37,10.56L640.63,9.63L641.89,10.1L643.12,10.54L644.38,6.67L646.86,13.98L648.12,15.3L649.26,15.87L650.52,14.36L651.75,15.06L653.01,14.33L654.23,15.69L655.49,15.31L656.75,14.42L657.97,16.84L661.72,22.3L662.98,22.19L665.42,23.33L666.65,23.23L669.13,23.26L670.39,24.53L671.65,26.96L672.87,26.9L674.14,27.72L675.36,25.71L676.62,24.53L677.88,28.09L679.02,29.88L680.28,29.39L681.5,30.12L682.77,29.45L683.99,32.3L685.25,32.68L686.51,32.74L687.73,33.66L691.48,40.05L692.74,39.05L693.88,38.83L695.14,43.47L696.36,42.4L697.62,45.13L698.85,44.12L700.11,44.18L702.59,48.35L703.85,47.66L705.07,50.21L706.34,48.94L708.74,51.67L710,51.52" style="vector-effect: non-scaling-stroke; fill: none; stroke: rgb(148, 103, 189); stroke-opacity: 1; stroke-width: 2px; opacity: 1;"/></g><g class="points"/><g class="text"/></g></g></g><g class="overplot"/><path class="xlines-above crisp" d="M0,0" style="fill: none;"/><path class="ylines-above crisp" d="M0,0" style="fill: none;"/><g class="overlines-above"/><g class="xaxislayer-above"><g class="xtick"><text text-anchor="middle" x="0" y="573" transform="translate(97.25,0)" style="font-family: 'Open Sans', verdana, arial, sans-serif; font-size: 12px; fill: rgb(68, 68, 68); fill-opacity: 1; white-space: pre;">1970</text></g><g class="xtick"><text text-anchor="middle" x="0" y="573" transform="translate(171.57999999999998,0)" style="font-family: 'Open Sans', verdana, arial, sans-serif; font-size: 12px; fill: rgb(68, 68, 68); fill-opacity: 1; white-space: pre;">1975</text></g><g class="xtick"><text text-anchor="middle" x="0" y="573" transform="translate(245.92,0)" style="font-family: 'Open Sans', verdana, arial, sans-serif; font-size: 12px; fill: rgb(68, 68, 68); fill-opacity: 1; white-space: pre;">1980</text></g><g class="xtick"><text text-anchor="middle" x="0" y="573" transform="translate(320.29,0)" style="font-family: 'Open Sans', verdana, arial, sans-serif; font-size: 12px; fill: rgb(68, 68, 68); fill-opacity: 1; white-space: pre;">1985</text></g><g class="xtick"><text text-anchor="middle" x="0" y="573" transform="translate(394.63,0)" style="font-family: 'Open Sans', verdana, arial, sans-serif; font-size: 12px; fill: rgb(68, 68, 68); fill-opacity: 1; white-space: pre;">1990</text></g><g class="xtick"><text text-anchor="middle" x="0" y="573" transform="translate(468.96,0)" style="font-family: 'Open Sans', verdana, arial, sans-serif; font-size: 12px; fill: rgb(68, 68, 68); fill-opacity: 1; white-space: pre;">1995</text></g><g class="xtick"><text text-anchor="middle" x="0" y="573" transform="translate(543.29,0)" style="font-family: 'Open Sans', verdana, arial, sans-serif; font-size: 12px; fill: rgb(68, 68, 68); fill-opacity: 1; white-space: pre;">2000</text></g><g class="xtick"><text text-anchor="middle" x="0" y="573" transform="translate(617.67,0)" style="font-family: 'Open Sans', verdana, arial, sans-serif; font-size: 12px; fill: rgb(68, 68, 68); fill-opacity: 1; white-space: pre;">2005</text></g><g class="xtick"><text text-anchor="middle" x="0" y="573" transform="translate(692,0)" style="font-family: 'Open Sans', verdana, arial, sans-serif; font-size: 12px; fill: rgb(68, 68, 68); fill-opacity: 1; white-space: pre;">2010</text></g><g class="xtick"><text text-anchor="middle" x="0" y="573" transform="translate(766.34,0)" style="font-family: 'Open Sans', verdana, arial, sans-serif; font-size: 12px; fill: rgb(68, 68, 68); fill-opacity: 1; white-space: pre;">2015</text></g></g><g class="yaxislayer-above"><g class="y5tick"><text text-anchor="end" x="59" y="4.199999999999999" transform="translate(0,539.35)" style="font-family: 'Open Sans', verdana, arial, sans-serif; font-size: 12px; fill: rgb(68, 68, 68); fill-opacity: 1; white-space: pre;">5k</text></g><g class="y5tick"><text text-anchor="end" x="59" y="4.199999999999999" transform="translate(0,505.13000000000005)" style="font-family: 'Open Sans', verdana, arial, sans-serif; font-size: 12px; fill: rgb(68, 68, 68); fill-opacity: 1; white-space: pre;">10k</text></g><g class="y5tick"><text text-anchor="end" x="59" y="4.199999999999999" transform="translate(0,470.9200000000001)" style="font-family: 'Open Sans', verdana, arial, sans-serif; font-size: 12px; fill: rgb(68, 68, 68); fill-opacity: 1; white-space: pre;">15k</text></g></g><g class="overaxes-above"/></g></g><g class="polarlayer"/><g class="ternarylayer"/><g class="geolayer"/><g class="pielayer"/><g class="glimages"/><defs id="topdefs-d559d1"><g class="clips"/><clipPath id="legendd559d1"><rect width="106" height="105" x="0" y="0"/></clipPath></defs><g class="layer-above"><g class="imagelayer"/><g class="shapelayer"/></g><g class="infolayer"><g class="legend" pointer-events="all" transform="translate(784.2, 25)"><rect class="bg" shape-rendering="crispEdges" style="stroke: rgb(68, 68, 68); stroke-opacity: 1; fill: rgb(255, 255, 255); fill-opacity: 1; stroke-width: 0px;" width="106" height="105" x="0" y="0"/><g class="scrollbox" transform="translate(0, 0)" clip-path="url(#legendd559d1)"><g class="groups"><g class="traces" transform="translate(0, 14.5)" style="opacity: 1;"><g class="layers" style="opacity: 1;"><g class="legendfill"/><g class="legendlines"><path class="js-line" d="M5,0h30" style="fill: none; stroke: rgb(31, 119, 180); stroke-opacity: 1; stroke-width: 2px;"/></g><g class="legendsymbols"><g class="legendpoints"/></g></g><text class="legendtext user-select-none" text-anchor="start" x="40" y="4.680000000000001" style="font-family: 'Open Sans', verdana, arial, sans-serif; font-size: 12px; fill: rgb(68, 68, 68); fill-opacity: 1; white-space: pre;">pce</text><rect class="legendtoggle" pointer-events="all" style="cursor: pointer; fill: rgb(0, 0, 0); fill-opacity: 0;" x="0" y="-9.5" width="146" height="19"/></g><g class="traces" transform="translate(0, 33.5)" style="opacity: 1;"><g class="layers" style="opacity: 1;"><g class="legendfill"/><g class="legendlines"><path class="js-line" d="M5,0h30" style="fill: none; stroke: rgb(255, 127, 14); stroke-opacity: 1; stroke-width: 2px;"/></g><g class="legendsymbols"><g class="legendpoints"/></g></g><text class="legendtext user-select-none" text-anchor="start" x="40" y="4.680000000000001" style="font-family: 'Open Sans', verdana, arial, sans-serif; font-size: 12px; fill: rgb(68, 68, 68); fill-opacity: 1; white-space: pre;">pop</text><rect class="legendtoggle" pointer-events="all" style="cursor: pointer; fill: rgb(0, 0, 0); fill-opacity: 0;" x="0" y="-9.5" width="146" height="19"/></g><g class="traces" transform="translate(0, 52.5)" style="opacity: 1;"><g class="layers" style="opacity: 1;"><g class="legendfill"/><g class="legendlines"><path class="js-line" d="M5,0h30" style="fill: none; stroke: rgb(44, 160, 44); stroke-opacity: 1; stroke-width: 2px;"/></g><g class="legendsymbols"><g class="legendpoints"/></g></g><text class="legendtext user-select-none" text-anchor="start" x="40" y="4.680000000000001" style="font-family: 'Open Sans', verdana, arial, sans-serif; font-size: 12px; fill: rgb(68, 68, 68); fill-opacity: 1; white-space: pre;">psavert</text><rect class="legendtoggle" pointer-events="all" style="cursor: pointer; fill: rgb(0, 0, 0); fill-opacity: 0;" x="0" y="-9.5" width="146" height="19"/></g><g class="traces" transform="translate(0, 71.5)" style="opacity: 1;"><g class="layers" style="opacity: 1;"><g class="legendfill"/><g class="legendlines"><path class="js-line" d="M5,0h30" style="fill: none; stroke: rgb(214, 39, 40); stroke-opacity: 1; stroke-width: 2px;"/></g><g class="legendsymbols"><g class="legendpoints"/></g></g><text class="legendtext user-select-none" text-anchor="start" x="40" y="4.680000000000001" style="font-family: 'Open Sans', verdana, arial, sans-serif; font-size: 12px; fill: rgb(68, 68, 68); fill-opacity: 1; white-space: pre;">uempmed</text><rect class="legendtoggle" pointer-events="all" style="cursor: pointer; fill: rgb(0, 0, 0); fill-opacity: 0;" x="0" y="-9.5" width="146" height="19"/></g><g class="traces" transform="translate(0, 90.5)" style="opacity: 1;"><g class="layers" style="opacity: 1;"><g class="legendfill"/><g class="legendlines"><path class="js-line" d="M5,0h30" style="fill: none; stroke: rgb(148, 103, 189); stroke-opacity: 1; stroke-width: 2px;"/></g><g class="legendsymbols"><g class="legendpoints"/></g></g><text class="legendtext user-select-none" text-anchor="start" x="40" y="4.680000000000001" style="font-family: 'Open Sans', verdana, arial, sans-serif; font-size: 12px; fill: rgb(68, 68, 68); fill-opacity: 1; white-space: pre;">unemploy</text><rect class="legendtoggle" pointer-events="all" x="0" y="-9.5" width="146" height="19" style="cursor: pointer; fill: rgb(0, 0, 0); fill-opacity: 0;"/></g></g></g><rect class="scrollbar" rx="20" ry="3" width="0" height="0" style="fill: rgb(128, 139, 164); fill-opacity: 1;" x="0" y="0"/></g><g class="g-gtitle"/><g class="g-xtitle"/><g class="g-ytitle"/><g class="g-y2title"/><g class="g-y3title"/><g class="g-y4title"/><g class="g-y5title"/></g></svg>