<svg class="main-svg" xmlns="http://www.w3.org/2000/svg" xmlns:xlink="http://www.w3.org/1999/xlink" width="900" height="400" viewBox="0 0 900 400"><rect x="0" y="0" width="900" height="400" style="fill: rgb(255, 255, 255); fill-opacity: 1;"/><defs id="defs-723de8"><g class="clips"><clipPath id="clip723de8xyplot" class="plotclip"><rect width="738" height="335"/></clipPath><clipPath class="axesclip" id="clip723de8x"><rect x="59" y="0" width="738" height="400"/></clipPath><clipPath class="axesclip" id="clip723de8y"><rect x="0" y="23" width="900" height="335"/></clipPath><clipPath class="axesclip" id="clip723de8xy"><rect x="59" y="23" width="738" height="335"/></clipPath></g><g class="gradients"/></defs><g class="bglayer"><rect class="bg" x="59" y="23" width="738" height="335" style="fill: rgb(235, 235, 235); fill-opacity: 1; stroke-width: 0;"/></g><g class="layer-below"><g class="imagelayer"/><g class="shapelayer"/></g><g class="cartesianlayer"><g class="subplot xy"><g class="layer-subplot"><g class="shapelayer"/><g class="imagelayer"/></g><g class="gridlayer"><g class="x"><path class="xgrid crisp" d="M0,23v335" transform="translate(102.16,0)" style="stroke: rgb(255, 255, 255); stroke-opacity: 1; stroke-width: 0.664176px;"/><path class="xgrid crisp" d="M0,23v335" transform="translate(147.76999999999998,0)" style="stroke: rgb(255, 255, 255); stroke-opacity: 1; stroke-width: 0.664176px;"/><path class="xgrid crisp" d="M0,23v335" transform="translate(255.9,0)" style="stroke: rgb(255, 255, 255); stroke-opacity: 1; stroke-width: 0.664176px;"/><path class="xgrid crisp" d="M0,23v335" transform="translate(417.08,0)" style="stroke: rgb(255, 255, 255); stroke-opacity: 1; stroke-width: 0.664176px;"/><path class="xgrid crisp" d="M0,23v335" transform="translate(634.79,0)" style="stroke: rgb(255, 255, 255); stroke-opacity: 1; stroke-width: 0.664176px;"/></g><g class="y"><path class="ygrid crisp" d="M59,0h738" transform="translate(0,324.24)" style="stroke: rgb(255, 255, 255); stroke-opacity: 1; stroke-width: 0.664176px;"/><path class="ygrid crisp" d="M59,0h738" transform="translate(0,261.65999999999997)" style="stroke: rgb(255, 255, 255); stroke-opacity: 1; stroke-width: 0.664176px;"/><path class="ygrid crisp" d="M59,0h738" transform="translate(0,181.62)" style="stroke: rgb(255, 255, 255); stroke-opacity: 1; stroke-width: 0.664176px;"/><path class="ygrid crisp" d="M59,0h738" transform="translate(0,119.66)" style="stroke: rgb(255, 255, 255); stroke-opacity: 1; stroke-width: 0.664176px;"/><path class="ygrid crisp" d="M59,0h738" transform="translate(0,78.71000000000001)" style="stroke: rgb(255, 255, 255); stroke-opacity: 1; stroke-width: 0.664176px;"/><path class="ygrid crisp" d="M59,0h738" transform="translate(0,54.72)" style="stroke: rgb(255, 255, 255); stroke-opacity: 1; stroke-width: 0.664176px;"/><path class="ygrid crisp" d="M59,0h738" transform="translate(0,44.22)" style="stroke: rgb(255, 255, 255); stroke-opacity: 1; stroke-width: 0.664176px;"/><path class="ygrid crisp" d="M59,0h738" transform="translate(0,39.019999999999996)" style="stroke: rgb(255, 255, 255); stroke-opacity: 1; stroke-width: 0.664176px;"/></g></g><g class="zerolinelayer"/><path class="xlines-below"/><path class="ylines-below"/><g class="overlines-below"/><g class="xaxislayer-below"/><g class="yaxislayer-below"/><g class="overaxes-below"/><g class="plot" transform="translate(59, 23)" clip-path="url(#clip723de8xyplot)"><g class="scatterlayer mlayer"><g class="trace scatter trace2aca89" style="stroke-miterlimit: 2; opacity: 1;"><g class="fills"><g><path class="js-fill" d="M33.55,319.77L33.55,282.7L52.77,282.7L52.77,319.77L33.55,319.77Z" style="fill: rgb(68, 1, 84); fill-opacity: 0.8; stroke-width: 0;"/></g></g><g class="errorbars"/><g class="lines"><path class="js-line" d="M33.55,319.77L33.55,282.7L52.77,282.7L52.77,319.77L33.55,319.77" style="vector-effect: non-scaling-stroke; fill: none; stroke: rgb(0, 0, 0); stroke-opacity: 0; stroke-width: 0.377953px; opacity: 1;"/></g><g class="points"/><g class="text"/></g><g class="trace scatter tracedd3a2d" style="stroke-miterlimit: 2; opacity: 1;"><g class="fills"><g><path class="js-fill" d="M59.48,319.77L59.48,314.21L118.06,314.21L118.06,319.77L59.48,319.77Z" style="fill: rgb(68, 1, 84); fill-opacity: 0.8; stroke-width: 0;"/></g></g><g class="errorbars"/><g class="lines"><path class="js-line" d="M59.48,319.77L59.48,314.21L118.06,314.21L118.06,319.77L59.48,319.77" style="vector-effect: non-scaling-stroke; fill: none; stroke: rgb(0, 0, 0); stroke-opacity: 0; stroke-width: 0.377953px; opacity: 1;"/></g><g class="points"/><g class="text"/></g><g class="trace scatter traceb279d7" style="stroke-miterlimit: 2; opacity: 1;"><g class="fills"><g><path class="js-fill" d="M447.12,319.77L447.12,317.85L704.45,317.85L704.45,319.77L447.12,319.77Z" style="fill: rgb(68, 1, 84); fill-opacity: 0.8; stroke-width: 0;"/></g></g><g class="errorbars"/><g class="lines"><path class="js-line" d="M447.12,319.77L447.12,317.85L704.45,317.85L704.45,319.77L447.12,319.77" style="vector-effect: non-scaling-stroke; fill: none; stroke: rgb(0, 0, 0); stroke-opacity: 0; stroke-width: 0.377953px; opacity: 1;"/></g><g class="points"/><g class="text"/></g><g class="trace scatter trace7afe76" style="stroke-miterlimit: 2; opacity: 1;"><g class="fills"><g><path class="js-fill" d="M275.74,319.77L275.74,315.55L440.41,315.55L440.41,319.77L275.74,319.77Z" style="fill: rgb(68, 1, 84); fill-opacity: 0.8; stroke-width: 0;"/></g></g><g class="errorbars"/><g class="lines"><path class="js-line" d="M275.74,319.77L275.74,315.55L440.41,315.55L440.41,319.77L275.74,319.77" style="vector-effect: non-scaling-stroke; fill: none; stroke: rgb(0, 0, 0); stroke-opacity: 0; stroke-width: 0.377953px; opacity: 1;"/></g><g class="points"/><g class="text"/></g><g class="trace scatter trace8ec867" style="stroke-miterlimit: 2; opacity: 1;"><g class="fills"><g><path class="js-fill" d="M124.77,319.77L124.77,317.8L269.03,317.8L269.03,319.77L124.77,319.77Z" style="fill: rgb(68, 1, 84); fill-opacity: 0.8; stroke-width: 0;"/></g></g><g class="errorbars"/><g class="lines"><path class="js-line" d="M124.77,319.77L124.77,317.8L269.03,317.8L269.03,319.77L124.77,319.77" style="vector-effect: non-scaling-stroke; fill: none; stroke: rgb(0, 0, 0); stroke-opacity: 0; stroke-width: 0.377953px; opacity: 1;"/></g><g class="points"/><g class="text"/></g><g class="trace scatter trace02228d" style="stroke-miterlimit: 2; opacity: 1;"><g class="fills"><g><path class="js-fill" d="M33.55,279.8L33.55,197.53L52.77,197.53L52.77,279.8L33.55,279.8Z" style="fill: rgb(70, 51, 126); fill-opacity: 0.8; stroke-width: 0;"/></g></g><g class="errorbars"/><g class="lines"><path class="js-line" d="M33.55,279.8L33.55,197.53L52.77,197.53L52.77,279.8L33.55,279.8" style="vector-effect: non-scaling-stroke; fill: none; stroke: rgb(0, 0, 0); stroke-opacity: 0; stroke-width: 0.377953px; opacity: 1;"/></g><g class="points"/><g class="text"/></g><g class="trace scatter trace5ae67e" style="stroke-miterlimit: 2; opacity: 1;"><g class="fills"><g><path class="js-fill" d="M59.48,311.31L59.48,248.68L118.06,248.68L118.06,311.31L59.48,311.31Z" style="fill: rgb(70, 51, 126); fill-opacity: 0.8; stroke-width: 0;"/></g></g><g class="errorbars"/><g class="lines"><path class="js-line" d="M59.48,311.31L59.48,248.68L118.06,248.68L118.06,311.31L59.48,311.31" style="vector-effect: non-scaling-stroke; fill: none; stroke: rgb(0, 0, 0); stroke-opacity: 0; stroke-width: 0.377953px; opacity: 1;"/></g><g class="points"/><g class="text"/></g><g class="trace scatter trace9e5846" style="stroke-miterlimit: 2; opacity: 1;"><g class="fills"><g><path class="js-fill" d="M447.12,314.94L447.12,280.68L704.45,280.68L704.45,314.94L447.12,314.94Z" style="fill: rgb(70, 51, 126); fill-opacity: 0.8; stroke-width: 0;"/></g></g><g class="errorbars"/><g class="lines"><path class="js-line" d="M447.12,314.94L447.12,280.68L704.45,280.68L704.45,314.94L447.12,314.94" style="vector-effect: non-scaling-stroke; fill: none; stroke: rgb(0, 0, 0); stroke-opacity: 0; stroke-width: 0.377953px; opacity: 1;"/></g><g class="points"/><g class="text"/></g><g class="trace scatter trace293068" style="stroke-miterlimit: 2; opacity: 1;"><g class="fills"><g><path class="js-fill" d="M275.74,312.64L275.74,251.87L440.41,251.87L440.41,312.64L275.74,312.64Z" style="fill: rgb(70, 51, 126); fill-opacity: 0.8; stroke-width: 0;"/></g></g><g class="errorbars"/><g class="lines"><path class="js-line" d="M275.74,312.64L275.74,251.87L440.41,251.87L440.41,312.64L275.74,312.64" style="vector-effect: non-scaling-stroke; fill: none; stroke: rgb(0, 0, 0); stroke-opacity: 0; stroke-width: 0.377953px; opacity: 1;"/></g><g class="points"/><g class="text"/></g><g class="trace scatter traceacb461" style="stroke-miterlimit: 2; opacity: 1;"><g class="fills"><g><path class="js-fill" d="M124.77,314.89L124.77,265.49L269.03,265.49L269.03,314.89L124.77,314.89Z" style="fill: rgb(70, 51, 126); fill-opacity: 0.8; stroke-width: 0;"/></g></g><g class="errorbars"/><g class="lines"><path class="js-line" d="M124.77,314.89L124.77,265.49L269.03,265.49L269.03,314.89L124.77,314.89" style="vector-effect: non-scaling-stroke; fill: none; stroke: rgb(0, 0, 0); stroke-opacity: 0; stroke-width: 0.377953px; opacity: 1;"/></g><g class="points"/><g class="text"/></g><g class="trace scatter tracebe71c9" style="stroke-miterlimit: 2; opacity: 1;"><g class="fills"><g><path class="js-fill" d="M33.55,194.63L33.55,122.6L52.77,122.6L52.77,194.63L33.55,194.63Z" style="fill: rgb(54, 92, 141); fill-opacity: 0.8; stroke-width: 0;"/></g></g><g class="errorbars"/><g class="lines"><path class="js-line" d="M33.55,194.63L33.55,122.6L52.77,122.6L52.77,194.63L33.55,194.63" style="vector-effect: non-scaling-stroke; fill: none; stroke: rgb(0, 0, 0); stroke-opacity: 0; stroke-width: 0.377953px; opacity: 1;"/></g><g class="points"/><g class="text"/></g><g class="trace scatter tracecd71f7" style="stroke-miterlimit: 2; opacity: 1;"><g class="fills"><g><path class="js-fill" d="M59.48,245.78L59.48,155.4L118.06,155.4L118.06,245.78L59.48,245.78Z" style="fill: rgb(54, 92, 141); fill-opacity: 0.8; stroke-width: 0;"/></g></g><g class="errorbars"/><g class="lines"><path class="js-line" d="M59.48,245.78L59.48,155.4L118.06,155.4L118.06,245.78L59.48,245.78" style="vector-effect: non-scaling-stroke; fill: none; stroke: rgb(0, 0, 0); stroke-opacity: 0; stroke-width: 0.377953px; opacity: 1;"/></g><g class="points"/><g class="text"/></g><g class="trace scatter traced2b109" style="stroke-miterlimit: 2; opacity: 1;"><g class="fills"><g><path class="js-fill" d="M447.12,277.78L447.12,221.3L704.45,221.3L704.45,277.78L447.12,277.78Z" style="fill: rgb(54, 92, 141); fill-opacity: 0.8; stroke-width: 0;"/></g></g><g class="errorbars"/><g class="lines"><path class="js-line" d="M447.12,277.78L447.12,221.3L704.45,221.3L704.45,277.78L447.12,277.78" style="vector-effect: non-scaling-stroke; fill: none; stroke: rgb(0, 0, 0); stroke-opacity: 0; stroke-width: 0.377953px; opacity: 1;"/></g><g class="points"/><g class="text"/></g><g class="trace scatter trace0e2081" style="stroke-miterlimit: 2; opacity: 1;"><g class="fills"><g><path class="js-fill" d="M275.74,248.96L275.74,175.29L440.41,175.29L440.41,248.96L275.74,248.96Z" style="fill: rgb(54, 92, 141); fill-opacity: 0.8; stroke-width: 0;"/></g></g><g class="errorbars"/><g class="lines"><path class="js-line" d="M275.74,248.96L275.74,175.29L440.41,175.29L440.41,248.96L275.74,248.96" style="vector-effect: non-scaling-stroke; fill: none; stroke: rgb(0, 0, 0); stroke-opacity: 0; stroke-width: 0.377953px; opacity: 1;"/></g><g class="points"/><g class="text"/></g><g class="trace scatter tracee91403" style="stroke-miterlimit: 2; opacity: 1;"><g class="fills"><g><path class="js-fill" d="M124.77,262.59L124.77,186.37L269.03,186.37L269.03,262.59L124.77,262.59Z" style="fill: rgb(54, 92, 141); fill-opacity: 0.8; stroke-width: 0;"/></g></g><g class="errorbars"/><g class="lines"><path class="js-line" d="M124.77,262.59L124.77,186.37L269.03,186.37L269.03,262.59L124.77,262.59" style="vector-effect: non-scaling-stroke; fill: none; stroke: rgb(0, 0, 0); stroke-opacity: 0; stroke-width: 0.377953px; opacity: 1;"/></g><g class="points"/><g class="text"/></g><g class="trace scatter trace242417" style="stroke-miterlimit: 2; opacity: 1;"><g class="fills"><g><path class="js-fill" d="M33.55,119.7L33.55,73.62L52.77,73.62L52.77,119.7L33.55,119.7Z" style="fill: rgb(39, 127, 142); fill-opacity: 0.8; stroke-width: 0;"/></g></g><g class="errorbars"/><g class="lines"><path class="js-line" d="M33.55,119.7L33.55,73.62L52.77,73.62L52.77,119.7L33.55,119.7" style="vector-effect: non-scaling-stroke; fill: none; stroke: rgb(0, 0, 0); stroke-opacity: 0; stroke-width: 0.377953px; opacity: 1;"/></g><g class="points"/><g class="text"/></g><g class="trace scatter trace4cebdf" style="stroke-miterlimit: 2; opacity: 1;"><g class="fills"><g><path class="js-fill" d="M59.48,152.5L59.48,95.84L118.06,95.84L118.06,152.5L59.48,152.5Z" style="fill: rgb(39, 127, 142); fill-opacity: 0.8; stroke-width: 0;"/></g></g><g class="errorbars"/><g class="lines"><path class="js-line" d="M59.48,152.5L59.48,95.84L118.06,95.84L118.06,152.5L59.48,152.5" style="vector-effect: non-scaling-stroke; fill: none; stroke: rgb(0, 0, 0); stroke-opacity: 0; stroke-width: 0.377953px; opacity: 1;"/></g><g class="points"/><g class="text"/></g><g class="trace scatter trace1eb684" style="stroke-miterlimit: 2; opacity: 1;"><g class="fills"><g><path class="js-fill" d="M447.12,218.4L447.12,151.52L704.45,151.52L704.45,218.4L447.12,218.4Z" style="fill: rgb(39, 127, 142); fill-opacity: 0.8; stroke-width: 0;"/></g></g><g class="errorbars"/><g class="lines"><path class="js-line" d="M447.12,218.4L447.12,151.52L704.45,151.52L704.45,218.4L447.12,218.4" style="vector-effect: non-scaling-stroke; fill: none; stroke: rgb(0, 0, 0); stroke-opacity: 0; stroke-width: 0.377953px; opacity: 1;"/></g><g class="points"/><g class="text"/></g><g class="trace scatter trace01c289" style="stroke-miterlimit: 2; opacity: 1;"><g class="fills"><g><path class="js-fill" d="M275.74,172.38L275.74,103.2L440.41,103.2L440.41,172.38L275.74,172.38Z" style="fill: rgb(39, 127, 142); fill-opacity: 0.8; stroke-width: 0;"/></g></g><g class="errorbars"/><g class="lines"><path class="js-line" d="M275.74,172.38L275.74,103.2L440.41,103.2L440.41,172.38L275.74,172.38" style="vector-effect: non-scaling-stroke; fill: none; stroke: rgb(0, 0, 0); stroke-opacity: 0; stroke-width: 0.377953px; opacity: 1;"/></g><g class="points"/><g class="text"/></g><g class="trace scatter trace593be9" style="stroke-miterlimit: 2; opacity: 1;"><g class="fills"><g><path class="js-fill" d="M124.77,183.47L124.77,122.52L269.03,122.52L269.03,183.47L124.77,183.47Z" style="fill: rgb(39, 127, 142); fill-opacity: 0.8; stroke-width: 0;"/></g></g><g class="errorbars"/><g class="lines"><path class="js-line" d="M124.77,183.47L124.77,122.52L269.03,122.52L269.03,183.47L124.77,183.47" style="vector-effect: non-scaling-stroke; fill: none; stroke: rgb(0, 0, 0); stroke-opacity: 0; stroke-width: 0.377953px; opacity: 1;"/></g><g class="points"/><g class="text"/></g><g class="trace scatter trace9fbcd3" style="stroke-miterlimit: 2; opacity: 1;"><g class="fills"><g><path class="js-fill" d="M33.55,70.72L33.55,40.71L52.77,40.71L52.77,70.72L33.55,70.72Z" style="fill: rgb(31, 161, 135); fill-opacity: 0.8; stroke-width: 0;"/></g></g><g class="errorbars"/><g class="lines"><path class="js-line" d="M33.55,70.72L33.55,40.71L52.77,40.71L52.77,70.72L33.55,70.72" style="vector-effect: non-scaling-stroke; fill: none; stroke: rgb(0, 0, 0); stroke-opacity: 0; stroke-width: 0.377953px; opacity: 1;"/></g><g class="points"/><g class="text"/></g><g class="trace scatter trace009231" style="stroke-miterlimit: 2; opacity: 1;"><g class="fills"><g><path class="js-fill" d="M59.48,92.94L59.48,55.4L118.06,55.4L118.06,92.94L59.48,92.94Z" style="fill: rgb(31, 161, 135); fill-opacity: 0.8; stroke-width: 0;"/></g></g><g class="errorbars"/><g class="lines"><path class="js-line" d="M59.48,92.94L59.48,55.4L118.06,55.4L118.06,92.94L59.48,92.94" style="vector-effect: non-scaling-stroke; fill: none; stroke: rgb(0, 0, 0); stroke-opacity: 0; stroke-width: 0.377953px; opacity: 1;"/></g><g class="points"/><g class="text"/></g><g class="trace scatter tracea4bf56" style="stroke-miterlimit: 2; opacity: 1;"><g class="fills"><g><path class="js-fill" d="M447.12,148.62L447.12,101.29L704.45,101.29L704.45,148.62L447.12,148.62Z" style="fill: rgb(31, 161, 135); fill-opacity: 0.8; stroke-width: 0;"/></g></g><g class="errorbars"/><g class="lines"><path class="js-line" d="M447.12,148.62L447.12,101.29L704.45,101.29L704.45,148.62L447.12,148.62" style="vector-effect: non-scaling-stroke; fill: none; stroke: rgb(0, 0, 0); stroke-opacity: 0; stroke-width: 0.377953px; opacity: 1;"/></g><g class="points"/><g class="text"/></g><g class="trace scatter trace9301af" style="stroke-miterlimit: 2; opacity: 1;"><g class="fills"><g><path class="js-fill" d="M275.74,100.29L275.74,59.3L440.41,59.3L440.41,100.29L275.74,100.29Z" style="fill: rgb(31, 161, 135); fill-opacity: 0.8; stroke-width: 0;"/></g></g><g class="errorbars"/><g class="lines"><path class="js-line" d="M275.74,100.29L275.74,59.3L440.41,59.3L440.41,100.29L275.74,100.29" style="vector-effect: non-scaling-stroke; fill: none; stroke: rgb(0, 0, 0); stroke-opacity: 0; stroke-width: 0.377953px; opacity: 1;"/></g><g class="points"/><g class="text"/></g><g class="trace scatter traced3da66" style="stroke-miterlimit: 2; opacity: 1;"><g class="fills"><g><path class="js-fill" d="M124.77,119.61L124.77,77.86L269.03,77.86L269.03,119.61L124.77,119.61Z" style="fill: rgb(31, 161, 135); fill-opacity: 0.8; stroke-width: 0;"/></g></g><g class="errorbars"/><g class="lines"><path class="js-line" d="M124.77,119.61L124.77,77.86L269.03,77.86L269.03,119.61L124.77,119.61" style="vector-effect: non-scaling-stroke; fill: none; stroke: rgb(0, 0, 0); stroke-opacity: 0; stroke-width: 0.377953px; opacity: 1;"/></g><g class="points"/><g class="text"/></g><g class="trace scatter trace5a7f04" style="stroke-miterlimit: 2; opacity: 1;"><g class="fills"><g><path class="js-fill" d="M33.55,37.81L33.55,25.62L52.77,25.62L52.77,37.81L33.55,37.81Z" style="fill: rgb(74, 193, 109); fill-opacity: 0.8; stroke-width: 0;"/></g></g><g class="errorbars"/><g class="lines"><path class="js-line" d="M33.55,37.81L33.55,25.62L52.77,25.62L52.77,37.81L33.55,37.81" style="vector-effect: non-scaling-stroke; fill: none; stroke: rgb(0, 0, 0); stroke-opacity: 0; stroke-width: 0.377953px; opacity: 1;"/></g><g class="points"/><g class="text"/></g><g class="trace scatter trace778976" style="stroke-miterlimit: 2; opacity: 1;"><g class="fills"><g><path class="js-fill" d="M59.48,52.49L59.48,35.92L118.06,35.92L118.06,52.49L59.48,52.49Z" style="fill: rgb(74, 193, 109); fill-opacity: 0.8; stroke-width: 0;"/></g></g><g class="errorbars"/><g class="lines"><path class="js-line" d="M59.48,52.49L59.48,35.92L118.06,35.92L118.06,52.49L59.48,52.49" style="vector-effect: non-scaling-stroke; fill: none; stroke: rgb(0, 0, 0); stroke-opacity: 0; stroke-width: 0.377953px; opacity: 1;"/></g><g class="points"/><g class="text"/></g><g class="trace scatter trace8d022c" style="stroke-miterlimit: 2; opacity: 1;"><g class="fills"><g><path class="js-fill" d="M447.12,98.38L447.12,64.02L704.45,64.02L704.45,98.38L447.12,98.38Z" style="fill: rgb(74, 193, 109); fill-opacity: 0.8; stroke-width: 0;"/></g></g><g class="errorbars"/><g class="lines"><path class="js-line" d="M447.12,98.38L447.12,64.02L704.45,64.02L704.45,98.38L447.12,98.38" style="vector-effect: non-scaling-stroke; fill: none; stroke: rgb(0, 0, 0); stroke-opacity: 0; stroke-width: 0.377953px; opacity: 1;"/></g><g class="points"/><g class="text"/></g><g class="trace scatter tracec2228c" style="stroke-miterlimit: 2; opacity: 1;"><g class="fills"><g><path class="js-fill" d="M275.74,56.4L275.74,38.47L440.41,38.47L440.41,56.4L275.74,56.4Z" style="fill: rgb(74, 193, 109); fill-opacity: 0.8; stroke-width: 0;"/></g></g><g class="errorbars"/><g class="lines"><path class="js-line" d="M275.74,56.4L275.74,38.47L440.41,38.47L440.41,56.4L275.74,56.4" style="vector-effect: non-scaling-stroke; fill: none; stroke: rgb(0, 0, 0); stroke-opacity: 0; stroke-width: 0.377953px; opacity: 1;"/></g><g class="points"/><g class="text"/></g><g class="trace scatter trace60620e" style="stroke-miterlimit: 2; opacity: 1;"><g class="fills"><g><path class="js-fill" d="M124.77,74.95L124.77,45.9L269.03,45.9L269.03,74.95L124.77,74.95Z" style="fill: rgb(74, 193, 109); fill-opacity: 0.8; stroke-width: 0;"/></g></g><g class="errorbars"/><g class="lines"><path class="js-line" d="M124.77,74.95L124.77,45.9L269.03,45.9L269.03,74.95L124.77,74.95" style="vector-effect: non-scaling-stroke; fill: none; stroke: rgb(0, 0, 0); stroke-opacity: 0; stroke-width: 0.377953px; opacity: 1;"/></g><g class="points"/><g class="text"/></g><g class="trace scatter trace8159a8" style="stroke-miterlimit: 2; opacity: 1;"><g class="fills"><g><path class="js-fill" d="M33.55,22.72L33.55,19.72L52.77,19.72L52.77,22.72L33.55,22.72Z" style="fill: rgb(159, 218, 58); fill-opacity: 0.8; stroke-width: 0;"/></g></g><g class="errorbars"/><g class="lines"><path class="js-line" d="M33.55,22.72L33.55,19.72L52.77,19.72L52.77,22.72L33.55,22.72" style="vector-effect: non-scaling-stroke; fill: none; stroke: rgb(0, 0, 0); stroke-opacity: 0; stroke-width: 0.377953px; opacity: 1;"/></g><g class="points"/><g class="text"/></g><g class="trace scatter tracee11cfb" style="stroke-miterlimit: 2; opacity: 1;"><g class="fills"><g><path class="js-fill" d="M59.48,33.02L59.48,22.24L118.06,22.24L118.06,33.02L59.48,33.02Z" style="fill: rgb(159, 218, 58); fill-opacity: 0.8; stroke-width: 0;"/></g></g><g class="errorbars"/><g class="lines"><path class="js-line" d="M59.48,33.02L59.48,22.24L118.06,22.24L118.06,33.02L59.48,33.02" style="vector-effect: non-scaling-stroke; fill: none; stroke: rgb(0, 0, 0); stroke-opacity: 0; stroke-width: 0.377953px; opacity: 1;"/></g><g class="points"/><g class="text"/></g><g class="trace scatter trace3cfbab" style="stroke-miterlimit: 2; opacity: 1;"><g class="fills"><g><path class="js-fill" d="M447.12,61.11L447.12,34.12L704.45,34.12L704.45,61.11L447.12,61.11Z" style="fill: rgb(159, 218, 58); fill-opacity: 0.8; stroke-width: 0;"/></g></g><g class="errorbars"/><g class="lines"><path class="js-line" d="M447.12,61.11L447.12,34.12L704.45,34.12L704.45,61.11L447.12,61.11" style="vector-effect: non-scaling-stroke; fill: none; stroke: rgb(0, 0, 0); stroke-opacity: 0; stroke-width: 0.377953px; opacity: 1;"/></g><g class="points"/><g class="text"/></g><g class="trace scatter trace840a11" style="stroke-miterlimit: 2; opacity: 1;"><g class="fills"><g><path class="js-fill" d="M275.74,35.57L275.74,22.87L440.41,22.87L440.41,35.57L275.74,35.57Z" style="fill: rgb(159, 218, 58); fill-opacity: 0.8; stroke-width: 0;"/></g></g><g class="errorbars"/><g class="lines"><path class="js-line" d="M275.74,35.57L275.74,22.87L440.41,22.87L440.41,35.57L275.74,35.57" style="vector-effect: non-scaling-stroke; fill: none; stroke: rgb(0, 0, 0); stroke-opacity: 0; stroke-width: 0.377953px; opacity: 1;"/></g><g class="points"/><g class="text"/></g><g class="trace scatter trace3ee116" style="stroke-miterlimit: 2; opacity: 1;"><g class="fills"><g><path class="js-fill" d="M124.77,43L124.77,24.44L269.03,24.44L269.03,43L124.77,43Z" style="fill: rgb(159, 218, 58); fill-opacity: 0.8; stroke-width: 0;"/></g></g><g class="errorbars"/><g class="lines"><path class="js-line" d="M124.77,43L124.77,24.44L269.03,24.44L269.03,43L124.77,43" style="vector-effect: non-scaling-stroke; fill: none; stroke: rgb(0, 0, 0); stroke-opacity: 0; stroke-width: 0.377953px; opacity: 1;"/></g><g class="points"/><g class="text"/></g><g class="trace scatter trace9b9c2c" style="stroke-miterlimit: 2; opacity: 1;"><g class="fills"><g><path class="js-fill" d="M33.55,16.82L33.55,15.23L52.77,15.23L52.77,16.82L33.55,16.82Z" style="fill: rgb(253, 231, 37); fill-opacity: 0.8; stroke-width: 0;"/></g></g><g class="errorbars"/><g class="lines"><path class="js-line" d="M33.55,16.82L33.55,15.23L52.77,15.23L52.77,16.82L33.55,16.82" style="vector-effect: non-scaling-stroke; fill: none; stroke: rgb(0, 0, 0); stroke-opacity: 0; stroke-width: 0.377953px; opacity: 1;"/></g><g class="points"/><g class="text"/></g><g class="trace scatter trace755685" style="stroke-miterlimit: 2; opacity: 1;"><g class="fills"><g><path class="js-fill" d="M59.48,19.34L59.48,15.23L118.06,15.23L118.06,19.34L59.48,19.34Z" style="fill: rgb(253, 231, 37); fill-opacity: 0.8; stroke-width: 0;"/></g></g><g class="errorbars"/><g class="lines"><path class="js-line" d="M59.48,19.34L59.48,15.23L118.06,15.23L118.06,19.34L59.48,19.34" style="vector-effect: non-scaling-stroke; fill: none; stroke: rgb(0, 0, 0); stroke-opacity: 0; stroke-width: 0.377953px; opacity: 1;"/></g><g class="points"/><g class="text"/></g><g class="trace scatter trace16c09c" style="stroke-miterlimit: 2; opacity: 1;"><g class="fills"><g><path class="js-fill" d="M447.12,31.21L447.12,15.23L704.45,15.23L704.45,31.21L447.12,31.21Z" style="fill: rgb(253, 231, 37); fill-opacity: 0.8; stroke-width: 0;"/></g></g><g class="errorbars"/><g class="lines"><path class="js-line" d="M447.12,31.21L447.12,15.23L704.45,15.23L704.45,31.21L447.12,31.21" style="vector-effect: non-scaling-stroke; fill: none; stroke: rgb(0, 0, 0); stroke-opacity: 0; stroke-width: 0.377953px; opacity: 1;"/></g><g class="points"/><g class="text"/></g><g class="trace scatter traceb4f972" style="stroke-miterlimit: 2; opacity: 1;"><g class="fills"><g><path class="js-fill" d="M275.74,19.97L275.74,15.23L440.41,15.23L440.41,19.97L275.74,19.97Z" style="fill: rgb(253, 231, 37); fill-opacity: 0.8; stroke-width: 0;"/></g></g><g class="errorbars"/><g class="lines"><path class="js-line" d="M275.74,19.97L275.74,15.23L440.41,15.23L440.41,19.97L275.74,19.97" style="vector-effect: non-scaling-stroke; fill: none; stroke: rgb(0, 0, 0); stroke-opacity: 0; stroke-width: 0.377953px; opacity: 1;"/></g><g class="points"/><g class="text"/></g><g class="trace scatter trace85965e" style="stroke-miterlimit: 2; opacity: 1;"><g class="fills"><g><path class="js-fill" d="M124.77,21.53L124.77,15.23L269.03,15.23L269.03,21.53L124.77,21.53Z" style="fill: rgb(253, 231, 37); fill-opacity: 0.8; stroke-width: 0;"/></g></g><g class="errorbars"/><g class="lines"><path class="js-line" d="M124.77,21.53L124.77,15.23L269.03,15.23L269.03,21.53L124.77,21.53" style="vector-effect: non-scaling-stroke; fill: none; stroke: rgb(0, 0, 0); stroke-opacity: 0; stroke-width: 0.377953px; opacity: 1;"/></g><g class="points"/><g class="text"/></g></g></g><g class="overplot"/><path class="xlines-above crisp" d="" style="fill: none; stroke-width: 1px; stroke: rgb(0, 0, 0); stroke-opacity: 0;"/><path class="ylines-above crisp" d="" style="fill: none; stroke-width: 1px; stroke: rgb(0, 0, 0); stroke-opacity: 0;"/><g class="overlines-above"/><g class="xaxislayer-above"><path class="xtick ticks crisp" d="M0,359v3.65296803652968" transform="translate(102.16,0)" style="stroke: rgb(51, 51, 51); stroke-opacity: 1; stroke-width: 0.664176px;"/><path class="xtick ticks crisp" d="M0,359v3.65296803652968" transform="translate(147.76999999999998,0)" style="stroke: rgb(51, 51, 51); stroke-opacity: 1; stroke-width: 0.664176px;"/><path class="xtick ticks crisp" d="M0,359v3.65296803652968" transform="translate(255.9,0)" style="stroke: rgb(51, 51, 51); stroke-opacity: 1; stroke-width: 0.664176px;"/><path class="xtick ticks crisp" d="M0,359v3.65296803652968" transform="translate(417.08,0)" style="stroke: rgb(51, 51, 51); stroke-opacity: 1; stroke-width: 0.664176px;"/><path class="xtick ticks crisp" d="M0,359v3.65296803652968" transform="translate(634.79,0)" style="stroke: rgb(51, 51, 51); stroke-opacity: 1; stroke-width: 0.664176px;"/><g class="xtick"><text text-anchor="middle" x="0" y="376.6803652968037" transform="translate(102.16,0)" style="font-family: 'Open Sans', verdana, arial, sans-serif; font-size: 11.6895px; fill: rgb(77, 77, 77); fill-opacity: 1; white-space: pre;">Fair</text></g><g class="xtick"><text text-anchor="middle" x="0" y="376.6803652968037" transform="translate(147.76999999999998,0)" style="font-family: 'Open Sans', verdana, arial, sans-serif; font-size: 11.6895px; fill: rgb(77, 77, 77); fill-opacity: 1; white-space: pre;">Good</text></g><g class="xtick"><text text-anchor="middle" x="0" y="376.6803652968037" transform="translate(255.9,0)" style="font-family: 'Open Sans', verdana, arial, sans-serif; font-size: 11.6895px; fill: rgb(77, 77, 77); fill-opacity: 1; white-space: pre;">Very Good</text></g><g class="xtick"><text text-anchor="middle" x="0" y="376.6803652968037" transform="translate(417.08,0)" style="font-family: 'Open Sans', verdana, arial, sans-serif; font-size: 11.6895px; fill: rgb(77, 77, 77); fill-opacity: 1; white-space: pre;">Premium</text></g><g class="xtick"><text text-anchor="middle" x="0" y="376.6803652968037" transform="translate(634.79,0)" style="font-family: 'Open Sans', verdana, arial, sans-serif; font-size: 11.6895px; fill: rgb(77, 77, 77); fill-opacity: 1; white-space: pre;">Ideal</text></g></g><g class="yaxislayer-above"><path class="ytick ticks crisp" d="M58,0h-3.65296803652968" transform="translate(0,324.24)" style="stroke: rgb(51, 51, 51); stroke-opacity: 1; stroke-width: 0.664176px;"/><path class="ytick ticks crisp" d="M58,0h-3.65296803652968" transform="translate(0,261.65999999999997)" style="stroke: rgb(51, 51, 51); stroke-opacity: 1; stroke-width: 0.664176px;"/><path class="ytick ticks crisp" d="M58,0h-3.65296803652968" transform="translate(0,181.62)" style="stroke: rgb(51, 51, 51); stroke-opacity: 1; stroke-width: 0.664176px;"/><path class="ytick ticks crisp" d="M58,0h-3.65296803652968" transform="translate(0,119.66)" style="stroke: rgb(51, 51, 51); stroke-opacity: 1; stroke-width: 0.664176px;"/><path class="ytick ticks crisp" d="M58,0h-3.65296803652968" transform="translate(0,78.71000000000001)" style="stroke: rgb(51, 51, 51); stroke-opacity: 1; stroke-width: 0.664176px;"/><path class="ytick ticks crisp" d="M58,0h-3.65296803652968" transform="translate(0,54.72)" style="stroke: rgb(51, 51, 51); stroke-opacity: 1; stroke-width: 0.664176px;"/><path class="ytick ticks crisp" d="M58,0h-3.65296803652968" transform="translate(0,44.22)" style="stroke: rgb(51, 51, 51); stroke-opacity: 1; stroke-width: 0.664176px;"/><path class="ytick ticks crisp" d="M58,0h-3.65296803652968" transform="translate(0,39.019999999999996)" style="stroke: rgb(51, 51, 51); stroke-opacity: 1; stroke-width: 0.664176px;"/><g class="ytick"><text text-anchor="end" x="52.00913242009132" y="4.09132420091325" transform="translate(0,324.24)" style="font-family: 'Open Sans', verdana, arial, sans-serif; font-size: 11.6895px; fill: rgb(77, 77, 77); fill-opacity: 1; white-space: pre;">I1</text></g><g class="ytick"><text text-anchor="end" x="52.00913242009132" y="4.09132420091325" transform="translate(0,261.65999999999997)" style="font-family: 'Open Sans', verdana, arial, sans-serif; font-size: 11.6895px; fill: rgb(77, 77, 77); fill-opacity: 1; white-space: pre;">SI2</text></g><g class="ytick"><text text-anchor="end" x="52.00913242009132" y="4.09132420091325" transform="translate(0,181.62)" style="font-family: 'Open Sans', verdana, arial, sans-serif; font-size: 11.6895px; fill: rgb(77, 77, 77); fill-opacity: 1; white-space: pre;">SI1</text></g><g class="ytick"><text text-anchor="end" x="52.00913242009132" y="4.09132420091325" transform="translate(0,119.66)" style="font-family: 'Open Sans', verdana, arial, sans-serif; font-size: 11.6895px; fill: rgb(77, 77, 77); fill-opacity: 1; white-space: pre;">VS2</text></g><g class="ytick"><text text-anchor="end" x="52.00913242009132" y="4.09132420091325" transform="translate(0,78.71000000000001)" style="font-family: 'Open Sans', verdana, arial, sans-serif; font-size: 11.6895px; fill: rgb(77, 77, 77); fill-opacity: 1; white-space: pre;">VS1</text></g><g class="ytick"><text text-anchor="end" x="52.00913242009132" y="4.09132420091325" transform="translate(0,54.72)" style="font-family: 'Open Sans', verdana, arial, sans-serif; font-size: 11.6895px; fill: rgb(77, 77, 77); fill-opacity: 1; white-space: pre;">VVS2</text></g><g class="ytick"><text text-anchor="end" x="52.00913242009132" y="4.09132420091325" transform="translate(0,44.22)" style="font-family: 'Open Sans', verdana, arial, sans-serif; font-size: 11.6895px; fill: rgb(77, 77, 77); fill-opacity: 1; white-space: pre;">VVS1</text></g><g class="ytick"><text text-anchor="end" x="52.00913242009132" y="4.09132420091325" transform="translate(0,39.019999999999996)" style="font-family: 'Open Sans', verdana, arial, sans-serif; font-size: 11.6895px; fill: rgb(77, 77, 77); fill-opacity: 1; white-space: pre;">IF</text></g></g><g class="overaxes-above"/></g></g><g class="polarlayer"/><g class="ternarylayer"/><g class="geolayer"/><g class="pielayer"/><g class="glimages"/><defs id="topdefs-723de8"><g class="clips"/><clipPath id="legend723de8"><rect width="77.22047244094487" height="232.2204724409449" x="1.88976377952756" y="1.88976377952756"/></clipPath></defs><g class="layer-above"><g class="imagelayer"/><g class="shapelayer"><path data-index="0" fill-rule="evenodd" d="M59,358H797V23H59Z" style="opacity: 1; stroke: rgb(0, 0, 0); stroke-opacity: 0; fill: rgb(0, 0, 0); fill-opacity: 0; stroke-width: 0px;"/></g></g><g class="infolayer"><g class="legend" pointer-events="all" transform="translate(811.76, 43.684493646215124)"><rect class="bg" shape-rendering="crispEdges" style="stroke: rgb(0, 0, 0); stroke-opacity: 0; fill: rgb(255, 255, 255); fill-opacity: 1; stroke-width: 1.88976px;" width="79.11023622047244" height="234.11023622047244" x="0.94488188976378" y="0.94488188976378"/><g class="scrollbox" transform="translate(0, 0)" clip-path="url(#legend723de8)"><g class="groups" transform="translate(0, 0)"><g class="traces" transform="translate(1.88976377952756, 16.38976377952756)" style="opacity: 1;"><g class="layers" style="opacity: 1;"><g class="legendfill"><path class="js-fill" d="M5,-2h30v6h-30z" style="stroke-width: 0; fill: rgb(68, 1, 84); fill-opacity: 0.8;"/></g><g class="legendlines"><path class="js-line" d="M5,-2h30" style="fill: none; stroke: rgb(0, 0, 0); stroke-opacity: 0; stroke-width: 0.377953px;"/></g><g class="legendsymbols"><g class="legendpoints"/></g></g><text class="legendtext user-select-none" text-anchor="start" x="40" y="4.55890410958905" style="font-family: 'Open Sans', verdana, arial, sans-serif; font-size: 11.6895px; fill: rgb(0, 0, 0); fill-opacity: 1; white-space: pre;">I1</text><rect class="legendtoggle" pointer-events="all" style="cursor: pointer; fill: rgb(0, 0, 0); fill-opacity: 0;" x="0" y="-9.5" width="121" height="19"/></g></g><g class="groups" transform="translate(0, 10)"><g class="traces" transform="translate(1.88976377952756, 35.389763779527556)" style="opacity: 1;"><g class="layers" style="opacity: 1;"><g class="legendfill"><path class="js-fill" d="M5,-2h30v6h-30z" style="stroke-width: 0; fill: rgb(70, 51, 126); fill-opacity: 0.8;"/></g><g class="legendlines"><path class="js-line" d="M5,-2h30" style="fill: none; stroke: rgb(0, 0, 0); stroke-opacity: 0; stroke-width: 0.377953px;"/></g><g class="legendsymbols"><g class="legendpoints"/></g></g><text class="legendtext user-select-none" text-anchor="start" x="40" y="4.55890410958905" style="font-family: 'Open Sans', verdana, arial, sans-serif; font-size: 11.6895px; fill: rgb(0, 0, 0); fill-opacity: 1; white-space: pre;">SI2</text><rect class="legendtoggle" pointer-events="all" style="cursor: pointer; fill: rgb(0, 0, 0); fill-opacity: 0;" x="0" y="-9.5" width="121" height="19"/></g></g><g class="groups" transform="translate(0, 20)"><g class="traces" transform="translate(1.88976377952756, 54.38976377952756)" style="opacity: 1;"><g class="layers" style="opacity: 1;"><g class="legendfill"><path class="js-fill" d="M5,-2h30v6h-30z" style="stroke-width: 0; fill: rgb(54, 92, 141); fill-opacity: 0.8;"/></g><g class="legendlines"><path class="js-line" d="M5,-2h30" style="fill: none; stroke: rgb(0, 0, 0); stroke-opacity: 0; stroke-width: 0.377953px;"/></g><g class="legendsymbols"><g class="legendpoints"/></g></g><text class="legendtext user-select-none" text-anchor="start" x="40" y="4.55890410958905" style="font-family: 'Open Sans', verdana, arial, sans-serif; font-size: 11.6895px; fill: rgb(0, 0, 0); fill-opacity: 1; white-space: pre;">SI1</text><rect class="legendtoggle" pointer-events="all" style="cursor: pointer; fill: rgb(0, 0, 0); fill-opacity: 0;" x="0" y="-9.5" width="121" height="19"/></g></g><g class="groups" transform="translate(0, 30)"><g class="traces" transform="translate(1.88976377952756, 73.38976377952756)" style="opacity: 1;"><g class="layers" style="opacity: 1;"><g class="legendfill"><path class="js-fill" d="M5,-2h30v6h-30z" style="stroke-width: 0; fill: rgb(39, 127, 142); fill-opacity: 0.8;"/></g><g class="legendlines"><path class="js-line" d="M5,-2h30" style="fill: none; stroke: rgb(0, 0, 0); stroke-opacity: 0; stroke-width: 0.377953px;"/></g><g class="legendsymbols"><g class="legendpoints"/></g></g><text class="legendtext user-select-none" text-anchor="start" x="40" y="4.55890410958905" style="font-family: 'Open Sans', verdana, arial, sans-serif; font-size: 11.6895px; fill: rgb(0, 0, 0); fill-opacity: 1; white-space: pre;">VS2</text><rect class="legendtoggle" pointer-events="all" style="cursor: pointer; fill: rgb(0, 0, 0); fill-opacity: 0;" x="0" y="-9.5" width="121" height="19"/></g></g><g class="groups" transform="translate(0, 40)"><g class="traces" transform="translate(1.88976377952756, 92.38976377952756)" style="opacity: 1;"><g class="layers" style="opacity: 1;"><g class="legendfill"><path class="js-fill" d="M5,-2h30v6h-30z" style="stroke-width: 0; fill: rgb(31, 161, 135); fill-opacity: 0.8;"/></g><g class="legendlines"><path class="js-line" d="M5,-2h30" style="fill: none; stroke: rgb(0, 0, 0); stroke-opacity: 0; stroke-width: 0.377953px;"/></g><g class="legendsymbols"><g class="legendpoints"/></g></g><text class="legendtext user-select-none" text-anchor="start" x="40" y="4.55890410958905" style="font-family: 'Open Sans', verdana, arial, sans-serif; font-size: 11.6895px; fill: rgb(0, 0, 0); fill-opacity: 1; white-space: pre;">VS1</text><rect class="legendtoggle" pointer-events="all" style="cursor: pointer; fill: rgb(0, 0, 0); fill-opacity: 0;" x="0" y="-9.5" width="121" height="19"/></g></g><g class="groups" transform="translate(0, 50)"><g class="traces" transform="translate(1.88976377952756, 111.38976377952756)" style="opacity: 1;"><g class="layers" style="opacity: 1;"><g class="legendfill"><path class="js-fill" d="M5,-2h30v6h-30z" style="stroke-width: 0; fill: rgb(74, 193, 109); fill-opacity: 0.8;"/></g><g class="legendlines"><path class="js-line" d="M5,-2h30" style="fill: none; stroke: rgb(0, 0, 0); stroke-opacity: 0; stroke-width: 0.377953px;"/></g><g class="legendsymbols"><g class="legendpoints"/></g></g><text class="legendtext user-select-none" text-anchor="start" x="40" y="4.55890410958905" style="font-family: 'Open Sans', verdana, arial, sans-serif; font-size: 11.6895px; fill: rgb(0, 0, 0); fill-opacity: 1; white-space: pre;">VVS2</text><rect class="legendtoggle" pointer-events="all" style="cursor: pointer; fill: rgb(0, 0, 0); fill-opacity: 0;" x="0" y="-9.5" width="121" height="19"/></g></g><g class="groups" transform="translate(0, 60)"><g class="traces" transform="translate(1.88976377952756, 130.38976377952756)" style="opacity: 1;"><g class="layers" style="opacity: 1;"><g class="legendfill"><path class="js-fill" d="M5,-2h30v6h-30z" style="stroke-width: 0; fill: rgb(159, 218, 58); fill-opacity: 0.8;"/></g><g class="legendlines"><path class="js-line" d="M5,-2h30" style="fill: none; stroke: rgb(0, 0, 0); stroke-opacity: 0; stroke-width: 0.377953px;"/></g><g class="legendsymbols"><g class="legendpoints"/></g></g><text class="legendtext user-select-none" text-anchor="start" x="40" y="4.55890410958905" style="font-family: 'Open Sans', verdana, arial, sans-serif; font-size: 11.6895px; fill: rgb(0, 0, 0); fill-opacity: 1; white-space: pre;">VVS1</text><rect class="legendtoggle" pointer-events="all" style="cursor: pointer; fill: rgb(0, 0, 0); fill-opacity: 0;" x="0" y="-9.5" width="121" height="19"/></g></g><g class="groups" transform="translate(0, 70)"><g class="traces" transform="translate(1.88976377952756, 149.38976377952756)" style="opacity: 1;"><g class="layers" style="opacity: 1;"><g class="legendfill"><path class="js-fill" d="M5,-2h30v6h-30z" style="stroke-width: 0; fill: rgb(253, 231, 37); fill-opacity: 0.8;"/></g><g class="legendlines"><path class="js-line" d="M5,-2h30" style="fill: none; stroke: rgb(0, 0, 0); stroke-opacity: 0; stroke-width: 0.377953px;"/></g><g class="legendsymbols"><g class="legendpoints"/></g></g><text class="legendtext user-select-none" text-anchor="start" x="40" y="4.55890410958905" style="font-family: 'Open Sans', verdana, arial, sans-serif; font-size: 11.6895px; fill: rgb(0, 0, 0); fill-opacity: 1; white-space: pre;">IF</text><rect class="legendtoggle" pointer-events="all" x="0" y="-9.5" width="121" height="19" style="cursor: pointer; fill: rgb(0, 0, 0); fill-opacity: 0;"/></g></g></g><rect class="scrollbar" rx="20" ry="3" width="0" height="0" style="fill: rgb(128, 139, 164); fill-opacity: 1;" x="0" y="0"/></g><g class="g-gtitle"/><g class="g-xtitle" transform="translate(0,-14.835616438356055)"><text class="xtitle" x="428" y="411.83561643835606" text-anchor="middle" style="font-family: 'Open Sans', verdana, arial, sans-serif; font-size: 14.61px; fill: rgb(0, 0, 0); opacity: 1; font-weight: normal; white-space: pre;">x</text></g><g class="g-ytitle"><text class="ytitle" transform="rotate(-90,19.7762557077626,190.5)" x="19.7762557077626" y="190.5" text-anchor="middle" style="font-family: 'Open Sans', verdana, arial, sans-serif; font-size: 14.61px; fill: rgb(0, 0, 0); opacity: 1; font-weight: normal; white-space: pre;">y</text></g><g class="annotation" data-index="0" style="opacity: 1;"><g class="annotation-text-g" transform="rotate(0,836.26,11.999999999999998)"><g class="cursor-pointer" transform="translate(812, 1)"><rect class="bg" x="0.5" y="0.5" width="48" height="21" style="stroke-width: 1px; stroke: rgb(0, 0, 0); stroke-opacity: 0; fill: rgb(0, 0, 0); fill-opacity: 0;"/><text class="annotation-text" text-anchor="middle" x="24.515625" y="16.5" style="font-family: 'Open Sans', verdana, arial, sans-serif; font-size: 14.6119px; fill: rgb(0, 0, 0); fill-opacity: 1; white-space: pre;">clarity</text></g></g></g></g></svg>