<svg class="main-svg" xmlns="http://www.w3.org/2000/svg" xmlns:xlink="http://www.w3.org/1999/xlink" width="900" height="600" viewBox="0 0 900 600"><rect x="0" y="0" width="900" height="600" style="fill: rgb(255, 255, 255); fill-opacity: 1;"/><defs id="defs-b5d28f"><g class="clips"><clipPath id="clipb5d28fxyplot" class="plotclip"><rect width="843" height="536"/></clipPath><clipPath class="axesclip" id="clipb5d28fx"><rect x="50" y="0" width="843" height="600"/></clipPath><clipPath class="axesclip" id="clipb5d28fy"><rect x="0" y="22" width="900" height="536"/></clipPath><clipPath class="axesclip" id="clipb5d28fxy"><rect x="50" y="22" width="843" height="536"/></clipPath></g><g class="gradients"/></defs><g class="bglayer"><rect class="bg" x="50" y="22" width="843" height="536" style="fill: rgb(235, 235, 235); fill-opacity: 1; stroke-width: 0;"/></g><g class="layer-below"><g class="imagelayer"/><g class="shapelayer"/></g><g class="cartesianlayer"><g class="subplot xy"><g class="layer-subplot"><g class="shapelayer"/><g class="imagelayer"/></g><g class="gridlayer"><g class="x"><path class="xgrid crisp" d="M0,22v536" transform="translate(87.63,0)" style="stroke: rgb(255, 255, 255); stroke-opacity: 1; stroke-width: 0.664176px;"/><path class="xgrid crisp" d="M0,22v536" transform="translate(295.31,0)" style="stroke: rgb(255, 255, 255); stroke-opacity: 1; stroke-width: 0.664176px;"/><path class="xgrid crisp" d="M0,22v536" transform="translate(503,0)" style="stroke: rgb(255, 255, 255); stroke-opacity: 1; stroke-width: 0.664176px;"/><path class="xgrid crisp" d="M0,22v536" transform="translate(710.69,0)" style="stroke: rgb(255, 255, 255); stroke-opacity: 1; stroke-width: 0.664176px;"/></g><g class="y"><path class="ygrid crisp" d="M50,0h843" transform="translate(0,509.96)" style="stroke: rgb(255, 255, 255); stroke-opacity: 1; stroke-width: 0.664176px;"/><path class="ygrid crisp" d="M50,0h843" transform="translate(0,352.11)" style="stroke: rgb(255, 255, 255); stroke-opacity: 1; stroke-width: 0.664176px;"/><path class="ygrid crisp" d="M50,0h843" transform="translate(0,194.27)" style="stroke: rgb(255, 255, 255); stroke-opacity: 1; stroke-width: 0.664176px;"/><path class="ygrid crisp" d="M50,0h843" transform="translate(0,36.42)" style="stroke: rgb(255, 255, 255); stroke-opacity: 1; stroke-width: 0.664176px;"/></g></g><g class="zerolinelayer"/><path class="xlines-below"/><path class="ylines-below"/><g class="overlines-below"/><g class="xaxislayer-below"/><g class="yaxislayer-below"/><g class="overaxes-below"/><g class="plot" transform="translate(50, 22)" clip-path="url(#clipb5d28fxyplot)"><g class="scatterlayer mlayer"><g class="trace scatter trace7ea511" style="stroke-miterlimit: 2; opacity: 1;"><g class="fills"/><g class="errorbars"/><g class="lines"><path class="js-line" d="M38.32,478.09L39.01,488.75L39.7,482.51L40.4,493.09L41.09,481.01L41.78,490.56L42.47,481.65L43.16,481.65L43.86,485.99L45.24,484.09L45.93,478.8L47.32,476.91L48.01,477.15L49.39,484.96L50.09,489.14L50.78,490.17L51.47,482.43L52.16,483.22L52.86,480.22L53.55,480.38L54.24,485.99L54.93,485.2L55.63,482.51L57.7,487.96L58.39,482.51L59.09,483.54L59.78,482.59L61.16,480.15L61.86,483.38L62.55,483.46L63.24,484.8L63.93,489.85L64.63,503.74L65.32,511.64L66.01,502.56L66.7,502.95L67.39,506.74L68.78,505.56L69.47,508.95L70.16,504.85L70.86,505.32L71.55,503.35L72.24,505.72L73.62,503.35L74.32,503.9L75.01,497.9L75.7,476.52L76.39,435.48L77.09,468.23L77.78,455.21L78.47,462.86L79.16,462.7L79.86,440.76L80.55,442.58L81.24,440.92L82.62,461.13L83.32,454.65L84.01,461.13" style="vector-effect: non-scaling-stroke; fill: none; stroke: rgb(0, 0, 0); stroke-opacity: 1; stroke-width: 1.88976px; opacity: 1;"/><path class="js-line" d="M86.09,451.5L86.78,451.18L87.47,442.18L88.16,438.63L88.86,440.13L89.55,438.24L90.24,445.34L90.93,447.71L91.62,444.24L92.32,443.6L93.01,446.92L94.39,452.6L95.09,452.44L95.78,451.65L96.47,449.05L97.86,465.47L98.55,466.33" style="vector-effect: non-scaling-stroke; fill: none; stroke: rgb(0, 0, 0); stroke-opacity: 1; stroke-width: 1.88976px; opacity: 1;"/><path class="js-line" d="M99.93,470.2L101.32,465.07L102.01,466.57L102.7,461.52L103.39,448.89L105.47,456.71L106.16,450.63L106.85,461.91L107.55,460.49L108.93,462.15" style="vector-effect: non-scaling-stroke; fill: none; stroke: rgb(0, 0, 0); stroke-opacity: 1; stroke-width: 1.88976px; opacity: 1;"/><path class="js-line" d="M110.32,466.02L111.01,470.28L111.7,464.28L112.39,467.2L113.09,461.36L113.78,462.31L114.47,464.68L115.85,464.28L116.55,470.99L117.93,466.26L118.62,465.7L120.01,460.73L120.7,453.79L121.39,448.18L122.09,453.23L123.47,465.7L124.16,462.86L124.85,461.91L125.55,462.31L126.24,461.91L126.93,466.89L128.32,471.54L129.01,471.07L129.7,470.75L130.39,468.7L131.08,464.6L131.78,464.76L132.47,466.18L133.85,460.89L134.55,461.44L135.93,452.84L136.62,457.97L137.32,460.49L138.01,452.05L138.7,458.76L139.39,457.34L140.08,460.18L140.78,451.65L141.47,451.26L142.16,443.6L142.85,445.74L143.55,456.94L144.24,451.65L144.93,454.18L145.62,455.36L146.32,451.81L147.01,452.6L147.7,445.97L148.39,442.97L149.08,446.6L149.78,442.34L150.47,432.08L151.16,426L151.85,431.92L152.55,431.53L153.24,428.61L153.93,434.92" style="vector-effect: non-scaling-stroke; fill: none; stroke: rgb(0, 0, 0); stroke-opacity: 1; stroke-width: 1.88976px; opacity: 1;"/><path class="js-line" d="M155.31,432.32L156.01,425.93L156.7,427.35L158.78,436.34L159.47,448.5L160.16,446.92L160.85,458.36L161.55,456.07L162.24,456.39L162.93,453.23L163.62,459.55L164.31,453.63L165.01,458.21L165.7,458.44L166.39,463.49L167.08,462.86L167.78,457.65L169.16,443.13L169.85,442.66L170.55,439.97L171.24,442.26L172.62,451.42L173.31,448.89L174.01,449.52L174.7,439.74L176.08,446.76L176.78,445.42L177.47,447.63L178.16,447.23L179.55,445.58L180.24,447.08L180.93,449.13L181.62,446.52L182.31,446.13L183.01,447.08L183.7,445.5L184.39,447L185.08,447.47L185.78,446.13L187.16,445.66L187.85,447.31L188.54,449.05L189.24,447.55L189.93,449.21L190.62,448.89L192.01,453.08L192.7,451.26L193.39,452.13L194.08,449.29L194.78,448.5L195.47,449.21L196.16,450.47L196.85,449.92L198.93,446.92L199.62,439.82L200.31,438.24L201.01,439.9L201.7,445.74L202.39,444.71L203.78,452.44L204.47,449.29L206.54,456.15L207.24,462.55L207.93,461.44L208.62,462.62L210.7,453.39L211.39,454.65L213.47,447.31L214.16,448.73" style="vector-effect: non-scaling-stroke; fill: none; stroke: rgb(0, 0, 0); stroke-opacity: 1; stroke-width: 1.88976px; opacity: 1;"/><path class="js-line" d="M216.24,448.81L217.62,445.34" style="vector-effect: non-scaling-stroke; fill: none; stroke: rgb(0, 0, 0); stroke-opacity: 1; stroke-width: 1.88976px; opacity: 1;"/><path class="js-line" d="M219.01,445.18L219.7,446.92L220.39,444.08L221.77,439.18L222.47,434.45L223.85,423.64L224.54,426.71L225.24,416.45L225.93,393.88L227.31,403.91L228.01,398.78L229.39,409.83L230.08,400.75L230.77,390.49L231.47,403.04L232.85,400.51L233.54,402.72L235.62,431.21L236.31,429.4L237.01,428.14L237.7,424.03L238.39,429.24L239.08,427.43L240.47,441.39L241.16,435.87L241.85,436.82L242.54,418.98L243.93,426.4L244.62,419.53L245.31,406.83L246,416.77L246.7,428.21L247.39,427.58L248.08,425.69L248.77,428.14L249.47,421.35L250.16,420.09L250.85,421.66L252.24,422.22L252.93,417.72L253.62,409.35L254.31,412.82L255,411.88L255.7,407.77L256.39,410.22L257.08,408.09L259.16,404.46L259.85,417.09L260.54,416.14" style="vector-effect: non-scaling-stroke; fill: none; stroke: rgb(0, 0, 0); stroke-opacity: 1; stroke-width: 1.88976px; opacity: 1;"/><path class="js-line" d="M262.62,434.77L264,430.19L264.7,431.77L265.39,430.35L266.08,423.79L267.47,427.74L268.16,424.43L268.85,419.77L269.54,424.43L270.23,423.64L270.93,425.93L273.7,413.38L274.39,415.35L276.47,421.11L277.16,417.32L277.85,415.98L278.54,422.3" style="vector-effect: non-scaling-stroke; fill: none; stroke: rgb(0, 0, 0); stroke-opacity: 1; stroke-width: 1.88976px; opacity: 1;"/><path class="js-line" d="M279.93,422.37L280.62,421.43L281.31,417.56L282,418.11L282.7,417.09L284.77,420.87L285.47,420.48L286.16,421.58L286.85,424.35L287.54,427.03L288.23,425.77L288.93,423.48" style="vector-effect: non-scaling-stroke; fill: none; stroke: rgb(0, 0, 0); stroke-opacity: 1; stroke-width: 1.88976px; opacity: 1;"/><path class="js-line" d="M290.31,423.01L291,422.3L291.7,420.48L292.39,419.53L293.08,420.09L294.47,422.61L295.16,422.45L296.54,421.9L297.23,412.9L297.93,412.98L298.62,412.27L300,414.56L300.7,429.08L302.08,426.87L302.77,426.56L305.54,418.82L306.23,419.22L307.62,415.9L308.31,418.51L309,419.3L309.7,418.82L310.39,417.8L311.08,414.56L311.77,408.48L312.46,412.98L313.16,412.75L313.85,415.03L314.54,415.59L315.23,411.64L315.93,413.93L316.62,413.61L318,403.51L318.7,406.27L319.39,411.4L320.08,410.61L321.46,403.83L322.16,406.91L322.85,368.39L323.54,392.46L324.93,395.62L325.62,391.91L326.31,391.91L327,390.33L327.69,338.79L328.39,352.05L329.08,343.92L329.77,355.37L330.46,351.58L331.16,366.02L331.85,373.52L332.54,363.26L333.93,354.34" style="vector-effect: non-scaling-stroke; fill: none; stroke: rgb(0, 0, 0); stroke-opacity: 1; stroke-width: 1.88976px; opacity: 1;"/><path class="js-line" d="M335.31,334.37L336,365.15L336.69,355.37L337.39,352.21L338.08,342.74L338.77,337.22L339.46,318.75L340.16,323.8L340.85,301.31L341.54,300.12L342.23,310.38L342.93,307.22L343.62,319.06L344.31,300.52L345,304.86L346.39,308.65L347.08,305.33L347.77,293.81L348.46,262.63L349.85,276.44L350.54,279.21L351.23,276.44L351.92,283.63L352.62,296.65L353.31,289.86L354,289.86L354.69,271.87L355.39,272.5L356.08,263.82L357.46,273.6L358.16,285.68L358.85,280.55L359.54,280.79L360.23,288.68L360.92,289.07L361.62,298.54L362.31,298.54L363,287.81L363.69,288.13L364.39,290.02L365.77,314.96L366.46,315.04L367.85,323.8L368.54,327.74L369.23,329.64L369.92,316.7L370.62,313.93L371.31,322.22L372.69,314.49L373.39,318.43L374.08,318.35L374.77,319.3L375.46,315.91L376.16,340.77L376.85,349.05L377.54,343.53L378.23,350.63L378.92,346.69L379.62,361.05L380.31,360.5L381,355.37L381.69,358.05L382.39,345.9L383.08,330.74L383.77,339.11L384.46,353.4L385.15,344L385.85,348.11L386.54,345.11L387.92,350.24L388.62,347.87L389.31,346.37L390,338.64L392.08,341.95L392.77,339.35L393.46,337.45L394.15,341.56L394.85,344.32" style="vector-effect: non-scaling-stroke; fill: none; stroke: rgb(0, 0, 0); stroke-opacity: 1; stroke-width: 1.88976px; opacity: 1;"/><path class="js-line" d="M396.92,343.69L397.62,346.84L398.31,344.48" style="vector-effect: non-scaling-stroke; fill: none; stroke: rgb(0, 0, 0); stroke-opacity: 1; stroke-width: 1.88976px; opacity: 1;"/><path class="js-line" d="M399.69,326.32L400.39,331.69L401.08,327.43L401.77,330.9L402.46,327.59L403.15,326.56L403.85,314.49L404.54,316.54L405.23,307.38L405.92,306.44L406.62,307.22L407.31,296.57L408,302.65L408.69,316.7L409.38,313.38L410.77,324.82L411.46,316.38L412.15,304.07L412.85,312.75L414.92,326.96L415.62,327.35L417,325.85L417.69,325.46L418.38,323.17L419.08,325.54L419.77,326.96L420.46,337.14L421.15,334.53L421.85,335.08L422.54,342.35L423.23,341.79L423.92,334.06L424.62,325.38L425.31,327.03L426,319.54L426.69,325.22L427.38,316.38L428.08,323.17L428.77,324.27L429.46,318.04L430.15,312.04L430.85,319.85L431.54,322.46L432.23,322.22L432.92,319.3L434.31,315.51L435,322.77L436.38,320.01L437.08,322.14L437.77,322.22L438.46,319.69L439.85,306.44L440.54,312.28L441.92,295.7L442.61,300.12L443.31,300.91L444,298.15L444.69,300.67L445.38,297.68L446.08,298.86L446.77,293.49L447.46,296.18L448.15,293.33L449.54,266.58L450.23,258.29L450.92,265.4" style="vector-effect: non-scaling-stroke; fill: none; stroke: rgb(0, 0, 0); stroke-opacity: 1; stroke-width: 1.88976px; opacity: 1;"/><path class="js-line" d="M453,244.4L453.69,256.24L454.38,246.45L455.77,209.2L456.46,242.11L457.15,248.43L457.85,244.09L458.54,247.8" style="vector-effect: non-scaling-stroke; fill: none; stroke: rgb(0, 0, 0); stroke-opacity: 1; stroke-width: 1.88976px; opacity: 1;"/><path class="js-line" d="M459.92,228.3L460.61,240.53L461.31,239.51L462,240.61L462.69,243.69L463.38,235.01L464.08,236.19L464.77,235.4L465.46,224.83L466.15,209.36L466.84,217.49L467.54,203.91L468.23,221.83L468.92,213.94" style="vector-effect: non-scaling-stroke; fill: none; stroke: rgb(0, 0, 0); stroke-opacity: 1; stroke-width: 1.88976px; opacity: 1;"/><path class="js-line" d="M470.31,235.96L471,254.5L471.69,245.9L472.38,248.43L473.08,261.61L474.46,245.9L475.15,250.79L475.84,243.77L476.54,244.24L477.23,247.95L477.92,240.69L478.61,241.09L479.31,234.14L480,250.64L480.69,246.85L481.38,253.95L482.08,249.45L482.77,247.64L483.46,261.29L484.15,269.97L484.84,262.24L485.54,268.55L486.23,264.76L487.61,255.77L488.31,251.98L489.69,262.24L490.38,262.08L491.08,259.4L491.77,263.58L492.46,258.61L493.84,261.13L494.54,255.69L495.23,253.95L495.92,246.61L496.61,247.24L497.31,251.74L498.69,244.17L499.38,243.69L500.77,246.3L501.46,244.56L502.15,236.19L502.84,239.82L504.92,210.15L505.61,219.86L506.31,221.44L507,229.09L507.69,236.19L508.38,230.35L509.07,233.83L509.77,232.25L511.15,243.61L511.84,243.45L512.54,239.11L513.23,239.51L513.92,244.72L515.31,237.77L516,239.51L516.69,238.17L517.38,241.88" style="vector-effect: non-scaling-stroke; fill: none; stroke: rgb(0, 0, 0); stroke-opacity: 1; stroke-width: 1.88976px; opacity: 1;"/><path class="js-line" d="M518.77,246.3L520.84,228.46L521.54,230.12L522.23,231.06L522.92,238.56L523.61,233.83L524.3,233.98L525,240.77L526.38,237.77L527.07,237.3L527.77,233.27L528.46,237.22L529.15,230.43L529.84,233.75L530.54,229.33L531.23,233.83L531.92,233.98L532.61,237.14L533.3,236.75L534,244.72L536.07,240.38L536.77,237.69L537.46,238.17L538.15,232.64L538.84,232.48L539.54,235.96L540.23,236.27L540.92,232.64L541.61,228.7L542.3,204.62L543,201.31L543.69,224.91L545.77,211.96L546.46,214.17L547.15,204.39L547.84,213.23L548.53,222.78L549.23,219.7L549.92,219.46L550.61,224.36L552,237.61L552.69,229.88L553.38,237.38L554.07,233.35L555.46,228.78L556.15,232.64L558.23,226.25L558.92,225.54L559.61,222.38L560.3,208.65L561,205.81L561.69,207.54L562.38,207.31L563.07,181.89L563.77,192.94L564.46,188.05L565.15,189.71L565.84,194.76L566.53,202.41L567.23,199.1L567.92,195.47L568.61,196.73L570,167.93L570.69,24.36L571.38,192.71L572.07,191.6L572.77,196.65L573.46,202.26L574.15,201.31L575.53,197.92" style="vector-effect: non-scaling-stroke; fill: none; stroke: rgb(0, 0, 0); stroke-opacity: 1; stroke-width: 1.88976px; opacity: 1;"/><path class="js-line" d="M577.61,188.76L579,193.58" style="vector-effect: non-scaling-stroke; fill: none; stroke: rgb(0, 0, 0); stroke-opacity: 1; stroke-width: 1.88976px; opacity: 1;"/><path class="js-line" d="M580.38,197.36L581.07,208.1L581.76,201.31L582.46,197.6L583.15,204.62L583.84,195.47L584.53,200.6L585.92,202.41L586.61,196.26L587.3,210.39L588,208.97L588.69,207.39L589.38,209.36L590.07,207.23L590.76,217.41L591.46,217.41L592.15,220.57L593.53,227.12L594.23,243.85L594.92,243.06L595.61,255.77L596.3,270.76L597,260.42L597.69,262.16L598.38,268.16L599.07,260.98L599.76,266.66L600.46,266.5L601.15,261.29L602.53,260.03L603.23,257.11L603.92,261.53L604.61,258.92L605.3,260.74L605.99,270.13L607.38,278.58L608.07,292.62L609.46,280.31L610.15,284.1L610.84,281.57L611.53,273.29L612.23,273.76L612.92,273.13L613.61,271.31L614.3,260.5L614.99,263.97L615.69,263.42L616.38,255.69L617.07,258.53L617.76,262.55L618.46,256.71L620.53,245.03L621.23,248.82L622.61,243.77L623.3,244.88L623.99,238.56" style="vector-effect: non-scaling-stroke; fill: none; stroke: rgb(0, 0, 0); stroke-opacity: 1; stroke-width: 1.88976px; opacity: 1;"/><path class="js-line" d="M626.07,241.72L627.46,257.11L628.15,253.4L629.53,250.87L630.23,253.56L630.92,255.92L631.61,245.11L632.3,239.27L632.99,240.85L633.69,238.56L634.38,244.88L635.07,246.22L635.76,251.58L636.46,253.95L637.15,252.61L637.84,247.8L638.53,251.58" style="vector-effect: non-scaling-stroke; fill: none; stroke: rgb(0, 0, 0); stroke-opacity: 1; stroke-width: 1.88976px; opacity: 1;"/><path class="js-line" d="M639.92,260.19L640.61,263.9L641.3,258.53L641.99,257.58L642.69,261.29L644.07,252.22L644.76,253.32L646.15,245.82L646.84,246.22L647.53,246.93L648.22,240.69L649.61,235.01L650.3,237.61L650.99,237.61L651.69,246.45L652.38,247.24" style="vector-effect: non-scaling-stroke; fill: none; stroke: rgb(0, 0, 0); stroke-opacity: 1; stroke-width: 1.88976px; opacity: 1;"/><path class="js-line" d="M653.76,244.88L654.46,240.14L655.15,243.93L655.84,227.75L656.53,228.93L657.22,230.04L658.61,243.3L659.3,239.98L659.99,250.4L660.69,249.93L661.38,250.72L662.07,247.01L662.76,251.51L663.45,245.03L664.15,248.51L666.22,255.92L666.92,263.82L667.61,260.9L668.3,275.02L668.99,271.95L669.69,272.5L672.45,268.32L673.15,268.71L673.84,267.53L674.53,275.66L675.92,268.47L676.61,269.97L677.99,271.31L678.69,259.08L680.07,261.92L680.76,263.5L681.45,282.52L682.15,280.08L682.84,284.73L683.53,278.5L684.22,272.66L684.92,278.18L685.61,280.79L686.3,277.39L686.99,280.47L687.69,279.84L689.07,287.57L689.76,284.34L690.45,285.28L691.15,280.94L691.84,279.6L692.53,284.34L693.92,278.97L694.61,283.23L695.3,278.5L695.99,279.44L696.68,275.18L697.38,276.84" style="vector-effect: non-scaling-stroke; fill: none; stroke: rgb(0, 0, 0); stroke-opacity: 1; stroke-width: 1.88976px; opacity: 1;"/><path class="js-line" d="M698.76,283.71L699.45,288.52L700.15,282.29L700.84,282.29L701.53,287.49L702.22,286.47L702.92,287.49L704.3,284.49L704.99,301.7L706.38,295.54L707.07,296.18L708.45,315.91L709.15,313.7L710.53,330.74L711.22,331.22L711.92,347.4L712.61,334.85L713.99,332.32L714.68,336.19L715.38,339.27L716.07,334.3L716.76,334.45L717.45,325.38L719.53,317.48L720.22,322.69L720.91,316.54L721.61,319.85L722.99,309.51L723.68,313.07L724.38,312.12L725.07,313.46L725.76,320.17L726.45,319.69L727.15,318.27L728.53,318.59L729.22,310.7L729.91,312.75L730.61,310.38L731.3,293.97L731.99,299.33L732.68,295.39L733.38,295.62L734.07,299.33L734.76,294.99L735.45,297.36L736.15,297.52L736.84,294.12L737.53,294.44L738.22,293.33L740.3,304.7L740.99,301.78L742.38,294.44L743.07,296.33L743.76,295.23L744.45,296.49L745.14,289.86L745.84,292.55L746.53,282.13L747.22,284.34L748.61,293.33L749.3,295.07L751.38,299.17L752.07,296.33L752.76,310.22L753.45,308.57L754.14,309.28L754.84,308.25L756.22,302.41" style="vector-effect: non-scaling-stroke; fill: none; stroke: rgb(0, 0, 0); stroke-opacity: 1; stroke-width: 1.88976px; opacity: 1;"/><path class="js-line" d="M758.3,308.57L758.99,309.43L759.68,314.09" style="vector-effect: non-scaling-stroke; fill: none; stroke: rgb(0, 0, 0); stroke-opacity: 1; stroke-width: 1.88976px; opacity: 1;"/><path class="js-line" d="M761.07,308.65L762.45,317.48L763.14,316.77L763.84,323.09L764.53,321.43L765.22,324.59L765.91,322.46L767.3,327.35L767.99,326.8L768.68,325.61L769.38,326.48L771.45,317.8L772.14,322.61L772.84,320.64L773.53,326.56L774.22,339.11L774.91,338.24L775.61,342.74L776.3,341.64L776.99,344.56L777.68,345.5L778.37,343.61L779.07,345.27L779.76,339.43L780.45,339.9L781.14,351.11L781.84,352.76L782.53,359L783.22,354.97L783.91,363.34L786.68,347.48L787.37,347.08L788.07,344.71L788.76,351.03L789.45,352.05L790.14,355.21L790.84,355.21L791.53,348.42L792.22,351.74L792.91,341L793.61,341.95L794.3,334.85L794.99,341L795.68,339.11L796.37,338.87L797.07,344.32L797.76,347.08L798.45,337.53L799.84,340.53L800.53,336.43" style="vector-effect: non-scaling-stroke; fill: none; stroke: rgb(0, 0, 0); stroke-opacity: 1; stroke-width: 1.88976px; opacity: 1;"/><path class="js-line" d="M802.6,343.92L803.3,356.47L803.99,355.37L804.68,358.05" style="vector-effect: non-scaling-stroke; fill: none; stroke: rgb(0, 0, 0); stroke-opacity: 1; stroke-width: 1.88976px; opacity: 1;"/></g><g class="points"/><g class="text"/></g></g></g><g class="overplot"/><path class="xlines-above crisp" d="" style="fill: none; stroke-width: 1px; stroke: rgb(0, 0, 0); stroke-opacity: 0;"/><path class="ylines-above crisp" d="" style="fill: none; stroke-width: 1px; stroke: rgb(0, 0, 0); stroke-opacity: 0;"/><g class="overlines-above"/><g class="xaxislayer-above"><path class="xtick ticks crisp" d="M0,559v3.65296803652968" transform="translate(87.63,0)" style="stroke: rgb(51, 51, 51); stroke-opacity: 1; stroke-width: 0.664176px;"/><path class="xtick ticks crisp" d="M0,559v3.65296803652968" transform="translate(295.31,0)" style="stroke: rgb(51, 51, 51); stroke-opacity: 1; stroke-width: 0.664176px;"/><path class="xtick ticks crisp" d="M0,559v3.65296803652968" transform="translate(503,0)" style="stroke: rgb(51, 51, 51); stroke-opacity: 1; stroke-width: 0.664176px;"/><path class="xtick ticks crisp" d="M0,559v3.65296803652968" transform="translate(710.69,0)" style="stroke: rgb(51, 51, 51); stroke-opacity: 1; stroke-width: 0.664176px;"/><g class="xtick"><text text-anchor="middle" x="0" y="576.6803652968036" transform="translate(87.63,0)" style="font-family: 'Open Sans', verdana, arial, sans-serif; font-size: 11.6895px; fill: rgb(77, 77, 77); fill-opacity: 1; white-space: pre;">0</text></g><g class="xtick"><text text-anchor="middle" x="0" y="576.6803652968036" transform="translate(295.31,0)" style="font-family: 'Open Sans', verdana, arial, sans-serif; font-size: 11.6895px; fill: rgb(77, 77, 77); fill-opacity: 1; white-space: pre;">300</text></g><g class="xtick"><text text-anchor="middle" x="0" y="576.6803652968036" transform="translate(503,0)" style="font-family: 'Open Sans', verdana, arial, sans-serif; font-size: 11.6895px; fill: rgb(77, 77, 77); fill-opacity: 1; white-space: pre;">600</text></g><g class="xtick"><text text-anchor="middle" x="0" y="576.6803652968036" transform="translate(710.69,0)" style="font-family: 'Open Sans', verdana, arial, sans-serif; font-size: 11.6895px; fill: rgb(77, 77, 77); fill-opacity: 1; white-space: pre;">900</text></g></g><g class="yaxislayer-above"><path class="ytick ticks crisp" d="M49,0h-3.65296803652968" transform="translate(0,509.96)" style="stroke: rgb(51, 51, 51); stroke-opacity: 1; stroke-width: 0.664176px;"/><path class="ytick ticks crisp" d="M49,0h-3.65296803652968" transform="translate(0,352.11)" style="stroke: rgb(51, 51, 51); stroke-opacity: 1; stroke-width: 0.664176px;"/><path class="ytick ticks crisp" d="M49,0h-3.65296803652968" transform="translate(0,194.27)" style="stroke: rgb(51, 51, 51); stroke-opacity: 1; stroke-width: 0.664176px;"/><path class="ytick ticks crisp" d="M49,0h-3.65296803652968" transform="translate(0,36.42)" style="stroke: rgb(51, 51, 51); stroke-opacity: 1; stroke-width: 0.664176px;"/><g class="ytick"><text text-anchor="end" x="43.00913242009132" y="4.09132420091325" transform="translate(0,509.96)" style="font-family: 'Open Sans', verdana, arial, sans-serif; font-size: 11.6895px; fill: rgb(77, 77, 77); fill-opacity: 1; white-space: pre;">300</text></g><g class="ytick"><text text-anchor="end" x="43.00913242009132" y="4.09132420091325" transform="translate(0,352.11)" style="font-family: 'Open Sans', verdana, arial, sans-serif; font-size: 11.6895px; fill: rgb(77, 77, 77); fill-opacity: 1; white-space: pre;">400</text></g><g class="ytick"><text text-anchor="end" x="43.00913242009132" y="4.09132420091325" transform="translate(0,194.27)" style="font-family: 'Open Sans', verdana, arial, sans-serif; font-size: 11.6895px; fill: rgb(77, 77, 77); fill-opacity: 1; white-space: pre;">500</text></g><g class="ytick"><text text-anchor="end" x="43.00913242009132" y="4.09132420091325" transform="translate(0,36.42)" style="font-family: 'Open Sans', verdana, arial, sans-serif; font-size: 11.6895px; fill: rgb(77, 77, 77); fill-opacity: 1; white-space: pre;">600</text></g></g><g class="overaxes-above"/></g></g><g class="polarlayer"/><g class="ternarylayer"/><g class="geolayer"/><g class="pielayer"/><g class="glimages"/><defs id="topdefs-b5d28f"><g class="clips"/></defs><g class="layer-above"><g class="imagelayer"/><g class="shapelayer"><path data-index="0" fill-rule="evenodd" d="M50,558H893V22H50Z" style="opacity: 1; stroke: rgb(0, 0, 0); stroke-opacity: 0; fill: rgb(0, 0, 0); fill-opacity: 0; stroke-width: 0px;"/></g></g><g class="infolayer"><g class="g-gtitle"/><g class="g-xtitle" transform="translate(0,-14.835616438356055)"><text class="xtitle" x="471.5" y="611.835616438356" text-anchor="middle" style="font-family: 'Open Sans', verdana, arial, sans-serif; font-size: 14.61px; fill: rgb(0, 0, 0); opacity: 1; font-weight: normal; white-space: pre;">x</text></g><g class="g-ytitle" transform="translate(3.7236328125,0)"><text class="ytitle" transform="rotate(-90,10.776255707762601,290)" x="10.776255707762601" y="290" text-anchor="middle" style="font-family: 'Open Sans', verdana, arial, sans-serif; font-size: 14.61px; fill: rgb(0, 0, 0); opacity: 1; font-weight: normal; white-space: pre;">y</text></g></g></svg>