<svg class="main-svg" xmlns="http://www.w3.org/2000/svg" xmlns:xlink="http://www.w3.org/1999/xlink" width="700" height="600" viewBox="0 0 700 600"><rect x="0" y="0" width="700" height="600" style="fill: rgb(255, 255, 255); fill-opacity: 1;"/><defs id="defs-e908cf"><g class="clips"><clipPath id="clipe908cfxyplot" class="plotclip"><rect width="308.64" height="92.5942492879427"/></clipPath><clipPath id="clipe908cfxy2plot" class="plotclip"><rect width="308.64" height="77.38849857588544"/></clipPath><clipPath id="clipe908cfxy3plot" class="plotclip"><rect width="308.64" height="77.38849857588544"/></clipPath><clipPath id="clipe908cfxy4plot" class="plotclip"><rect width="308.64" height="77.38849857588542"/></clipPath><clipPath id="clipe908cfxy5plot" class="plotclip"><rect width="308.64" height="92.5942492879427"/></clipPath><clipPath id="clipe908cfx2y6plot" class="plotclip"><rect width="308.64" height="92.5942492879427"/></clipPath><clipPath id="clipe908cfx2y7plot" class="plotclip"><rect width="308.64" height="77.38849857588544"/></clipPath><clipPath id="clipe908cfx2y8plot" class="plotclip"><rect width="308.64" height="77.38849857588544"/></clipPath><clipPath id="clipe908cfx2y9plot" class="plotclip"><rect width="308.64" height="77.38849857588542"/></clipPath><clipPath id="clipe908cfx2y10plot" class="plotclip"><rect width="308.64" height="92.5942492879427"/></clipPath><clipPath class="axesclip" id="clipe908cfx"><rect x="50" y="0" width="308.64" height="600"/></clipPath><clipPath class="axesclip" id="clipe908cfy"><rect x="0" y="34" width="700" height="92.5942492879427"/></clipPath><clipPath class="axesclip" id="clipe908cfxy"><rect x="50" y="34" width="308.64" height="92.5942492879427"/></clipPath><clipPath class="axesclip" id="clipe908cfy2"><rect x="0" y="157.0057507120573" width="700" height="77.38849857588544"/></clipPath><clipPath class="axesclip" id="clipe908cfxy2"><rect x="50" y="157.0057507120573" width="308.64" height="77.38849857588544"/></clipPath><clipPath class="axesclip" id="clipe908cfy3"><rect x="0" y="264.80575071205726" width="700" height="77.38849857588544"/></clipPath><clipPath class="axesclip" id="clipe908cfxy3"><rect x="50" y="264.80575071205726" width="308.64" height="77.38849857588544"/></clipPath><clipPath class="axesclip" id="clipe908cfy4"><rect x="0" y="372.6057507120573" width="700" height="77.38849857588542"/></clipPath><clipPath class="axesclip" id="clipe908cfxy4"><rect x="50" y="372.6057507120573" width="308.64" height="77.38849857588542"/></clipPath><clipPath class="axesclip" id="clipe908cfy5"><rect x="0" y="480.4057507120573" width="700" height="92.5942492879427"/></clipPath><clipPath class="axesclip" id="clipe908cfxy5"><rect x="50" y="480.4057507120573" width="308.64" height="92.5942492879427"/></clipPath><clipPath class="axesclip" id="clipe908cfy6"><rect x="0" y="34" width="700" height="92.5942492879427"/></clipPath><clipPath class="axesclip" id="clipe908cfxy6"><rect x="50" y="34" width="308.64" height="92.5942492879427"/></clipPath><clipPath class="axesclip" id="clipe908cfy7"><rect x="0" y="157.0057507120573" width="700" height="77.38849857588544"/></clipPath><clipPath class="axesclip" id="clipe908cfxy7"><rect x="50" y="157.0057507120573" width="308.64" height="77.38849857588544"/></clipPath><clipPath class="axesclip" id="clipe908cfy8"><rect x="0" y="264.80575071205726" width="700" height="77.38849857588544"/></clipPath><clipPath class="axesclip" id="clipe908cfxy8"><rect x="50" y="264.80575071205726" width="308.64" height="77.38849857588544"/></clipPath><clipPath class="axesclip" id="clipe908cfy9"><rect x="0" y="372.6057507120573" width="700" height="77.38849857588542"/></clipPath><clipPath class="axesclip" id="clipe908cfxy9"><rect x="50" y="372.6057507120573" width="308.64" height="77.38849857588542"/></clipPath><clipPath class="axesclip" id="clipe908cfy10"><rect x="0" y="480.4057507120573" width="700" height="92.5942492879427"/></clipPath><clipPath class="axesclip" id="clipe908cfxy10"><rect x="50" y="480.4057507120573" width="308.64" height="92.5942492879427"/></clipPath><clipPath class="axesclip" id="clipe908cfx2"><rect x="384.36" y="0" width="308.64" height="600"/></clipPath><clipPath class="axesclip" id="clipe908cfx2y"><rect x="384.36" y="34" width="308.64" height="92.5942492879427"/></clipPath><clipPath class="axesclip" id="clipe908cfx2y2"><rect x="384.36" y="157.0057507120573" width="308.64" height="77.38849857588544"/></clipPath><clipPath class="axesclip" id="clipe908cfx2y3"><rect x="384.36" y="264.80575071205726" width="308.64" height="77.38849857588544"/></clipPath><clipPath class="axesclip" id="clipe908cfx2y4"><rect x="384.36" y="372.6057507120573" width="308.64" height="77.38849857588542"/></clipPath><clipPath class="axesclip" id="clipe908cfx2y5"><rect x="384.36" y="480.4057507120573" width="308.64" height="92.5942492879427"/></clipPath><clipPath class="axesclip" id="clipe908cfx2y6"><rect x="384.36" y="34" width="308.64" height="92.5942492879427"/></clipPath><clipPath class="axesclip" id="clipe908cfx2y7"><rect x="384.36" y="157.0057507120573" width="308.64" height="77.38849857588544"/></clipPath><clipPath class="axesclip" id="clipe908cfx2y8"><rect x="384.36" y="264.80575071205726" width="308.64" height="77.38849857588544"/></clipPath><clipPath class="axesclip" id="clipe908cfx2y9"><rect x="384.36" y="372.6057507120573" width="308.64" height="77.38849857588542"/></clipPath><clipPath class="axesclip" id="clipe908cfx2y10"><rect x="384.36" y="480.4057507120573" width="308.64" height="92.5942492879427"/></clipPath></g><g class="gradients"/></defs><g class="bglayer"><rect class="bg" x="50" y="34" width="308.64" height="92.5942492879427" style="fill: rgb(235, 235, 235); fill-opacity: 1; stroke-width: 0;"/><rect class="bg" x="50" y="157.0057507120573" width="308.64" height="77.38849857588544" style="fill: rgb(235, 235, 235); fill-opacity: 1; stroke-width: 0;"/><rect class="bg" x="50" y="264.80575071205726" width="308.64" height="77.38849857588544" style="fill: rgb(235, 235, 235); fill-opacity: 1; stroke-width: 0;"/><rect class="bg" x="50" y="372.6057507120573" width="308.64" height="77.38849857588542" style="fill: rgb(235, 235, 235); fill-opacity: 1; stroke-width: 0;"/><rect class="bg" x="50" y="480.4057507120573" width="308.64" height="92.5942492879427" style="fill: rgb(235, 235, 235); fill-opacity: 1; stroke-width: 0;"/><rect class="bg" x="384.36" y="34" width="308.64" height="92.5942492879427" style="fill: rgb(235, 235, 235); fill-opacity: 1; stroke-width: 0;"/><rect class="bg" x="384.36" y="157.0057507120573" width="308.64" height="77.38849857588544" style="fill: rgb(235, 235, 235); fill-opacity: 1; stroke-width: 0;"/><rect class="bg" x="384.36" y="264.80575071205726" width="308.64" height="77.38849857588544" style="fill: rgb(235, 235, 235); fill-opacity: 1; stroke-width: 0;"/><rect class="bg" x="384.36" y="372.6057507120573" width="308.64" height="77.38849857588542" style="fill: rgb(235, 235, 235); fill-opacity: 1; stroke-width: 0;"/><rect class="bg" x="384.36" y="480.4057507120573" width="308.64" height="92.5942492879427" style="fill: rgb(235, 235, 235); fill-opacity: 1; stroke-width: 0;"/></g><g class="layer-below"><g class="imagelayer"/><g class="shapelayer"/></g><g class="cartesianlayer"><g class="subplot xy"><g class="layer-subplot"><g class="shapelayer"/><g class="imagelayer"/></g><g class="gridlayer"><g class="x"><path class="xgrid crisp" d="M0,34v92.5942492879427" transform="translate(78.75,0)" style="stroke: rgb(255, 255, 255); stroke-opacity: 1; stroke-width: 0.664176px;"/><path class="xgrid crisp" d="M0,34v92.5942492879427" transform="translate(137.5,0)" style="stroke: rgb(255, 255, 255); stroke-opacity: 1; stroke-width: 0.664176px;"/><path class="xgrid crisp" d="M0,34v92.5942492879427" transform="translate(196.27,0)" style="stroke: rgb(255, 255, 255); stroke-opacity: 1; stroke-width: 0.664176px;"/><path class="xgrid crisp" d="M0,34v92.5942492879427" transform="translate(255.02,0)" style="stroke: rgb(255, 255, 255); stroke-opacity: 1; stroke-width: 0.664176px;"/><path class="xgrid crisp" d="M0,34v92.5942492879427" transform="translate(313.79,0)" style="stroke: rgb(255, 255, 255); stroke-opacity: 1; stroke-width: 0.664176px;"/></g><g class="y"><path class="ygrid crisp" d="M50,0h308.64" transform="translate(0,108.03)" style="stroke: rgb(255, 255, 255); stroke-opacity: 1; stroke-width: 0.664176px;"/><path class="ygrid crisp" d="M50,0h308.64" transform="translate(0,90.02000000000001)" style="stroke: rgb(255, 255, 255); stroke-opacity: 1; stroke-width: 0.664176px;"/><path class="ygrid crisp" d="M50,0h308.64" transform="translate(0,72.02000000000001)" style="stroke: rgb(255, 255, 255); stroke-opacity: 1; stroke-width: 0.664176px;"/><path class="ygrid crisp" d="M50,0h308.64" transform="translate(0,54.010000000000005)" style="stroke: rgb(255, 255, 255); stroke-opacity: 1; stroke-width: 0.664176px;"/><path class="ygrid crisp" d="M50,0h308.64" transform="translate(0,36)" style="stroke: rgb(255, 255, 255); stroke-opacity: 1; stroke-width: 0.664176px;"/></g></g><g class="zerolinelayer"/><path class="xlines-below"/><path class="ylines-below"/><g class="overlines-below"/><g class="xaxislayer-below"/><g class="yaxislayer-below"/><g class="overaxes-below"/><g class="plot" transform="translate(50, 34)" clip-path="url(#clipe908cfxyplot)"><g class="scatterlayer mlayer"><g class="trace scatter trace4d34e0" style="stroke-miterlimit: 2; opacity: 1;"><g class="fills"/><g class="errorbars"/><g class="lines"><path class="js-line" d="M14.03,88.39L55.16,85.28L55.66,85.16L62.03,84.44L62.52,84.39L88.96,79.83L89.45,79.79L100.21,77.46L100.71,77.44L127.16,70.91L127.65,70.94L129.14,70.42L129.59,70.33L140.89,66.91L141.35,66.83L143.81,65.96L144.31,65.95L157.51,63.08L158.01,62.61L165.35,60.39L165.83,60.18L173.68,57.64L174.16,57.37L180.53,55.62L181.02,55.32L182.01,55.07L182.48,54.77L187.4,53.06L187.9,52.9L195.21,49.99L195.71,49.74L200.1,47.86L200.6,47.41L205.02,44.96L205.52,44.36L206.97,43.72L207.47,43.46L214.32,40.83L214.82,41.53L215.3,40.12L215.8,40.41L216.28,40.55L225.56,36.3L226.06,35.61L228.02,34.92L228.52,34.51L233.43,31.39L233.91,30.95L234.91,30.6L235.36,30.31L238.32,28.03L238.8,27.74L240.28,26.78L240.78,26.56L255.45,19.33L255.95,19.7L257.92,21.57L258.41,21.7L259.36,21.99L259.85,21.82L261.82,20.85L262.31,20.5L264.29,19.79L264.74,19.37L269.16,17.19L269.66,16.87L277.48,13.03L277.98,13.19L288.24,8.18L288.74,7.75L292.66,5.16L293.16,5.27L294.61,4.21" style="vector-effect: non-scaling-stroke; fill: none; stroke: rgb(0, 0, 0); stroke-opacity: 1; stroke-width: 1.88976px; opacity: 1;"/></g><g class="points"/><g class="text"/></g></g></g><g class="overplot"/><path class="xlines-above crisp" d="M0,0" style="fill: none;"/><path class="ylines-above crisp" d="" style="fill: none; stroke-width: 1px; stroke: rgb(0, 0, 0); stroke-opacity: 0;"/><g class="overlines-above"/><g class="xaxislayer-above"/><g class="yaxislayer-above"><path class="ytick ticks crisp" d="M49,0h-3.65296803652968" transform="translate(0,126.03)" style="stroke: rgb(51, 51, 51); stroke-opacity: 1; stroke-width: 0.664176px;"/><path class="ytick ticks crisp" d="M49,0h-3.65296803652968" transform="translate(0,108.03)" style="stroke: rgb(51, 51, 51); stroke-opacity: 1; stroke-width: 0.664176px;"/><path class="ytick ticks crisp" d="M49,0h-3.65296803652968" transform="translate(0,90.02000000000001)" style="stroke: rgb(51, 51, 51); stroke-opacity: 1; stroke-width: 0.664176px;"/><path class="ytick ticks crisp" d="M49,0h-3.65296803652968" transform="translate(0,72.02000000000001)" style="stroke: rgb(51, 51, 51); stroke-opacity: 1; stroke-width: 0.664176px;"/><path class="ytick ticks crisp" d="M49,0h-3.65296803652968" transform="translate(0,54.010000000000005)" style="stroke: rgb(51, 51, 51); stroke-opacity: 1; stroke-width: 0.664176px;"/><path class="ytick ticks crisp" d="M49,0h-3.65296803652968" transform="translate(0,36)" style="stroke: rgb(51, 51, 51); stroke-opacity: 1; stroke-width: 0.664176px;"/><g class="ytick"><text text-anchor="end" x="43.00913242009132" y="4.09132420091325" transform="translate(0,126.03)" style="font-family: 'Open Sans', verdana, arial, sans-serif; font-size: 11.6895px; fill: rgb(77, 77, 77); fill-opacity: 1; white-space: pre;">0</text></g><g class="ytick"><text text-anchor="end" x="43.00913242009132" y="4.09132420091325" transform="translate(0,108.03)" style="font-family: 'Open Sans', verdana, arial, sans-serif; font-size: 11.6895px; fill: rgb(77, 77, 77); fill-opacity: 1; white-space: pre;">2500</text></g><g class="ytick"><text text-anchor="end" x="43.00913242009132" y="4.09132420091325" transform="translate(0,90.02000000000001)" style="font-family: 'Open Sans', verdana, arial, sans-serif; font-size: 11.6895px; fill: rgb(77, 77, 77); fill-opacity: 1; white-space: pre;">5000</text></g><g class="ytick"><text text-anchor="end" x="43.00913242009132" y="4.09132420091325" transform="translate(0,72.02000000000001)" style="font-family: 'Open Sans', verdana, arial, sans-serif; font-size: 11.6895px; fill: rgb(77, 77, 77); fill-opacity: 1; white-space: pre;">7500</text></g><g class="ytick"><text text-anchor="end" x="43.00913242009132" y="4.09132420091325" transform="translate(0,54.010000000000005)" style="font-family: 'Open Sans', verdana, arial, sans-serif; font-size: 11.6895px; fill: rgb(77, 77, 77); fill-opacity: 1; white-space: pre;">10000</text></g><g class="ytick"><text text-anchor="end" x="43.00913242009132" y="4.09132420091325" transform="translate(0,36)" style="font-family: 'Open Sans', verdana, arial, sans-serif; font-size: 11.6895px; fill: rgb(77, 77, 77); fill-opacity: 1; white-space: pre;">12500</text></g></g><g class="overaxes-above"/></g><g class="subplot xy2"><g class="layer-subplot"><g class="shapelayer"/><g class="imagelayer"/></g><g class="gridlayer"><g class="x"><path class="xgrid crisp" d="M0,157.0057507120573v77.38849857588544" transform="translate(78.75,0)" style="stroke: rgb(255, 255, 255); stroke-opacity: 1; stroke-width: 0.664176px;"/><path class="xgrid crisp" d="M0,157.0057507120573v77.38849857588544" transform="translate(137.5,0)" style="stroke: rgb(255, 255, 255); stroke-opacity: 1; stroke-width: 0.664176px;"/><path class="xgrid crisp" d="M0,157.0057507120573v77.38849857588544" transform="translate(196.27,0)" style="stroke: rgb(255, 255, 255); stroke-opacity: 1; stroke-width: 0.664176px;"/><path class="xgrid crisp" d="M0,157.0057507120573v77.38849857588544" transform="translate(255.02,0)" style="stroke: rgb(255, 255, 255); stroke-opacity: 1; stroke-width: 0.664176px;"/><path class="xgrid crisp" d="M0,157.0057507120573v77.38849857588544" transform="translate(313.79,0)" style="stroke: rgb(255, 255, 255); stroke-opacity: 1; stroke-width: 0.664176px;"/></g><g class="y2"><path class="y2grid crisp" d="M50,0h308.64" transform="translate(0,230.1357507120573)" style="stroke: rgb(255, 255, 255); stroke-opacity: 1; stroke-width: 0.664176px;"/><path class="y2grid crisp" d="M50,0h308.64" transform="translate(0,215.67575071205732)" style="stroke: rgb(255, 255, 255); stroke-opacity: 1; stroke-width: 0.664176px;"/><path class="y2grid crisp" d="M50,0h308.64" transform="translate(0,201.2257507120573)" style="stroke: rgb(255, 255, 255); stroke-opacity: 1; stroke-width: 0.664176px;"/><path class="y2grid crisp" d="M50,0h308.64" transform="translate(0,186.77575071205732)" style="stroke: rgb(255, 255, 255); stroke-opacity: 1; stroke-width: 0.664176px;"/><path class="y2grid crisp" d="M50,0h308.64" transform="translate(0,172.3157507120573)" style="stroke: rgb(255, 255, 255); stroke-opacity: 1; stroke-width: 0.664176px;"/></g></g><g class="zerolinelayer"/><path class="xlines-below"/><path class="ylines-below"/><g class="overlines-below"/><g class="xaxislayer-below"/><g class="yaxislayer-below"/><g class="overaxes-below"/><g class="plot" transform="translate(50, 157.0057507120573)" clip-path="url(#clipe908cfxy2plot)"><g class="scatterlayer mlayer"><g class="trace scatter trace96ebf6" style="stroke-miterlimit: 2; opacity: 1;"><g class="fills"/><g class="errorbars"/><g class="lines"><path class="js-line" d="M14.03,73.87L151.16,43.44L151.64,43.28L190.81,30.79L191.31,30.6L210.41,24.74L210.91,24.61L280.44,6.61L280.92,6.51L294.61,3.52" style="vector-effect: non-scaling-stroke; fill: none; stroke: rgb(0, 0, 0); stroke-opacity: 1; stroke-width: 1.88976px; opacity: 1;"/></g><g class="points"/><g class="text"/></g></g></g><g class="overplot"/><path class="xlines-above crisp" d="M0,0" style="fill: none;"/><path class="ylines-above crisp" d="" style="fill: none; stroke-width: 1px; stroke: rgb(0, 0, 0); stroke-opacity: 0;"/><g class="overlines-above"/><g class="xaxislayer-above"/><g class="yaxislayer-above"><path class="y2tick ticks crisp" d="M49,0h-3.65296803652968" transform="translate(0,230.1357507120573)" style="stroke: rgb(51, 51, 51); stroke-opacity: 1; stroke-width: 0.664176px;"/><path class="y2tick ticks crisp" d="M49,0h-3.65296803652968" transform="translate(0,215.67575071205732)" style="stroke: rgb(51, 51, 51); stroke-opacity: 1; stroke-width: 0.664176px;"/><path class="y2tick ticks crisp" d="M49,0h-3.65296803652968" transform="translate(0,201.2257507120573)" style="stroke: rgb(51, 51, 51); stroke-opacity: 1; stroke-width: 0.664176px;"/><path class="y2tick ticks crisp" d="M49,0h-3.65296803652968" transform="translate(0,186.77575071205732)" style="stroke: rgb(51, 51, 51); stroke-opacity: 1; stroke-width: 0.664176px;"/><path class="y2tick ticks crisp" d="M49,0h-3.65296803652968" transform="translate(0,172.3157507120573)" style="stroke: rgb(51, 51, 51); stroke-opacity: 1; stroke-width: 0.664176px;"/><path class="y2tick ticks crisp" d="M49,0h-3.65296803652968" transform="translate(0,157.86575071205732)" style="stroke: rgb(51, 51, 51); stroke-opacity: 1; stroke-width: 0.664176px;"/><g class="y2tick"><text text-anchor="end" x="43.00913242009132" y="4.09132420091325" transform="translate(0,230.1357507120573)" style="font-family: 'Open Sans', verdana, arial, sans-serif; font-size: 11.6895px; fill: rgb(77, 77, 77); fill-opacity: 1; white-space: pre;">200000</text></g><g class="y2tick"><text text-anchor="end" x="43.00913242009132" y="4.09132420091325" transform="translate(0,215.67575071205732)" style="font-family: 'Open Sans', verdana, arial, sans-serif; font-size: 11.6895px; fill: rgb(77, 77, 77); fill-opacity: 1; white-space: pre;">225000</text></g><g class="y2tick"><text text-anchor="end" x="43.00913242009132" y="4.09132420091325" transform="translate(0,201.2257507120573)" style="font-family: 'Open Sans', verdana, arial, sans-serif; font-size: 11.6895px; fill: rgb(77, 77, 77); fill-opacity: 1; white-space: pre;">250000</text></g><g class="y2tick"><text text-anchor="end" x="43.00913242009132" y="4.09132420091325" transform="translate(0,186.77575071205732)" style="font-family: 'Open Sans', verdana, arial, sans-serif; font-size: 11.6895px; fill: rgb(77, 77, 77); fill-opacity: 1; white-space: pre;">275000</text></g><g class="y2tick"><text text-anchor="end" x="43.00913242009132" y="4.09132420091325" transform="translate(0,172.3157507120573)" style="font-family: 'Open Sans', verdana, arial, sans-serif; font-size: 11.6895px; fill: rgb(77, 77, 77); fill-opacity: 1; white-space: pre;">300000</text></g><g class="y2tick"><text text-anchor="end" x="43.00913242009132" y="4.09132420091325" transform="translate(0,157.86575071205732)" style="font-family: 'Open Sans', verdana, arial, sans-serif; font-size: 11.6895px; fill: rgb(77, 77, 77); fill-opacity: 1; white-space: pre;">325000</text></g></g><g class="overaxes-above"/></g><g class="subplot xy3"><g class="layer-subplot"><g class="shapelayer"/><g class="imagelayer"/></g><g class="gridlayer"><g class="x"><path class="xgrid crisp" d="M0,264.80575071205726v77.38849857588544" transform="translate(78.75,0)" style="stroke: rgb(255, 255, 255); stroke-opacity: 1; stroke-width: 0.664176px;"/><path class="xgrid crisp" d="M0,264.80575071205726v77.38849857588544" transform="translate(137.5,0)" style="stroke: rgb(255, 255, 255); stroke-opacity: 1; stroke-width: 0.664176px;"/><path class="xgrid crisp" d="M0,264.80575071205726v77.38849857588544" transform="translate(196.27,0)" style="stroke: rgb(255, 255, 255); stroke-opacity: 1; stroke-width: 0.664176px;"/><path class="xgrid crisp" d="M0,264.80575071205726v77.38849857588544" transform="translate(255.02,0)" style="stroke: rgb(255, 255, 255); stroke-opacity: 1; stroke-width: 0.664176px;"/><path class="xgrid crisp" d="M0,264.80575071205726v77.38849857588544" transform="translate(313.79,0)" style="stroke: rgb(255, 255, 255); stroke-opacity: 1; stroke-width: 0.664176px;"/></g><g class="y3"><path class="y3grid crisp" d="M50,0h308.64" transform="translate(0,325.63575071205724)" style="stroke: rgb(255, 255, 255); stroke-opacity: 1; stroke-width: 0.664176px;"/><path class="y3grid crisp" d="M50,0h308.64" transform="translate(0,302.33575071205723)" style="stroke: rgb(255, 255, 255); stroke-opacity: 1; stroke-width: 0.664176px;"/><path class="y3grid crisp" d="M50,0h308.64" transform="translate(0,279.0357507120573)" style="stroke: rgb(255, 255, 255); stroke-opacity: 1; stroke-width: 0.664176px;"/></g></g><g class="zerolinelayer"/><path class="xlines-below"/><path class="ylines-below"/><g class="overlines-below"/><g class="xaxislayer-below"/><g class="yaxislayer-below"/><g class="overaxes-below"/><g class="plot" transform="translate(50, 264.80575071205726)" clip-path="url(#clipe908cfxy3plot)"><g class="scatterlayer mlayer"><g class="trace scatter trace5582f7" style="stroke-miterlimit: 2; opacity: 1;"><g class="fills"/><g class="errorbars"/><g class="lines"><path class="js-line" d="M14.03,25.42L14.53,25.42L15.03,28.68L15.51,24.02L16.01,24.48L16.49,29.14L16.99,29.61L17.49,26.81L17.95,29.61L18.45,26.81L19.43,29.61L19.92,34.27L20.42,35.2L20.91,34.73L21.4,33.8L21.9,34.73L22.38,32.4L23.38,38.93L23.83,36.6L24.33,38.93L24.81,37.06L25.79,29.14L26.29,30.54L26.79,30.07L27.27,31.01L28.75,29.14L29.25,29.61L30.2,22.15L30.68,26.35L31.18,26.81L31.66,21.22L32.16,21.69L32.66,24.02L33.64,20.76L34.12,22.62L35.57,21.22L36.07,22.62L36.55,20.76L37.05,15.63L38.53,22.15L39.01,22.15L40.49,25.88L40.99,24.48L41.96,30.54L42.44,29.61L43.42,29.61L43.92,28.21L44.42,27.28L44.9,23.55L45.88,20.29L46.38,26.35L47.33,24.95L47.83,22.62L48.31,22.62L48.81,20.76L49.29,22.62L49.79,19.36L50.29,23.09L50.77,17.03L51.27,17.03L51.75,15.17L54.18,24.48L54.68,24.48L55.16,24.48L55.66,27.75L57.14,19.82L57.63,18.89L58.62,25.88L59.07,24.95L59.57,17.96L60.06,3.52L60.55,17.5L61.04,25.42L61.54,23.55L62.03,23.55L62.52,21.69L63.02,24.95L64,29.61L64.5,26.81L64.96,27.28L65.46,29.61L65.94,26.81L66.44,31.01L67.42,29.61L67.92,31.01L68.4,32.4L68.9,31.01L70.38,40.79L70.83,35.2L71.33,35.2L71.82,36.13L73.79,32.4L74.28,32.87L75.76,28.68L76.26,32.4L77.2,33.8L77.69,36.13L78.19,37.53L78.67,33.34L79.17,35.2L79.67,34.73L80.15,34.27L81.13,35.67L81.63,32.4L82.58,31.94L83.08,32.87L84.06,38L84.54,34.73L85.54,40.32L86.02,38.93L86.52,38.93L87,37.06L87.5,38L88,37.06L88.47,36.6L88.96,31.47L89.45,31.01L89.95,31.94L90.93,31.47L91.43,29.61L91.91,31.47L92.41,30.07L94.34,33.8L94.84,33.34L95.32,32.87L95.82,33.8L96.3,26.81L96.8,28.21L97.3,26.35L98.28,22.62L98.76,25.88L99.26,24.95L99.76,27.75L100.21,27.28L100.71,24.02L101.69,26.81L102.17,25.88L102.67,25.42L103.17,29.14L104.63,33.34L105.13,32.4L105.63,32.4L106.08,34.73L107.06,38L107.56,41.72L108.04,39.39L108.54,41.26L110.02,36.13L110.51,37.06L111,37.53L111.5,29.61L113.45,32.4L113.93,30.07L114.93,29.14L115.41,29.61L117.84,43.59L118.34,38L118.82,32.4L119.32,39.39L120.8,50.11L121.28,41.72L121.78,42.19L122.27,44.05L122.76,44.05L123.26,40.79L123.71,38L124.21,38.93L124.69,40.79L125.68,40.79L126.17,42.19L126.67,50.58L127.16,44.98L127.65,43.12L128.14,51.51L128.64,38.93L129.14,44.52L129.59,44.52L130.08,63.15L130.57,45.92L132.05,50.58L132.55,48.71L134.01,43.59L134.51,46.38L135.01,44.05L135.47,45.92L135.97,43.12L136.45,44.98L136.95,44.98L137.44,44.05L137.93,44.98L138.43,42.65L139.9,45.45L140.4,44.52L141.35,39.86L141.84,44.98L142.33,46.38L142.83,45.92L143.31,45.92L143.81,48.71L144.31,46.38L145.29,44.05L145.77,47.78L146.27,46.85L146.77,44.05L147.22,45.45L147.72,43.12L149.18,43.59L149.68,46.38L150.18,46.38L150.66,47.78L151.16,47.31L151.64,43.12L152.14,40.79L152.64,43.12L153.09,46.85L153.59,44.05L154.07,44.98L154.57,42.65L155.05,45.92L155.55,44.05L156.53,40.79L157.03,42.19L157.51,38.93L158.01,40.32L158.51,38.46L158.98,38.93L159.48,38L159.96,38L160.46,37.06L162.92,46.85L163.4,34.73L163.9,44.05L164.4,42.65L164.85,42.65L165.83,45.45L166.33,47.78L166.81,48.71L167.31,48.25L167.81,51.97L168.79,54.77L169.27,41.72L170.27,53.84L170.72,52.44L171.22,54.3L171.7,48.71L173.18,53.84L173.68,52.44L174.16,51.04L174.66,51.51L175.15,50.58L176.14,47.78L176.59,49.18L177.09,51.97L177.57,51.04L178.07,52.9L178.56,51.04L179.05,52.9L180.04,51.04L180.53,53.37L181.02,55.7L181.52,52.9L182.48,53.37L182.98,57.56L183.96,51.04L184.44,52.9L187.9,55.23L188.35,54.3L189.33,52.44L189.83,53.37L190.81,56.17L191.31,55.23L191.8,55.23L192.29,54.3L192.78,54.3L193.28,49.64L194.23,49.18L194.72,50.58L195.71,52.44L196.19,51.97L196.69,52.44L197.19,54.3L198.65,57.1L199.15,54.3L200.1,56.63L200.6,59.89L201.58,61.76L202.06,61.76L202.56,62.22L203.06,64.55L204.04,61.76L204.52,63.62L205.02,58.96L205.52,61.76L205.98,63.15L206.48,60.83L207.47,61.29L207.95,59.89L208.45,59.89L208.95,63.15L209.93,63.15L210.41,64.55L211.86,59.43L212.36,60.83L213.34,63.15L213.82,58.03L214.82,51.51L215.3,68.28L216.78,55.7L217.28,57.1L217.73,56.63L218.23,57.1L218.71,53.84L219.21,54.3L219.69,58.5L220.19,58.96L220.69,57.56L221.67,57.56L222.15,58.5L223.15,58.03L223.6,59.43L224.1,59.43L224.58,57.1L225.08,58.03L225.56,54.77L226.06,56.17L226.56,59.89L228.02,58.96L228.52,60.83L229.49,61.29L229.99,59.43L230.47,59.43L230.97,57.1L232.93,63.15L233.43,65.02L233.91,51.97L234.41,66.88L235.86,69.68L236.34,67.81L237.32,73.87L237.82,71.54L238.32,71.54L238.8,69.68L240.78,64.55L241.23,64.55L242.21,66.42L242.71,65.48L243.2,68.28L243.69,67.35L244.19,67.35L244.68,67.35L245.17,65.95L246.16,66.88L246.65,65.02L247.1,63.62L247.6,64.55L249.57,68.28L250.06,67.81L250.55,68.28L251.05,69.68L251.53,67.35L252.03,66.88L252.53,65.02L252.99,65.48L253.49,68.28L253.97,47.78L254.47,58.5L255.45,66.42L255.95,62.22L257.42,54.3L257.92,55.23L258.41,58.5L258.86,56.63L259.36,52.44L259.85,45.92L260.34,52.9L261.33,61.29L261.82,56.63L262.31,58.96L262.81,56.63L263.29,56.63L263.79,55.7L264.74,57.56L265.24,54.3L265.72,51.51L266.22,51.97L266.7,52.44L267.2,51.97L267.7,52.9L268.68,53.37L269.16,51.04L270.16,48.71L270.61,51.51L271.59,51.97L272.09,50.58L273.07,50.58L273.57,52.44L274.05,52.44L274.55,51.51L275.53,46.85L276.03,46.85L277.48,43.12L277.98,41.72L278.96,46.85L279.46,45.92L280.44,38.93L280.92,28.21L281.92,57.1L282.37,56.63L283.85,52.44L284.33,53.37L285.33,52.44L285.81,54.77L286.31,55.23L286.79,54.3L288.24,49.64L288.74,49.64L290.2,49.18L290.7,50.58L291.2,49.64L291.68,50.58L293.16,48.25L293.66,47.31L294.11,49.64L294.61,48.71" style="vector-effect: non-scaling-stroke; fill: none; stroke: rgb(0, 0, 0); stroke-opacity: 1; stroke-width: 1.88976px; opacity: 1;"/></g><g class="points"/><g class="text"/></g></g></g><g class="overplot"/><path class="xlines-above crisp" d="M0,0" style="fill: none;"/><path class="ylines-above crisp" d="" style="fill: none; stroke-width: 1px; stroke: rgb(0, 0, 0); stroke-opacity: 0;"/><g class="overlines-above"/><g class="xaxislayer-above"/><g class="yaxislayer-above"><path class="y3tick ticks crisp" d="M49,0h-3.65296803652968" transform="translate(0,325.63575071205724)" style="stroke: rgb(51, 51, 51); stroke-opacity: 1; stroke-width: 0.664176px;"/><path class="y3tick ticks crisp" d="M49,0h-3.65296803652968" transform="translate(0,302.33575071205723)" style="stroke: rgb(51, 51, 51); stroke-opacity: 1; stroke-width: 0.664176px;"/><path class="y3tick ticks crisp" d="M49,0h-3.65296803652968" transform="translate(0,279.0357507120573)" style="stroke: rgb(51, 51, 51); stroke-opacity: 1; stroke-width: 0.664176px;"/><g class="y3tick"><text text-anchor="end" x="43.00913242009132" y="4.09132420091325" transform="translate(0,325.63575071205724)" style="font-family: 'Open Sans', verdana, arial, sans-serif; font-size: 11.6895px; fill: rgb(77, 77, 77); fill-opacity: 1; white-space: pre;">5</text></g><g class="y3tick"><text text-anchor="end" x="43.00913242009132" y="4.09132420091325" transform="translate(0,302.33575071205723)" style="font-family: 'Open Sans', verdana, arial, sans-serif; font-size: 11.6895px; fill: rgb(77, 77, 77); fill-opacity: 1; white-space: pre;">10</text></g><g class="y3tick"><text text-anchor="end" x="43.00913242009132" y="4.09132420091325" transform="translate(0,279.0357507120573)" style="font-family: 'Open Sans', verdana, arial, sans-serif; font-size: 11.6895px; fill: rgb(77, 77, 77); fill-opacity: 1; white-space: pre;">15</text></g></g><g class="overaxes-above"/></g><g class="subplot xy4"><g class="layer-subplot"><g class="shapelayer"/><g class="imagelayer"/></g><g class="gridlayer"><g class="x"><path class="xgrid crisp" d="M0,372.6057507120573v77.38849857588542" transform="translate(78.75,0)" style="stroke: rgb(255, 255, 255); stroke-opacity: 1; stroke-width: 0.664176px;"/><path class="xgrid crisp" d="M0,372.6057507120573v77.38849857588542" transform="translate(137.5,0)" style="stroke: rgb(255, 255, 255); stroke-opacity: 1; stroke-width: 0.664176px;"/><path class="xgrid crisp" d="M0,372.6057507120573v77.38849857588542" transform="translate(196.27,0)" style="stroke: rgb(255, 255, 255); stroke-opacity: 1; stroke-width: 0.664176px;"/><path class="xgrid crisp" d="M0,372.6057507120573v77.38849857588542" transform="translate(255.02,0)" style="stroke: rgb(255, 255, 255); stroke-opacity: 1; stroke-width: 0.664176px;"/><path class="xgrid crisp" d="M0,372.6057507120573v77.38849857588542" transform="translate(313.79,0)" style="stroke: rgb(255, 255, 255); stroke-opacity: 1; stroke-width: 0.664176px;"/></g><g class="y4"><path class="y4grid crisp" d="M50,0h308.64" transform="translate(0,443.1557507120573)" style="stroke: rgb(255, 255, 255); stroke-opacity: 1; stroke-width: 0.664176px;"/><path class="y4grid crisp" d="M50,0h308.64" transform="translate(0,426.56575071205725)" style="stroke: rgb(255, 255, 255); stroke-opacity: 1; stroke-width: 0.664176px;"/><path class="y4grid crisp" d="M50,0h308.64" transform="translate(0,409.9757507120573)" style="stroke: rgb(255, 255, 255); stroke-opacity: 1; stroke-width: 0.664176px;"/><path class="y4grid crisp" d="M50,0h308.64" transform="translate(0,393.37575071205725)" style="stroke: rgb(255, 255, 255); stroke-opacity: 1; stroke-width: 0.664176px;"/><path class="y4grid crisp" d="M50,0h308.64" transform="translate(0,376.7857507120573)" style="stroke: rgb(255, 255, 255); stroke-opacity: 1; stroke-width: 0.664176px;"/></g></g><g class="zerolinelayer"/><path class="xlines-below"/><path class="ylines-below"/><g class="overlines-below"/><g class="xaxislayer-below"/><g class="yaxislayer-below"/><g class="overaxes-below"/><g class="plot" transform="translate(50, 372.6057507120573)" clip-path="url(#clipe908cfxy4plot)"><g class="scatterlayer mlayer"><g class="trace scatter tracece78f7" style="stroke-miterlimit: 2; opacity: 1;"><g class="fills"/><g class="errorbars"/><g class="lines"><path class="js-line" d="M14.03,72.21L15.51,70.88L16.01,71.55L16.99,70.22L17.49,72.21L17.95,73.54L18.45,71.88L19.43,72.54L19.92,72.21L20.42,73.21L20.91,71.88L21.4,71.22L21.9,72.54L22.88,72.54L23.38,70.88L24.33,73.87L24.81,73.21L25.79,72.54L26.29,72.54L27.77,71.22L28.25,71.88L29.7,71.88L30.2,73.54L31.66,70.22L32.16,69.22L33.14,69.89L33.64,68.56L35.57,65.91L36.07,65.57L36.55,64.91L37.05,68.23L38.03,65.91L38.53,67.9L39.01,65.57L39.51,65.91L39.99,66.57L40.49,66.57L40.99,65.24L42.44,65.24L42.94,69.22L43.42,66.9L43.92,67.23L44.42,68.56L45.4,68.23L45.88,66.9L46.88,69.89L47.33,68.89L48.31,70.88L48.81,70.55L49.29,69.89L49.79,70.88L50.77,68.89L51.27,70.22L51.75,71.55L52.25,70.55L52.75,70.22L53.2,71.22L53.7,70.55L54.18,71.88L55.16,68.23L55.66,70.55L56.64,68.89L57.14,69.89L59.07,63.25L59.57,58.27L60.06,55.95L60.55,57.94L61.04,58.61L61.54,56.61L62.03,56.61L62.52,58.61L63.02,55.62L63.5,57.28L64,57.28L64.5,59.93L64.96,58.27L66.44,61.26L66.92,61.59L67.92,61.26L68.4,61.59L68.9,59.27L69.39,60.6L70.83,63.25L71.33,62.92L71.82,60.93L72.31,66.57L72.8,63.58L73.3,63.92L73.79,64.91L74.78,63.92L75.26,64.58L77.69,68.23L78.19,67.23L79.67,68.56L80.15,67.57L80.65,68.89L81.13,68.56L81.63,67.57L82.58,67.57L83.08,69.22L84.54,67.57L85.04,71.22L86.02,68.89L86.52,69.56L87,68.23L87.5,69.56L88.47,67.23L88.96,67.9L89.45,68.23L89.95,65.91L91.43,61.59L91.91,62.26L92.41,61.59L92.89,62.26L94.34,63.58L94.84,62.59L95.82,65.24L96.3,63.58L96.8,63.25L97.3,64.58L98.76,64.25L99.26,63.58L101.69,55.62L102.17,58.94L102.67,58.27L103.17,55.62L104.63,53.3L105.13,50.31L105.63,54.62L106.08,52.63L106.58,50.97L107.06,46.33L107.56,49.65L109.04,56.28L109.52,55.95L110.02,56.28L110.51,58.27L111,56.95L111.5,59.6L112.47,59.93L112.95,56.95L113.93,62.26L114.43,62.92L114.93,61.92L115.41,63.25L116.39,62.92L116.89,64.58L117.84,63.58L118.34,64.25L118.82,64.25L119.32,65.24L120.3,63.58L120.8,64.25L121.78,63.92L122.27,64.58L122.76,64.91L123.26,64.25L124.69,64.58L125.19,63.92L125.68,64.25L126.17,63.58L126.67,62.59L127.16,63.92L128.14,63.58L128.64,64.25L129.59,65.24L130.08,63.58L131.07,65.57L131.55,65.57L132.05,65.91L132.55,67.23L133.03,66.24L133.53,66.57L134.01,67.23L135.47,65.91L135.97,67.57L136.95,67.9L137.44,66.9L138.92,68.56L139.41,68.23L139.9,67.57L140.4,68.56L141.35,69.22L141.84,69.22L142.83,69.22L143.31,68.56L144.31,70.88L144.79,70.88L145.77,70.88L146.27,70.22L146.77,69.56L147.22,70.22L147.72,71.22L148.2,69.89L149.68,69.22L150.18,68.56L151.64,67.57L152.14,67.23L153.59,65.24L154.07,65.91L155.55,62.92L156.05,64.58L158.51,59.93L158.98,59.6L160.46,58.27L160.94,58.61L161.44,57.94L161.94,58.61L163.4,56.28L163.9,58.61L165.83,60.26L166.33,59.6L167.31,59.93L167.81,59.6L168.29,60.6L168.79,59.6L169.27,59.6L169.77,58.61L170.72,56.28L171.22,56.95L172.2,56.28L172.68,57.28L173.18,57.61L173.68,56.61L174.16,53.96L174.66,57.28L175.64,60.6L176.14,60.26L176.59,59.6L177.09,59.6L177.57,56.95L178.07,60.93L178.56,58.94L179.05,59.6L179.55,60.93L180.04,59.93L180.53,60.6L181.02,59.6L181.52,59.6L182.01,61.26L183.46,58.61L183.96,59.6L185.92,59.6L186.42,61.59L187.9,60.26L188.35,60.93L188.85,59.6L189.33,60.6L189.83,60.6L190.32,59.6L190.81,61.26L191.31,59.93L192.29,61.92L192.78,62.26L193.28,62.59L193.77,63.92L194.72,64.91L195.21,67.23L195.71,64.25L196.19,64.91L196.69,64.58L197.19,64.91L197.67,67.9L198.65,64.58L199.15,64.25L200.1,64.58L200.6,66.57L201.08,65.57L201.58,66.24L202.06,67.9L202.56,65.57L203.06,67.23L204.04,66.57L204.52,67.9L205.02,67.9L205.52,66.9L207.47,68.23L207.95,67.23L208.45,66.24L208.95,69.89L209.93,66.9L210.41,67.23L210.91,67.9L211.41,66.9L211.86,65.24L212.36,67.57L212.84,66.24L213.34,67.23L214.82,63.25L215.3,62.92L216.78,59.27L217.28,59.6L217.73,59.27L218.23,57.61L219.21,50.64L219.69,57.61L220.19,57.28L220.69,55.62L221.17,55.29L221.67,56.28L222.65,55.29L223.15,55.62L224.1,53.3L224.58,54.29L225.08,48.98L225.56,52.96L226.56,53.3L227.04,52.63L228.02,52.63L228.52,51.97L229.99,55.62L230.47,54.29L230.97,50.64L231.45,57.61L233.43,54.96L233.91,55.62L237.32,57.94L237.82,56.61L238.32,59.27L238.8,58.61L239.3,58.94L240.78,56.95L241.23,58.27L241.73,59.27L242.21,58.94L242.71,62.92L243.69,59.27L244.19,60.6L244.68,60.93L245.17,59.6L245.66,62.26L246.16,59.6L246.65,58.94L247.1,56.95L248.58,61.59L249.07,58.27L250.06,58.27L250.55,59.27L251.05,58.61L251.53,59.27L252.03,57.28L252.53,58.27L252.99,58.27L253.49,55.95L253.97,60.93L255.45,54.96L255.95,53.3L256.44,52.63L256.93,54.62L259.85,40.02L260.34,30.07L260.83,34.05L261.33,33.05L261.82,28.07L263.29,20.44L263.79,20.77L264.29,21.11L264.74,19.45L266.22,3.52L266.7,13.14L267.7,19.78L268.18,16.79L268.68,17.46L269.16,14.47L270.16,17.12L270.61,15.8L271.11,17.79L271.59,15.46L272.09,12.81L272.57,14.14L273.07,12.81L273.57,14.14L274.05,18.78L274.55,18.12L275.03,19.11L275.53,18.12L276.03,21.77L277,23.76L277.48,21.11L277.98,19.45L278.46,29.07L279.94,21.11L280.44,25.42L281.42,34.71L281.92,30.07L282.37,28.74L282.87,30.4L283.85,30.73L284.33,33.38L285.33,32.39L285.81,33.05L286.79,29.73L287.29,36.04L287.79,34.38L288.24,34.71L288.74,35.04L290.7,44.34L291.2,42.68L291.68,42.01L292.18,44L292.66,44.34L293.16,43.34L293.66,44.34L294.11,47.32L294.61,48.98" style="vector-effect: non-scaling-stroke; fill: none; stroke: rgb(0, 0, 0); stroke-opacity: 1; stroke-width: 1.88976px; opacity: 1;"/></g><g class="points"/><g class="text"/></g></g></g><g class="overplot"/><path class="xlines-above crisp" d="M0,0" style="fill: none;"/><path class="ylines-above crisp" d="" style="fill: none; stroke-width: 1px; stroke: rgb(0, 0, 0); stroke-opacity: 0;"/><g class="overlines-above"/><g class="xaxislayer-above"/><g class="yaxislayer-above"><path class="y4tick ticks crisp" d="M49,0h-3.65296803652968" transform="translate(0,443.1557507120573)" style="stroke: rgb(51, 51, 51); stroke-opacity: 1; stroke-width: 0.664176px;"/><path class="y4tick ticks crisp" d="M49,0h-3.65296803652968" transform="translate(0,426.56575071205725)" style="stroke: rgb(51, 51, 51); stroke-opacity: 1; stroke-width: 0.664176px;"/><path class="y4tick ticks crisp" d="M49,0h-3.65296803652968" transform="translate(0,409.9757507120573)" style="stroke: rgb(51, 51, 51); stroke-opacity: 1; stroke-width: 0.664176px;"/><path class="y4tick ticks crisp" d="M49,0h-3.65296803652968" transform="translate(0,393.37575071205725)" style="stroke: rgb(51, 51, 51); stroke-opacity: 1; stroke-width: 0.664176px;"/><path class="y4tick ticks crisp" d="M49,0h-3.65296803652968" transform="translate(0,376.7857507120573)" style="stroke: rgb(51, 51, 51); stroke-opacity: 1; stroke-width: 0.664176px;"/><g class="y4tick"><text text-anchor="end" x="43.00913242009132" y="4.09132420091325" transform="translate(0,443.1557507120573)" style="font-family: 'Open Sans', verdana, arial, sans-serif; font-size: 11.6895px; fill: rgb(77, 77, 77); fill-opacity: 1; white-space: pre;">5</text></g><g class="y4tick"><text text-anchor="end" x="43.00913242009132" y="4.09132420091325" transform="translate(0,426.56575071205725)" style="font-family: 'Open Sans', verdana, arial, sans-serif; font-size: 11.6895px; fill: rgb(77, 77, 77); fill-opacity: 1; white-space: pre;">10</text></g><g class="y4tick"><text text-anchor="end" x="43.00913242009132" y="4.09132420091325" transform="translate(0,409.9757507120573)" style="font-family: 'Open Sans', verdana, arial, sans-serif; font-size: 11.6895px; fill: rgb(77, 77, 77); fill-opacity: 1; white-space: pre;">15</text></g><g class="y4tick"><text text-anchor="end" x="43.00913242009132" y="4.09132420091325" transform="translate(0,393.37575071205725)" style="font-family: 'Open Sans', verdana, arial, sans-serif; font-size: 11.6895px; fill: rgb(77, 77, 77); fill-opacity: 1; white-space: pre;">20</text></g><g class="y4tick"><text text-anchor="end" x="43.00913242009132" y="4.09132420091325" transform="translate(0,376.7857507120573)" style="font-family: 'Open Sans', verdana, arial, sans-serif; font-size: 11.6895px; fill: rgb(77, 77, 77); fill-opacity: 1; white-space: pre;">25</text></g></g><g class="overaxes-above"/></g><g class="subplot xy5"><g class="layer-subplot"><g class="shapelayer"/><g class="imagelayer"/></g><g class="gridlayer"><g class="x"><path class="xgrid crisp" d="M0,480.4057507120573v92.5942492879427" transform="translate(78.75,0)" style="stroke: rgb(255, 255, 255); stroke-opacity: 1; stroke-width: 0.664176px;"/><path class="xgrid crisp" d="M0,480.4057507120573v92.5942492879427" transform="translate(137.5,0)" style="stroke: rgb(255, 255, 255); stroke-opacity: 1; stroke-width: 0.664176px;"/><path class="xgrid crisp" d="M0,480.4057507120573v92.5942492879427" transform="translate(196.27,0)" style="stroke: rgb(255, 255, 255); stroke-opacity: 1; stroke-width: 0.664176px;"/><path class="xgrid crisp" d="M0,480.4057507120573v92.5942492879427" transform="translate(255.02,0)" style="stroke: rgb(255, 255, 255); stroke-opacity: 1; stroke-width: 0.664176px;"/><path class="xgrid crisp" d="M0,480.4057507120573v92.5942492879427" transform="translate(313.79,0)" style="stroke: rgb(255, 255, 255); stroke-opacity: 1; stroke-width: 0.664176px;"/></g><g class="y5"><path class="y5grid crisp" d="M50,0h308.64" transform="translate(0,560.0557507120573)" style="stroke: rgb(255, 255, 255); stroke-opacity: 1; stroke-width: 0.664176px;"/><path class="y5grid crisp" d="M50,0h308.64" transform="translate(0,533.4757507120573)" style="stroke: rgb(255, 255, 255); stroke-opacity: 1; stroke-width: 0.664176px;"/><path class="y5grid crisp" d="M50,0h308.64" transform="translate(0,506.8857507120573)" style="stroke: rgb(255, 255, 255); stroke-opacity: 1; stroke-width: 0.664176px;"/></g></g><g class="zerolinelayer"/><path class="xlines-below"/><path class="ylines-below"/><g class="overlines-below"/><g class="xaxislayer-below"/><g class="yaxislayer-below"/><g class="overaxes-below"/><g class="plot" transform="translate(50, 480.4057507120573)" clip-path="url(#clipe908cfxy5plot)"><g class="scatterlayer mlayer"><g class="trace scatter trace7c7144" style="stroke-miterlimit: 2; opacity: 1;"><g class="fills"/><g class="errorbars"/><g class="lines"><path class="js-line" d="M14.03,86.66L15.03,86.57L15.51,85.34L16.99,87.1L17.49,86.29L18.94,88.02L19.43,86.7L21.9,88.19L22.38,88.39L24.33,87.9L24.81,88.2L27.27,85.97L27.77,87.25L28.25,87.06L28.75,84.96L31.18,79.17L31.66,78.48L32.66,76.62L33.14,75.72L34.12,72.5L34.62,73.09L35.12,73.65L35.57,73.09L36.07,73.27L38.03,72.11L38.53,72.72L39.01,73.31L39.51,71.93L39.99,71.98L40.49,72.88L40.99,73.48L41.46,72.75L42.94,73.51L43.42,73.58L44.9,73.83L45.4,75.65L45.88,76.04L46.38,77.48L46.88,76.64L47.33,77.03L47.83,76.6L48.81,77.23L49.29,77.62L50.29,77.32L50.77,78.69L52.25,75.37L52.75,74.79L53.7,75.54L54.18,74.96L56.64,69.53L57.14,65.43L59.57,51.67L60.06,50.19L62.03,53.58L62.52,53.75L64,56.16L64.5,57.54L64.96,58.18L65.46,57.52L65.94,59.36L66.44,57.57L67.42,56.27L67.92,57.19L69.39,56.09L69.88,57.85L70.38,56.77L70.83,57.67L71.82,60.3L72.31,58.82L72.8,60.85L73.3,60.21L73.79,61.37L74.78,60.94L75.26,63.79L75.76,63.11L76.26,64.24L76.71,64.12L77.2,65.16L78.19,66.17L78.67,64.3L80.15,66.71L80.65,65.84L81.13,64.84L81.63,65.63L82.58,65.63L83.08,65.9L83.56,67.42L84.06,66.63L84.54,66.38L85.04,64.23L85.54,65.09L86.02,64.39L87,64.2L87.5,61.82L88.47,61.51L88.96,57.33L90.43,50.65L90.93,51.2L91.43,52.93L91.91,52.48L92.41,52.91L92.89,54.94L93.39,52.59L94.34,53.19L94.84,53.94L95.32,51.91L95.82,52.41L96.3,53.98L97.78,48.77L98.28,46.23L104.63,26.15L105.13,29.58L105.63,29.51L106.08,30.42L107.06,32.11L107.56,31.49L108.04,36.13L108.54,35.63L109.04,37.9L111.5,47.81L111.97,48.11L112.47,48L112.95,50.04L113.45,51.56L113.93,49.5L114.43,49.62L114.93,50.63L115.41,50.53L115.91,51.75L116.89,50.25L117.39,50.93L118.82,51.06L119.32,50.01L119.8,49.66L120.3,51.76L121.28,51.09L121.78,52.21L122.27,52.15L122.76,54.43L123.26,50.39L123.71,50.52L124.21,50.65L125.19,49.69L125.68,50.95L126.17,52.17L126.67,51.01L127.65,52.01L128.14,53.84L129.59,53.98L130.08,56.11L130.57,55.9L131.07,57.07L132.55,59.03L133.03,58.2L134.51,60.02L135.01,60.18L135.47,60.53L135.97,62.36L136.45,61.18L136.95,62.73L137.44,62.34L137.93,60.75L138.92,62.58L139.41,62.79L139.9,62.91L140.4,61.82L141.35,64.99L141.84,63.25L142.33,63.86L142.83,62.52L143.81,62.96L144.31,62.44L146.27,61.36L146.77,62.03L147.22,62.38L147.72,61.06L148.7,62.44L149.18,60.23L151.64,53.72L152.14,52.97L153.09,49.17L153.59,50.15L154.07,48.17L154.57,48.47L155.05,49.17L157.03,46.88L157.51,45.1L158.98,43.36L159.48,43.66L160.46,39.51L160.94,40.77L161.94,41.23L162.42,43.78L163.4,42.72L163.9,44.26L164.85,46.05L165.35,45.69L165.83,45.43L166.33,45.62L166.81,46.89L167.81,48.32L168.29,48.08L169.27,49.9L169.77,48.88L170.72,49.94L171.22,50.87L172.2,53.55L172.68,53.42L173.18,53.51L173.68,54.83L175.15,58.18L175.64,57.22L176.59,58.69L177.09,55.42L178.07,56.87L178.56,56.21L180.04,57.53L180.53,56.88L181.52,56.45L182.01,57.63L183.46,56.9L183.96,59.08L184.44,57.47L184.94,60.49L186.91,58.03L187.4,58.66L188.85,60.55L189.33,62L189.83,61.05L190.32,62L191.31,62L191.8,63.34L192.29,64.31L192.78,63.19L193.77,64.32L194.23,63.55L194.72,66.75L195.21,66.04L195.71,64.95L197.67,64.5L198.17,65.69L199.15,66.52L199.65,65.62L200.1,67.8L200.6,66.33L201.08,67.71L201.58,66.68L202.06,66.19L202.56,67.43L203.06,66.92L203.54,67.83L205.02,68.3L205.52,67.3L206.48,69.81L206.97,67.96L207.47,68.68L207.95,68.04L208.45,67.33L208.95,68.85L209.43,69.45L209.93,68.76L210.41,68.79L210.91,66.2L212.84,64.85L213.34,63.14L213.82,62.48L214.32,59.43L214.82,58.77L215.3,55.1L216.28,51.35L216.78,51.86L217.28,51.64L217.73,51.05L218.23,49.08L219.21,50.45L219.69,50.47L220.69,51.4L221.17,51.03L222.15,48.81L222.65,49.61L224.58,46.71L225.08,44.65L226.06,47.11L226.56,46.95L229.02,51.96L229.49,49.8L229.99,51.94L230.47,51.66L230.97,51.16L232.45,53.55L232.93,52.66L234.41,54.5L234.91,53.2L235.86,55.25L236.34,55.38L237.82,57.42L238.32,56.04L238.8,56.7L239.3,55.95L240.28,59.29L240.78,58.49L242.21,59.84L242.71,59.7L243.2,58.55L243.69,59.11L244.19,60.73L244.68,61.52L245.17,60.56L245.66,61.29L246.16,58.94L247.1,61.5L247.6,60.71L248.09,61.27L248.58,59.85L249.07,58.72L249.57,59.27L250.06,58.58L251.05,58.12L251.53,55.42L252.03,55.16L252.53,56.41L256.93,36.2L257.42,31.23L259.85,9.88L260.34,8.5L260.83,9.2L261.33,7.78L262.31,4.21L262.81,5.09L263.79,6.24L264.29,5.8L265.24,4.39L265.72,7.55L266.22,10.04L266.7,9.79L267.2,8.89L268.18,9.76L268.68,6.01L270.16,14.39L270.61,14.94L271.11,13.48L271.59,14.16L272.09,13.45L272.57,14.77L273.07,14.4L273.57,13.54L275.53,21.19L276.03,21.08L277.48,22.1L277.98,21.89L278.46,22.12L278.96,23.35L279.94,25.66L280.44,26.45L281.42,23.35L281.92,26.82L282.37,28.55L282.87,28.08L283.35,28.78L283.85,28.14L284.33,30.9L285.81,32.23L286.31,34.54L287.29,38.43L287.79,37.46L288.24,37.25L288.74,41.76L289.22,40.71L289.72,43.36L290.7,42.44L291.2,44.68L292.66,48.3L293.16,47.06L294.11,49.72L294.61,49.57" style="vector-effect: non-scaling-stroke; fill: none; stroke: rgb(0, 0, 0); stroke-opacity: 1; stroke-width: 1.88976px; opacity: 1;"/></g><g class="points"/><g class="text"/></g></g></g><g class="overplot"/><path class="xlines-above crisp" d="" style="fill: none; stroke-width: 1px; stroke: rgb(0, 0, 0); stroke-opacity: 0;"/><path class="ylines-above crisp" d="" style="fill: none; stroke-width: 1px; stroke: rgb(0, 0, 0); stroke-opacity: 0;"/><g class="overlines-above"/><g class="xaxislayer-above"><path class="xtick ticks crisp" d="M0,574v3.65296803652968" transform="translate(78.75,0)" style="stroke: rgb(51, 51, 51); stroke-opacity: 1; stroke-width: 0.664176px;"/><path class="xtick ticks crisp" d="M0,574v3.65296803652968" transform="translate(137.5,0)" style="stroke: rgb(51, 51, 51); stroke-opacity: 1; stroke-width: 0.664176px;"/><path class="xtick ticks crisp" d="M0,574v3.65296803652968" transform="translate(196.27,0)" style="stroke: rgb(51, 51, 51); stroke-opacity: 1; stroke-width: 0.664176px;"/><path class="xtick ticks crisp" d="M0,574v3.65296803652968" transform="translate(255.02,0)" style="stroke: rgb(51, 51, 51); stroke-opacity: 1; stroke-width: 0.664176px;"/><path class="xtick ticks crisp" d="M0,574v3.65296803652968" transform="translate(313.79,0)" style="stroke: rgb(51, 51, 51); stroke-opacity: 1; stroke-width: 0.664176px;"/><g class="xtick"><text text-anchor="middle" x="0" y="591.6803652968036" transform="translate(78.75,0)" style="font-family: 'Open Sans', verdana, arial, sans-serif; font-size: 11.6895px; fill: rgb(77, 77, 77); fill-opacity: 1; white-space: pre;">1970</text></g><g class="xtick"><text text-anchor="middle" x="0" y="591.6803652968036" transform="translate(137.5,0)" style="font-family: 'Open Sans', verdana, arial, sans-serif; font-size: 11.6895px; fill: rgb(77, 77, 77); fill-opacity: 1; white-space: pre;">1980</text></g><g class="xtick"><text text-anchor="middle" x="0" y="591.6803652968036" transform="translate(196.27,0)" style="font-family: 'Open Sans', verdana, arial, sans-serif; font-size: 11.6895px; fill: rgb(77, 77, 77); fill-opacity: 1; white-space: pre;">1990</text></g><g class="xtick"><text text-anchor="middle" x="0" y="591.6803652968036" transform="translate(255.02,0)" style="font-family: 'Open Sans', verdana, arial, sans-serif; font-size: 11.6895px; fill: rgb(77, 77, 77); fill-opacity: 1; white-space: pre;">2000</text></g><g class="xtick"><text text-anchor="middle" x="0" y="591.6803652968036" transform="translate(313.79,0)" style="font-family: 'Open Sans', verdana, arial, sans-serif; font-size: 11.6895px; fill: rgb(77, 77, 77); fill-opacity: 1; white-space: pre;">2010</text></g></g><g class="yaxislayer-above"><path class="y5tick ticks crisp" d="M49,0h-3.65296803652968" transform="translate(0,560.0557507120573)" style="stroke: rgb(51, 51, 51); stroke-opacity: 1; stroke-width: 0.664176px;"/><path class="y5tick ticks crisp" d="M49,0h-3.65296803652968" transform="translate(0,533.4757507120573)" style="stroke: rgb(51, 51, 51); stroke-opacity: 1; stroke-width: 0.664176px;"/><path class="y5tick ticks crisp" d="M49,0h-3.65296803652968" transform="translate(0,506.8857507120573)" style="stroke: rgb(51, 51, 51); stroke-opacity: 1; stroke-width: 0.664176px;"/><g class="y5tick"><text text-anchor="end" x="43.00913242009132" y="4.09132420091325" transform="translate(0,560.0557507120573)" style="font-family: 'Open Sans', verdana, arial, sans-serif; font-size: 11.6895px; fill: rgb(77, 77, 77); fill-opacity: 1; white-space: pre;">4000</text></g><g class="y5tick"><text text-anchor="end" x="43.00913242009132" y="4.09132420091325" transform="translate(0,533.4757507120573)" style="font-family: 'Open Sans', verdana, arial, sans-serif; font-size: 11.6895px; fill: rgb(77, 77, 77); fill-opacity: 1; white-space: pre;">8000</text></g><g class="y5tick"><text text-anchor="end" x="43.00913242009132" y="4.09132420091325" transform="translate(0,506.8857507120573)" style="font-family: 'Open Sans', verdana, arial, sans-serif; font-size: 11.6895px; fill: rgb(77, 77, 77); fill-opacity: 1; white-space: pre;">12000</text></g></g><g class="overaxes-above"/></g><g class="subplot x2y6"><g class="layer-subplot"><g class="shapelayer"/><g class="imagelayer"/></g><g class="gridlayer"><g class="x2"><path class="x2grid crisp" d="M0,34v92.5942492879427" transform="translate(538.6800000000001,0)" style="stroke: rgb(255, 255, 255); stroke-opacity: 1; stroke-width: 0.664176px;"/></g><g class="y6"><path class="y6grid crisp" d="M384.36,0h308.64" transform="translate(0,108.03)" style="stroke: rgb(255, 255, 255); stroke-opacity: 1; stroke-width: 0.664176px;"/><path class="y6grid crisp" d="M384.36,0h308.64" transform="translate(0,90.02000000000001)" style="stroke: rgb(255, 255, 255); stroke-opacity: 1; stroke-width: 0.664176px;"/><path class="y6grid crisp" d="M384.36,0h308.64" transform="translate(0,72.02000000000001)" style="stroke: rgb(255, 255, 255); stroke-opacity: 1; stroke-width: 0.664176px;"/><path class="y6grid crisp" d="M384.36,0h308.64" transform="translate(0,54.010000000000005)" style="stroke: rgb(255, 255, 255); stroke-opacity: 1; stroke-width: 0.664176px;"/><path class="y6grid crisp" d="M384.36,0h308.64" transform="translate(0,36)" style="stroke: rgb(255, 255, 255); stroke-opacity: 1; stroke-width: 0.664176px;"/></g></g><g class="zerolinelayer"/><path class="xlines-below"/><path class="ylines-below"/><g class="overlines-below"/><g class="xaxislayer-below"/><g class="yaxislayer-below"/><g class="overaxes-below"/><g class="plot" transform="translate(384.36, 34)" clip-path="url(#clipe908cfx2y6plot)"><g class="scatterlayer mlayer"><g class="trace scatter tracefa0c36" style="stroke-miterlimit: 2; opacity: 1;"><g class="fills"><g><path class="js-fill" d="M52.69,88.39L31.19,85.09L30.53,84.93L25.97,82.95L25.85,82.78L26.03,81.63L26.19,81.47L28.84,79.98L29.25,79.82L38.27,77.02L38.86,76.85L56.33,71.42L56.74,71.25L64.86,67.3L65.15,67.14L85.17,55.77L85.5,55.6L96.04,49.67L96.27,49.51L100.45,45.56L100.58,45.39L107.22,35.34L107.3,35.18L107.89,32.38L107.86,32.21L106.59,29.91L106.43,29.74L102.24,26.61L101.97,26.45L94.88,21.18L94.78,21.01L94.49,19.03L94.54,18.87L96.13,16.89L96.34,16.73L100.7,14.26L101.06,14.09L112.83,9.81L113.34,9.64L131.17,4.21L177.47,4.21L207.21,13.93L207.58,14.09L213.22,17.55L213.38,17.72L214.24,19.86L214.22,20.02L213.11,22L212.94,22.16L209.1,24.96L208.83,25.13L201.91,30.07L201.77,30.24L200.72,32.71L200.71,32.87L201.6,35.67L201.7,35.84L209.64,47.2L209.8,47.37L214.86,51.16L215.13,51.32L225.75,56.92L226.08,57.09L238.93,64.33L239.2,64.5L250.7,70.76L251.09,70.92L261.05,74.38L261.61,74.55L281.8,80.97L282.04,81.14L282.88,82.62L282.79,82.78L281.15,83.94L280.73,84.1L275.24,85.59L274.41,85.75L255.95,88.39L52.69,88.39Z" style="fill: rgb(255, 255, 255); fill-opacity: 1; stroke-width: 0;"/></g></g><g class="errorbars"/><g class="lines"><path class="js-line" d="M52.69,88.39L31.19,85.09L30.53,84.93L25.97,82.95L25.85,82.78L26.03,81.63L26.19,81.47L28.84,79.98L29.25,79.82L38.27,77.02L38.86,76.85L56.33,71.42L56.74,71.25L64.86,67.3L65.15,67.14L85.17,55.77L85.5,55.6L96.04,49.67L96.27,49.51L100.45,45.56L100.58,45.39L107.22,35.34L107.3,35.18L107.89,32.38L107.86,32.21L106.59,29.91L106.43,29.74L102.24,26.61L101.97,26.45L94.88,21.18L94.78,21.01L94.49,19.03L94.54,18.87L96.13,16.89L96.34,16.73L100.7,14.26L101.06,14.09L112.83,9.81L113.34,9.64L131.17,4.21L177.47,4.21L207.21,13.93L207.58,14.09L213.22,17.55L213.38,17.72L214.24,19.86L214.22,20.02L213.11,22L212.94,22.16L209.1,24.96L208.83,25.13L201.91,30.07L201.77,30.24L200.72,32.71L200.71,32.87L201.6,35.67L201.7,35.84L209.64,47.2L209.8,47.37L214.86,51.16L215.13,51.32L225.75,56.92L226.08,57.09L238.93,64.33L239.2,64.5L250.7,70.76L251.09,70.92L261.05,74.38L261.61,74.55L281.8,80.97L282.04,81.14L282.88,82.62L282.79,82.78L281.15,83.94L280.73,84.1L275.24,85.59L274.41,85.75L255.95,88.39L52.69,88.39" style="vector-effect: non-scaling-stroke; fill: none; stroke: rgb(51, 51, 51); stroke-opacity: 1; stroke-width: 1.88976px; opacity: 1;"/></g><g class="points"/><g class="text"/></g></g></g><g class="overplot"/><path class="xlines-above crisp" d="M0,0" style="fill: none;"/><path class="ylines-above crisp" d="M0,0" style="fill: none;"/><g class="overlines-above"/><g class="xaxislayer-above"/><g class="yaxislayer-above"/><g class="overaxes-above"/></g><g class="subplot x2y7"><g class="layer-subplot"><g class="shapelayer"/><g class="imagelayer"/></g><g class="gridlayer"><g class="x2"><path class="x2grid crisp" d="M0,157.0057507120573v77.38849857588544" transform="translate(538.6800000000001,0)" style="stroke: rgb(255, 255, 255); stroke-opacity: 1; stroke-width: 0.664176px;"/></g><g class="y7"><path class="y7grid crisp" d="M384.36,0h308.64" transform="translate(0,230.1357507120573)" style="stroke: rgb(255, 255, 255); stroke-opacity: 1; stroke-width: 0.664176px;"/><path class="y7grid crisp" d="M384.36,0h308.64" transform="translate(0,215.67575071205732)" style="stroke: rgb(255, 255, 255); stroke-opacity: 1; stroke-width: 0.664176px;"/><path class="y7grid crisp" d="M384.36,0h308.64" transform="translate(0,201.2257507120573)" style="stroke: rgb(255, 255, 255); stroke-opacity: 1; stroke-width: 0.664176px;"/><path class="y7grid crisp" d="M384.36,0h308.64" transform="translate(0,186.77575071205732)" style="stroke: rgb(255, 255, 255); stroke-opacity: 1; stroke-width: 0.664176px;"/><path class="y7grid crisp" d="M384.36,0h308.64" transform="translate(0,172.3157507120573)" style="stroke: rgb(255, 255, 255); stroke-opacity: 1; stroke-width: 0.664176px;"/></g></g><g class="zerolinelayer"/><path class="xlines-below"/><path class="ylines-below"/><g class="overlines-below"/><g class="xaxislayer-below"/><g class="yaxislayer-below"/><g class="overaxes-below"/><g class="plot" transform="translate(384.36, 157.0057507120573)" clip-path="url(#clipe908cfx2y7plot)"><g class="scatterlayer mlayer"><g class="trace scatter tracee99dc8" style="stroke-miterlimit: 2; opacity: 1;"><g class="fills"><g><path class="js-fill" d="M87.24,73.87L42.54,68.5L41.76,68.36L31.3,65.89L30.92,65.75L26.92,63.55L26.78,63.41L25.75,61.07L25.74,60.93L26.01,54.73L26.04,54.6L27.39,52.26L27.53,52.12L30.93,49.91L31.22,49.78L38.58,47.02L39.01,46.89L58.4,40L58.64,39.86L61.65,37.25L61.74,37.11L62.43,34.5L62.42,34.36L61.36,31.19L61.28,31.05L56.98,26.1L56.83,25.96L47.16,15.5L47.08,15.36L46.37,12.88L46.41,12.74L47.86,11.09L48.08,10.95L52.27,9.3L52.76,9.16L63.76,6.96L64.64,6.82L89.76,3.66L90.98,3.52L223.73,4.21L224.93,4.34L252.46,8.34L253.09,8.47L260.56,10.95L260.78,11.09L262.29,13.02L262.31,13.16L261.56,15.36L261.48,15.5L256.29,21.69L256.15,21.83L246.74,32.29L246.68,32.43L246.29,35.6L246.32,35.73L247.8,38.21L247.94,38.35L251.53,40.69L251.81,40.83L259.42,43.72L259.84,43.86L277.71,49.91L277.99,50.05L281.74,52.81L281.84,52.94L282.77,55.7L282.78,55.84L282.38,62.72L282.29,62.86L280.2,64.65L279.95,64.78L274.61,66.71L274.08,66.85L262.73,69.05L261.84,69.19L237.31,72.22L236.02,72.36L221.4,73.87L87.24,73.87Z" style="fill: rgb(255, 255, 255); fill-opacity: 1; stroke-width: 0;"/></g></g><g class="errorbars"/><g class="lines"><path class="js-line" d="M87.24,73.87L42.54,68.5L41.76,68.36L31.3,65.89L30.92,65.75L26.92,63.55L26.78,63.41L25.75,61.07L25.74,60.93L26.01,54.73L26.04,54.6L27.39,52.26L27.53,52.12L30.93,49.91L31.22,49.78L38.58,47.02L39.01,46.89L58.4,40L58.64,39.86L61.65,37.25L61.74,37.11L62.43,34.5L62.42,34.36L61.36,31.19L61.28,31.05L56.98,26.1L56.83,25.96L47.16,15.5L47.08,15.36L46.37,12.88L46.41,12.74L47.86,11.09L48.08,10.95L52.27,9.3L52.76,9.16L63.76,6.96L64.64,6.82L89.76,3.66L90.98,3.52L223.73,4.21L224.93,4.34L252.46,8.34L253.09,8.47L260.56,10.95L260.78,11.09L262.29,13.02L262.31,13.16L261.56,15.36L261.48,15.5L256.29,21.69L256.15,21.83L246.74,32.29L246.68,32.43L246.29,35.6L246.32,35.73L247.8,38.21L247.94,38.35L251.53,40.69L251.81,40.83L259.42,43.72L259.84,43.86L277.71,49.91L277.99,50.05L281.74,52.81L281.84,52.94L282.77,55.7L282.78,55.84L282.38,62.72L282.29,62.86L280.2,64.65L279.95,64.78L274.61,66.71L274.08,66.85L262.73,69.05L261.84,69.19L237.31,72.22L236.02,72.36L221.4,73.87L87.24,73.87" style="vector-effect: non-scaling-stroke; fill: none; stroke: rgb(51, 51, 51); stroke-opacity: 1; stroke-width: 1.88976px; opacity: 1;"/></g><g class="points"/><g class="text"/></g></g></g><g class="overplot"/><path class="xlines-above crisp" d="M0,0" style="fill: none;"/><path class="ylines-above crisp" d="M0,0" style="fill: none;"/><g class="overlines-above"/><g class="xaxislayer-above"/><g class="yaxislayer-above"/><g class="overaxes-above"/></g><g class="subplot x2y8"><g class="layer-subplot"><g class="shapelayer"/><g class="imagelayer"/></g><g class="gridlayer"><g class="x2"><path class="x2grid crisp" d="M0,264.80575071205726v77.38849857588544" transform="translate(538.6800000000001,0)" style="stroke: rgb(255, 255, 255); stroke-opacity: 1; stroke-width: 0.664176px;"/></g><g class="y8"><path class="y8grid crisp" d="M384.36,0h308.64" transform="translate(0,325.63575071205724)" style="stroke: rgb(255, 255, 255); stroke-opacity: 1; stroke-width: 0.664176px;"/><path class="y8grid crisp" d="M384.36,0h308.64" transform="translate(0,302.33575071205723)" style="stroke: rgb(255, 255, 255); stroke-opacity: 1; stroke-width: 0.664176px;"/><path class="y8grid crisp" d="M384.36,0h308.64" transform="translate(0,279.0357507120573)" style="stroke: rgb(255, 255, 255); stroke-opacity: 1; stroke-width: 0.664176px;"/></g></g><g class="zerolinelayer"/><path class="xlines-below"/><path class="ylines-below"/><g class="overlines-below"/><g class="xaxislayer-below"/><g class="yaxislayer-below"/><g class="overaxes-below"/><g class="plot" transform="translate(384.36, 264.80575071205726)" clip-path="url(#clipe908cfx2y8plot)"><g class="scatterlayer mlayer"><g class="trace scatter tracebe4cb6" style="stroke-miterlimit: 2; opacity: 1;"><g class="fills"><g><path class="js-fill" d="M145,73.87L134.55,71.67L133.73,71.53L83.05,62.86L82.46,62.72L66.37,59.55L65.5,59.41L26.68,53.22L26.41,53.08L25.77,52.12L25.86,51.98L25.98,51.84L28.3,50.74L28.73,50.6L67.46,39.04L67.59,38.9L67.62,37.66L67.49,37.52L64.85,36.01L64.52,35.87L55.34,31.6L55.29,31.47L56.03,30.23L56.23,30.09L59.81,28.57L60.25,28.44L71.97,25.55L72.64,25.41L91.7,22.24L92.7,22.1L140.13,15.36L140.75,15.22L149.54,12.47L149.81,12.33L152.79,9.99L152.88,9.85L153.56,7.51L153.56,7.37L153.37,3.52L155.27,3.52L155.76,9.85L155.85,9.99L157.84,11.78L158.07,11.92L163.58,14.12L164.06,14.26L176.59,16.87L177.44,17.01L203.08,20.45L204.19,20.59L234.63,25.13L235.32,25.27L250.4,29.13L250.74,29.26L253.32,31.05L253.35,31.19L252.73,32.29L252.55,32.43L249.01,34.08L248.64,34.22L240.93,37.8L240.86,37.94L241.18,39.04L241.33,39.18L244.51,40.69L244.91,40.83L267.62,47.44L268.13,47.57L282.87,52.12L282.92,52.26L281.96,53.22L281.63,53.36L275.26,54.87L274.46,55.01L249.66,58.45L248.68,58.59L227.36,62.44L226.76,62.58L205.52,66.99L204.67,67.12L163.64,73.87L145,73.87Z" style="fill: rgb(255, 255, 255); fill-opacity: 1; stroke-width: 0;"/></g></g><g class="errorbars"/><g class="lines"><path class="js-line" d="M145,73.87L134.55,71.67L133.73,71.53L83.05,62.86L82.46,62.72L66.37,59.55L65.5,59.41L26.68,53.22L26.41,53.08L25.77,52.12L25.86,51.98L25.98,51.84L28.3,50.74L28.73,50.6L67.46,39.04L67.59,38.9L67.62,37.66L67.49,37.52L64.85,36.01L64.52,35.87L55.34,31.6L55.29,31.47L56.03,30.23L56.23,30.09L59.81,28.57L60.25,28.44L71.97,25.55L72.64,25.41L91.7,22.24L92.7,22.1L140.13,15.36L140.75,15.22L149.54,12.47L149.81,12.33L152.79,9.99L152.88,9.85L153.56,7.51L153.56,7.37L153.37,3.52L155.27,3.52L155.76,9.85L155.85,9.99L157.84,11.78L158.07,11.92L163.58,14.12L164.06,14.26L176.59,16.87L177.44,17.01L203.08,20.45L204.19,20.59L234.63,25.13L235.32,25.27L250.4,29.13L250.74,29.26L253.32,31.05L253.35,31.19L252.73,32.29L252.55,32.43L249.01,34.08L248.64,34.22L240.93,37.8L240.86,37.94L241.18,39.04L241.33,39.18L244.51,40.69L244.91,40.83L267.62,47.44L268.13,47.57L282.87,52.12L282.92,52.26L281.96,53.22L281.63,53.36L275.26,54.87L274.46,55.01L249.66,58.45L248.68,58.59L227.36,62.44L226.76,62.58L205.52,66.99L204.67,67.12L163.64,73.87L145,73.87" style="vector-effect: non-scaling-stroke; fill: none; stroke: rgb(51, 51, 51); stroke-opacity: 1; stroke-width: 1.88976px; opacity: 1;"/></g><g class="points"/><g class="text"/></g></g></g><g class="overplot"/><path class="xlines-above crisp" d="M0,0" style="fill: none;"/><path class="ylines-above crisp" d="M0,0" style="fill: none;"/><g class="overlines-above"/><g class="xaxislayer-above"/><g class="yaxislayer-above"/><g class="overaxes-above"/></g><g class="subplot x2y9"><g class="layer-subplot"><g class="shapelayer"/><g class="imagelayer"/></g><g class="gridlayer"><g class="x2"><path class="x2grid crisp" d="M0,372.6057507120573v77.38849857588542" transform="translate(538.6800000000001,0)" style="stroke: rgb(255, 255, 255); stroke-opacity: 1; stroke-width: 0.664176px;"/></g><g class="y9"><path class="y9grid crisp" d="M384.36,0h308.64" transform="translate(0,443.1557507120573)" style="stroke: rgb(255, 255, 255); stroke-opacity: 1; stroke-width: 0.664176px;"/><path class="y9grid crisp" d="M384.36,0h308.64" transform="translate(0,426.56575071205725)" style="stroke: rgb(255, 255, 255); stroke-opacity: 1; stroke-width: 0.664176px;"/><path class="y9grid crisp" d="M384.36,0h308.64" transform="translate(0,409.9757507120573)" style="stroke: rgb(255, 255, 255); stroke-opacity: 1; stroke-width: 0.664176px;"/><path class="y9grid crisp" d="M384.36,0h308.64" transform="translate(0,393.37575071205725)" style="stroke: rgb(255, 255, 255); stroke-opacity: 1; stroke-width: 0.664176px;"/><path class="y9grid crisp" d="M384.36,0h308.64" transform="translate(0,376.7857507120573)" style="stroke: rgb(255, 255, 255); stroke-opacity: 1; stroke-width: 0.664176px;"/></g></g><g class="zerolinelayer"/><path class="xlines-below"/><path class="ylines-below"/><g class="overlines-below"/><g class="xaxislayer-below"/><g class="yaxislayer-below"/><g class="overaxes-below"/><g class="plot" transform="translate(384.36, 372.6057507120573)" clip-path="url(#clipe908cfx2y9plot)"><g class="scatterlayer mlayer"><g class="trace scatter tracefb9769" style="stroke-miterlimit: 2; opacity: 1;"><g class="fills"><g><path class="js-fill" d="M125.32,73.87L29.36,67.54L28.63,67.4L25.72,66.16L25.77,66.02L25.88,65.89L27.84,65.06L28.37,64.92L42.45,61.76L42.36,61.62L42.18,61.48L37.94,60.1L37.58,59.97L37.05,59.41L37.46,59.14L37.87,59L44.59,58.04L46.07,57.9L77.63,55.84L79.97,55.7L127.87,52.12L129.05,51.98L142.54,49.64L143,49.5L146.62,47.57L146.71,47.44L146.59,46.06L146.5,45.92L145.45,43.44L145.53,43.31L147.7,41.65L147.93,41.52L150.99,38.76L151.01,38.63L150.3,37.25L150.14,37.11L143.57,32.15L143.52,32.02L143.57,29.95L143.67,29.81L146.54,27.75L146.74,27.61L148.04,25.82L148.03,25.68L146.98,23.89L146.84,23.76L143.11,21.28L142.9,21.14L141.01,19.08L140.99,18.94L141.79,17.15L141.9,17.01L145.75,13.29L146.02,13.16L153.81,8.89L153.87,8.75L154.04,6.55L154.01,6.41L153.44,3.52L155.2,3.52L155.11,9.3L155.22,9.44L157.77,11.09L158.07,11.23L165.22,15.08L165.33,15.22L167.6,19.21L167.56,19.35L166.16,20.87L165.95,21L160.76,25.13L160.71,25.27L160.97,26.79L161.09,26.92L164.03,28.99L164.22,29.13L165.36,30.78L165.37,30.92L164.38,33.39L164.26,33.53L161.94,35.18L161.68,35.32L157.66,38.21L157.63,38.35L158.36,39.86L158.51,40L163.27,44.27L163.22,44.41L162.02,47.57L162.12,47.71L164.11,48.95L164.46,49.09L170.24,50.6L170.98,50.74L184.61,52.53L185.99,52.67L217.19,55.01L219.43,55.15L269.55,58.73L270.22,58.86L271.6,59.55L271.33,59.83L271.06,59.97L266.2,61.89L266.48,62.17L266.76,62.31L272.67,63.55L273.52,63.68L282.76,65.89L282.87,66.02L282.4,66.71L282.09,66.85L277.54,67.81L276.52,67.95L257.71,69.6L255.68,69.74L187.77,73.6L185.51,73.73L183.32,73.87L125.32,73.87Z" style="fill: rgb(255, 255, 255); fill-opacity: 1; stroke-width: 0;"/></g></g><g class="errorbars"/><g class="lines"><path class="js-line" d="M125.32,73.87L29.36,67.54L28.63,67.4L25.72,66.16L25.77,66.02L25.88,65.89L27.84,65.06L28.37,64.92L42.45,61.76L42.36,61.62L42.18,61.48L37.94,60.1L37.58,59.97L37.05,59.41L37.46,59.14L37.87,59L44.59,58.04L46.07,57.9L77.63,55.84L79.97,55.7L127.87,52.12L129.05,51.98L142.54,49.64L143,49.5L146.62,47.57L146.71,47.44L146.59,46.06L146.5,45.92L145.45,43.44L145.53,43.31L147.7,41.65L147.93,41.52L150.99,38.76L151.01,38.63L150.3,37.25L150.14,37.11L143.57,32.15L143.52,32.02L143.57,29.95L143.67,29.81L146.54,27.75L146.74,27.61L148.04,25.82L148.03,25.68L146.98,23.89L146.84,23.76L143.11,21.28L142.9,21.14L141.01,19.08L140.99,18.94L141.79,17.15L141.9,17.01L145.75,13.29L146.02,13.16L153.81,8.89L153.87,8.75L154.04,6.55L154.01,6.41L153.44,3.52L155.2,3.52L155.11,9.3L155.22,9.44L157.77,11.09L158.07,11.23L165.22,15.08L165.33,15.22L167.6,19.21L167.56,19.35L166.16,20.87L165.95,21L160.76,25.13L160.71,25.27L160.97,26.79L161.09,26.92L164.03,28.99L164.22,29.13L165.36,30.78L165.37,30.92L164.38,33.39L164.26,33.53L161.94,35.18L161.68,35.32L157.66,38.21L157.63,38.35L158.36,39.86L158.51,40L163.27,44.27L163.22,44.41L162.02,47.57L162.12,47.71L164.11,48.95L164.46,49.09L170.24,50.6L170.98,50.74L184.61,52.53L185.99,52.67L217.19,55.01L219.43,55.15L269.55,58.73L270.22,58.86L271.6,59.55L271.33,59.83L271.06,59.97L266.2,61.89L266.48,62.17L266.76,62.31L272.67,63.55L273.52,63.68L282.76,65.89L282.87,66.02L282.4,66.71L282.09,66.85L277.54,67.81L276.52,67.95L257.71,69.6L255.68,69.74L187.77,73.6L185.51,73.73L183.32,73.87L125.32,73.87" style="vector-effect: non-scaling-stroke; fill: none; stroke: rgb(51, 51, 51); stroke-opacity: 1; stroke-width: 1.88976px; opacity: 1;"/></g><g class="points"/><g class="text"/></g></g></g><g class="overplot"/><path class="xlines-above crisp" d="M0,0" style="fill: none;"/><path class="ylines-above crisp" d="M0,0" style="fill: none;"/><g class="overlines-above"/><g class="xaxislayer-above"/><g class="yaxislayer-above"/><g class="overaxes-above"/></g><g class="subplot x2y10"><g class="layer-subplot"><g class="shapelayer"/><g class="imagelayer"/></g><g class="gridlayer"><g class="x2"><path class="x2grid crisp" d="M0,480.4057507120573v92.5942492879427" transform="translate(538.6800000000001,0)" style="stroke: rgb(255, 255, 255); stroke-opacity: 1; stroke-width: 0.664176px;"/></g><g class="y10"><path class="y10grid crisp" d="M384.36,0h308.64" transform="translate(0,560.0557507120573)" style="stroke: rgb(255, 255, 255); stroke-opacity: 1; stroke-width: 0.664176px;"/><path class="y10grid crisp" d="M384.36,0h308.64" transform="translate(0,533.4757507120573)" style="stroke: rgb(255, 255, 255); stroke-opacity: 1; stroke-width: 0.664176px;"/><path class="y10grid crisp" d="M384.36,0h308.64" transform="translate(0,506.8857507120573)" style="stroke: rgb(255, 255, 255); stroke-opacity: 1; stroke-width: 0.664176px;"/></g></g><g class="zerolinelayer"/><path class="xlines-below"/><path class="ylines-below"/><g class="overlines-below"/><g class="xaxislayer-below"/><g class="yaxislayer-below"/><g class="overaxes-below"/><g class="plot" transform="translate(384.36, 480.4057507120573)" clip-path="url(#clipe908cfx2y10plot)"><g class="scatterlayer mlayer"><g class="trace scatter tracee552bd" style="stroke-miterlimit: 2; opacity: 1;"><g class="fills"><g><path class="js-fill" d="M127.72,88.39L125.33,86.9L125.41,86.74L127.1,85.75L127.55,85.59L137.41,81.8L137.37,81.63L136,80.64L135.59,80.48L129.21,78.83L128.42,78.67L111.01,74.38L110.74,74.22L108.67,71.91L108.48,71.75L105.92,70.59L105.33,70.43L95.74,68.78L94.43,68.62L34.77,61.21L34.08,61.04L27.94,58.9L27.7,58.73L26.65,57.09L26.64,56.92L25.95,53.96L25.87,53.79L26.1,52.47L26.31,52.31L29.1,51.32L29.85,51.16L40.66,49.67L42.29,49.51L115.03,42.26L115.95,42.1L129.63,38.8L130.09,38.64L134.97,36L135.12,35.84L135.78,34.02L135.75,33.86L134.49,31.06L134.43,30.89L134.53,28.92L134.6,28.75L138.04,24.14L138.17,23.98L142.16,17.88L142.11,17.72L140.88,15.9L140.73,15.74L138.19,11.95L138.13,11.79L137.61,8.33L137.67,8.16L139.39,6.35L139.65,6.19L143.85,4.21L164.79,4.21L170.28,7.17L170.43,7.34L171.15,9.15L171.15,9.32L170.26,12.45L170.18,12.61L168.21,15.41L168.06,15.58L166.43,18.38L166.44,18.54L167.53,20.52L167.67,20.68L174.17,29.08L174.23,29.25L174.02,31.39L173.94,31.55L172.99,35.01L173.06,35.18L174.71,36.83L174.97,36.99L180,39.13L180.52,39.3L191.79,41.93L192.69,42.1L212.86,44.9L214.42,45.06L249.09,48.03L251.17,48.19L278.79,51.16L279.54,51.32L282.82,52.8L282.9,52.97L282.43,54.45L282.35,54.62L282,56.92L281.99,57.09L281.16,58.57L280.94,58.73L277.58,60.22L277.04,60.38L268.12,62.36L267.18,62.52L248.94,64.99L247.45,65.16L203.31,70.43L202.72,70.59L199.66,72.24L199.53,72.41L197.32,74.55L196.97,74.71L191.53,76.36L190.82,76.52L171.51,81.3L171.36,81.47L171.48,82.29L171.67,82.46L174.85,83.77L175.4,83.94L183.31,86.9L183.32,87.07L182.32,87.89L181.91,88.06L180.92,88.39L127.72,88.39Z" style="fill: rgb(255, 255, 255); fill-opacity: 1; stroke-width: 0;"/></g></g><g class="errorbars"/><g class="lines"><path class="js-line" d="M127.72,88.39L125.33,86.9L125.41,86.74L127.1,85.75L127.55,85.59L137.41,81.8L137.37,81.63L136,80.64L135.59,80.48L129.21,78.83L128.42,78.67L111.01,74.38L110.74,74.22L108.67,71.91L108.48,71.75L105.92,70.59L105.33,70.43L95.74,68.78L94.43,68.62L34.77,61.21L34.08,61.04L27.94,58.9L27.7,58.73L26.65,57.09L26.64,56.92L25.95,53.96L25.87,53.79L26.1,52.47L26.31,52.31L29.1,51.32L29.85,51.16L40.66,49.67L42.29,49.51L115.03,42.26L115.95,42.1L129.63,38.8L130.09,38.64L134.97,36L135.12,35.84L135.78,34.02L135.75,33.86L134.49,31.06L134.43,30.89L134.53,28.92L134.6,28.75L138.04,24.14L138.17,23.98L142.16,17.88L142.11,17.72L140.88,15.9L140.73,15.74L138.19,11.95L138.13,11.79L137.61,8.33L137.67,8.16L139.39,6.35L139.65,6.19L143.85,4.21L164.79,4.21L170.28,7.17L170.43,7.34L171.15,9.15L171.15,9.32L170.26,12.45L170.18,12.61L168.21,15.41L168.06,15.58L166.43,18.38L166.44,18.54L167.53,20.52L167.67,20.68L174.17,29.08L174.23,29.25L174.02,31.39L173.94,31.55L172.99,35.01L173.06,35.18L174.71,36.83L174.97,36.99L180,39.13L180.52,39.3L191.79,41.93L192.69,42.1L212.86,44.9L214.42,45.06L249.09,48.03L251.17,48.19L278.79,51.16L279.54,51.32L282.82,52.8L282.9,52.97L282.43,54.45L282.35,54.62L282,56.92L281.99,57.09L281.16,58.57L280.94,58.73L277.58,60.22L277.04,60.38L268.12,62.36L267.18,62.52L248.94,64.99L247.45,65.16L203.31,70.43L202.72,70.59L199.66,72.24L199.53,72.41L197.32,74.55L196.97,74.71L191.53,76.36L190.82,76.52L171.51,81.3L171.36,81.47L171.48,82.29L171.67,82.46L174.85,83.77L175.4,83.94L183.31,86.9L183.32,87.07L182.32,87.89L181.91,88.06L180.92,88.39L127.72,88.39" style="vector-effect: non-scaling-stroke; fill: none; stroke: rgb(51, 51, 51); stroke-opacity: 1; stroke-width: 1.88976px; opacity: 1;"/></g><g class="points"/><g class="text"/></g></g></g><g class="overplot"/><path class="xlines-above crisp" d="M0,0" style="fill: none;"/><path class="ylines-above crisp" d="M0,0" style="fill: none;"/><g class="overlines-above"/><g class="xaxislayer-above"/><g class="yaxislayer-above"/><g class="overaxes-above"/></g></g><g class="polarlayer"/><g class="ternarylayer"/><g class="geolayer"/><g class="pielayer"/><g class="glimages"/><defs id="topdefs-e908cf"><g class="clips"/></defs><g class="layer-above"><g class="imagelayer"/><g class="shapelayer"><path data-index="0" fill-rule="evenodd" d="M50,126.5942492879427H358.64V34H50Z" style="opacity: 1; stroke: rgb(0, 0, 0); stroke-opacity: 0; fill: rgb(0, 0, 0); fill-opacity: 0; stroke-width: 0px;"/><path data-index="1" fill-rule="evenodd" d="M50,34H358.64V10.62100456621H50Z" style="opacity: 1; stroke: rgb(0, 0, 0); stroke-opacity: 0; fill: rgb(217, 217, 217); fill-opacity: 1; stroke-width: 0.664176px;"/><path data-index="2" fill-rule="evenodd" d="M50,234.39424928794273H358.64V157.0057507120573H50Z" style="opacity: 1; stroke: rgb(0, 0, 0); stroke-opacity: 0; fill: rgb(0, 0, 0); fill-opacity: 0; stroke-width: 0px;"/><path data-index="3" fill-rule="evenodd" d="M50,157.0057507120573H358.64V133.6267552782673H50Z" style="opacity: 1; stroke: rgb(0, 0, 0); stroke-opacity: 0; fill: rgb(217, 217, 217); fill-opacity: 1; stroke-width: 0.664176px;"/><path data-index="4" fill-rule="evenodd" d="M50,342.19424928794274H358.64V264.80575071205726H50Z" style="opacity: 1; stroke: rgb(0, 0, 0); stroke-opacity: 0; fill: rgb(0, 0, 0); fill-opacity: 0; stroke-width: 0px;"/><path data-index="5" fill-rule="evenodd" d="M50,264.80575071205726H358.64V241.42675527826725H50Z" style="opacity: 1; stroke: rgb(0, 0, 0); stroke-opacity: 0; fill: rgb(217, 217, 217); fill-opacity: 1; stroke-width: 0.664176px;"/><path data-index="6" fill-rule="evenodd" d="M50,449.9942492879427H358.64V372.6057507120573H50Z" style="opacity: 1; stroke: rgb(0, 0, 0); stroke-opacity: 0; fill: rgb(0, 0, 0); fill-opacity: 0; stroke-width: 0px;"/><path data-index="7" fill-rule="evenodd" d="M50,372.6057507120573H358.64V349.22675527826726H50Z" style="opacity: 1; stroke: rgb(0, 0, 0); stroke-opacity: 0; fill: rgb(217, 217, 217); fill-opacity: 1; stroke-width: 0.664176px;"/><path data-index="8" fill-rule="evenodd" d="M50,573H358.64V480.4057507120573H50Z" style="opacity: 1; stroke: rgb(0, 0, 0); stroke-opacity: 0; fill: rgb(0, 0, 0); fill-opacity: 0; stroke-width: 0px;"/><path data-index="9" fill-rule="evenodd" d="M50,480.4057507120573H358.64V457.0267552782673H50Z" style="opacity: 1; stroke: rgb(0, 0, 0); stroke-opacity: 0; fill: rgb(217, 217, 217); fill-opacity: 1; stroke-width: 0.664176px;"/><path data-index="10" fill-rule="evenodd" d="M384.36,126.5942492879427H693V34H384.36Z" style="opacity: 1; stroke: rgb(0, 0, 0); stroke-opacity: 0; fill: rgb(0, 0, 0); fill-opacity: 0; stroke-width: 0px;"/><path data-index="11" fill-rule="evenodd" d="M384.36,34H693V10.62100456621H384.36Z" style="opacity: 1; stroke: rgb(0, 0, 0); stroke-opacity: 0; fill: rgb(217, 217, 217); fill-opacity: 1; stroke-width: 0.664176px;"/><path data-index="12" fill-rule="evenodd" d="M384.36,234.39424928794273H693V157.0057507120573H384.36Z" style="opacity: 1; stroke: rgb(0, 0, 0); stroke-opacity: 0; fill: rgb(0, 0, 0); fill-opacity: 0; stroke-width: 0px;"/><path data-index="13" fill-rule="evenodd" d="M384.36,157.0057507120573H693V133.6267552782673H384.36Z" style="opacity: 1; stroke: rgb(0, 0, 0); stroke-opacity: 0; fill: rgb(217, 217, 217); fill-opacity: 1; stroke-width: 0.664176px;"/><path data-index="14" fill-rule="evenodd" d="M384.36,342.19424928794274H693V264.80575071205726H384.36Z" style="opacity: 1; stroke: rgb(0, 0, 0); stroke-opacity: 0; fill: rgb(0, 0, 0); fill-opacity: 0; stroke-width: 0px;"/><path data-index="15" fill-rule="evenodd" d="M384.36,264.80575071205726H693V241.42675527826725H384.36Z" style="opacity: 1; stroke: rgb(0, 0, 0); stroke-opacity: 0; fill: rgb(217, 217, 217); fill-opacity: 1; stroke-width: 0.664176px;"/><path data-index="16" fill-rule="evenodd" d="M384.36,449.9942492879427H693V372.6057507120573H384.36Z" style="opacity: 1; stroke: rgb(0, 0, 0); stroke-opacity: 0; fill: rgb(0, 0, 0); fill-opacity: 0; stroke-width: 0px;"/><path data-index="17" fill-rule="evenodd" d="M384.36,372.6057507120573H693V349.22675527826726H384.36Z" style="opacity: 1; stroke: rgb(0, 0, 0); stroke-opacity: 0; fill: rgb(217, 217, 217); fill-opacity: 1; stroke-width: 0.664176px;"/><path data-index="18" fill-rule="evenodd" d="M384.36,573H693V480.4057507120573H384.36Z" style="opacity: 1; stroke: rgb(0, 0, 0); stroke-opacity: 0; fill: rgb(0, 0, 0); fill-opacity: 0; stroke-width: 0px;"/><path data-index="19" fill-rule="evenodd" d="M384.36,480.4057507120573H693V457.0267552782673H384.36Z" style="opacity: 1; stroke: rgb(0, 0, 0); stroke-opacity: 0; fill: rgb(217, 217, 217); fill-opacity: 1; stroke-width: 0.664176px;"/></g></g><g class="infolayer"><g class="g-gtitle"/><g class="g-xtitle"/><g class="g-x2title"/><g class="g-ytitle"/><g class="g-y2title"/><g class="g-y3title"/><g class="g-y4title"/><g class="g-y5title"/><g class="g-y6title"/><g class="g-y7title"/><g class="g-y8title"/><g class="g-y9title"/><g class="g-y10title"/><g class="annotation" data-index="0" style="opacity: 1;"><g class="annotation-text-g" transform="rotate(0,204.32,25)"><g class="cursor-pointer" transform="translate(192, 16)"><rect class="bg" x="0.5" y="0.5" width="23" height="17" style="stroke-width: 1px; stroke: rgb(0, 0, 0); stroke-opacity: 0; fill: rgb(0, 0, 0); fill-opacity: 0;"/><text class="annotation-text" text-anchor="middle" x="12.15625" y="13.5" style="font-family: 'Open Sans', verdana, arial, sans-serif; font-size: 11.6895px; fill: rgb(26, 26, 26); fill-opacity: 1; white-space: pre;">pce</text></g></g></g><g class="annotation" data-index="1" style="opacity: 1;"><g class="annotation-text-g" transform="rotate(0,204.32,148.0057507120573)"><g class="cursor-pointer" transform="translate(191, 139)"><rect class="bg" x="0.5" y="0.5" width="25" height="17" style="stroke-width: 1px; stroke: rgb(0, 0, 0); stroke-opacity: 0; fill: rgb(0, 0, 0); fill-opacity: 0;"/><text class="annotation-text" text-anchor="middle" x="12.8125" y="13.5" style="font-family: 'Open Sans', verdana, arial, sans-serif; font-size: 11.6895px; fill: rgb(26, 26, 26); fill-opacity: 1; white-space: pre;">pop</text></g></g></g><g class="annotation" data-index="2" style="opacity: 1;"><g class="annotation-text-g" transform="rotate(0,204.32,255.80575071205726)"><g class="cursor-pointer" transform="translate(180, 247)"><rect class="bg" x="0.5" y="0.5" width="47" height="17" style="stroke-width: 1px; stroke: rgb(0, 0, 0); stroke-opacity: 0; fill: rgb(0, 0, 0); fill-opacity: 0;"/><text class="annotation-text" text-anchor="middle" x="23.921875" y="13.5" style="font-family: 'Open Sans', verdana, arial, sans-serif; font-size: 11.6895px; fill: rgb(26, 26, 26); fill-opacity: 1; white-space: pre;">psavert</text></g></g></g><g class="annotation" data-index="3" style="opacity: 1;"><g class="annotation-text-g" transform="rotate(0,204.32,363.6057507120573)"><g class="cursor-pointer" transform="translate(173, 355)"><rect class="bg" x="0.5" y="0.5" width="62" height="17" style="stroke-width: 1px; stroke: rgb(0, 0, 0); stroke-opacity: 0; fill: rgb(0, 0, 0); fill-opacity: 0;"/><text class="annotation-text" text-anchor="middle" x="31.296875" y="13.5" style="font-family: 'Open Sans', verdana, arial, sans-serif; font-size: 11.6895px; fill: rgb(26, 26, 26); fill-opacity: 1; white-space: pre;">uempmed</text></g></g></g><g class="annotation" data-index="4" style="opacity: 1;"><g class="annotation-text-g" transform="rotate(0,204.32,471.4057507120573)"><g class="cursor-pointer" transform="translate(173, 462)"><rect class="bg" x="0.5" y="0.5" width="61" height="17" style="stroke-width: 1px; stroke: rgb(0, 0, 0); stroke-opacity: 0; fill: rgb(0, 0, 0); fill-opacity: 0;"/><text class="annotation-text" text-anchor="middle" x="30.796875" y="13.5" style="font-family: 'Open Sans', verdana, arial, sans-serif; font-size: 11.6895px; fill: rgb(26, 26, 26); fill-opacity: 1; white-space: pre;">unemploy</text></g></g></g><g class="annotation" data-index="5" style="opacity: 1;"><g class="annotation-text-g" transform="rotate(0,538.6800000000001,25)"><g class="cursor-pointer" transform="translate(527, 16)"><rect class="bg" x="0.5" y="0.5" width="23" height="17" style="stroke-width: 1px; stroke: rgb(0, 0, 0); stroke-opacity: 0; fill: rgb(0, 0, 0); fill-opacity: 0;"/><text class="annotation-text" text-anchor="middle" x="12.15625" y="13.5" style="font-family: 'Open Sans', verdana, arial, sans-serif; font-size: 11.6895px; fill: rgb(26, 26, 26); fill-opacity: 1; white-space: pre;">pce</text></g></g></g><g class="annotation" data-index="6" style="opacity: 1;"><g class="annotation-text-g" transform="rotate(0,538.6800000000001,148.0057507120573)"><g class="cursor-pointer" transform="translate(526, 139)"><rect class="bg" x="0.5" y="0.5" width="25" height="17" style="stroke-width: 1px; stroke: rgb(0, 0, 0); stroke-opacity: 0; fill: rgb(0, 0, 0); fill-opacity: 0;"/><text class="annotation-text" text-anchor="middle" x="12.8125" y="13.5" style="font-family: 'Open Sans', verdana, arial, sans-serif; font-size: 11.6895px; fill: rgb(26, 26, 26); fill-opacity: 1; white-space: pre;">pop</text></g></g></g><g class="annotation" data-index="7" style="opacity: 1;"><g class="annotation-text-g" transform="rotate(0,538.6800000000001,255.80575071205726)"><g class="cursor-pointer" transform="translate(515, 247)"><rect class="bg" x="0.5" y="0.5" width="47" height="17" style="stroke-width: 1px; stroke: rgb(0, 0, 0); stroke-opacity: 0; fill: rgb(0, 0, 0); fill-opacity: 0;"/><text class="annotation-text" text-anchor="middle" x="23.921875" y="13.5" style="font-family: 'Open Sans', verdana, arial, sans-serif; font-size: 11.6895px; fill: rgb(26, 26, 26); fill-opacity: 1; white-space: pre;">psavert</text></g></g></g><g class="annotation" data-index="8" style="opacity: 1;"><g class="annotation-text-g" transform="rotate(0,538.6800000000001,363.6057507120573)"><g class="cursor-pointer" transform="translate(507, 355)"><rect class="bg" x="0.5" y="0.5" width="62" height="17" style="stroke-width: 1px; stroke: rgb(0, 0, 0); stroke-opacity: 0; fill: rgb(0, 0, 0); fill-opacity: 0;"/><text class="annotation-text" text-anchor="middle" x="31.296875" y="13.5" style="font-family: 'Open Sans', verdana, arial, sans-serif; font-size: 11.6895px; fill: rgb(26, 26, 26); fill-opacity: 1; white-space: pre;">uempmed</text></g></g></g><g class="annotation" data-index="9" style="opacity: 1;"><g class="annotation-text-g" transform="rotate(0,538.6800000000001,471.4057507120573)"><g class="cursor-pointer" transform="translate(508, 462)"><rect class="bg" x="0.5" y="0.5" width="61" height="17" style="stroke-width: 1px; stroke: rgb(0, 0, 0); stroke-opacity: 0; fill: rgb(0, 0, 0); fill-opacity: 0;"/><text class="annotation-text" text-anchor="middle" x="30.796875" y="13.5" style="font-family: 'Open Sans', verdana, arial, sans-serif; font-size: 11.6895px; fill: rgb(26, 26, 26); fill-opacity: 1; white-space: pre;">unemploy</text></g></g></g></g></svg>