<svg class="main-svg" xmlns="http://www.w3.org/2000/svg" xmlns:xlink="http://www.w3.org/1999/xlink" width="800" height="400" viewBox="0 0 800 400"><rect x="0" y="0" width="800" height="400" style="fill: rgb(255, 255, 255); fill-opacity: 1;"/><defs id="defs-f5b2f4"><g class="clips"><clipPath id="clipf5b2f4xyplot" class="plotclip"><rect width="592" height="335"/></clipPath><clipPath class="axesclip" id="clipf5b2f4x"><rect x="60" y="0" width="592" height="400"/></clipPath><clipPath class="axesclip" id="clipf5b2f4y"><rect x="0" y="25" width="800" height="335"/></clipPath><clipPath class="axesclip" id="clipf5b2f4xy"><rect x="60" y="25" width="592" height="335"/></clipPath></g><g class="gradients"/></defs><g class="bglayer"/><g class="layer-below"><g class="imagelayer"/><g class="shapelayer"/></g><g class="cartesianlayer"><g class="subplot xy"><g class="layer-subplot"><g class="shapelayer"/><g class="imagelayer"/></g><g class="gridlayer"><g class="x"><path class="xgrid crisp" d="M0,25v335" transform="translate(136.39,0)" style="stroke: rgb(238, 238, 238); stroke-opacity: 1; stroke-width: 1px;"/><path class="xgrid crisp" d="M0,25v335" transform="translate(212.77,0)" style="stroke: rgb(238, 238, 238); stroke-opacity: 1; stroke-width: 1px;"/><path class="xgrid crisp" d="M0,25v335" transform="translate(289.15999999999997,0)" style="stroke: rgb(238, 238, 238); stroke-opacity: 1; stroke-width: 1px;"/><path class="xgrid crisp" d="M0,25v335" transform="translate(365.55,0)" style="stroke: rgb(238, 238, 238); stroke-opacity: 1; stroke-width: 1px;"/><path class="xgrid crisp" d="M0,25v335" transform="translate(441.94,0)" style="stroke: rgb(238, 238, 238); stroke-opacity: 1; stroke-width: 1px;"/><path class="xgrid crisp" d="M0,25v335" transform="translate(518.3199999999999,0)" style="stroke: rgb(238, 238, 238); stroke-opacity: 1; stroke-width: 1px;"/><path class="xgrid crisp" d="M0,25v335" transform="translate(594.71,0)" style="stroke: rgb(238, 238, 238); stroke-opacity: 1; stroke-width: 1px;"/></g><g class="y"><path class="ygrid crisp" d="M60,0h592" transform="translate(0,323.91)" style="stroke: rgb(238, 238, 238); stroke-opacity: 1; stroke-width: 1px;"/><path class="ygrid crisp" d="M60,0h592" transform="translate(0,254.82)" style="stroke: rgb(238, 238, 238); stroke-opacity: 1; stroke-width: 1px;"/><path class="ygrid crisp" d="M60,0h592" transform="translate(0,185.73)" style="stroke: rgb(238, 238, 238); stroke-opacity: 1; stroke-width: 1px;"/><path class="ygrid crisp" d="M60,0h592" transform="translate(0,116.64)" style="stroke: rgb(238, 238, 238); stroke-opacity: 1; stroke-width: 1px;"/><path class="ygrid crisp" d="M60,0h592" transform="translate(0,47.55)" style="stroke: rgb(238, 238, 238); stroke-opacity: 1; stroke-width: 1px;"/></g></g><g class="zerolinelayer"/><path class="xlines-below"/><path class="ylines-below"/><g class="overlines-below"/><g class="xaxislayer-below"/><g class="yaxislayer-below"/><g class="overaxes-below"/><g class="plot" transform="translate(60, 25)" clip-path="url(#clipf5b2f4xyplot)"><g class="scatterlayer mlayer"><g class="trace scatter trace4d1cc4" style="stroke-miterlimit: 2; opacity: 1;"><g class="fills"/><g class="errorbars"/><g class="lines"><path class="js-line" d="M0,252.34L3.18,251.93L6.37,248.19L9.55,247.92L12.73,237.14L15.91,231.48L19.1,230.78L22.28,234.93L25.46,231.61L28.65,229.68L31.83,232.58L35.01,229.96L38.19,240.87L41.38,228.44L44.56,231.89L47.74,228.3L50.92,227.19L54.11,227.74L57.29,222.22L60.47,224.57L63.66,234.24L66.84,244.05L70.02,226.5L73.2,221.94L76.39,226.22L79.57,219.73L82.75,220.7L89.12,221.53L92.3,217.52L95.48,227.47L98.67,220.28L101.85,226.5L105.03,229.4L108.22,230.09L111.4,227.61L114.58,237.97L117.76,228.99L124.13,223.32L127.31,220.42L130.49,212.68L133.68,215.31L136.86,222.49L140.04,227.74L143.23,226.09L146.41,227.74L149.59,222.08L152.77,237.56L159.14,224.15L162.32,223.6L165.51,222.22L168.69,215.86L171.87,217.8L175.05,225.95L178.24,218.49L181.42,229.4L184.6,233.27L187.78,224.29L190.97,232.17L194.15,220.28L197.33,223.32L200.52,218.49L203.7,216.69L206.88,207.57L210.06,207.99L213.25,205.64L216.43,218.21L219.61,217.66L222.8,205.08L225.98,204.12L229.16,205.08L232.34,208.12L235.53,206.74L238.71,199.97L241.89,201.77L245.08,194.72L248.26,195.83L251.44,189.19L254.62,206.33L257.81,195.96L260.99,199.14L264.17,194.03L267.35,196.1L270.54,191.82L273.72,192.1L276.9,185.74L280.09,183.53L283.27,173.17L286.45,176.07L289.63,173.72L292.82,184.91L296,186.02L302.37,175.51L305.55,181.04L308.73,187.95L311.91,176.21L315.1,178.69L318.28,169.3L321.46,165.7L324.65,173.3L327.83,168.61L331.01,185.88L334.19,176.62L337.38,188.23L340.56,188.92L343.74,193.89L346.92,177.86L350.11,189.61L356.47,169.85L359.66,166.81L362.84,174.69L366.02,177.59L369.2,181.73L372.39,189.33L375.57,193.75L378.75,177.59L381.94,194.86L385.12,184.77L388.3,189.19L391.48,181.32L394.67,176.48L397.85,160.04L401.03,141.94L404.22,167.36L407.4,173.86L410.58,169.99L413.76,187.54L416.95,172.89L420.13,181.32L423.31,177.31L426.49,182.28L429.68,172.34L432.86,167.91L436.04,160.87L439.23,169.16L442.41,169.16L445.59,178.83L448.77,176.07L451.96,181.87L455.14,176.9L458.32,191.96L461.51,172.34L464.69,162.66L467.87,150.5L471.05,146.64L474.24,138.62L480.6,153.68L483.78,165.15L486.97,164.74L490.15,163.22L493.33,144.84L496.52,161.83L499.7,151.33L502.88,137.1L506.06,123.01L509.25,121.9L512.43,113.61L515.61,122.18L518.8,134.75L521.98,127.57L525.16,135.44L528.34,136L531.53,123.97L534.71,141.8L537.89,120.11L541.08,111.54L544.26,109.6L547.44,100.07L550.62,93.16L553.81,95.92L556.99,100.21L560.17,106.98L563.35,106.01L566.54,102.56L569.72,97.58L572.9,108.91L579.27,86.25L582.45,63.59L585.63,62.35L588.82,63.73L592,71.47" style="vector-effect: non-scaling-stroke; fill: none; stroke: rgb(31, 119, 180); stroke-opacity: 1; stroke-width: 2px; opacity: 1; stroke-dasharray: 9px, 3px, 3px, 3px;"/></g><g class="points"/><g class="text"/></g><g class="trace scatter trace53a3d9" style="stroke-miterlimit: 2; opacity: 1;"><g class="fills"/><g class="errorbars"/><g class="lines"><path class="js-line" d="M0,217.8L3.18,226.64L6.37,220.7L9.55,216.69L12.73,205.5L15.91,205.5L19.1,202.6L22.28,210.47L25.46,212.68L28.65,201.49L31.83,203.98L35.01,206.74L38.19,207.85L41.38,206.88L44.56,202.6L47.74,203.29L50.92,201.08L54.11,195.83L57.29,194.03L60.47,197.48L63.66,194.44L66.84,202.46L70.02,197.62L73.2,197.76L76.39,196.38L82.75,196.79L85.94,192.79L89.12,189.61L92.3,187.95L95.48,192.1L98.67,194.31L101.85,194.17L105.03,196.93L108.22,198.31L111.4,184.91L114.58,199.28L117.76,201.21L120.95,200.8L124.13,198.31L127.31,197.07L130.49,187.95L136.86,190.99L140.04,185.74L143.23,194.03L146.41,195.69L149.59,191.96L152.77,202.73L155.96,194.72L159.14,194.58L162.32,196.38L165.51,194.17L168.69,183.94L171.87,182.56L175.05,184.77L178.24,191.54L181.42,180.21L184.6,193.48L187.78,193.06L190.97,201.21L194.15,191.54L197.33,193.06L200.52,183.53L203.7,183.39L206.88,179.52L210.06,181.59L213.25,172.61L216.43,182.56L219.61,192.23L222.8,170.68L225.98,177.31L229.16,179.66L232.34,182.84L235.53,184.08L238.71,179.8L241.89,163.35L245.08,158.52L248.26,160.04L251.44,169.85L254.62,174.82L260.99,170.68L264.17,164.6L267.35,177.31L270.54,177.17L273.72,165.01L276.9,166.39L283.27,142.21L286.45,154.93L289.63,146.91L292.82,164.46L296,166.26L299.18,152.58L302.37,165.43L305.55,166.81L308.73,164.46L311.91,156.58L315.1,147.6L318.28,150.78L321.46,158.24L324.65,145.12L327.83,143.87L331.01,168.19L334.19,154.65L337.38,170.4L340.56,160.31L343.74,176.48L346.92,161.97L350.11,168.74L353.29,163.49L356.47,149.54L359.66,150.78L362.84,148.71L369.2,168.61L372.39,169.57L375.57,178.97L378.75,151.33L381.94,170.13L385.12,165.43L388.3,164.87L391.48,169.85L394.67,162.53L397.85,128.81L401.03,126.6L404.22,136.55L407.4,146.5L410.58,152.85L413.76,134.48L416.95,146.36L420.13,165.98L423.31,150.92L426.49,159.21L429.68,143.18L432.86,150.09L436.04,142.63L439.23,135.72L442.41,140.56L445.59,140.28L448.77,152.85L451.96,168.47L455.14,151.06L458.32,155.62L461.51,149.26L464.69,157.55L467.87,135.17L471.05,137.24L474.24,131.44L477.42,127.71L480.6,134.48L483.78,132.68L486.97,142.77L490.15,143.87L493.33,127.29L496.52,127.43L499.7,130.19L502.88,121.07L506.06,105.18L509.25,100.9L512.43,88.05L515.61,103.94L518.8,97.17L521.98,105.87L525.16,107.12L528.34,101.87L531.53,90.12L534.71,114.44L537.89,81.97L541.08,78.51L544.26,81.42L547.44,75.75L550.62,61.8L553.81,61.93L556.99,66.08L560.17,82.66L563.35,73.13L566.54,68.15L569.72,60.97L572.9,66.77L576.09,45.49L579.27,42.17L582.45,34.44L585.63,16.75L588.82,22L592,32.78" style="vector-effect: non-scaling-stroke; fill: none; stroke: rgb(255, 127, 14); stroke-opacity: 1; stroke-width: 2px; opacity: 1; stroke-dasharray: 15px, 15px;"/></g><g class="points"/><g class="text"/></g><g class="trace scatter trace09ab3c" style="stroke-miterlimit: 2; opacity: 1;"><g class="fills"/><g class="errorbars"/><g class="lines"><path class="js-line" d="M0,265.19L3.18,260.63L6.37,259.53L9.55,254.69L12.73,247.64L15.91,245.29L19.1,244.19L22.28,251.23L25.46,249.16L31.83,253.03L35.01,245.43L38.19,257.04L41.38,244.6L44.56,240.32L47.74,242.53L50.92,241.29L54.11,234.93L57.29,237.69L60.47,241.7L63.66,237.42L66.84,249.16L70.02,240.46L73.2,240.04L76.39,242.67L79.57,238.52L82.75,236.45L85.94,236.86L89.12,235.9L92.3,232.03L95.48,236.59L98.67,236.04L101.85,239.77L105.03,238.52L108.22,238.94L111.4,232.44L114.58,241.01L117.76,235.9L124.13,234.24L127.31,228.99L130.49,224.29L133.68,225.12L136.86,225.26L140.04,232.17L143.23,238.66L146.41,237.42L149.59,233.69L152.77,245.15L155.96,234.38L159.14,234.52L162.32,231.34L165.51,230.37L168.69,216.97L171.87,223.6L175.05,226.5L178.24,234.93L181.42,231.34L184.6,231.34L187.78,232.44L190.97,243.36L194.15,233.13L197.33,227.47L200.52,227.05L203.7,223.74L206.88,217.52L210.06,216.28L213.25,218.76L216.43,223.6L219.61,222.77L222.8,218.07L225.98,220.01L229.16,230.37L232.34,224.15L235.53,223.05L238.71,223.18L241.89,209.78L245.08,211.3L248.26,210.47L251.44,218.35L254.62,229.54L264.17,221.11L267.35,230.78L273.72,218.49L276.9,210.33L280.09,211.85L283.27,203.43L286.45,210.89L289.63,208.12L292.82,219.45L296,224.98L299.18,222.36L302.37,224.7L305.55,235.21L308.73,233.41L311.91,216.55L315.1,219.32L318.28,213.1L321.46,209.92L324.65,211.16L327.83,216.97L331.01,229.68L334.19,223.88L337.38,238.11L340.56,233.13L343.74,245.98L346.92,233.69L353.29,231.06L356.47,210.06L359.66,206.88L362.84,211.3L372.39,226.09L375.57,228.16L378.75,230.09L381.94,242.53L388.3,220.42L391.48,215.86L394.67,213.37L397.85,206.74L401.03,205.22L404.22,209.23L407.4,222.63L410.58,224.15L413.76,223.05L416.95,213.37L420.13,229.96L423.31,220.56L426.49,226.5L429.68,218.49L432.86,211.03L436.04,208.12L442.41,212.41L445.59,219.87L451.96,230.65L455.14,215.59L458.32,228.71L461.51,220.01L464.69,205.91L467.87,203.98L471.05,195.14L474.24,191.27L480.6,196.38L483.78,197.35L486.97,206.74L490.15,204.53L493.33,191.4L496.52,211.72L499.7,204.81L502.88,187.26L506.06,169.99L509.25,163.49L512.43,156.86L515.61,161.83L518.8,163.49L521.98,176.21L525.16,175.65L528.34,179.24L531.53,167.78L534.71,187.95L537.89,168.19L541.08,161.7L544.26,157.55L547.44,147.33L550.62,137.1L553.81,138.9L556.99,144.98L560.17,152.72L563.35,160.18L566.54,153.54L569.72,136.69L572.9,156.17L579.27,126.46L582.45,115.82L585.63,103.66L588.82,102.28L592,115.13" style="vector-effect: non-scaling-stroke; fill: none; stroke: rgb(44, 160, 44); stroke-opacity: 1; stroke-width: 2px; opacity: 1; stroke-dasharray: 9px, 9px;"/></g><g class="points"/><g class="text"/></g><g class="trace scatter traced07931" style="stroke-miterlimit: 2; opacity: 1;"><g class="fills"/><g class="errorbars"/><g class="lines"><path class="js-line" d="M0,295.45L3.18,284.67L6.37,285.78L12.73,281.36L15.91,274.17L19.1,273.62L22.28,278.73L25.46,276.94L28.65,281.77L31.83,277.9L35.01,272.24L38.19,282.46L41.38,279.01L44.56,276.38L47.74,268.09L50.92,267.82L54.11,260.91L57.29,260.91L60.47,265.47L63.66,271.68L66.84,275.28L70.02,270.72L73.2,259.8L76.39,272.24L79.57,264.5L82.75,260.77L85.94,260.08L89.12,257.18L92.3,252.89L98.67,256.21L101.85,255.93L105.03,261.46L108.22,256.9L111.4,248.33L114.58,261.87L120.95,258.28L124.13,254.83L127.31,255.1L130.49,245.98L133.68,241.56L136.86,247.92L143.23,259.66L146.41,257.31L149.59,250.82L152.77,265.05L155.96,256.76L159.14,256.76L162.32,251.51L165.51,247.92L168.69,241.7L171.87,249.3L175.05,249.3L178.24,251.93L181.42,254.83L184.6,254.97L187.78,246.67L190.97,254.97L194.15,249.16L197.33,248.89L200.52,248.19L203.7,240.6L206.88,237L210.06,237.69L213.25,238.94L216.43,237.97L219.61,241.56L222.8,237.56L225.98,233L229.16,246.95L232.34,240.04L235.53,240.46L238.71,236.31L241.89,228.16L245.08,222.63L248.26,223.05L251.44,227.88L254.62,230.65L257.81,236.86L260.99,234.24L264.17,226.36L267.35,241.56L273.72,227.74L276.9,230.78L283.27,217.52L286.45,223.18L289.63,219.73L292.82,229.96L296,234.65L299.18,231.34L302.37,223.32L305.55,244.33L308.73,228.44L311.91,227.33L315.1,229.4L318.28,221.8L321.46,215.86L324.65,216.14L327.83,217.52L331.01,222.49L334.19,241.01L337.38,247.09L340.56,236.45L343.74,256.21L350.11,236.04L353.29,231.2L359.66,211.3L362.84,214.2L366.02,217.52L369.2,222.91L372.39,233.13L375.57,229.4L378.75,228.16L381.94,240.46L385.12,234.65L388.3,226.64L391.48,227.33L394.67,226.36L397.85,220.42L401.03,220.01L404.22,220.28L407.4,225.4L410.58,232.03L413.76,229.68L416.95,219.45L420.13,248.47L423.31,228.57L426.49,231.89L429.68,231.48L432.86,223.74L436.04,216.28L439.23,218.07L442.41,219.32L445.59,223.32L448.77,228.85L451.96,224.57L455.14,215.86L458.32,246.67L464.69,213.65L467.87,214.48L471.05,204.95L474.24,201.21L477.42,203.15L480.6,210.61L483.78,211.44L486.97,213.1L493.33,200.8L496.52,230.51L502.88,199L506.06,185.05L509.25,179.94L512.43,172.34L515.61,177.59L518.8,179.11L521.98,188.09L525.16,193.89L531.53,178L534.71,194.44L537.89,185.6L541.08,172.89L544.26,168.47L547.44,161.7L550.62,145.25L553.81,161.14L556.99,157.41L560.17,166.53L563.35,172.89L566.54,167.36L569.72,148.16L572.9,175.51L576.09,165.57L579.27,152.85L582.45,150.09L585.63,132.96L588.82,129.78L592,136.41" style="vector-effect: non-scaling-stroke; fill: none; stroke: rgb(214, 39, 40); stroke-opacity: 1; stroke-width: 2px; opacity: 1;"/></g><g class="points"/><g class="text"/></g><g class="trace scatter trace511fff" style="stroke-miterlimit: 2; opacity: 1;"><g class="fills"/><g class="errorbars"/><g class="lines"><path class="js-line" d="M0,311.48L3.18,318.25L6.37,316.87L9.55,312.45L12.73,311.06L15.91,298.77L19.1,298.21L22.28,308.02L25.46,306.09L28.65,307.89L31.83,307.06L35.01,303.33L38.19,315.62L41.38,303.19L44.56,302.64L47.74,308.16L50.92,295.73L54.11,292.55L57.29,297.66L60.47,295.59L63.66,300.98L66.84,303.88L70.02,301.39L73.2,287.85L76.39,298.21L79.57,293.38L82.75,298.35L85.94,296L89.12,286.88L92.3,281.36L95.48,283.71L98.67,294.48L101.85,291.17L105.03,288.13L108.22,289.65L111.4,281.08L114.58,297.39L117.76,286.75L120.95,291.31L124.13,282.46L127.31,278.87L130.49,263.67L133.68,270.44L136.86,270.58L140.04,282.88L143.23,287.71L146.41,283.98L149.59,279.28L152.77,289.09L155.96,287.44L159.14,279.01L162.32,281.63L165.51,268.78L168.69,261.74L171.87,265.47L175.05,265.74L178.24,270.3L181.42,274.17L184.6,273.9L187.78,269.2L190.97,278.32L194.15,269.34L197.33,269.06L203.7,256.49L206.88,249.58L210.06,251.1L213.25,249.85L216.43,248.19L219.61,257.87L225.98,244.74L229.16,256.9L232.34,256.9L235.53,249.3L238.71,249.44L241.89,242.53L245.08,233.27L248.26,235.21L251.44,239.08L254.62,244.88L257.81,246.54L260.99,241.29L264.17,233.27L267.35,240.32L270.54,239.35L273.72,235.76L276.9,236.73L280.09,233.69L283.27,219.87L286.45,226.64L289.63,227.74L292.82,234.52L296,237.56L299.18,236.73L302.37,231.89L305.55,243.08L308.73,239.49L311.91,232.72L315.1,226.64L318.28,227.47L321.46,219.04L324.65,225.12L327.83,229.54L331.01,237.42L334.19,237.69L337.38,240.04L340.56,241.56L343.74,235.48L346.92,240.46L350.11,238.38L359.66,221.39L362.84,217.93L366.02,232.86L369.2,234.65L372.39,245.43L375.57,242.25L378.75,233.41L381.94,245.29L385.12,241.29L388.3,239.08L391.48,240.04L394.67,234.52L397.85,227.05L401.03,213.51L404.22,215.86L407.4,227.05L410.58,230.78L413.76,225.81L416.95,219.87L420.13,235.21L423.31,231.61L426.49,232.03L429.68,232.72L432.86,226.5L436.04,222.49L439.23,220.84L442.41,225.26L445.59,226.5L448.77,227.88L451.96,233.27L455.14,227.19L458.32,240.73L464.69,219.87L467.87,220.28L471.05,215.45L474.24,202.6L477.42,211.58L480.6,215.45L483.78,219.87L486.97,219.04L490.15,214.89L493.33,216.69L496.52,229.26L499.7,216.97L502.88,218.35L506.06,208.68L509.25,195.41L512.43,191.4L515.61,191.13L518.8,195.69L521.98,204.39L525.16,204.25L531.53,199L534.71,214.76L537.89,204.12L541.08,197.62L544.26,194.03L547.44,184.77L550.62,176.21L553.81,181.04L556.99,187.4L560.17,182.84L563.35,195.83L566.54,182.7L569.72,183.67L572.9,194.03L576.09,179.11L579.27,180.35L582.45,176.62L585.63,161.56L588.82,161.56L592,163.35" style="vector-effect: non-scaling-stroke; fill: none; stroke: rgb(148, 103, 189); stroke-opacity: 1; stroke-width: 2px; opacity: 1; stroke-dasharray: 3px, 3px;"/></g><g class="points"/><g class="text"/></g></g></g><g class="overplot"/><path class="xlines-above crisp" d="M0,0" style="fill: none;"/><path class="ylines-above crisp" d="M0,0" style="fill: none;"/><g class="overlines-above"/><g class="xaxislayer-above"><g class="xtick"><text text-anchor="middle" x="0" y="373" transform="translate(60,0)" style="font-family: 'Open Sans', verdana, arial, sans-serif; font-size: 12px; fill: rgb(68, 68, 68); fill-opacity: 1; white-space: pre;">2000</text></g><g class="xtick"><text text-anchor="middle" x="0" y="373" transform="translate(136.39,0)" style="font-family: 'Open Sans', verdana, arial, sans-serif; font-size: 12px; fill: rgb(68, 68, 68); fill-opacity: 1; white-space: pre;">2002</text></g><g class="xtick"><text text-anchor="middle" x="0" y="373" transform="translate(212.77,0)" style="font-family: 'Open Sans', verdana, arial, sans-serif; font-size: 12px; fill: rgb(68, 68, 68); fill-opacity: 1; white-space: pre;">2004</text></g><g class="xtick"><text text-anchor="middle" x="0" y="373" transform="translate(289.15999999999997,0)" style="font-family: 'Open Sans', verdana, arial, sans-serif; font-size: 12px; fill: rgb(68, 68, 68); fill-opacity: 1; white-space: pre;">2006</text></g><g class="xtick"><text text-anchor="middle" x="0" y="373" transform="translate(365.55,0)" style="font-family: 'Open Sans', verdana, arial, sans-serif; font-size: 12px; fill: rgb(68, 68, 68); fill-opacity: 1; white-space: pre;">2008</text></g><g class="xtick"><text text-anchor="middle" x="0" y="373" transform="translate(441.94,0)" style="font-family: 'Open Sans', verdana, arial, sans-serif; font-size: 12px; fill: rgb(68, 68, 68); fill-opacity: 1; white-space: pre;">2010</text></g><g class="xtick"><text text-anchor="middle" x="0" y="373" transform="translate(518.3199999999999,0)" style="font-family: 'Open Sans', verdana, arial, sans-serif; font-size: 12px; fill: rgb(68, 68, 68); fill-opacity: 1; white-space: pre;">2012</text></g><g class="xtick"><text text-anchor="middle" x="0" y="373" transform="translate(594.71,0)" style="font-family: 'Open Sans', verdana, arial, sans-serif; font-size: 12px; fill: rgb(68, 68, 68); fill-opacity: 1; white-space: pre;">2014</text></g></g><g class="yaxislayer-above"><g class="ytick"><text text-anchor="end" x="59" y="4.199999999999999" transform="translate(0,323.91)" style="font-family: 'Open Sans', verdana, arial, sans-serif; font-size: 12px; fill: rgb(68, 68, 68); fill-opacity: 1; white-space: pre;">100k</text></g><g class="ytick"><text text-anchor="end" x="59" y="4.199999999999999" transform="translate(0,254.82)" style="font-family: 'Open Sans', verdana, arial, sans-serif; font-size: 12px; fill: rgb(68, 68, 68); fill-opacity: 1; white-space: pre;">150k</text></g><g class="ytick"><text text-anchor="end" x="59" y="4.199999999999999" transform="translate(0,185.73)" style="font-family: 'Open Sans', verdana, arial, sans-serif; font-size: 12px; fill: rgb(68, 68, 68); fill-opacity: 1; white-space: pre;">200k</text></g><g class="ytick"><text text-anchor="end" x="59" y="4.199999999999999" transform="translate(0,116.64)" style="font-family: 'Open Sans', verdana, arial, sans-serif; font-size: 12px; fill: rgb(68, 68, 68); fill-opacity: 1; white-space: pre;">250k</text></g><g class="ytick"><text text-anchor="end" x="59" y="4.199999999999999" transform="translate(0,47.55)" style="font-family: 'Open Sans', verdana, arial, sans-serif; font-size: 12px; fill: rgb(68, 68, 68); fill-opacity: 1; white-space: pre;">300k</text></g></g><g class="overaxes-above"/></g></g><g class="polarlayer"/><g class="ternarylayer"/><g class="geolayer"/><g class="pielayer"/><g class="glimages"/><defs id="topdefs-f5b2f4"><g class="clips"/><clipPath id="legendf5b2f4"><rect width="126" height="105" x="0" y="0"/></clipPath></defs><g class="layer-above"><g class="imagelayer"/><g class="shapelayer"/></g><g class="infolayer"><g class="legend" pointer-events="all" transform="translate(663.84, 25)"><rect class="bg" shape-rendering="crispEdges" style="stroke: rgb(68, 68, 68); stroke-opacity: 1; fill: rgb(255, 255, 255); fill-opacity: 1; stroke-width: 0px;" width="126" height="105" x="0" y="0"/><g class="scrollbox" transform="translate(0, 0)" clip-path="url(#legendf5b2f4)"><g class="groups"><g class="traces" transform="translate(0, 14.5)" style="opacity: 1;"><g class="layers" style="opacity: 1;"><g class="legendfill"/><g class="legendlines"><path class="js-line" d="M5,0h30" style="fill: none; stroke: rgb(31, 119, 180); stroke-opacity: 1; stroke-dasharray: 9px, 3px, 3px, 3px; stroke-width: 2px;"/></g><g class="legendsymbols"><g class="legendpoints"/></g></g><text class="legendtext user-select-none" text-anchor="start" x="40" y="4.680000000000001" style="font-family: 'Open Sans', verdana, arial, sans-serif; font-size: 12px; fill: rgb(68, 68, 68); fill-opacity: 1; white-space: pre;">Austin</text><rect class="legendtoggle" pointer-events="all" style="cursor: pointer; fill: rgb(0, 0, 0); fill-opacity: 0;" x="0" y="-9.5" width="166" height="19"/></g><g class="traces" transform="translate(0, 33.5)" style="opacity: 1;"><g class="layers" style="opacity: 1;"><g class="legendfill"/><g class="legendlines"><path class="js-line" d="M5,0h30" style="fill: none; stroke: rgb(255, 127, 14); stroke-opacity: 1; stroke-dasharray: 15px, 15px; stroke-width: 2px;"/></g><g class="legendsymbols"><g class="legendpoints"/></g></g><text class="legendtext user-select-none" text-anchor="start" x="40" y="4.680000000000001" style="font-family: 'Open Sans', verdana, arial, sans-serif; font-size: 12px; fill: rgb(68, 68, 68); fill-opacity: 1; white-space: pre;">Collin County</text><rect class="legendtoggle" pointer-events="all" style="cursor: pointer; fill: rgb(0, 0, 0); fill-opacity: 0;" x="0" y="-9.5" width="166" height="19"/></g><g class="traces" transform="translate(0, 52.5)" style="opacity: 1;"><g class="layers" style="opacity: 1;"><g class="legendfill"/><g class="legendlines"><path class="js-line" d="M5,0h30" style="fill: none; stroke: rgb(44, 160, 44); stroke-opacity: 1; stroke-dasharray: 9px, 9px; stroke-width: 2px;"/></g><g class="legendsymbols"><g class="legendpoints"/></g></g><text class="legendtext user-select-none" text-anchor="start" x="40" y="4.680000000000001" style="font-family: 'Open Sans', verdana, arial, sans-serif; font-size: 12px; fill: rgb(68, 68, 68); fill-opacity: 1; white-space: pre;">Dallas</text><rect class="legendtoggle" pointer-events="all" style="cursor: pointer; fill: rgb(0, 0, 0); fill-opacity: 0;" x="0" y="-9.5" width="166" height="19"/></g><g class="traces" transform="translate(0, 71.5)" style="opacity: 1;"><g class="layers" style="opacity: 1;"><g class="legendfill"/><g class="legendlines"><path class="js-line" d="M5,0h30" style="fill: none; stroke: rgb(214, 39, 40); stroke-opacity: 1; stroke-width: 2px;"/></g><g class="legendsymbols"><g class="legendpoints"/></g></g><text class="legendtext user-select-none" text-anchor="start" x="40" y="4.680000000000001" style="font-family: 'Open Sans', verdana, arial, sans-serif; font-size: 12px; fill: rgb(68, 68, 68); fill-opacity: 1; white-space: pre;">Houston</text><rect class="legendtoggle" pointer-events="all" style="cursor: pointer; fill: rgb(0, 0, 0); fill-opacity: 0;" x="0" y="-9.5" width="166" height="19"/></g><g class="traces" transform="translate(0, 90.5)" style="opacity: 1;"><g class="layers" style="opacity: 1;"><g class="legendfill"/><g class="legendlines"><path class="js-line" d="M5,0h30" style="fill: none; stroke: rgb(148, 103, 189); stroke-opacity: 1; stroke-dasharray: 3px, 3px; stroke-width: 2px;"/></g><g class="legendsymbols"><g class="legendpoints"/></g></g><text class="legendtext user-select-none" text-anchor="start" x="40" y="4.680000000000001" style="font-family: 'Open Sans', verdana, arial, sans-serif; font-size: 12px; fill: rgb(68, 68, 68); fill-opacity: 1; white-space: pre;">San Antonio</text><rect class="legendtoggle" pointer-events="all" x="0" y="-9.5" width="166" height="19" style="cursor: pointer; fill: rgb(0, 0, 0); fill-opacity: 0;"/></g></g></g><rect class="scrollbar" rx="20" ry="3" width="0" height="0" style="fill: rgb(128, 139, 164); fill-opacity: 1;" x="0" y="0"/></g><g class="g-gtitle"/><g class="g-xtitle" transform="translate(0,-15)"><text class="xtitle" x="356" y="412" text-anchor="middle" style="font-family: 'Open Sans', verdana, arial, sans-serif; font-size: 14px; fill: rgb(68, 68, 68); opacity: 1; font-weight: normal; white-space: pre;">date</text></g><g class="g-ytitle"><text class="ytitle" transform="rotate(-90,22,192.5)" x="22" y="192.5" text-anchor="middle" style="font-family: 'Open Sans', verdana, arial, sans-serif; font-size: 14px; fill: rgb(68, 68, 68); opacity: 1; font-weight: normal; white-space: pre;">median</text></g></g></svg>