<svg class="main-svg" xmlns="http://www.w3.org/2000/svg" xmlns:xlink="http://www.w3.org/1999/xlink" width="800" height="400" viewBox="0 0 800 400"><rect x="0" y="0" width="800" height="400" style="fill: rgb(255, 255, 255); fill-opacity: 1;"/><defs id="defs-22cacb"><g class="clips"><clipPath id="clip22cacbxyplot" class="plotclip"><rect width="730" height="335"/></clipPath><clipPath class="axesclip" id="clip22cacbx"><rect x="60" y="0" width="730" height="400"/></clipPath><clipPath class="axesclip" id="clip22cacby"><rect x="0" y="25" width="800" height="335"/></clipPath><clipPath class="axesclip" id="clip22cacbxy"><rect x="60" y="25" width="730" height="335"/></clipPath></g><g class="gradients"/></defs><g class="bglayer"/><g class="layer-below"><g class="imagelayer"/><g class="shapelayer"/></g><g class="cartesianlayer"><g class="subplot xy"><g class="layer-subplot"><g class="shapelayer"/><g class="imagelayer"/></g><g class="gridlayer"><g class="x"><path class="xgrid crisp" d="M0,25v335" transform="translate(78.76,0)" style="stroke: rgb(238, 238, 238); stroke-opacity: 1; stroke-width: 1px;"/><path class="xgrid crisp" d="M0,25v335" transform="translate(172.55,0)" style="stroke: rgb(238, 238, 238); stroke-opacity: 1; stroke-width: 1px;"/><path class="xgrid crisp" d="M0,25v335" transform="translate(266.34000000000003,0)" style="stroke: rgb(238, 238, 238); stroke-opacity: 1; stroke-width: 1px;"/><path class="xgrid crisp" d="M0,25v335" transform="translate(360.13,0)" style="stroke: rgb(238, 238, 238); stroke-opacity: 1; stroke-width: 1px;"/><path class="xgrid crisp" d="M0,25v335" transform="translate(453.92,0)" style="stroke: rgb(238, 238, 238); stroke-opacity: 1; stroke-width: 1px;"/><path class="xgrid crisp" d="M0,25v335" transform="translate(547.71,0)" style="stroke: rgb(238, 238, 238); stroke-opacity: 1; stroke-width: 1px;"/><path class="xgrid crisp" d="M0,25v335" transform="translate(641.5,0)" style="stroke: rgb(238, 238, 238); stroke-opacity: 1; stroke-width: 1px;"/><path class="xgrid crisp" d="M0,25v335" transform="translate(735.29,0)" style="stroke: rgb(238, 238, 238); stroke-opacity: 1; stroke-width: 1px;"/></g><g class="y"><path class="ygrid crisp" d="M60,0h730" transform="translate(0,304.93)" style="stroke: rgb(238, 238, 238); stroke-opacity: 1; stroke-width: 1px;"/><path class="ygrid crisp" d="M60,0h730" transform="translate(0,248.74)" style="stroke: rgb(238, 238, 238); stroke-opacity: 1; stroke-width: 1px;"/><path class="ygrid crisp" d="M60,0h730" transform="translate(0,192.56)" style="stroke: rgb(238, 238, 238); stroke-opacity: 1; stroke-width: 1px;"/><path class="ygrid crisp" d="M60,0h730" transform="translate(0,136.37)" style="stroke: rgb(238, 238, 238); stroke-opacity: 1; stroke-width: 1px;"/><path class="ygrid crisp" d="M60,0h730" transform="translate(0,80.18)" style="stroke: rgb(238, 238, 238); stroke-opacity: 1; stroke-width: 1px;"/></g></g><g class="zerolinelayer"/><path class="xlines-below"/><path class="ylines-below"/><g class="overlines-below"/><g class="xaxislayer-below"/><g class="yaxislayer-below"/><g class="overaxes-below"/><g class="plot" transform="translate(60, 25)" clip-path="url(#clip22cacbxyplot)"><g class="scatterlayer mlayer"><g class="trace scatter trace4fdf7f" style="stroke-miterlimit: 2; opacity: 1;"><g class="fills"/><g class="errorbars"/><g class="lines"><path class="js-line" d="M0,305.66L1.56,300.66L3.13,299.6L6.25,290.44L7.82,291.17L12.51,315.44L14.07,318.25L17.19,305.61L18.76,300.89L21.88,294.43L23.45,286.28L25.01,280.66L26.57,283.13L28.14,291.11L29.7,303.87L31.26,313.64L32.83,315.44L37.52,298.3L39.08,293.75L43.77,277.57L45.33,282.12L46.9,288.81L48.46,298.87L50.02,308.98L51.58,307.12L57.84,288.92L59.4,282.57L60.96,277.57L62.53,275.15L64.09,277.4L65.65,283.02L68.78,301.79L70.34,306.51L75.03,287.91L76.6,286L78.16,281.62L79.72,273.08L81.28,268.24L82.85,272.57L87.54,302.12L89.1,303.36L95.35,279.54L96.92,275.77L100.04,268.36L101.61,270.21L104.73,288.13L106.3,299.37L107.86,298.42L109.42,293.81L114.11,278.36L115.67,275.83L117.24,268.86L118.8,268.69L120.36,270.32L121.93,274.03L123.49,287.18L125.05,293.08L126.62,296L128.18,287.23L129.74,284.14L131.31,277.35L136,260.04L137.56,257.96L139.12,259.76L140.69,267.34L143.81,288.47L145.37,291.5L150.06,267.74L151.63,266.78L153.19,263.75L154.75,256.05L156.32,252.79L157.88,257.85L162.57,284.99L164.13,284.2L167.26,269.82L168.82,266.45L171.95,258.97L173.51,252.62L175.07,249.59L176.64,250.71L178.2,257.57L179.76,268.97L181.33,278.92L182.89,279.42L187.58,258.41L189.14,255.99L192.27,243.41L193.83,239.42L196.96,247.79L198.52,260.26L200.09,267.46L201.65,270.83L211.03,235.15L212.59,235.49L214.15,237.79L215.72,245.21L218.84,263.47L220.41,263.64L226.66,243.35L228.22,240.54L229.79,237.12L231.35,230.71L232.91,232.73L234.48,239.48L237.6,261.95L239.16,260.83L243.85,242.85L245.42,237.96L246.98,237.34L248.54,226.22L250.11,224.31L251.67,229.81L253.23,235.65L254.8,245.32L256.36,253.63L257.92,251.61L262.61,232.9L264.18,227.11L265.74,222.96L267.3,216.27L268.87,210.76L270.43,213.07L273.55,228.52L275.12,238.63L276.68,240.49L278.24,235.04L281.37,228.35L282.93,220.65L284.5,216.33L286.06,209.81L287.62,207.34L289.19,212.06L290.75,218.07L292.31,228.07L293.88,239.08L295.44,239.42L301.69,216.72L303.25,213.24L306.38,202.39L307.94,204.47L312.63,232.73L314.2,234.03L320.45,210.31L322.01,205.03L323.58,198.96L325.14,197.28L326.7,200.31L328.27,207.51L331.39,228.58L332.96,230.6L337.64,208.29L339.21,205.54L343.9,186.83L345.46,189.47L347.02,197L348.59,209.19L350.15,215.76L351.71,218.24L356.4,196.77L357.97,194.41L361.09,181.1L362.66,179.69L364.22,180.37L365.78,187.95L368.91,209.13L370.47,210.37L375.16,189.75L376.72,186.72L379.85,174.8L381.41,171.49L382.98,172.5L384.54,181.27L387.67,202.67L389.23,202.95L393.92,179.69L395.48,177.73L397.04,168.06L398.61,164.18L400.17,160.31L401.73,161.94L406.42,191.6L407.99,190.93L417.37,154.46L418.93,152.16L420.49,155.87L422.06,165.76L425.18,187.11L426.75,186.21L431.43,164.35L433,159.47L436.12,148.51L437.69,145.31L439.25,149.69L440.81,156.99L443.94,179.86L445.5,180.54L450.19,160.81L451.76,154.35L453.32,151.09L454.88,140.75L456.45,136.2L458.01,138.68L461.13,155.14L462.7,169.3L464.26,168.57L465.82,162.05L467.39,151.71L468.95,147.78L472.08,138.84L473.64,128.9L475.2,126.82L476.77,130.36L478.33,138.23L479.89,150.08L481.46,162.5L483.02,160.93L486.15,144.86L487.71,140.64L492.4,121.65L493.96,118.45L495.52,122.21L497.09,131.71L500.21,151.15L501.78,152.84L504.9,137.33L506.47,133.23L509.59,124.4L511.16,114.91L512.72,111.2L514.28,114.91L518.97,141.26L520.54,145.14L525.22,123.51L526.79,120.98L528.35,115.7L529.91,106.87L531.48,102.04L533.04,105.36L537.73,132.33L539.29,132.83L545.55,102.72L547.11,99.85L548.67,92.21L550.24,88.67L551.8,91.03L553.36,98.9L556.49,119.52L558.05,118.56L562.74,96.76L564.3,94.96L565.87,91.54L567.43,81.81L568.99,80.35L570.56,83.44L572.12,90.3L573.68,102.83L575.25,113.39L576.81,112.32L583.06,85.8L584.63,81.98L587.75,72.04L589.31,77.26L592.44,95.86L594,106.76L595.57,105.53L597.13,96.25L598.69,88.5L600.26,85.58L603.38,71.87L604.95,63.72L606.51,59.56L608.07,65.75L612.76,99.85L614.33,99.51L617.45,83.89L619.01,78.33L622.14,67.99L623.7,60.41L625.27,57.54L626.83,59.85L631.52,94.85L633.08,93.22L636.21,81.42L637.77,74.12L639.34,71.48L640.9,64.62L644.03,53.89L645.59,57.71L650.28,90.75L651.84,89.18L656.53,64.51L658.09,61.42L661.22,48.16L662.78,45.8L664.35,49.9L665.91,57.71L669.04,78.56L670.6,77.66L673.73,60.52L675.29,55.29L678.42,45.85L679.98,35.63L681.54,33.72L683.1,36.64L684.67,44.28L686.23,57.99L687.79,65.8L689.36,67.54L692.48,51.02L694.05,43.44L697.17,32.37L698.74,28.44L700.3,24.56L701.86,27.03L703.43,34.39L704.99,46.53L706.55,57.94L708.12,57.15L712.81,37.03L714.37,32.37L715.93,29.28L717.49,19.22L719.06,16.75L720.62,23.27L722.18,29.79L723.75,40.74L725.31,53.83L726.87,50.52L730,30.8" style="vector-effect: non-scaling-stroke; fill: none; stroke: rgb(31, 119, 180); stroke-opacity: 1; stroke-width: 2px; opacity: 1;"/></g><g class="points"/><g class="text"/></g></g></g><g class="overplot"/><path class="xlines-above crisp" d="M0,0" style="fill: none;"/><path class="ylines-above crisp" d="M0,0" style="fill: none;"/><g class="overlines-above"/><g class="xaxislayer-above"><g class="xtick"><text text-anchor="middle" x="0" y="373" transform="translate(78.76,0)" style="font-family: 'Open Sans', verdana, arial, sans-serif; font-size: 12px; fill: rgb(68, 68, 68); fill-opacity: 1; white-space: pre;">1960</text></g><g class="xtick"><text text-anchor="middle" x="0" y="373" transform="translate(172.55,0)" style="font-family: 'Open Sans', verdana, arial, sans-serif; font-size: 12px; fill: rgb(68, 68, 68); fill-opacity: 1; white-space: pre;">1965</text></g><g class="xtick"><text text-anchor="middle" x="0" y="373" transform="translate(266.34000000000003,0)" style="font-family: 'Open Sans', verdana, arial, sans-serif; font-size: 12px; fill: rgb(68, 68, 68); fill-opacity: 1; white-space: pre;">1970</text></g><g class="xtick"><text text-anchor="middle" x="0" y="373" transform="translate(360.13,0)" style="font-family: 'Open Sans', verdana, arial, sans-serif; font-size: 12px; fill: rgb(68, 68, 68); fill-opacity: 1; white-space: pre;">1975</text></g><g class="xtick"><text text-anchor="middle" x="0" y="373" transform="translate(453.92,0)" style="font-family: 'Open Sans', verdana, arial, sans-serif; font-size: 12px; fill: rgb(68, 68, 68); fill-opacity: 1; white-space: pre;">1980</text></g><g class="xtick"><text text-anchor="middle" x="0" y="373" transform="translate(547.71,0)" style="font-family: 'Open Sans', verdana, arial, sans-serif; font-size: 12px; fill: rgb(68, 68, 68); fill-opacity: 1; white-space: pre;">1985</text></g><g class="xtick"><text text-anchor="middle" x="0" y="373" transform="translate(641.5,0)" style="font-family: 'Open Sans', verdana, arial, sans-serif; font-size: 12px; fill: rgb(68, 68, 68); fill-opacity: 1; white-space: pre;">1990</text></g><g class="xtick"><text text-anchor="middle" x="0" y="373" transform="translate(735.29,0)" style="font-family: 'Open Sans', verdana, arial, sans-serif; font-size: 12px; fill: rgb(68, 68, 68); fill-opacity: 1; white-space: pre;">1995</text></g></g><g class="yaxislayer-above"><g class="ytick"><text text-anchor="end" x="59" y="4.199999999999999" transform="translate(0,304.93)" style="font-family: 'Open Sans', verdana, arial, sans-serif; font-size: 12px; fill: rgb(68, 68, 68); fill-opacity: 1; white-space: pre;">320</text></g><g class="ytick"><text text-anchor="end" x="59" y="4.199999999999999" transform="translate(0,248.74)" style="font-family: 'Open Sans', verdana, arial, sans-serif; font-size: 12px; fill: rgb(68, 68, 68); fill-opacity: 1; white-space: pre;">330</text></g><g class="ytick"><text text-anchor="end" x="59" y="4.199999999999999" transform="translate(0,192.56)" style="font-family: 'Open Sans', verdana, arial, sans-serif; font-size: 12px; fill: rgb(68, 68, 68); fill-opacity: 1; white-space: pre;">340</text></g><g class="ytick"><text text-anchor="end" x="59" y="4.199999999999999" transform="translate(0,136.37)" style="font-family: 'Open Sans', verdana, arial, sans-serif; font-size: 12px; fill: rgb(68, 68, 68); fill-opacity: 1; white-space: pre;">350</text></g><g class="ytick"><text text-anchor="end" x="59" y="4.199999999999999" transform="translate(0,80.18)" style="font-family: 'Open Sans', verdana, arial, sans-serif; font-size: 12px; fill: rgb(68, 68, 68); fill-opacity: 1; white-space: pre;">360</text></g></g><g class="overaxes-above"/></g></g><g class="polarlayer"/><g class="ternarylayer"/><g class="geolayer"/><g class="pielayer"/><g class="glimages"/><defs id="topdefs-22cacb"><g class="clips"/></defs><g class="layer-above"><g class="imagelayer"/><g class="shapelayer"/></g><g class="infolayer"><g class="g-gtitle"><text class="gtitle" x="400" y="12.5" text-anchor="middle" style="font-family: 'Open Sans', verdana, arial, sans-serif; font-size: 17px; fill: rgb(68, 68, 68); opacity: 1; font-weight: normal; white-space: pre;">$CO_2 \text{measured in } \frac{parts}{million}$</text></g><g class="g-xtitle" transform="translate(0,-15)"><text class="xtitle" x="425" y="412" text-anchor="middle" style="font-family: 'Open Sans', verdana, arial, sans-serif; font-size: 14px; fill: rgb(68, 68, 68); opacity: 1; font-weight: normal; white-space: pre;">Time</text></g><g class="g-ytitle"><text class="ytitle" transform="rotate(-90,22,192.5)" x="22" y="192.5" text-anchor="middle" style="font-family: 'Open Sans', verdana, arial, sans-serif; font-size: 14px; fill: rgb(68, 68, 68); opacity: 1; font-weight: normal; white-space: pre;">$\text{Atmospheric concentraion of CO}_2$</text></g></g></svg>