<svg class="main-svg" xmlns="http://www.w3.org/2000/svg" xmlns:xlink="http://www.w3.org/1999/xlink" width="900" height="600" viewBox="0 0 900 600"><rect x="0" y="0" width="900" height="600" style="fill: rgb(255, 255, 255); fill-opacity: 1;"/><defs id="defs-a246ef"><g class="clips"><clipPath id="clipa246efxyplot" class="plotclip"><rect width="830" height="510"/></clipPath><clipPath class="axesclip" id="clipa246efx"><rect x="60" y="0" width="830" height="600"/></clipPath><clipPath class="axesclip" id="clipa246efy"><rect x="0" y="50" width="900" height="510"/></clipPath><clipPath class="axesclip" id="clipa246efxy"><rect x="60" y="50" width="830" height="510"/></clipPath></g><g class="gradients"/></defs><g class="bglayer"/><g class="layer-below"><g class="imagelayer"/><g class="shapelayer"/></g><g class="cartesianlayer"><g class="subplot xy"><g class="layer-subplot"><g class="shapelayer"/><g class="imagelayer"/></g><g class="gridlayer"><g class="x"><path class="xgrid crisp" d="M0,50v510" transform="translate(81.33,0)" style="stroke: rgb(238, 238, 238); stroke-opacity: 1; stroke-width: 1px;"/><path class="xgrid crisp" d="M0,50v510" transform="translate(187.97,0)" style="stroke: rgb(238, 238, 238); stroke-opacity: 1; stroke-width: 1px;"/><path class="xgrid crisp" d="M0,50v510" transform="translate(294.6,0)" style="stroke: rgb(238, 238, 238); stroke-opacity: 1; stroke-width: 1px;"/><path class="xgrid crisp" d="M0,50v510" transform="translate(401.24,0)" style="stroke: rgb(238, 238, 238); stroke-opacity: 1; stroke-width: 1px;"/><path class="xgrid crisp" d="M0,50v510" transform="translate(507.88,0)" style="stroke: rgb(238, 238, 238); stroke-opacity: 1; stroke-width: 1px;"/><path class="xgrid crisp" d="M0,50v510" transform="translate(614.52,0)" style="stroke: rgb(238, 238, 238); stroke-opacity: 1; stroke-width: 1px;"/><path class="xgrid crisp" d="M0,50v510" transform="translate(721.16,0)" style="stroke: rgb(238, 238, 238); stroke-opacity: 1; stroke-width: 1px;"/><path class="xgrid crisp" d="M0,50v510" transform="translate(827.79,0)" style="stroke: rgb(238, 238, 238); stroke-opacity: 1; stroke-width: 1px;"/></g><g class="y"><path class="ygrid crisp" d="M60,0h830" transform="translate(0,476.16)" style="stroke: rgb(238, 238, 238); stroke-opacity: 1; stroke-width: 1px;"/><path class="ygrid crisp" d="M60,0h830" transform="translate(0,390.62)" style="stroke: rgb(238, 238, 238); stroke-opacity: 1; stroke-width: 1px;"/><path class="ygrid crisp" d="M60,0h830" transform="translate(0,305.09000000000003)" style="stroke: rgb(238, 238, 238); stroke-opacity: 1; stroke-width: 1px;"/><path class="ygrid crisp" d="M60,0h830" transform="translate(0,219.55)" style="stroke: rgb(238, 238, 238); stroke-opacity: 1; stroke-width: 1px;"/><path class="ygrid crisp" d="M60,0h830" transform="translate(0,134.01)" style="stroke: rgb(238, 238, 238); stroke-opacity: 1; stroke-width: 1px;"/></g></g><g class="zerolinelayer"/><path class="xlines-below"/><path class="ylines-below"/><g class="overlines-below"/><g class="xaxislayer-below"/><g class="yaxislayer-below"/><g class="overaxes-below"/><g class="plot" transform="translate(60, 50)" clip-path="url(#clipa246efxyplot)"><g class="scatterlayer mlayer"><g class="trace scatter trace95f544" style="stroke-miterlimit: 2; opacity: 1;"><g class="fills"/><g class="errorbars"/><g class="lines"><path class="js-line" d="M0,465.34L1.78,457.73L3.55,456.1L5.33,447.03L7.11,442.16L8.89,443.27L10.66,457.04L12.44,471.93L14.22,480.22L16,484.5L17.77,471.84L23.1,453.45L24.88,448.23L28.44,427.27L30.21,431.04L31.99,443.18L33.77,462.6L35.55,477.49L37.32,480.22L42.66,454.13L44.43,447.21L49.76,422.57L51.54,429.5L53.32,439.68L55.1,454.99L56.87,470.39L58.65,467.56L65.76,439.85L67.54,430.18L69.31,422.57L71.09,418.89L72.87,422.31L74.65,430.87L76.42,449.69L78.2,459.44L79.98,466.62L81.76,455.84L85.31,438.31L87.09,435.4L88.87,428.73L90.64,415.73L92.42,408.37L94.2,414.96L99.53,459.95L101.31,461.83L108.42,425.56L110.19,419.83L113.75,408.54L115.52,411.36L119.08,438.65L120.86,455.76L122.63,454.3L124.41,447.29L129.74,423.77L131.52,419.92L133.3,409.31L135.07,409.05L136.85,411.54L138.63,417.18L140.41,437.2L142.18,446.18L143.96,450.63L145.74,437.28L147.52,432.58L149.29,422.23L154.63,395.88L156.4,392.72L158.18,395.45L159.96,407L163.51,439.16L165.29,443.78L168.84,418.72L170.62,407.6L172.4,406.15L174.18,401.53L175.95,389.81L177.73,384.85L179.51,392.55L181.28,405.8L184.84,433.86L186.62,432.66L190.17,410.77L191.95,405.63L195.5,394.26L197.28,384.59L199.06,379.97L200.84,381.68L202.61,392.12L204.39,409.48L206.17,424.62L207.94,425.39L209.72,416.24L211.5,402.73L213.28,393.4L215.05,389.72L218.61,370.56L220.39,364.49L223.94,377.23L225.72,396.22L227.49,407.17L229.27,412.31L239.94,357.99L241.71,358.5L243.49,362.01L245.27,373.3L248.82,401.1L250.6,401.36L255.93,374.75L257.71,370.48L261.26,360.98L263.04,351.23L264.82,354.31L266.6,364.57L270.15,398.79L271.93,397.08L277.26,369.71L279.04,362.27L280.81,361.32L282.59,344.39L284.37,341.48L286.15,349.86L287.92,358.76L289.7,373.47L291.48,386.13L293.25,383.05L296.81,362.95L298.59,354.57L305.7,320.86L307.47,324.37L311.03,347.89L312.81,363.29L314.58,366.11L316.36,357.82L319.91,347.64L321.69,335.92L323.47,329.33L325.25,319.41L327.02,315.65L328.8,322.83L330.58,331.98L332.36,347.21L334.13,363.98L335.91,364.49L343.02,329.93L344.8,324.63L346.57,313.77L348.35,308.12L350.13,311.28L351.91,325.83L355.46,354.31L357.24,356.28L362.57,327.11L364.35,320.18L367.9,302.9L369.68,300.34L371.46,304.95L373.23,315.9L376.79,347.98L378.57,351.06L383.9,317.1L385.67,312.91L389.23,290.16L391.01,284.43L392.78,288.45L394.56,299.91L396.34,318.47L398.12,328.48L399.89,332.24L401.67,321.46L405.22,299.57L407,295.97L410.56,275.7L412.33,273.56L414.11,274.59L415.89,286.14L419.44,318.38L421.22,320.27L426.55,288.87L428.33,284.25L431.88,266.12L433.66,261.07L435.44,262.61L437.22,275.96L440.77,308.55L442.55,308.97L447.88,273.56L449.66,270.57L451.43,255.86L453.21,249.95L454.99,244.05L456.77,246.53L462.1,291.7L463.88,290.67L474.54,235.16L476.32,231.65L478.09,237.29L479.87,252.35L483.43,284.85L485.2,283.48L490.54,250.21L492.31,242.77L495.87,226.09L497.64,221.21L499.42,227.88L501.2,239L504.75,273.82L506.53,274.84L510.09,252.35L511.86,244.82L513.64,234.98L515.42,230.02L517.19,214.28L518.97,207.36L520.75,211.12L522.53,222.5L524.3,236.18L526.08,257.74L527.86,256.63L529.64,246.7L531.41,230.96L533.19,224.98L536.75,211.38L538.52,196.23L540.3,193.07L542.08,198.46L543.85,210.43L545.63,228.48L547.41,247.39L549.19,244.99L552.74,220.53L554.52,214.11L559.85,185.2L561.63,180.32L563.4,186.06L565.18,200.51L568.74,230.11L570.51,232.67L574.07,209.07L575.85,202.82L579.4,189.39L581.18,174.94L582.96,169.29L584.73,174.94L590.06,215.05L591.84,220.96L597.17,188.02L598.95,184.17L600.73,176.13L602.51,162.7L604.28,155.35L606.06,160.39L611.39,201.45L613.17,202.22L620.28,156.37L622.06,152.01L623.83,140.38L625.61,134.99L627.39,138.58L629.16,150.56L632.72,181.95L634.5,180.5L639.83,147.31L641.61,144.57L643.38,139.35L645.16,124.55L646.94,122.33L648.72,127.03L650.49,137.47L652.27,156.55L654.05,172.63L655.82,171L662.93,130.63L664.71,124.81L668.27,109.67L670.04,117.63L673.6,145.94L675.37,162.53L677.15,160.65L678.93,146.54L680.71,134.73L682.48,130.28L686.04,109.41L687.82,97.01L689.59,90.68L691.37,100.09L696.7,152.01L698.48,151.5L702.03,127.72L703.81,119.25L705.59,112.83L707.37,103.51L709.14,91.96L710.92,87.6L712.7,91.11L714.48,110.18L718.03,144.4L719.81,141.92L721.58,134.56L723.36,123.95L725.14,112.83L726.92,108.81L730.47,89.06L732.25,82.04L734.03,87.86L735.8,105.14L739.36,138.15L741.13,135.76L746.47,98.21L748.24,93.5L751.8,73.32L753.58,69.72L755.35,75.97L757.13,87.86L760.69,119.59L762.46,118.22L766.02,92.13L767.79,84.18L771.35,69.81L773.13,54.24L774.9,51.33L776.68,55.78L778.46,67.41L780.24,88.29L782.01,100.18L783.79,102.83L787.34,77.68L789.12,66.13L792.68,49.28L794.45,43.29L796.23,37.39L798.01,41.15L799.79,52.36L801.56,70.84L803.34,88.2L805.12,87L810.45,56.38L812.23,49.28L814,44.58L815.78,29.26L817.56,25.5L819.34,35.42L821.11,45.34L822.89,62.02L824.67,81.96L826.45,76.91L830,46.88" style="vector-effect: non-scaling-stroke; fill: none; stroke: rgb(31, 119, 180); stroke-opacity: 1; stroke-width: 2px; opacity: 1;"/></g><g class="points"/><g class="text"/></g></g></g><g class="overplot"/><path class="xlines-above crisp" d="M0,0" style="fill: none;"/><path class="ylines-above crisp" d="M0,0" style="fill: none;"/><g class="overlines-above"/><g class="xaxislayer-above"><g class="xtick"><text text-anchor="middle" x="0" y="573" transform="translate(81.33,0)" style="font-family: 'Open Sans', verdana, arial, sans-serif; font-size: 12px; fill: rgb(68, 68, 68); fill-opacity: 1; white-space: pre;">1960</text></g><g class="xtick"><text text-anchor="middle" x="0" y="573" transform="translate(187.97,0)" style="font-family: 'Open Sans', verdana, arial, sans-serif; font-size: 12px; fill: rgb(68, 68, 68); fill-opacity: 1; white-space: pre;">1965</text></g><g class="xtick"><text text-anchor="middle" x="0" y="573" transform="translate(294.6,0)" style="font-family: 'Open Sans', verdana, arial, sans-serif; font-size: 12px; fill: rgb(68, 68, 68); fill-opacity: 1; white-space: pre;">1970</text></g><g class="xtick"><text text-anchor="middle" x="0" y="573" transform="translate(401.24,0)" style="font-family: 'Open Sans', verdana, arial, sans-serif; font-size: 12px; fill: rgb(68, 68, 68); fill-opacity: 1; white-space: pre;">1975</text></g><g class="xtick"><text text-anchor="middle" x="0" y="573" transform="translate(507.88,0)" style="font-family: 'Open Sans', verdana, arial, sans-serif; font-size: 12px; fill: rgb(68, 68, 68); fill-opacity: 1; white-space: pre;">1980</text></g><g class="xtick"><text text-anchor="middle" x="0" y="573" transform="translate(614.52,0)" style="font-family: 'Open Sans', verdana, arial, sans-serif; font-size: 12px; fill: rgb(68, 68, 68); fill-opacity: 1; white-space: pre;">1985</text></g><g class="xtick"><text text-anchor="middle" x="0" y="573" transform="translate(721.16,0)" style="font-family: 'Open Sans', verdana, arial, sans-serif; font-size: 12px; fill: rgb(68, 68, 68); fill-opacity: 1; white-space: pre;">1990</text></g><g class="xtick"><text text-anchor="middle" x="0" y="573" transform="translate(827.79,0)" style="font-family: 'Open Sans', verdana, arial, sans-serif; font-size: 12px; fill: rgb(68, 68, 68); fill-opacity: 1; white-space: pre;">1995</text></g></g><g class="yaxislayer-above"><g class="ytick"><text text-anchor="end" x="59" y="4.199999999999999" transform="translate(0,476.16)" style="font-family: 'Open Sans', verdana, arial, sans-serif; font-size: 12px; fill: rgb(68, 68, 68); fill-opacity: 1; white-space: pre;">320</text></g><g class="ytick"><text text-anchor="end" x="59" y="4.199999999999999" transform="translate(0,390.62)" style="font-family: 'Open Sans', verdana, arial, sans-serif; font-size: 12px; fill: rgb(68, 68, 68); fill-opacity: 1; white-space: pre;">330</text></g><g class="ytick"><text text-anchor="end" x="59" y="4.199999999999999" transform="translate(0,305.09000000000003)" style="font-family: 'Open Sans', verdana, arial, sans-serif; font-size: 12px; fill: rgb(68, 68, 68); fill-opacity: 1; white-space: pre;">340</text></g><g class="ytick"><text text-anchor="end" x="59" y="4.199999999999999" transform="translate(0,219.55)" style="font-family: 'Open Sans', verdana, arial, sans-serif; font-size: 12px; fill: rgb(68, 68, 68); fill-opacity: 1; white-space: pre;">350</text></g><g class="ytick"><text text-anchor="end" x="59" y="4.199999999999999" transform="translate(0,134.01)" style="font-family: 'Open Sans', verdana, arial, sans-serif; font-size: 12px; fill: rgb(68, 68, 68); fill-opacity: 1; white-space: pre;">360</text></g></g><g class="overaxes-above"/></g></g><g class="polarlayer"/><g class="ternarylayer"/><g class="geolayer"/><g class="pielayer"/><g class="glimages"/><defs id="topdefs-a246ef"><g class="clips"/></defs><g class="layer-above"><g class="imagelayer"/><g class="shapelayer"/></g><g class="infolayer"><g class="g-gtitle"><text class="gtitle" x="450" y="25" text-anchor="middle" style="font-family: 'Open Sans', verdana, arial, sans-serif; font-size: 17px; fill: rgb(68, 68, 68); opacity: 1; font-weight: normal; white-space: pre;">$CO_2 \text{measured in } \frac{parts}{million}$</text></g><g class="g-xtitle" transform="translate(0,-15)"><text class="xtitle" x="475" y="612" text-anchor="middle" style="font-family: 'Open Sans', verdana, arial, sans-serif; font-size: 14px; fill: rgb(68, 68, 68); opacity: 1; font-weight: normal; white-space: pre;">Time</text></g><g class="g-ytitle"><text class="ytitle" transform="rotate(-90,22,305)" x="22" y="305" text-anchor="middle" style="font-family: 'Open Sans', verdana, arial, sans-serif; font-size: 14px; fill: rgb(68, 68, 68); opacity: 1; font-weight: normal; white-space: pre;">$\text{Atmospheric concentraion of CO}_2$</text></g></g></svg>