<?xml version="1.0" encoding="utf-8"?>
<!-- Generator: Adobe Illustrator 22.0.1, SVG Export Plug-In . SVG Version: 6.00 Build 0)  -->
<svg version="1.1" id="Layer_1" xmlns="http://www.w3.org/2000/svg" xmlns:xlink="http://www.w3.org/1999/xlink" x="0px" y="0px"
	 viewBox="0 0 155.2 22" style="enable-background:new 0 0 155.2 22;" xml:space="preserve">
<style type="text/css">
	.st0{fill:#74AADB;}
	.st1{fill:#4E4E4E;}
	.st2{fill:#FFFFFF;}
	.st3{enable-background:new    ;}
	.st4{fill:#4F4F4F;}
</style>
<g>
	<circle class="st0" cx="11" cy="11" r="11"/>
	<g>
		<path class="st1" d="M24.4,14.3c0.6,0.4,1.4,0.6,2.3,0.6c1.3,0,2.1-0.7,2.1-1.7c0-0.9-0.5-1.5-1.8-1.9c-1.6-0.6-2.6-1.4-2.6-2.8
			c0-1.5,1.3-2.7,3.2-2.7c1,0,1.7,0.2,2.2,0.5l-0.4,1c-0.3-0.2-1-0.5-1.8-0.5c-1.3,0-1.8,0.8-1.8,1.5c0,0.9,0.6,1.4,2,1.9
			c1.7,0.6,2.5,1.5,2.5,2.9c0,1.5-1.1,2.9-3.4,2.9c-0.9,0-2-0.3-2.5-0.6L24.4,14.3z"/>
		<path class="st1" d="M33.2,7v1.7H35v1h-1.8v3.8c0,0.9,0.2,1.4,1,1.4c0.4,0,0.5,0,0.7-0.1l0.1,1c-0.2,0.1-0.6,0.2-1.1,0.2
			c-0.6,0-1.1-0.2-1.4-0.6c-0.4-0.4-0.5-1-0.5-1.8V9.7h-1.1v-1H32V7.4L33.2,7z"/>
		<path class="st1" d="M42.4,13.9c0,0.7,0,1.4,0.1,1.9h-1.1l-0.1-1.2l0,0c-0.3,0.6-1.1,1.3-2.3,1.3c-1.1,0-2.4-0.6-2.4-3.1V8.7h1.3
			v3.9c0,1.3,0.4,2.3,1.6,2.3c0.9,0,1.5-0.6,1.7-1.2c0.1-0.2,0.1-0.4,0.1-0.7V8.7h1.3L42.4,13.9L42.4,13.9z"/>
		<path class="st1" d="M50.6,5.4V14c0,0.6,0,1.3,0.1,1.8h-1.1l-0.1-1.2l0,0c-0.4,0.8-1.2,1.4-2.4,1.4c-1.7,0-3-1.5-3-3.6
			c0-2.4,1.5-3.8,3.2-3.8c1.1,0,1.8,0.5,2.1,1.1l0,0V5.4H50.6z M49.4,11.6c0-0.2,0-0.4-0.1-0.6c-0.2-0.8-0.9-1.5-1.8-1.5
			c-1.3,0-2.1,1.2-2.1,2.7c0,1.4,0.7,2.6,2.1,2.6c0.9,0,1.6-0.6,1.9-1.5c0-0.2,0.1-0.4,0.1-0.6L49.4,11.6L49.4,11.6z"/>
		<path class="st1" d="M54.2,6.8c0,0.4-0.3,0.8-0.8,0.8s-0.8-0.4-0.8-0.8S52.9,6,53.4,6C53.9,5.9,54.2,6.3,54.2,6.8z M52.8,15.8V8.7
			h1.3v7.1C54.1,15.8,52.8,15.8,52.8,15.8z"/>
		<path class="st1" d="M62.6,12.2c0,2.6-1.8,3.8-3.5,3.8c-1.9,0-3.4-1.4-3.4-3.7c0-2.4,1.6-3.7,3.5-3.7
			C61.2,8.6,62.6,10.1,62.6,12.2z M57,12.3c0,1.5,0.9,2.7,2.1,2.7c1.2,0,2.2-1.2,2.2-2.8c0-1.2-0.6-2.7-2.1-2.7
			C57.7,9.6,57,11,57,12.3z"/>
	</g>
	<g>
		<path class="st2" d="M14.8,14.5H16v0.9h-1.8l-3-4.5H9.5v3.6h1.6v0.9h-4v-0.9h1.3V6.6L7.1,6.4V5.5c0.5,0.1,1,0.2,1.5,0.2
			c0.8,0,1.7-0.2,2.6-0.2c1.7,0,3.2,0.7,3.2,2.6c0,1.4-0.8,2.3-2.2,2.7L14.8,14.5z M9.5,10h0.9c2.1,0,2.9-0.8,2.9-1.8
			c0-1.3-0.9-1.8-2.1-1.8c-0.6,0-1.1,0-1.7,0.1C9.5,6.6,9.5,10,9.5,10z"/>
	</g>
</g>
<g class="st3">
	<path class="st4" d="M76.2,14.3c0,0,0.1,0,0.1,0.1l0.3,0.3c-0.2,0.2-0.5,0.4-0.7,0.6c-0.3,0.2-0.5,0.3-0.8,0.5
		c-0.3,0.1-0.6,0.2-1,0.3c-0.4,0.1-0.8,0.1-1.2,0.1c-0.7,0-1.4-0.1-2-0.4c-0.6-0.3-1.1-0.6-1.6-1.1s-0.8-1-1-1.7s-0.4-1.4-0.4-2.2
		s0.1-1.5,0.4-2.2s0.6-1.2,1.1-1.7c0.4-0.5,1-0.8,1.6-1.1c0.6-0.3,1.3-0.4,2.1-0.4c0.7,0,1.4,0.1,1.9,0.3c0.6,0.2,1.1,0.5,1.5,1
		L76.3,7c-0.1,0-0.2,0-0.3,0c0,0-0.1,0-0.2-0.1s-0.3-0.2-0.6-0.4c-0.2-0.1-0.5-0.3-0.9-0.4S73.5,6,73,6c-0.6,0-1.2,0.1-1.8,0.3
		c-0.5,0.2-1,0.5-1.4,0.9s-0.7,0.9-0.9,1.5c-0.2,0.6-0.3,1.3-0.3,2c0,0.8,0.1,1.4,0.3,2c0.2,0.6,0.5,1.1,0.9,1.5s0.8,0.7,1.3,0.9
		s1.1,0.3,1.7,0.3c0.4,0,0.7,0,1-0.1c0.3,0,0.6-0.1,0.8-0.2c0.2-0.1,0.5-0.2,0.7-0.4c0.2-0.1,0.4-0.3,0.6-0.5
		C76.1,14.3,76.1,14.3,76.2,14.3L76.2,14.3z"/>
	<path class="st4" d="M79.2,5.1V16h-0.7V5.1H79.2z"/>
	<path class="st4" d="M84.6,8.5c0.5,0,1,0.1,1.4,0.3s0.8,0.4,1.1,0.8s0.5,0.7,0.7,1.2s0.2,1,0.2,1.6s-0.1,1.1-0.2,1.6
		s-0.4,0.9-0.7,1.2S86.5,15.8,86,16c-0.4,0.2-0.9,0.3-1.4,0.3s-1-0.1-1.4-0.3s-0.8-0.4-1.1-0.8c-0.3-0.3-0.5-0.7-0.7-1.2
		s-0.2-1-0.2-1.6s0.1-1.1,0.2-1.6c0.2-0.5,0.4-0.9,0.7-1.2c0.3-0.3,0.7-0.6,1.1-0.8S84.1,8.5,84.6,8.5z M84.6,15.6
		c0.4,0,0.8-0.1,1.2-0.2c0.3-0.2,0.6-0.4,0.8-0.7c0.2-0.3,0.4-0.6,0.5-1s0.2-0.9,0.2-1.4s-0.1-0.9-0.2-1.3s-0.3-0.8-0.5-1
		c-0.2-0.3-0.5-0.5-0.8-0.7C85.5,9.1,85.1,9,84.6,9c-0.4,0-0.8,0.1-1.2,0.2c-0.3,0.2-0.6,0.4-0.8,0.7c-0.2,0.3-0.4,0.6-0.5,1
		C82,11.4,82,11.8,82,12.3s0.1,1,0.2,1.4s0.3,0.7,0.5,1s0.5,0.5,0.8,0.7C83.8,15.5,84.2,15.6,84.6,15.6z"/>
	<path class="st4" d="M95.8,8.6V16h-0.4c-0.1,0-0.2-0.1-0.2-0.2l-0.1-1.1c-0.3,0.4-0.7,0.8-1.2,1c-0.5,0.3-1,0.4-1.5,0.4
		c-0.4,0-0.8-0.1-1.1-0.2c-0.3-0.1-0.6-0.3-0.8-0.6s-0.4-0.5-0.5-0.9c0-0.2,0-0.6,0-1V8.6h0.7v4.8c0,0.7,0.2,1.2,0.5,1.6
		c0.3,0.4,0.8,0.6,1.5,0.6c0.5,0,0.9-0.1,1.4-0.4c0.4-0.2,0.8-0.6,1.1-1V8.6H95.8z"/>
	<path class="st4" d="M104.1,5.1V16h-0.4c-0.1,0-0.2-0.1-0.2-0.2l-0.1-1.2c-0.3,0.4-0.7,0.8-1.2,1.1c-0.4,0.3-0.9,0.4-1.5,0.4
		c-0.9,0-1.6-0.3-2.1-1c-0.5-0.6-0.8-1.6-0.8-2.9c0-0.5,0.1-1.1,0.2-1.5c0.1-0.5,0.4-0.9,0.6-1.2c0.3-0.3,0.6-0.6,1-0.8
		s0.9-0.3,1.4-0.3s0.9,0.1,1.3,0.3s0.7,0.5,1,0.8V5.1H104.1z M103.4,10.2c-0.3-0.4-0.6-0.7-0.9-0.9S101.8,9,101.3,9
		c-0.4,0-0.8,0.1-1.2,0.2s-0.6,0.4-0.8,0.7c-0.2,0.3-0.4,0.6-0.5,1s-0.2,0.9-0.2,1.3c0,1.1,0.2,1.9,0.6,2.4c0.4,0.5,1,0.8,1.8,0.8
		c0.5,0,0.9-0.1,1.3-0.4s0.8-0.6,1.1-1.1C103.4,13.9,103.4,10.2,103.4,10.2z"/>
</g>
</svg>
