<svg class="main-svg" xmlns="http://www.w3.org/2000/svg" xmlns:xlink="http://www.w3.org/1999/xlink" width="800" height="400" viewBox="0 0 800 400"><rect x="0" y="0" width="800" height="400" style="fill: rgb(255, 255, 255); fill-opacity: 1;"/><defs id="defs-52ae55"><g class="clips"><clipPath id="clip52ae55xyplot" class="plotclip"><rect width="750" height="337"/></clipPath><clipPath class="axesclip" id="clip52ae55x"><rect x="43" y="0" width="750" height="400"/></clipPath><clipPath class="axesclip" id="clip52ae55y"><rect x="0" y="21" width="800" height="337"/></clipPath><clipPath class="axesclip" id="clip52ae55xy"><rect x="43" y="21" width="750" height="337"/></clipPath></g><g class="gradients"/></defs><g class="bglayer"><rect class="bg" x="43" y="21" width="750" height="337" style="fill: rgb(235, 235, 235); fill-opacity: 1; stroke-width: 0;"/></g><g class="layer-below"><g class="imagelayer"/><g class="shapelayer"/></g><g class="cartesianlayer"><g class="subplot xy"><g class="layer-subplot"><g class="shapelayer"/><g class="imagelayer"/></g><g class="gridlayer"><g class="x"><path class="xgrid crisp" d="M0,21v337" transform="translate(161.99,0)" style="stroke: rgb(255, 255, 255); stroke-opacity: 1; stroke-width: 0.664176px;"/><path class="xgrid crisp" d="M0,21v337" transform="translate(336.32,0)" style="stroke: rgb(255, 255, 255); stroke-opacity: 1; stroke-width: 0.664176px;"/><path class="xgrid crisp" d="M0,21v337" transform="translate(510.66,0)" style="stroke: rgb(255, 255, 255); stroke-opacity: 1; stroke-width: 0.664176px;"/><path class="xgrid crisp" d="M0,21v337" transform="translate(684.99,0)" style="stroke: rgb(255, 255, 255); stroke-opacity: 1; stroke-width: 0.664176px;"/></g><g class="y"><path class="ygrid crisp" d="M43,0h750" transform="translate(0,323.34)" style="stroke: rgb(255, 255, 255); stroke-opacity: 1; stroke-width: 0.664176px;"/><path class="ygrid crisp" d="M43,0h750" transform="translate(0,213.08)" style="stroke: rgb(255, 255, 255); stroke-opacity: 1; stroke-width: 0.664176px;"/><path class="ygrid crisp" d="M43,0h750" transform="translate(0,102.81)" style="stroke: rgb(255, 255, 255); stroke-opacity: 1; stroke-width: 0.664176px;"/></g></g><g class="zerolinelayer"/><path class="xlines-below"/><path class="ylines-below"/><g class="overlines-below"/><g class="xaxislayer-below"/><g class="yaxislayer-below"/><g class="overaxes-below"/><g class="plot" transform="translate(43, 21)" clip-path="url(#clip52ae55xyplot)"><g class="scatterlayer mlayer"><g class="trace scatter tracede8e2f" style="stroke-miterlimit: 2; opacity: 1;"><g class="fills"/><g class="errorbars"/><g class="lines"/><g class="points"><path class="point" transform="translate(227.08,181.05)" d="M2.83,0A2.83,2.83 0 1,1 0,-2.83A2.83,2.83 0 0,1 2.83,0Z" style="opacity: 1; stroke-width: 1.88976px; fill: rgb(0, 0, 0); fill-opacity: 1; stroke: rgb(0, 0, 0); stroke-opacity: 1;"/><path class="point" transform="translate(271.53,181.05)" d="M2.83,0A2.83,2.83 0 1,1 0,-2.83A2.83,2.83 0 0,1 2.83,0Z" style="opacity: 1; stroke-width: 1.88976px; fill: rgb(0, 0, 0); fill-opacity: 1; stroke: rgb(0, 0, 0); stroke-opacity: 1;"/><path class="point" transform="translate(174.78,161.2)" d="M2.83,0A2.83,2.83 0 1,1 0,-2.83A2.83,2.83 0 0,1 2.83,0Z" style="opacity: 1; stroke-width: 1.88976px; fill: rgb(0, 0, 0); fill-opacity: 1; stroke: rgb(0, 0, 0); stroke-opacity: 1;"/><path class="point" transform="translate(330.81,176.64)" d="M2.83,0A2.83,2.83 0 1,1 0,-2.83A2.83,2.83 0 0,1 2.83,0Z" style="opacity: 1; stroke-width: 1.88976px; fill: rgb(0, 0, 0); fill-opacity: 1; stroke: rgb(0, 0, 0); stroke-opacity: 1;"/><path class="point" transform="translate(370.03,206.41)" d="M2.83,0A2.83,2.83 0 1,1 0,-2.83A2.83,2.83 0 0,1 2.83,0Z" style="opacity: 1; stroke-width: 1.88976px; fill: rgb(0, 0, 0); fill-opacity: 1; stroke: rgb(0, 0, 0); stroke-opacity: 1;"/><path class="point" transform="translate(373.52,213.03)" d="M2.83,0A2.83,2.83 0 1,1 0,-2.83A2.83,2.83 0 0,1 2.83,0Z" style="opacity: 1; stroke-width: 1.88976px; fill: rgb(0, 0, 0); fill-opacity: 1; stroke: rgb(0, 0, 0); stroke-opacity: 1;"/><path class="point" transform="translate(392.69,254.93)" d="M2.83,0A2.83,2.83 0 1,1 0,-2.83A2.83,2.83 0 0,1 2.83,0Z" style="opacity: 1; stroke-width: 1.88976px; fill: rgb(0, 0, 0); fill-opacity: 1; stroke: rgb(0, 0, 0); stroke-opacity: 1;"/><path class="point" transform="translate(326.45,143.56)" d="M2.83,0A2.83,2.83 0 1,1 0,-2.83A2.83,2.83 0 0,1 2.83,0Z" style="opacity: 1; stroke-width: 1.88976px; fill: rgb(0, 0, 0); fill-opacity: 1; stroke: rgb(0, 0, 0); stroke-opacity: 1;"/><path class="point" transform="translate(319.47,161.2)" d="M2.83,0A2.83,2.83 0 1,1 0,-2.83A2.83,2.83 0 0,1 2.83,0Z" style="opacity: 1; stroke-width: 1.88976px; fill: rgb(0, 0, 0); fill-opacity: 1; stroke: rgb(0, 0, 0); stroke-opacity: 1;"/><path class="point" transform="translate(370.03,200.9)" d="M2.83,0A2.83,2.83 0 1,1 0,-2.83A2.83,2.83 0 0,1 2.83,0Z" style="opacity: 1; stroke-width: 1.88976px; fill: rgb(0, 0, 0); fill-opacity: 1; stroke: rgb(0, 0, 0); stroke-opacity: 1;"/><path class="point" transform="translate(370.03,216.33)" d="M2.83,0A2.83,2.83 0 1,1 0,-2.83A2.83,2.83 0 0,1 2.83,0Z" style="opacity: 1; stroke-width: 1.88976px; fill: rgb(0, 0, 0); fill-opacity: 1; stroke: rgb(0, 0, 0); stroke-opacity: 1;"/><path class="point" transform="translate(479.86,231.77)" d="M2.83,0A2.83,2.83 0 1,1 0,-2.83A2.83,2.83 0 0,1 2.83,0Z" style="opacity: 1; stroke-width: 1.88976px; fill: rgb(0, 0, 0); fill-opacity: 1; stroke: rgb(0, 0, 0); stroke-opacity: 1;"/><path class="point" transform="translate(420.59,221.85)" d="M2.83,0A2.83,2.83 0 1,1 0,-2.83A2.83,2.83 0 0,1 2.83,0Z" style="opacity: 1; stroke-width: 1.88976px; fill: rgb(0, 0, 0); fill-opacity: 1; stroke: rgb(0, 0, 0); stroke-opacity: 1;"/><path class="point" transform="translate(429.3,245)" d="M2.83,0A2.83,2.83 0 1,1 0,-2.83A2.83,2.83 0 0,1 2.83,0Z" style="opacity: 1; stroke-width: 1.88976px; fill: rgb(0, 0, 0); fill-opacity: 1; stroke: rgb(0, 0, 0); stroke-opacity: 1;"/><path class="point" transform="translate(685.58,297.93)" d="M2.83,0A2.83,2.83 0 1,1 0,-2.83A2.83,2.83 0 0,1 2.83,0Z" style="opacity: 1; stroke-width: 1.88976px; fill: rgb(0, 0, 0); fill-opacity: 1; stroke: rgb(0, 0, 0); stroke-opacity: 1;"/><path class="point" transform="translate(715.91,297.93)" d="M2.83,0A2.83,2.83 0 1,1 0,-2.83A2.83,2.83 0 0,1 2.83,0Z" style="opacity: 1; stroke-width: 1.88976px; fill: rgb(0, 0, 0); fill-opacity: 1; stroke: rgb(0, 0, 0); stroke-opacity: 1;"/><path class="point" transform="translate(702.14,250.52)" d="M2.83,0A2.83,2.83 0 1,1 0,-2.83A2.83,2.83 0 0,1 2.83,0Z" style="opacity: 1; stroke-width: 1.88976px; fill: rgb(0, 0, 0); fill-opacity: 1; stroke: rgb(0, 0, 0); stroke-opacity: 1;"/><path class="point" transform="translate(153.86,55.34)" d="M2.83,0A2.83,2.83 0 1,1 0,-2.83A2.83,2.83 0 0,1 2.83,0Z" style="opacity: 1; stroke-width: 1.88976px; fill: rgb(0, 0, 0); fill-opacity: 1; stroke: rgb(0, 0, 0); stroke-opacity: 1;"/><path class="point" transform="translate(51.87,77.4)" d="M2.83,0A2.83,2.83 0 1,1 0,-2.83A2.83,2.83 0 0,1 2.83,0Z" style="opacity: 1; stroke-width: 1.88976px; fill: rgb(0, 0, 0); fill-opacity: 1; stroke: rgb(0, 0, 0); stroke-opacity: 1;"/><path class="point" transform="translate(90.23,38.8)" d="M2.83,0A2.83,2.83 0 1,1 0,-2.83A2.83,2.83 0 0,1 2.83,0Z" style="opacity: 1; stroke-width: 1.88976px; fill: rgb(0, 0, 0); fill-opacity: 1; stroke: rgb(0, 0, 0); stroke-opacity: 1;"/><path class="point" transform="translate(200.06,175.54)" d="M2.83,0A2.83,2.83 0 1,1 0,-2.83A2.83,2.83 0 0,1 2.83,0Z" style="opacity: 1; stroke-width: 1.88976px; fill: rgb(0, 0, 0); fill-opacity: 1; stroke: rgb(0, 0, 0); stroke-opacity: 1;"/><path class="point" transform="translate(383.98,241.7)" d="M2.83,0A2.83,2.83 0 1,1 0,-2.83A2.83,2.83 0 0,1 2.83,0Z" style="opacity: 1; stroke-width: 1.88976px; fill: rgb(0, 0, 0); fill-opacity: 1; stroke: rgb(0, 0, 0); stroke-opacity: 1;"/><path class="point" transform="translate(369.16,245)" d="M2.83,0A2.83,2.83 0 1,1 0,-2.83A2.83,2.83 0 0,1 2.83,0Z" style="opacity: 1; stroke-width: 1.88976px; fill: rgb(0, 0, 0); fill-opacity: 1; stroke: rgb(0, 0, 0); stroke-opacity: 1;"/><path class="point" transform="translate(439.76,265.96)" d="M2.83,0A2.83,2.83 0 1,1 0,-2.83A2.83,2.83 0 0,1 2.83,0Z" style="opacity: 1; stroke-width: 1.88976px; fill: rgb(0, 0, 0); fill-opacity: 1; stroke: rgb(0, 0, 0); stroke-opacity: 1;"/><path class="point" transform="translate(440.64,200.9)" d="M2.83,0A2.83,2.83 0 1,1 0,-2.83A2.83,2.83 0 0,1 2.83,0Z" style="opacity: 1; stroke-width: 1.88976px; fill: rgb(0, 0, 0); fill-opacity: 1; stroke: rgb(0, 0, 0); stroke-opacity: 1;"/><path class="point" transform="translate(107.66,111.58)" d="M2.83,0A2.83,2.83 0 1,1 0,-2.83A2.83,2.83 0 0,1 2.83,0Z" style="opacity: 1; stroke-width: 1.88976px; fill: rgb(0, 0, 0); fill-opacity: 1; stroke: rgb(0, 0, 0); stroke-opacity: 1;"/><path class="point" transform="translate(143.4,125.91)" d="M2.83,0A2.83,2.83 0 1,1 0,-2.83A2.83,2.83 0 0,1 2.83,0Z" style="opacity: 1; stroke-width: 1.88976px; fill: rgb(0, 0, 0); fill-opacity: 1; stroke: rgb(0, 0, 0); stroke-opacity: 1;"/><path class="point" transform="translate(34.09,77.4)" d="M2.83,0A2.83,2.83 0 1,1 0,-2.83A2.83,2.83 0 0,1 2.83,0Z" style="opacity: 1; stroke-width: 1.88976px; fill: rgb(0, 0, 0); fill-opacity: 1; stroke: rgb(0, 0, 0); stroke-opacity: 1;"/><path class="point" transform="translate(322.96,238.39)" d="M2.83,0A2.83,2.83 0 1,1 0,-2.83A2.83,2.83 0 0,1 2.83,0Z" style="opacity: 1; stroke-width: 1.88976px; fill: rgb(0, 0, 0); fill-opacity: 1; stroke: rgb(0, 0, 0); stroke-opacity: 1;"/><path class="point" transform="translate(253.23,195.38)" d="M2.83,0A2.83,2.83 0 1,1 0,-2.83A2.83,2.83 0 0,1 2.83,0Z" style="opacity: 1; stroke-width: 1.88976px; fill: rgb(0, 0, 0); fill-opacity: 1; stroke: rgb(0, 0, 0); stroke-opacity: 1;"/><path class="point" transform="translate(392.69,247.21)" d="M2.83,0A2.83,2.83 0 1,1 0,-2.83A2.83,2.83 0 0,1 2.83,0Z" style="opacity: 1; stroke-width: 1.88976px; fill: rgb(0, 0, 0); fill-opacity: 1; stroke: rgb(0, 0, 0); stroke-opacity: 1;"/><path class="point" transform="translate(254.97,176.64)" d="M2.83,0A2.83,2.83 0 1,1 0,-2.83A2.83,2.83 0 0,1 2.83,0Z" style="opacity: 1; stroke-width: 1.88976px; fill: rgb(0, 0, 0); fill-opacity: 1; stroke: rgb(0, 0, 0); stroke-opacity: 1;"/></g><g class="text"/></g><g class="trace scatter trace620f90" style="stroke-miterlimit: 2; opacity: 1;"><g class="fills"/><g class="errorbars"/><g class="lines"><path class="js-line" d="M34.09,58.77L85.87,86.14L94.51,90.88L129.03,111.05L137.66,116.6L189.44,149.97L198.07,154.97L215.33,163.25L223.96,166.41L249.86,173.85L258.49,176.2L336.16,199.83L344.79,203.72L370.68,215.22L379.32,218.31L413.84,230.03L422.47,232.78L448.36,239.47L456.99,241.41L534.67,257.81L543.3,259.49L603.71,270.03L612.34,271.35L664.13,278.09L672.76,279L715.91,282.52" style="vector-effect: non-scaling-stroke; fill: none; stroke: rgb(51, 102, 255); stroke-opacity: 1; stroke-width: 3.77953px; opacity: 1;"/></g><g class="points"/><g class="text"/></g><g class="trace scatter tracedcfb71" style="stroke-miterlimit: 2; opacity: 1;"><g class="fills"><g><path class="js-fill" d="M34.09,102.23L51.35,102.65L59.98,103.72L77.24,107.72L85.87,110.65L103.14,118.22L111.77,122.74L137.66,138.83L146.29,144.68L189.44,173.68L198.07,178.84L206.7,183.3L215.33,186.64L275.75,205.63L284.38,207.28L310.27,211.19L318.9,213.5L344.79,222.3L353.42,225.83L370.68,232.28L379.32,234.98L405.21,243.79L413.84,247.41L439.73,260.17L448.36,264.74L474.25,277.77L482.88,281.63L508.77,291.4L517.41,294.04L543.3,300.21L551.93,301.72L577.82,304.83L586.45,305.45L629.6,306.91L638.23,307.18L664.13,309.04L672.76,310.22L690.02,313.69L698.65,316L715.91,321.68L715.91,321.68L715.91,243.36L698.65,246.65L690.02,247.55L672.76,247.78L664.13,247.14L646.86,244.58L638.23,242.78L603.71,233.81L595.08,231.4L551.93,220.52L543.3,218.76L517.41,214.7L508.77,213.8L482.88,212.59L474.25,212.69L431.1,214.93L422.47,214.16L405.21,210.55L396.58,207.96L370.68,198.16L362.05,194.38L327.53,177.01L318.9,174.19L301.64,168.4L293.01,164.86L267.12,154.54L258.49,152.41L232.59,146.49L223.96,143.51L206.7,135.68L198.07,131.1L163.55,110.71L154.92,105.29L85.87,61.62L77.24,55.17L59.98,40.7L51.35,32.7L34.09,15.32L34.09,102.23Z" style="fill: rgb(153, 153, 153); fill-opacity: 0.4; stroke-width: 0;"/></g></g><g class="errorbars"/><g class="lines"><path class="js-line" d="M34.09,102.23L51.35,102.65L59.98,103.72L77.24,107.72L85.87,110.65L103.14,118.22L111.77,122.74L137.66,138.83L146.29,144.68L189.44,173.68L198.07,178.84L206.7,183.3L215.33,186.64L275.75,205.63L284.38,207.28L310.27,211.19L318.9,213.5L344.79,222.3L353.42,225.83L370.68,232.28L379.32,234.98L405.21,243.79L413.84,247.41L439.73,260.17L448.36,264.74L474.25,277.77L482.88,281.63L508.77,291.4L517.41,294.04L543.3,300.21L551.93,301.72L577.82,304.83L586.45,305.45L629.6,306.91L638.23,307.18L664.13,309.04L672.76,310.22L690.02,313.69L698.65,316L715.91,321.68L715.91,321.68L715.91,243.36L698.65,246.65L690.02,247.55L672.76,247.78L664.13,247.14L646.86,244.58L638.23,242.78L603.71,233.81L595.08,231.4L551.93,220.52L543.3,218.76L517.41,214.7L508.77,213.8L482.88,212.59L474.25,212.69L431.1,214.93L422.47,214.16L405.21,210.55L396.58,207.96L370.68,198.16L362.05,194.38L327.53,177.01L318.9,174.19L301.64,168.4L293.01,164.86L267.12,154.54L258.49,152.41L232.59,146.49L223.96,143.51L206.7,135.68L198.07,131.1L163.55,110.71L154.92,105.29L85.87,61.62L77.24,55.17L59.98,40.7L51.35,32.7L34.09,15.32L34.09,102.23" style="vector-effect: non-scaling-stroke; fill: none; stroke: rgb(0, 0, 0); stroke-opacity: 0; stroke-width: 3.77953px; opacity: 1;"/></g><g class="points"/><g class="text"/></g><g class="trace scatter traceb7363f" style="stroke-miterlimit: 2; opacity: 1;"><g class="fills"/><g class="errorbars"/><g class="lines"><path class="js-line" d="M34.09,102.23L34.09,15.32" style="vector-effect: non-scaling-stroke; fill: none; stroke: rgb(31, 119, 180); stroke-opacity: 1; stroke-width: 2px; opacity: 1;"/></g><g class="points"/><g class="text"/></g><g class="trace scatter trace64f815" style="stroke-miterlimit: 2; opacity: 1;"><g class="fills"/><g class="errorbars"/><g class="lines"><path class="js-line" d="M396.58,240.61L396.58,207.96" style="vector-effect: non-scaling-stroke; fill: none; stroke: rgb(255, 127, 14); stroke-opacity: 1; stroke-width: 2px; opacity: 1;"/></g><g class="points"/><g class="text"/></g></g></g><g class="overplot"/><path class="xlines-above crisp" d="" style="fill: none; stroke-width: 1px; stroke: rgb(0, 0, 0); stroke-opacity: 0;"/><path class="ylines-above crisp" d="" style="fill: none; stroke-width: 1px; stroke: rgb(0, 0, 0); stroke-opacity: 0;"/><g class="overlines-above"/><g class="xaxislayer-above"><path class="xtick ticks crisp" d="M0,359v3.65296803652968" transform="translate(161.99,0)" style="stroke: rgb(51, 51, 51); stroke-opacity: 1; stroke-width: 0.664176px;"/><path class="xtick ticks crisp" d="M0,359v3.65296803652968" transform="translate(336.32,0)" style="stroke: rgb(51, 51, 51); stroke-opacity: 1; stroke-width: 0.664176px;"/><path class="xtick ticks crisp" d="M0,359v3.65296803652968" transform="translate(510.66,0)" style="stroke: rgb(51, 51, 51); stroke-opacity: 1; stroke-width: 0.664176px;"/><path class="xtick ticks crisp" d="M0,359v3.65296803652968" transform="translate(684.99,0)" style="stroke: rgb(51, 51, 51); stroke-opacity: 1; stroke-width: 0.664176px;"/><g class="xtick"><text text-anchor="middle" x="0" y="376.6803652968037" transform="translate(161.99,0)" style="font-family: 'Open Sans', verdana, arial, sans-serif; font-size: 11.6895px; fill: rgb(77, 77, 77); fill-opacity: 1; white-space: pre;">2</text></g><g class="xtick"><text text-anchor="middle" x="0" y="376.6803652968037" transform="translate(336.32,0)" style="font-family: 'Open Sans', verdana, arial, sans-serif; font-size: 11.6895px; fill: rgb(77, 77, 77); fill-opacity: 1; white-space: pre;">3</text></g><g class="xtick"><text text-anchor="middle" x="0" y="376.6803652968037" transform="translate(510.66,0)" style="font-family: 'Open Sans', verdana, arial, sans-serif; font-size: 11.6895px; fill: rgb(77, 77, 77); fill-opacity: 1; white-space: pre;">4</text></g><g class="xtick"><text text-anchor="middle" x="0" y="376.6803652968037" transform="translate(684.99,0)" style="font-family: 'Open Sans', verdana, arial, sans-serif; font-size: 11.6895px; fill: rgb(77, 77, 77); fill-opacity: 1; white-space: pre;">5</text></g></g><g class="yaxislayer-above"><path class="ytick ticks crisp" d="M42,0h-3.65296803652968" transform="translate(0,323.34)" style="stroke: rgb(51, 51, 51); stroke-opacity: 1; stroke-width: 0.664176px;"/><path class="ytick ticks crisp" d="M42,0h-3.65296803652968" transform="translate(0,213.08)" style="stroke: rgb(51, 51, 51); stroke-opacity: 1; stroke-width: 0.664176px;"/><path class="ytick ticks crisp" d="M42,0h-3.65296803652968" transform="translate(0,102.81)" style="stroke: rgb(51, 51, 51); stroke-opacity: 1; stroke-width: 0.664176px;"/><g class="ytick"><text text-anchor="end" x="36.00913242009132" y="4.09132420091325" transform="translate(0,323.34)" style="font-family: 'Open Sans', verdana, arial, sans-serif; font-size: 11.6895px; fill: rgb(77, 77, 77); fill-opacity: 1; white-space: pre;">10</text></g><g class="ytick"><text text-anchor="end" x="36.00913242009132" y="4.09132420091325" transform="translate(0,213.08)" style="font-family: 'Open Sans', verdana, arial, sans-serif; font-size: 11.6895px; fill: rgb(77, 77, 77); fill-opacity: 1; white-space: pre;">20</text></g><g class="ytick"><text text-anchor="end" x="36.00913242009132" y="4.09132420091325" transform="translate(0,102.81)" style="font-family: 'Open Sans', verdana, arial, sans-serif; font-size: 11.6895px; fill: rgb(77, 77, 77); fill-opacity: 1; white-space: pre;">30</text></g></g><g class="overaxes-above"/></g></g><g class="polarlayer"/><g class="ternarylayer"/><g class="geolayer"/><g class="pielayer"/><g class="glimages"/><defs id="topdefs-52ae55"><g class="clips"/></defs><g class="layer-above"><g class="imagelayer"/><g class="shapelayer"><path data-index="0" fill-rule="evenodd" d="M43,358H793V21H43Z" style="opacity: 1; stroke: rgb(0, 0, 0); stroke-opacity: 0; fill: rgb(0, 0, 0); fill-opacity: 0; stroke-width: 0px;"/></g></g><g class="infolayer"><g class="g-gtitle"/><g class="g-xtitle" transform="translate(0,-14.835616438356055)"><text class="xtitle" x="418" y="411.83561643835606" text-anchor="middle" style="font-family: 'Open Sans', verdana, arial, sans-serif; font-size: 14.61px; fill: rgb(0, 0, 0); opacity: 1; font-weight: normal; white-space: pre;">wt</text></g><g class="g-ytitle" transform="translate(10.7236328125,0)"><text class="ytitle" transform="rotate(-90,3.7762557077626013,189.5)" x="3.7762557077626013" y="189.5" text-anchor="middle" style="font-family: 'Open Sans', verdana, arial, sans-serif; font-size: 14.61px; fill: rgb(0, 0, 0); opacity: 1; font-weight: normal; white-space: pre;">mpg</text></g><g class="annotation" data-index="0" style="opacity: 1;"><g class="annotation-text-g" transform="rotate(0,137.09,49.77000000000001)"><g class="cursor-pointer" transform="translate(55, 39)"><rect class="bg" x="0.5" y="0.5" width="163" height="21" style="stroke-width: 1px; stroke: rgb(0, 0, 0); stroke-opacity: 0; fill: rgb(0, 0, 0); fill-opacity: 0;"/><text class="annotation-text" text-anchor="middle" x="81.875" y="16.5" style="font-family: 'Open Sans', verdana, arial, sans-serif; font-size: 14.6119px; fill: rgb(0, 0, 0); fill-opacity: 1; white-space: pre;">Maximum uncertainty</text></g></g><g class="annotation-arrow-g" style="opacity: 1;"><path d="M116.09,60.27000000000001L77.09,79.77000000000001" style="stroke-width: 2px; stroke: rgb(68, 68, 68); stroke-opacity: 1; stroke-dasharray: 0px, 0px, 42.4033px, 43.6033px;"/><path d="M-2.4,-3V3L0.6,0Z" transform="translate(78.1633071899414,79.23333740234375)rotate(153.4329938693431)scale(2)" style="fill: rgb(68, 68, 68); stroke-width: 0;"/></g></g><g class="annotation" data-index="1" style="opacity: 1;"><g class="annotation-text-g" transform="rotate(0,429.58,215.28)"><g class="cursor-pointer" transform="translate(350, 204)"><rect class="bg" x="0.5" y="0.5" width="159" height="21" style="stroke-width: 1px; stroke: rgb(0, 0, 0); stroke-opacity: 0; fill: rgb(0, 0, 0); fill-opacity: 0;"/><text class="annotation-text" text-anchor="middle" x="79.796875" y="16.5" style="font-family: 'Open Sans', verdana, arial, sans-serif; font-size: 14.6119px; fill: rgb(0, 0, 0); fill-opacity: 1; white-space: pre;">Minimum uncertainty</text></g></g><g class="annotation-arrow-g" style="opacity: 1;"><path d="M433.08,225.78L439.58,245.28" style="stroke-width: 2px; stroke: rgb(68, 68, 68); stroke-opacity: 1; stroke-dasharray: 0px, 0px, 19.3548px, 20.5548px;"/><path d="M-2.4,-3V3L0.6,0Z" transform="translate(439.20050048828125,244.14157104492188)rotate(71.56781601708516)scale(2)" style="fill: rgb(68, 68, 68); stroke-width: 0;"/></g></g></g></svg>