<svg class="main-svg" xmlns="http://www.w3.org/2000/svg" xmlns:xlink="http://www.w3.org/1999/xlink" width="700" height="500" viewBox="0 0 700 500"><rect x="0" y="0" width="700" height="500" style="fill: rgb(255, 255, 255); fill-opacity: 1;"/><defs id="defs-c57293"><g class="clips"><clipPath id="clipc57293xyplot" class="plotclip"><rect width="645" height="436"/></clipPath><clipPath class="axesclip" id="clipc57293x"><rect x="48" y="0" width="645" height="500"/></clipPath><clipPath class="axesclip" id="clipc57293y"><rect x="0" y="21" width="700" height="436"/></clipPath><clipPath class="axesclip" id="clipc57293xy"><rect x="48" y="21" width="645" height="436"/></clipPath></g><g class="gradients"/></defs><g class="bglayer"><rect class="bg" x="48" y="21" width="645" height="436" style="fill: rgb(235, 235, 235); fill-opacity: 1; stroke-width: 0;"/></g><g class="layer-below"><g class="imagelayer"/><g class="shapelayer"/></g><g class="cartesianlayer"><g class="subplot xy"><g class="layer-subplot"><g class="shapelayer"/><g class="imagelayer"/></g><g class="gridlayer"><g class="x"><path class="xgrid crisp" transform="translate(150.17000000000002,0)" d="M0,21v436" style="stroke: rgb(255, 255, 255); stroke-opacity: 1; stroke-width: 0.664176px;"/><path class="xgrid crisp" transform="translate(254.24,0)" d="M0,21v436" style="stroke: rgb(255, 255, 255); stroke-opacity: 1; stroke-width: 0.664176px;"/><path class="xgrid crisp" transform="translate(358.32,0)" d="M0,21v436" style="stroke: rgb(255, 255, 255); stroke-opacity: 1; stroke-width: 0.664176px;"/><path class="xgrid crisp" transform="translate(462.39,0)" d="M0,21v436" style="stroke: rgb(255, 255, 255); stroke-opacity: 1; stroke-width: 0.664176px;"/><path class="xgrid crisp" transform="translate(566.47,0)" d="M0,21v436" style="stroke: rgb(255, 255, 255); stroke-opacity: 1; stroke-width: 0.664176px;"/><path class="xgrid crisp" transform="translate(670.54,0)" d="M0,21v436" style="stroke: rgb(255, 255, 255); stroke-opacity: 1; stroke-width: 0.664176px;"/></g><g class="y"><path class="ygrid crisp" transform="translate(0,445.17)" d="M48,0h645" style="stroke: rgb(255, 255, 255); stroke-opacity: 1; stroke-width: 0.664176px;"/><path class="ygrid crisp" transform="translate(0,399.74)" d="M48,0h645" style="stroke: rgb(255, 255, 255); stroke-opacity: 1; stroke-width: 0.664176px;"/><path class="ygrid crisp" transform="translate(0,354.3)" d="M48,0h645" style="stroke: rgb(255, 255, 255); stroke-opacity: 1; stroke-width: 0.664176px;"/><path class="ygrid crisp" transform="translate(0,308.87)" d="M48,0h645" style="stroke: rgb(255, 255, 255); stroke-opacity: 1; stroke-width: 0.664176px;"/><path class="ygrid crisp" transform="translate(0,263.44)" d="M48,0h645" style="stroke: rgb(255, 255, 255); stroke-opacity: 1; stroke-width: 0.664176px;"/><path class="ygrid crisp" transform="translate(0,218.01)" d="M48,0h645" style="stroke: rgb(255, 255, 255); stroke-opacity: 1; stroke-width: 0.664176px;"/><path class="ygrid crisp" transform="translate(0,172.57)" d="M48,0h645" style="stroke: rgb(255, 255, 255); stroke-opacity: 1; stroke-width: 0.664176px;"/><path class="ygrid crisp" transform="translate(0,127.14)" d="M48,0h645" style="stroke: rgb(255, 255, 255); stroke-opacity: 1; stroke-width: 0.664176px;"/><path class="ygrid crisp" transform="translate(0,81.71000000000001)" d="M48,0h645" style="stroke: rgb(255, 255, 255); stroke-opacity: 1; stroke-width: 0.664176px;"/><path class="ygrid crisp" transform="translate(0,36.269999999999996)" d="M48,0h645" style="stroke: rgb(255, 255, 255); stroke-opacity: 1; stroke-width: 0.664176px;"/></g></g><g class="zerolinelayer"/><path class="xlines-below"/><path class="ylines-below"/><g class="overlines-below"/><g class="xaxislayer-below"/><g class="yaxislayer-below"/><g class="overaxes-below"/><g class="plot" transform="translate(48, 21)" clip-path="url(#clipc57293xyplot)"><g class="scatterlayer mlayer"><g class="trace scatter trace056b88" style="stroke-miterlimit: 2; opacity: 1;"><g class="fills"/><g class="errorbars"/><g class="lines"><path class="js-line" d="M29.32,162.79L36.15,169.48L39.47,172.36L51.39,180.84L56.65,183.95L70.32,190.65L77.15,193.35L90.82,197.83L97.65,199.72L118.15,203.89L124.98,204.87L145.48,206.77L152.31,207.09L172.81,207.02L179.65,206.67L206.98,204.16L213.81,203.36L234.31,201.42L241.15,201.19L256.54,202.02L261.64,202.77L276.41,206.26L282.14,208.08L302.64,215.47L309.48,218.11L329.98,226.56L332.07,227.45L343.64,234.03L346.36,235.92L350.48,241.79L351.21,244.4L350.2,248.63L347.42,252.87L338.4,261.35L336.81,262.53L306.57,286.77L302.64,290.59L294.59,299.48L291.39,303.72L286.32,312.19L284.44,316.43L282.03,324.91L281.37,329.14L281.37,337.62L282.05,341.85L284.51,350.33L286.45,354.57L291.75,363.04L295.24,367.28L303.75,375.75L309.02,379.99L316.31,385.08L321.89,388.47L329.98,392.76L336.81,395.99L350.48,401.36L357.31,403.7L380.11,409.65L384.64,410.66L405.62,413.89L411.97,414.63L432.47,415.97L439.31,416.13L466.64,415.76L473.47,415.45L500.8,413.34L507.64,412.61L528.14,409.47L534.97,408.16L555.47,402.77L560.09,401.18L570.95,396.94L575.97,394.65L587.12,388.47L589.63,386.8L598.49,379.99L602.81,375.75L609.42,367.28L610.13,365.97L613.63,358.8L614.84,354.57L615.68,346.09L615.36,341.85L613.26,333.38L611.45,329.14L606.6,320.67L603.42,316.43L596.1,307.96L591.94,303.72L575.97,290.03L571.71,286.77L555.47,275.44L553.26,274.06L534.97,262.94L532.02,261.35L504.08,244.4L500.8,241.38L499.48,240.16L496.5,235.92L495.17,231.68L495.32,227.45L496.7,223.21L499.07,218.97L505.92,210.5L507.64,208.79L519.21,197.79L521.3,195.94L541.85,176.6L545.76,172.36L552.33,163.89L554.95,159.65L559.12,151.18L560.52,146.94L562.02,138.46L562.12,134.23L561.01,125.75L559.74,121.51L555.47,113.04L555.47,113.04L552.54,108.8L544.49,100.33L541.8,98.11L533.01,91.85L528.14,88.99L514.47,82.42L507.64,79.77L492.29,74.9L487.14,73.48L466.64,68.88L459.81,67.59L418.81,61.05L411.97,60.13L377.81,56.58L370.97,56.03L336.81,52.8L329.98,51.75L309.48,47.35L302.64,45.53L261.64,34.32L254.81,32.96L234.31,29.77L227.48,28.98L165.98,22.08L159.15,21.23L146.1,19.82" style="vector-effect: non-scaling-stroke; fill: none; stroke: rgb(51, 102, 255); stroke-opacity: 1; stroke-width: 1.88976px; opacity: 1;"/><path class="js-line" d="M29.32,58.83L36.15,51.48L38.22,49.48L49.82,40.11L54.85,36.77L63.48,31.82L70.32,28.6L83.98,23.65L90.82,21.82L102.39,19.82" style="vector-effect: non-scaling-stroke; fill: none; stroke: rgb(51, 102, 255); stroke-opacity: 1; stroke-width: 1.88976px; opacity: 1;"/><path class="js-line" d="M159.15,40.78L138.65,38.77L131.82,38.48L118.15,38.69L111.32,39.27L97.65,41.62L90.82,43.44L77.15,48.74L75.7,49.48L63.48,56.77L61.88,57.95L52.18,66.43L49.82,69L45.02,74.9L42.98,77.94L39.7,83.38L37.67,87.62L34.62,96.09L33.58,100.33L32.5,108.8L32.45,113.04L33.32,121.51L34.26,125.75L37.2,134.23L39.18,138.46L44.48,146.94L47.81,151.18L56.65,160.03L61.42,163.89L70.32,169.84L74.83,172.36L83.98,176.75L90.82,179.49L104.48,183.79L109.81,185.07L118.15,186.87L124.98,188L145.48,190.05L152.31,190.3L172.81,189.78L178.09,189.31L193.31,187.46L200.15,186.31L241.15,178.63L247.98,178.02L261.64,178.4L268.48,179.53L282.14,183.57L285.98,185.07L306.27,193.55L309.48,194.89L329.98,202.62L336.81,204.85L357.84,210.5L364.14,211.96L384.64,215.42L391.47,216.19L405.14,216.86L411.97,216.7L427.6,214.73L432.47,213.8L446.14,209.73L452.97,207.05L471.54,197.79L473.47,196.71L491.32,185.07L493.97,183.11L502.1,176.6L506.79,172.36L514.71,163.89L517.95,159.65L522.72,151.18L524.3,146.94L525.72,138.46L525.55,134.23L523.28,125.75L521.3,121.94L518.15,117.28L514.47,113.23L509.44,108.8L507.64,107.48L500.8,103.04L495.8,100.33L486.34,96.09L480.3,93.82L459.81,87.79L459.09,87.62L439.31,83.35L432.47,82.08L405.14,78.17L398.31,77.44L370.97,75.67L364.14,75.45L323.14,73.68L316.31,72.87L302.64,70.37L295.81,68.64L245.18,53.72L241.15,52.83L220.65,49.26L213.81,48.26L159.15,40.78" style="vector-effect: non-scaling-stroke; fill: none; stroke: rgb(51, 102, 255); stroke-opacity: 1; stroke-width: 1.88976px; opacity: 1;"/><path class="js-line" d="M452.97,265.44L432.47,263.57L425.64,263.47L411.97,264.18L405.14,265.04L391.47,267.55L384.64,269.35L364.14,276.41L359.98,278.29L350.48,282.93L343.75,286.77L329.98,296.51L326.55,299.48L318.63,307.96L316.31,311.22L313.1,316.43L311.18,320.67L308.95,329.14L308.59,333.38L309.48,341.86L310.65,346.09L314.74,354.57L316.31,356.8L321.28,363.04L323.14,364.88L330.78,371.52L336.81,375.69L350.48,383.15L352.9,384.23L364.14,388.64L370.97,390.89L391.47,395.91L397.49,396.94L411.97,398.99L418.81,399.64L439.31,400.69L446.14,400.79L473.47,400.06L480.3,399.6L503.57,396.94L507.64,396.33L528.14,391.98L534.97,390.01L550.25,384.23L555.47,381.69L565.25,375.75L569.14,372.71L574.85,367.28L575.97,365.87L580.73,358.8L582.47,354.57L584.05,346.09L583.89,341.85L581.83,333.38L580,329.14L574.6,320.67L571.12,316.43L562.3,307.86L557.25,303.72L544.83,295.24L541.8,293.42L528.14,286.32L521.3,283.29L500.8,275.84L494.53,274.06L480.3,270.39L477.49,269.82L459.81,266.4L453.83,265.58L452.97,265.44" style="vector-effect: non-scaling-stroke; fill: none; stroke: rgb(51, 102, 255); stroke-opacity: 1; stroke-width: 1.88976px; opacity: 1;"/><path class="js-line" d="M165.98,56.17L145.48,53.54L138.65,53.02L124.98,52.82L118.15,53.24L104.48,55.31L97.65,57.1L84.84,62.19L83.98,62.61L77.15,66.58L71.59,70.67L66.85,74.9L63.48,78.51L59.7,83.38L57.05,87.62L53.2,96.09L51.95,100.33L50.66,108.8L50.6,113.04L51.63,121.51L52.75,125.75L56.65,134.81L58.78,138.46L65.41,146.94L69.72,151.18L77.15,157.07L81.08,159.65L90.82,164.94L97.65,167.88L111.46,172.36L118.15,173.99L134.66,176.6L138.65,177.03L152.31,177.68L159.15,177.61L173.26,176.6L179.65,175.79L197.1,172.36L200.15,171.61L220.65,165.41L225.32,163.89L241.15,158.84L247.98,157.19L254.81,156.17L261.64,155.98L268.48,156.81L275.31,158.77L288.98,165.33L293.61,168.12L323.14,184.21L325.06,185.07L336.81,189.78L343.64,192.08L357.31,195.77L364.14,197.17L384.64,199.83L391.47,200.15L405.14,199.9L411.97,199.29L425.64,196.98L432.47,195.27L449.04,189.31L452.97,187.55L466.64,180L471.74,176.6L482.22,168.12L486.4,163.89L492.8,155.41L493.97,153.14L496.54,146.94L497.37,142.7L497.47,138.46L496.81,134.23L493.97,127.61L492.9,125.75L487.14,119.29L484.88,117.28L473.47,109.98L471.17,108.8L459.81,104.01L452.97,101.68L439.31,97.86L432.47,96.29L411.97,92.64L405.71,91.85L391.47,90.5L384.64,90.11L364.14,89.88L357.31,90.07L309.48,92.44L302.64,92.22L288.98,90.38L282.14,88.55L268.48,83.33L261.64,80.41L247.98,74.81L241.15,72.41L227.48,68.34L220.65,66.62L193.31,60.98L186.48,59.72L165.98,56.17" style="vector-effect: non-scaling-stroke; fill: none; stroke: rgb(51, 102, 255); stroke-opacity: 1; stroke-width: 1.88976px; opacity: 1;"/><path class="js-line" d="M459.81,282.25L439.31,280.36L432.47,280.13L411.97,280.75L405.14,281.48L391.47,283.81L384.64,285.47L368.55,291.01L364.14,292.92L352.35,299.48L350.48,300.74L341.55,307.96L337.58,312.19L331.9,320.67L330.13,324.91L328.45,333.38L328.56,337.62L330.7,346.09L332.74,350.33L339.09,358.8L343.56,363.04L350.48,368.24L355.79,371.52L364.18,375.75L370.97,378.58L384.64,383L389.58,384.23L398.31,386.15L405.14,387.32L425.64,389.6L432.47,390L452.97,390.27L459.81,390.07L481.34,388.47L487.14,387.8L507.64,384.19L514.47,382.49L528.14,377.99L533.38,375.75L541.8,371.28L547.6,367.28L552.34,363.04L555.47,359.3L558.44,354.57L560.09,350.33L561.01,341.85L560.38,337.62L557.06,329.14L555.47,326.65L551.01,320.67L548.64,318.2L541.8,312.03L536.28,307.96L528.14,302.91L521.57,299.48L507.64,293.53L500.8,291.19L480.3,285.73L473.47,284.36L459.81,282.25" style="vector-effect: non-scaling-stroke; fill: none; stroke: rgb(51, 102, 255); stroke-opacity: 1; stroke-width: 1.88976px; opacity: 1;"/><path class="js-line" d="M138.65,65.61L124.98,65.53L118.15,66.12L104.48,68.95L99.54,70.67L90.82,74.7L90.47,74.9L83.98,79.23L79.32,83.38L75.53,87.62L72.59,91.85L68.66,100.33L67.54,104.56L66.82,113.04L67.19,117.28L69.42,125.75L70.32,127.78L73.83,134.23L76.96,138.46L83.98,145.49L85.75,146.94L91.76,151.18L97.65,154.53L109.79,159.65L111.32,160.19L125.91,163.89L131.82,164.87L145.48,166.09L152.31,166.19L165.98,165.39L172.81,164.48L186.48,161.53L192.82,159.65L204.03,155.41L206.98,154.07L220.65,146.85L227.12,142.7L238.22,134.23L241.15,131.22L242.54,129.99L245.99,125.75L248.14,121.51L249.27,117.28L249.05,113.04L247.98,109.88L247.67,108.8L245.38,104.56L241.15,99.56L237.57,96.09L227.48,89.2L224.73,87.62L213.81,82.69L206.98,80.17L189.69,74.9L186.48,74.07L165.98,69.35L159.15,68.08L138.65,65.61" style="vector-effect: non-scaling-stroke; fill: none; stroke: rgb(51, 102, 255); stroke-opacity: 1; stroke-width: 1.88976px; opacity: 1;"/><path class="js-line" d="M405.14,103.58L384.64,101.96L377.81,101.9L357.31,103.1L350.48,103.98L336.81,106.53L329.98,108.23L323.14,110.32L316.31,112.81L309.48,116.07L307.11,117.28L301.43,121.51L297.95,125.75L296.47,129.99L296.33,134.23L297.19,138.46L298.9,142.7L304.37,151.18L307.97,155.41L317.09,163.89L322.8,168.12L329.98,172.59L336.81,176.14L348.32,180.84L350.48,181.59L364.14,185.25L370.97,186.5L384.64,187.94L391.47,188.14L405.14,187.45L411.97,186.53L425.64,183.41L432.47,181.15L442.91,176.6L446.14,174.88L456.46,168.12L459.81,165.3L465.37,159.65L466.64,157.92L470.7,151.18L472.09,146.94L472.61,142.7L472.21,138.46L470.84,134.23L468.37,129.99L464.66,125.75L459.81,121.74L459.51,121.51L452.97,117.49L443.32,113.04L439.31,111.54L425.64,107.44L418.81,105.89L405.14,103.58" style="vector-effect: non-scaling-stroke; fill: none; stroke: rgb(51, 102, 255); stroke-opacity: 1; stroke-width: 1.88976px; opacity: 1;"/><path class="js-line" d="M459.81,293.34L439.31,291.53L432.47,291.34L411.97,292.19L405.14,293.03L391.47,295.77L384.64,297.75L370.97,303.37L370.32,303.72L363.21,307.96L357.71,312.19L353.45,316.43L350.48,320.29L347.85,324.91L346.34,329.14L345.61,333.38L345.65,337.62L346.46,341.85L348.07,346.09L350.52,350.33L353.89,354.57L358.33,358.8L364.02,363.04L377.81,370.24L381.04,371.52L394.55,375.75L398.31,376.69L411.97,379.23L417.99,379.99L432.47,381.19L439.31,381.43L459.81,381.08L466.64,380.61L487.14,378L493.97,376.65L507.64,372.95L511.72,371.52L521.31,367.28L528.14,363.1L534.97,356.88L536.89,354.57L539.29,350.33L540.63,346.09L541.03,341.85L540.54,337.62L539.2,333.38L537,329.14L533.93,324.91L529.95,320.67L521.3,313.86L518.76,312.19L507.64,306.28L501.6,303.72L489.12,299.48L487.14,298.89L471.32,295.24L466.64,294.38L459.81,293.34" style="vector-effect: non-scaling-stroke; fill: none; stroke: rgb(51, 102, 255); stroke-opacity: 1; stroke-width: 1.88976px; opacity: 1;"/><path class="js-line" d="M145.48,78.98L131.82,78.13L124.98,78.44L118.15,79.35L111.32,81.04L104.48,83.61L97.65,87.52L92.56,91.85L90.82,93.73L86.44,100.33L84.71,104.56L83.51,113.04L83.9,117.28L84.99,121.51L86.77,125.75L90.82,132.05L92.66,134.23L97.65,138.94L102.96,142.7L111.32,147.14L118.15,149.72L131.82,153.03L138.65,153.89L152.31,154.24L159.15,153.71L173.08,151.18L179.65,149.1L186.48,146.35L193.31,142.74L200.15,137.81L204.03,134.23L207.51,129.99L209.98,125.75L211.47,121.51L212,117.28L211.53,113.04L209.97,108.8L206.98,104.33L203.06,100.33L193.31,93.79L189.68,91.85L179.65,87.56L172.81,85.22L159.15,81.45L152.31,80.04L145.48,78.98" style="vector-effect: non-scaling-stroke; fill: none; stroke: rgb(51, 102, 255); stroke-opacity: 1; stroke-width: 1.88976px; opacity: 1;"/><path class="js-line" d="M411.97,116.72L398.31,114.4L391.47,113.8L377.81,113.68L370.97,114.17L357.31,116.39L353.87,117.28L342.26,121.51L336.81,124.66L335.19,125.75L330.68,129.99L327.97,134.23L326.7,138.46L326.63,142.7L327.63,146.94L329.98,151.63L332.73,155.41L336.9,159.65L342.49,163.89L350.48,168.39L357.31,171.22L364.14,173.4L370.97,174.99L384.64,176.69L391.47,176.82L405.14,175.64L411.97,174.28L425.64,169.69L428.93,168.12L435.97,163.89L439.31,161.24L441.13,159.65L444.83,155.41L447.3,151.18L448.61,146.94L448.77,142.7L447.73,138.46L445.36,134.23L441.44,129.99L435.61,125.75L432.47,124.02L425.64,120.89L418.81,118.55L411.97,116.72" style="vector-effect: non-scaling-stroke; fill: none; stroke: rgb(51, 102, 255); stroke-opacity: 1; stroke-width: 1.88976px; opacity: 1;"/><path class="js-line" d="M459.81,303.06L446.14,301.49L439.31,301.08L425.64,301.04L418.81,301.44L403.02,303.72L398.31,304.79L384.64,309.54L379.4,312.19L373.05,316.43L370.97,318.23L368.47,320.67L365.23,324.91L363.15,329.14L362.11,333.38L362.05,337.62L362.95,341.85L364.88,346.09L367.92,350.33L372.22,354.57L377.81,358.62L384.64,362.33L386.17,363.04L398.31,367.47L405.14,369.23L418.81,371.68L425.64,372.44L446.14,373.2L452.97,373L473.47,370.98L480.3,369.75L493.97,366.19L500.8,363.64L507.64,360.2L509.97,358.8L515.32,354.57L518.84,350.33L521.3,344.28L521.77,341.85L521.3,337.18L520.02,333.38L517.49,329.14L514.47,325.63L513.81,324.91L508.8,320.67L500.8,315.66L493.97,312.35L487.14,309.71L481.79,307.96L473.47,305.71L466.64,304.24L459.81,303.06" style="vector-effect: non-scaling-stroke; fill: none; stroke: rgb(51, 102, 255); stroke-opacity: 1; stroke-width: 1.88976px; opacity: 1;"/><path class="js-line" d="M145.48,94.7L138.65,93.84L131.82,93.74L124.98,94.55L119.41,96.09L118.15,96.53L111.52,100.33L111.32,100.49L107.67,104.56L105.38,108.8L104.48,113.02L104.86,117.28L106.45,121.51L111.32,128.06L113.52,129.99L120.25,134.23L124.98,136.25L132.93,138.46L138.65,139.29L152.31,139.03L155.42,138.46L159.15,137.61L165.98,135.11L167.78,134.23L172.81,130.85L173.86,129.99L177.31,125.75L179.06,121.51L179.24,117.28L177.87,113.04L174.95,108.8L170.19,104.56L165.98,101.93L159.15,98.64L152.31,96.23L145.48,94.7" style="vector-effect: non-scaling-stroke; fill: none; stroke: rgb(51, 102, 255); stroke-opacity: 1; stroke-width: 1.88976px; opacity: 1;"/><path class="js-line" d="M398.31,128.42L384.64,127.34L377.81,127.85L368.08,129.99L364.14,131.58L357.31,136.25L355.41,138.46L353.83,142.7L354.18,146.94L357.31,152.26L360.73,155.41L368.35,159.65L370.97,160.64L377.81,162.42L384.64,163.36L391.47,163.46L398.31,162.7L409.01,159.65L411.97,158.2L418.81,152.91L420.25,151.18L421.9,146.94L421.63,142.7L418.81,137.89L414.34,134.23L411.97,132.91L405.14,130.01L398.31,128.42" style="vector-effect: non-scaling-stroke; fill: none; stroke: rgb(51, 102, 255); stroke-opacity: 1; stroke-width: 1.88976px; opacity: 1;"/><path class="js-line" d="M452.97,311.7L439.31,310.5L432.47,310.38L418.81,311.22L412.4,312.19L405.14,313.92L398.31,316.18L391.47,319.57L389.69,320.67L384.5,324.91L381.39,329.14L379.74,333.38L379.48,337.62L380.58,341.85L383.06,346.09L387.21,350.33L391.47,353.35L398.31,356.92L403.02,358.8L411.97,361.4L418.81,362.82L432.47,364.35L439.31,364.62L452.97,364.23L459.81,363.57L473.47,361.05L480.3,359.13L487.14,356.32L490.59,354.57L496.36,350.33L499.75,346.09L501.29,341.85L501.21,337.62L499.59,333.38L496.41,329.14L491.48,324.91L487.14,322.2L480.3,318.86L473.93,316.43L466.64,314.37L459.81,312.84L452.97,311.7" style="vector-effect: non-scaling-stroke; fill: none; stroke: rgb(51, 102, 255); stroke-opacity: 1; stroke-width: 1.88976px; opacity: 1;"/><path class="js-line" d="M452.97,323.37L439.31,321.58L432.47,321.53L418.81,323.36L413.57,324.91L411.97,325.57L405.82,329.14L402.42,333.38L401.6,337.62L403.11,341.85L405.14,344.11L407.32,346.09L411.97,348.73L418.81,351.34L425.64,352.89L439.31,354.18L446.14,353.95L459.81,351.71L464.37,350.33L472.2,346.09L473.47,344.68L475.55,341.85L475.98,337.62L473.47,332.99L468.67,329.14L459.11,324.91L452.97,323.37" style="vector-effect: non-scaling-stroke; fill: none; stroke: rgb(51, 102, 255); stroke-opacity: 1; stroke-width: 1.88976px; opacity: 1;"/></g><g class="points"/><g class="text"/></g><g class="trace scatter trace9b609b" style="stroke-miterlimit: 2; opacity: 1;"><g class="fills"/><g class="errorbars"/><g class="lines"/><g class="points"/><g class="text"><g class="textpoint" transform="translate(0,4)"><text x="446.14" y="416.18" text-anchor="middle" style="font-family: 'Open Sans', verdana, arial, sans-serif; font-size: 16px; fill: rgb(0, 0, 0); fill-opacity: 1; white-space: pre;">0.002</text></g><g class="textpoint" transform="translate(0,4)"><text x="29.32" y="58.83" text-anchor="middle" style="font-family: 'Open Sans', verdana, arial, sans-serif; font-size: 16px; fill: rgb(0, 0, 0); fill-opacity: 1; white-space: pre;">0.002</text></g><g class="textpoint" transform="translate(0,4)"><text x="405.14" y="216.86" text-anchor="middle" style="font-family: 'Open Sans', verdana, arial, sans-serif; font-size: 16px; fill: rgb(0, 0, 0); fill-opacity: 1; white-space: pre;">0.004</text></g><g class="textpoint" transform="translate(0,4)"><text x="446.14" y="400.79" text-anchor="middle" style="font-family: 'Open Sans', verdana, arial, sans-serif; font-size: 16px; fill: rgb(0, 0, 0); fill-opacity: 1; white-space: pre;">0.004</text></g><g class="textpoint" transform="translate(0,4)"><text x="398.31" y="200.18" text-anchor="middle" style="font-family: 'Open Sans', verdana, arial, sans-serif; font-size: 16px; fill: rgb(0, 0, 0); fill-opacity: 1; white-space: pre;">0.006</text></g><g class="textpoint" transform="translate(0,4)"><text x="446.14" y="390.32" text-anchor="middle" style="font-family: 'Open Sans', verdana, arial, sans-serif; font-size: 16px; fill: rgb(0, 0, 0); fill-opacity: 1; white-space: pre;">0.006</text></g><g class="textpoint" transform="translate(0,4)"><text x="152.31" y="166.19" text-anchor="middle" style="font-family: 'Open Sans', verdana, arial, sans-serif; font-size: 16px; fill: rgb(0, 0, 0); fill-opacity: 1; white-space: pre;">0.008</text></g><g class="textpoint" transform="translate(0,4)"><text x="391.47" y="188.14" text-anchor="middle" style="font-family: 'Open Sans', verdana, arial, sans-serif; font-size: 16px; fill: rgb(0, 0, 0); fill-opacity: 1; white-space: pre;">0.008</text></g><g class="textpoint" transform="translate(0,4)"><text x="446.14" y="381.5" text-anchor="middle" style="font-family: 'Open Sans', verdana, arial, sans-serif; font-size: 16px; fill: rgb(0, 0, 0); fill-opacity: 1; white-space: pre;">0.008</text></g><g class="textpoint" transform="translate(0,4)"><text x="145.48" y="154.29" text-anchor="middle" style="font-family: 'Open Sans', verdana, arial, sans-serif; font-size: 16px; fill: rgb(0, 0, 0); fill-opacity: 1; white-space: pre;">0.01</text></g><g class="textpoint" transform="translate(0,4)"><text x="391.47" y="176.82" text-anchor="middle" style="font-family: 'Open Sans', verdana, arial, sans-serif; font-size: 16px; fill: rgb(0, 0, 0); fill-opacity: 1; white-space: pre;">0.01</text></g><g class="textpoint" transform="translate(0,4)"><text x="446.14" y="373.2" text-anchor="middle" style="font-family: 'Open Sans', verdana, arial, sans-serif; font-size: 16px; fill: rgb(0, 0, 0); fill-opacity: 1; white-space: pre;">0.01</text></g><g class="textpoint" transform="translate(0,4)"><text x="145.48" y="139.53" text-anchor="middle" style="font-family: 'Open Sans', verdana, arial, sans-serif; font-size: 16px; fill: rgb(0, 0, 0); fill-opacity: 1; white-space: pre;">0.012</text></g><g class="textpoint" transform="translate(0,4)"><text x="391.47" y="163.46" text-anchor="middle" style="font-family: 'Open Sans', verdana, arial, sans-serif; font-size: 16px; fill: rgb(0, 0, 0); fill-opacity: 1; white-space: pre;">0.012</text></g><g class="textpoint" transform="translate(0,4)"><text x="439.31" y="364.62" text-anchor="middle" style="font-family: 'Open Sans', verdana, arial, sans-serif; font-size: 16px; fill: rgb(0, 0, 0); fill-opacity: 1; white-space: pre;">0.012</text></g><g class="textpoint" transform="translate(0,4)"><text x="439.31" y="354.18" text-anchor="middle" style="font-family: 'Open Sans', verdana, arial, sans-serif; font-size: 16px; fill: rgb(0, 0, 0); fill-opacity: 1; white-space: pre;">0.014</text></g></g></g></g></g><g class="overplot"/><path class="xlines-above crisp" d="" style="fill: none; stroke-width: 1px; stroke: rgb(0, 0, 0); stroke-opacity: 0;"/><path class="ylines-above crisp" d="" style="fill: none; stroke-width: 1px; stroke: rgb(0, 0, 0); stroke-opacity: 0;"/><g class="overlines-above"/><g class="xaxislayer-above"><path class="xtick ticks crisp" d="M0,458v3.65296803652968" transform="translate(150.17000000000002,0)" style="stroke: rgb(51, 51, 51); stroke-opacity: 1; stroke-width: 0.664176px;"/><path class="xtick ticks crisp" d="M0,458v3.65296803652968" transform="translate(254.24,0)" style="stroke: rgb(51, 51, 51); stroke-opacity: 1; stroke-width: 0.664176px;"/><path class="xtick ticks crisp" d="M0,458v3.65296803652968" transform="translate(358.32,0)" style="stroke: rgb(51, 51, 51); stroke-opacity: 1; stroke-width: 0.664176px;"/><path class="xtick ticks crisp" d="M0,458v3.65296803652968" transform="translate(462.39,0)" style="stroke: rgb(51, 51, 51); stroke-opacity: 1; stroke-width: 0.664176px;"/><path class="xtick ticks crisp" d="M0,458v3.65296803652968" transform="translate(566.47,0)" style="stroke: rgb(51, 51, 51); stroke-opacity: 1; stroke-width: 0.664176px;"/><path class="xtick ticks crisp" d="M0,458v3.65296803652968" transform="translate(670.54,0)" style="stroke: rgb(51, 51, 51); stroke-opacity: 1; stroke-width: 0.664176px;"/><g class="xtick"><text text-anchor="middle" x="0" y="475.6803652968037" transform="translate(150.17000000000002,0)" style="font-family: 'Open Sans', verdana, arial, sans-serif; font-size: 11.6895px; fill: rgb(77, 77, 77); fill-opacity: 1; white-space: pre;">50</text></g><g class="xtick"><text text-anchor="middle" x="0" y="475.6803652968037" transform="translate(254.24,0)" style="font-family: 'Open Sans', verdana, arial, sans-serif; font-size: 11.6895px; fill: rgb(77, 77, 77); fill-opacity: 1; white-space: pre;">60</text></g><g class="xtick"><text text-anchor="middle" x="0" y="475.6803652968037" transform="translate(358.32,0)" style="font-family: 'Open Sans', verdana, arial, sans-serif; font-size: 11.6895px; fill: rgb(77, 77, 77); fill-opacity: 1; white-space: pre;">70</text></g><g class="xtick"><text text-anchor="middle" x="0" y="475.6803652968037" transform="translate(462.39,0)" style="font-family: 'Open Sans', verdana, arial, sans-serif; font-size: 11.6895px; fill: rgb(77, 77, 77); fill-opacity: 1; white-space: pre;">80</text></g><g class="xtick"><text text-anchor="middle" x="0" y="475.6803652968037" transform="translate(566.47,0)" style="font-family: 'Open Sans', verdana, arial, sans-serif; font-size: 11.6895px; fill: rgb(77, 77, 77); fill-opacity: 1; white-space: pre;">90</text></g><g class="xtick"><text text-anchor="middle" x="0" y="475.6803652968037" transform="translate(670.54,0)" style="font-family: 'Open Sans', verdana, arial, sans-serif; font-size: 11.6895px; fill: rgb(77, 77, 77); fill-opacity: 1; white-space: pre;">100</text></g></g><g class="yaxislayer-above"><path class="ytick ticks crisp" d="M47,0h-3.65296803652968" transform="translate(0,445.17)" style="stroke: rgb(51, 51, 51); stroke-opacity: 1; stroke-width: 0.664176px;"/><path class="ytick ticks crisp" d="M47,0h-3.65296803652968" transform="translate(0,399.74)" style="stroke: rgb(51, 51, 51); stroke-opacity: 1; stroke-width: 0.664176px;"/><path class="ytick ticks crisp" d="M47,0h-3.65296803652968" transform="translate(0,354.3)" style="stroke: rgb(51, 51, 51); stroke-opacity: 1; stroke-width: 0.664176px;"/><path class="ytick ticks crisp" d="M47,0h-3.65296803652968" transform="translate(0,308.87)" style="stroke: rgb(51, 51, 51); stroke-opacity: 1; stroke-width: 0.664176px;"/><path class="ytick ticks crisp" d="M47,0h-3.65296803652968" transform="translate(0,263.44)" style="stroke: rgb(51, 51, 51); stroke-opacity: 1; stroke-width: 0.664176px;"/><path class="ytick ticks crisp" d="M47,0h-3.65296803652968" transform="translate(0,218.01)" style="stroke: rgb(51, 51, 51); stroke-opacity: 1; stroke-width: 0.664176px;"/><path class="ytick ticks crisp" d="M47,0h-3.65296803652968" transform="translate(0,172.57)" style="stroke: rgb(51, 51, 51); stroke-opacity: 1; stroke-width: 0.664176px;"/><path class="ytick ticks crisp" d="M47,0h-3.65296803652968" transform="translate(0,127.14)" style="stroke: rgb(51, 51, 51); stroke-opacity: 1; stroke-width: 0.664176px;"/><path class="ytick ticks crisp" d="M47,0h-3.65296803652968" transform="translate(0,81.71000000000001)" style="stroke: rgb(51, 51, 51); stroke-opacity: 1; stroke-width: 0.664176px;"/><path class="ytick ticks crisp" d="M47,0h-3.65296803652968" transform="translate(0,36.269999999999996)" style="stroke: rgb(51, 51, 51); stroke-opacity: 1; stroke-width: 0.664176px;"/><g class="ytick"><text text-anchor="end" x="41.00913242009132" y="4.09132420091325" transform="translate(0,445.17)" style="font-family: 'Open Sans', verdana, arial, sans-serif; font-size: 11.6895px; fill: rgb(77, 77, 77); fill-opacity: 1; white-space: pre;">1</text></g><g class="ytick"><text text-anchor="end" x="41.00913242009132" y="4.09132420091325" transform="translate(0,399.74)" style="font-family: 'Open Sans', verdana, arial, sans-serif; font-size: 11.6895px; fill: rgb(77, 77, 77); fill-opacity: 1; white-space: pre;">1.5</text></g><g class="ytick"><text text-anchor="end" x="41.00913242009132" y="4.09132420091325" transform="translate(0,354.3)" style="font-family: 'Open Sans', verdana, arial, sans-serif; font-size: 11.6895px; fill: rgb(77, 77, 77); fill-opacity: 1; white-space: pre;">2</text></g><g class="ytick"><text text-anchor="end" x="41.00913242009132" y="4.09132420091325" transform="translate(0,308.87)" style="font-family: 'Open Sans', verdana, arial, sans-serif; font-size: 11.6895px; fill: rgb(77, 77, 77); fill-opacity: 1; white-space: pre;">2.5</text></g><g class="ytick"><text text-anchor="end" x="41.00913242009132" y="4.09132420091325" transform="translate(0,263.44)" style="font-family: 'Open Sans', verdana, arial, sans-serif; font-size: 11.6895px; fill: rgb(77, 77, 77); fill-opacity: 1; white-space: pre;">3</text></g><g class="ytick"><text text-anchor="end" x="41.00913242009132" y="4.09132420091325" transform="translate(0,218.01)" style="font-family: 'Open Sans', verdana, arial, sans-serif; font-size: 11.6895px; fill: rgb(77, 77, 77); fill-opacity: 1; white-space: pre;">3.5</text></g><g class="ytick"><text text-anchor="end" x="41.00913242009132" y="4.09132420091325" transform="translate(0,172.57)" style="font-family: 'Open Sans', verdana, arial, sans-serif; font-size: 11.6895px; fill: rgb(77, 77, 77); fill-opacity: 1; white-space: pre;">4</text></g><g class="ytick"><text text-anchor="end" x="41.00913242009132" y="4.09132420091325" transform="translate(0,127.14)" style="font-family: 'Open Sans', verdana, arial, sans-serif; font-size: 11.6895px; fill: rgb(77, 77, 77); fill-opacity: 1; white-space: pre;">4.5</text></g><g class="ytick"><text text-anchor="end" x="41.00913242009132" y="4.09132420091325" transform="translate(0,81.71000000000001)" style="font-family: 'Open Sans', verdana, arial, sans-serif; font-size: 11.6895px; fill: rgb(77, 77, 77); fill-opacity: 1; white-space: pre;">5</text></g><g class="ytick"><text text-anchor="end" x="41.00913242009132" y="4.09132420091325" transform="translate(0,36.269999999999996)" style="font-family: 'Open Sans', verdana, arial, sans-serif; font-size: 11.6895px; fill: rgb(77, 77, 77); fill-opacity: 1; white-space: pre;">5.5</text></g></g><g class="overaxes-above"/></g></g><g class="polarlayer"/><g class="ternarylayer"/><g class="geolayer"/><g class="pielayer"/><g class="sunburstlayer"/><g class="glimages"/><defs id="topdefs-c57293"><g class="clips"/></defs><g class="layer-above"><g class="imagelayer"/><g class="shapelayer"><path data-index="0" fill-rule="evenodd" d="M48,457H693V21H48Z" style="opacity: 1; stroke: rgb(0, 0, 0); stroke-opacity: 0; fill: rgb(0, 0, 0); fill-opacity: 0; stroke-width: 0px;"/></g></g><g class="infolayer"><g class="g-gtitle"/><g class="g-xtitle" transform="translate(0,-13.851241438356055)"><text class="xtitle" x="370.5" y="510.8356164383561" text-anchor="middle" style="font-family: 'Open Sans', verdana, arial, sans-serif; font-size: 14.61px; fill: rgb(0, 0, 0); opacity: 1; font-weight: normal; white-space: pre;">waiting</text></g><g class="g-ytitle" transform="translate(5.7236328125,0)"><text class="ytitle" transform="rotate(-90,8.776255707762601,239)" x="8.776255707762601" y="239" text-anchor="middle" style="font-family: 'Open Sans', verdana, arial, sans-serif; font-size: 14.61px; fill: rgb(0, 0, 0); opacity: 1; font-weight: normal; white-space: pre;">duration</text></g></g></svg>