<svg class="main-svg" xmlns="http://www.w3.org/2000/svg" xmlns:xlink="http://www.w3.org/1999/xlink" width="900" height="600" viewBox="0 0 900 600"><rect x="0" y="0" width="900" height="600" style="fill: rgb(255, 255, 255); fill-opacity: 1;"/><defs id="defs-24f7b1"><g class="clips"><clipPath id="clip24f7b1xyplot" class="plotclip"><rect width="858" height="531"/></clipPath><clipPath class="axesclip" id="clip24f7b1x"><rect x="35" y="0" width="858" height="600"/></clipPath><clipPath class="axesclip" id="clip24f7b1y"><rect x="0" y="27" width="900" height="531"/></clipPath><clipPath class="axesclip" id="clip24f7b1xy"><rect x="35" y="27" width="858" height="531"/></clipPath></g><g class="gradients"/></defs><g class="bglayer"><rect class="bg" x="35" y="27" width="858" height="531" style="fill: rgb(235, 235, 235); fill-opacity: 1; stroke-width: 0;"/></g><g class="layer-below"><g class="imagelayer"/><g class="shapelayer"/></g><g class="cartesianlayer"><g class="subplot xy"><g class="layer-subplot"><g class="shapelayer"/><g class="imagelayer"/></g><g class="gridlayer"><g class="x"><path class="xgrid crisp" d="M0,27v531" transform="translate(309.35,0)" style="stroke: rgb(255, 255, 255); stroke-opacity: 1; stroke-width: 0.664176px;"/><path class="xgrid crisp" d="M0,27v531" transform="translate(586.24,0)" style="stroke: rgb(255, 255, 255); stroke-opacity: 1; stroke-width: 0.664176px;"/><path class="xgrid crisp" d="M0,27v531" transform="translate(863.12,0)" style="stroke: rgb(255, 255, 255); stroke-opacity: 1; stroke-width: 0.664176px;"/></g><g class="y"><path class="ygrid crisp" d="M35,0h858" transform="translate(0,543.59)" style="stroke: rgb(255, 255, 255); stroke-opacity: 1; stroke-width: 0.664176px;"/><path class="ygrid crisp" d="M35,0h858" transform="translate(0,432.93)" style="stroke: rgb(255, 255, 255); stroke-opacity: 1; stroke-width: 0.664176px;"/><path class="ygrid crisp" d="M35,0h858" transform="translate(0,322.26)" style="stroke: rgb(255, 255, 255); stroke-opacity: 1; stroke-width: 0.664176px;"/><path class="ygrid crisp" d="M35,0h858" transform="translate(0,211.6)" style="stroke: rgb(255, 255, 255); stroke-opacity: 1; stroke-width: 0.664176px;"/><path class="ygrid crisp" d="M35,0h858" transform="translate(0,100.94)" style="stroke: rgb(255, 255, 255); stroke-opacity: 1; stroke-width: 0.664176px;"/></g></g><g class="zerolinelayer"/><path class="xlines-below"/><path class="ylines-below"/><g class="overlines-below"/><g class="xaxislayer-below"/><g class="yaxislayer-below"/><g class="overaxes-below"/><g class="plot" transform="translate(35, 27)" clip-path="url(#clip24f7b1xyplot)"><g class="scatterlayer mlayer"><g class="trace scatter trace8962e4" style="stroke-miterlimit: 2; opacity: 1;"><g class="fills"/><g class="errorbars"/><g class="lines"><path class="js-line" d="M194.35,24.14L229.88,27.98L238.97,29.08L275.33,32.73L284.42,33.58L329.87,38.65L335.65,39.62L357.14,43.74L361.53,44.78L384.41,50.58L393.5,53.01L423.22,60.26L429.86,61.52L457.52,65.42L466.21,66.21L548.02,73.23L557.11,74.35L611.65,82.31L620.74,83.89L654.86,91.22L657.1,91.78L675.28,97.15L684.37,100.38L702.54,108.37L709.03,111.87L720.72,119.49L724.3,122.19L735.01,132.51L738.9,137.67L744.58,147.99L746.28,153.15L747.76,163.47L747.61,168.63L745.62,178.95L743.76,184.11L738.21,194.44L734.72,199.6L725.98,209.92L720.78,215.08L709.43,225.4L703.23,230.56L672.99,256.36L668.04,261.52L660.73,271.84L658.89,277.01L658.69,282.17L660.47,287.33L666.19,293.97L670.54,297.65L687.79,307.97L693.45,310.82L744.56,338.93L747.99,341.03L767.83,354.41L774.74,359.57L787.42,369.9L792.95,375.06L802.7,385.38L806.92,390.54L813.37,400.86L815.78,406.02L818.58,416.34L819,421.5L817.88,431.82L816.26,436.98L810.68,447.3L806.8,452.47L796.13,462.79L793.44,464.83L781.01,473.11L775.26,476.25L759.49,483.43L757.08,484.39L738.9,490.53L729.81,492.99L711.63,497.09L702.54,498.68L675.28,502.51L666.19,503.4L629.83,505.97L620.74,506.35L584.38,506.8L575.29,506.6L548.02,504.97L539.56,504.07L520.75,501.7L511.66,500.14L483.14,493.75L475.3,491.67L451.05,483.43L448.03,482.27L428.19,473.11L420.77,468.98L411.06,462.79L404.06,457.63L392.73,447.3L388.1,442.14L381.05,431.82L378.46,426.66L375.19,416.34L374.29,411.18L374.28,400.86L375.16,395.7L378.37,385.38L380.88,380.22L387.61,369.9L391.87,364.74L402.59,353.91L407.8,349.25L421.04,338.93L428.15,333.77L457.12,312.72L462.15,307.97L466.21,301.35L467.19,297.65L465.59,292.49L460.74,287.33L448.03,280.01L441.73,277.01L411.68,265.64L402.59,262.42L384.41,256.21L375.32,253.42L357.14,248.67L348.05,246.95L329.87,245.16L320.78,245.03L300.69,246.04L293.51,246.71L246.35,251.2L238.97,251.7L211.7,252.39L202.61,252.21L175.34,250.47L166.26,249.51L143.97,246.04L138.99,245.15L120.63,240.88L111.72,238.45L89.58,230.56L84.45,228.4L66.27,219.02L59.91,215.08L46.04,204.76L40.31,199.6L39,198.27" style="vector-effect: non-scaling-stroke; fill: none; stroke: rgb(51, 102, 255); stroke-opacity: 1; stroke-width: 1.88976px; opacity: 1;"/><path class="js-line" d="M39,71.65L45.07,65.42L48.09,62.7L57.36,55.1L64.62,49.94L75.36,43.39L82.71,39.62L94.54,34.46L102.63,31.47L120.81,26.58L129.9,24.94L136.21,24.14" style="vector-effect: non-scaling-stroke; fill: none; stroke: rgb(51, 102, 255); stroke-opacity: 1; stroke-width: 1.88976px; opacity: 1;"/><path class="js-line" d="M48.09,160.07L45.58,153.15L44.32,147.99L43.17,137.67L43.24,132.51L44.67,122.19L46.05,117.03L50.11,106.71L52.82,101.55L59.88,91.22L64.3,86.06L75.38,75.74L82.31,70.58L93.54,63.75L100.7,60.26L111.72,55.79L113.87,55.1L129.9,50.69L134,49.94L148.08,47.83L157.17,47.11L175.34,46.86L184.43,47.22L213.99,49.94L220.79,50.73L302.6,61.28L311.69,62.71L338.96,68.26L347.99,70.58L404.41,86.06L411.68,87.42L429.86,89.73L438.94,90.43L475.3,91.67L484.39,91.88L520.75,93.58L529.84,94.32L566.2,98.57L575.29,99.96L611.65,106.91L620.74,109.07L638.92,114.26L646.94,117.03L659.54,122.19L666.19,125.49L677.67,132.51L684.12,137.67L689.26,142.83L693.16,147.99L696.09,153.15L698.04,158.31L699.1,163.47L699.33,168.63L698.77,173.79L697.44,178.95L692.5,189.28L689,194.44L679.8,204.76L675.28,208.89L666.19,216.39L661.05,220.24L645.48,230.56L638.92,234.5L620.74,244.23L616.77,246.04L602.56,252.17L593.47,255.42L575.29,260.39L568.8,261.52L557.11,263.25L548.02,263.92L529.84,263.89L520.75,263.29L493.48,259.79L484.39,258.15L454.49,251.2L448.03,249.49L420.77,240.67L411.68,237.35L375.32,223.57L366.23,220.79L348.05,217.27L338.96,216.67L320.78,217.56L311.69,218.76L248.06,229.47L238.97,230.4L211.7,231.81L202.61,231.77L181.13,230.56L175.34,230.05L157.17,227.58L148.08,225.85L126.06,220.24L120.81,218.6L102.63,211.41L99.54,209.92L84.45,201.42L81.7,199.6L68.76,189.28L66.27,186.81L59.17,178.95L57.18,176.23L52.12,168.63L49.49,163.47L48.09,160.07" style="vector-effect: non-scaling-stroke; fill: none; stroke: rgb(51, 102, 255); stroke-opacity: 1; stroke-width: 1.88976px; opacity: 1;"/><path class="js-line" d="M411.68,416.34L410.49,406.02L410.98,400.86L413.95,390.54L416.49,385.38L423.85,375.06L428.73,369.9L438.94,361.12L440.99,359.57L457.26,349.25L466.21,344.57L484.39,336.64L492.55,333.77L502.57,330.49L509.71,328.61L520.75,325.85L529.84,324.16L548.02,321.74L557.11,321.12L575.29,321L584.38,321.45L611.65,324.44L620.74,325.83L648.01,331.27L657.1,333.56L684.37,341.65L690.91,344.09L703.75,349.25L711.63,352.79L729.81,362.48L733.49,364.74L748.15,375.06L754.34,380.22L764.36,390.54L766.17,392.95L771.53,400.86L773.97,406.02L776.71,416.34L776.92,421.5L775.26,430.25L774.82,431.82L772.5,436.98L769.14,442.14L764.68,447.3L759.01,452.47L747.99,460.02L743.06,462.79L729.81,468.83L720.72,472.15L702.54,477.38L698.66,478.27L684.37,481.22L675.28,482.69L648.01,485.95L638.92,486.67L611.65,487.94L602.56,488.09L575.29,487.74L566.2,487.32L538.93,484.9L529.84,483.61L511.66,480.45L502.57,478.36L483.77,473.11L475.3,470.24L457.12,462.45L448.16,457.63L438.94,451.69L433.13,447.3L422.6,436.98L420.77,434.54L415.54,426.66L413.24,421.5L411.68,416.34" style="vector-effect: non-scaling-stroke; fill: none; stroke: rgb(51, 102, 255); stroke-opacity: 1; stroke-width: 1.88976px; opacity: 1;"/><path class="js-line" d="M75.36,164.18L72.23,158.31L70.17,153.15L67.73,142.83L67.31,137.67L67.98,127.35L69.1,122.19L73.02,111.87L75.36,107.66L79.42,101.55L83.72,96.38L88.93,91.22L93.54,87.34L102.95,80.9L111.72,76.25L120.81,72.46L126.59,70.58L138.99,67.36L148.08,65.83L166.26,64.33L175.34,64.27L195.75,65.42L202.61,66.08L234.9,70.58L238.97,71.23L284.42,79.26L292.42,80.9L313.6,86.06L320.78,88.19L344.24,96.38L348.05,97.93L375.32,107.84L384.41,110.07L402.59,112.32L411.68,112.58L438.94,111.63L448.03,111.08L484.39,109.46L493.48,109.38L520.75,110.22L529.84,110.89L557.11,114.09L566.2,115.57L593.47,121.36L596.61,122.19L613.61,127.35L620.74,130L629.83,133.95L637.03,137.67L645.01,142.83L648.01,145.28L651.13,147.99L655.67,153.15L658.87,158.31L660.87,163.47L661.76,168.63L661.62,173.79L660.52,178.95L658.47,184.11L651.74,194.44L648.01,198.51L641.46,204.76L638.92,206.81L627.52,215.08L620.74,219.22L609.08,225.4L602.56,228.42L584.38,235.2L582.57,235.72L566.2,239.9L560.61,240.88L548.02,242.71L538.93,243.46L520.75,243.76L511.66,243.37L489.37,240.88L484.39,240.13L463.89,235.72L457.12,233.93L438.94,227.95L432.41,225.4L420.54,220.24L411.68,215.92L400.12,209.92L393.5,206.23L375.32,196.92L368.85,194.44L366.23,193.36L357.14,190.98L348.05,189.97L338.96,190.19L329.87,191.44L320.78,193.45L262.19,209.92L257.15,211.01L238.97,214.1L230.48,215.08L220.79,215.89L211.7,216.3L193.52,216.16L184.43,215.6L166.26,213.49L157.17,211.9L138.99,207.43L130.79,204.76L117.98,199.6L111.72,196.56L99.59,189.28L93.54,184.76L87.01,178.95L84.45,176.26L78.19,168.63L75.36,164.18" style="vector-effect: non-scaling-stroke; fill: none; stroke: rgb(51, 102, 255); stroke-opacity: 1; stroke-width: 1.88976px; opacity: 1;"/><path class="js-line" d="M438.94,418.77L438.06,416.34L437.06,411.18L436.91,406.02L437.61,400.86L439.16,395.7L441.51,390.54L448.03,381.43L449.06,380.22L457.12,372.76L460.83,369.9L468.7,364.74L475.3,361.05L490.25,354.41L493.48,353.16L511.66,347.67L520.75,345.65L538.93,342.82L548.02,341.93L566.2,341.13L575.29,341.16L602.56,342.74L611.65,343.75L638.92,347.99L644.79,349.25L657.1,352.09L665.37,354.41L681.07,359.57L684.37,360.79L704.41,369.9L711.63,373.99L721.01,380.22L727.51,385.38L732.97,390.54L737.44,395.7L743.69,406.02L745.44,411.18L746.27,416.34L746.15,421.5L745.04,426.66L742.85,431.82L738.9,437.59L734.74,442.14L728.44,447.3L720.72,452.18L711.63,456.7L709.52,457.63L693.45,463.35L684.37,465.84L666.19,469.66L657.1,471.11L629.83,474.05L620.74,474.64L593.47,475.37L584.38,475.26L557.11,473.78L550.64,473.11L538.93,471.71L529.84,470.28L511.66,466.45L502.57,463.98L484.39,457.6L475.3,453.48L464.3,447.3L457.12,442.22L448.03,433.7L446.33,431.82L442.62,426.66L439.91,421.5L438.94,418.77" style="vector-effect: non-scaling-stroke; fill: none; stroke: rgb(51, 102, 255); stroke-opacity: 1; stroke-width: 1.88976px; opacity: 1;"/><path class="js-line" d="M93.54,155.62L90.53,147.99L89.38,142.83L89.05,132.51L89.85,127.35L93.54,116.99L96.56,111.87L102.63,104.36L105.52,101.55L111.88,96.38L120.34,91.22L129.9,86.93L132.41,86.06L138.99,83.97L148.08,81.89L166.26,79.81L175.34,79.62L196.4,80.9L202.61,81.61L229.88,86.2L238.97,88.13L266.24,94.92L271.4,96.38L286.79,101.55L293.51,104.32L302.6,108.63L308.49,111.87L316.02,117.03L320.78,121.26L321.87,122.19L326.41,127.35L329.87,133.82L331.3,137.67L331.59,142.83L330.09,147.99L327.23,153.15L322.64,158.31L309.97,168.63L302.6,173.46L293.33,178.95L284.42,183.54L271.41,189.28L266.24,191.2L248.06,196.72L238.97,198.75L220.79,201.43L211.7,202.12L193.52,202.28L184.43,201.75L166.26,199.4L157.17,197.51L138.99,192.02L132.32,189.28L120.81,183.39L114.06,178.95L107.63,173.79L102.63,168.89L98.22,163.47L94.89,158.31L93.54,155.62" style="vector-effect: non-scaling-stroke; fill: none; stroke: rgb(51, 102, 255); stroke-opacity: 1; stroke-width: 1.88976px; opacity: 1;"/><path class="js-line" d="M402.59,180.97L400.88,178.95L397.6,173.79L395.34,168.63L394.19,163.47L394.37,158.31L396.35,153.15L402.59,146.9L408.53,142.83L420.77,137.39L429.86,134.35L448.03,129.75L457.12,128.02L475.3,125.57L484.39,124.79L502.57,124.1L511.66,124.18L529.84,125.2L538.93,126.15L557.11,128.96L566.2,130.85L584.38,135.84L589.72,137.67L602.56,143.09L611.26,147.99L618.11,153.15L620.74,155.83L623.04,158.31L626.32,163.47L628.16,168.63L628.68,173.79L627.99,178.95L626.14,184.11L620.74,192.33L619.05,194.44L611.65,201.31L607.2,204.76L593.47,212.99L589.17,215.08L575.29,220.62L566.2,223.38L548.02,227.17L538.93,228.29L520.75,229.13L511.66,228.89L493.48,227.14L484.39,225.61L466.21,221.15L463.34,220.24L448.03,214.52L438.94,210.2L429.4,204.76L421.8,199.6L409.68,189.28L404.89,184.11L402.59,180.97" style="vector-effect: non-scaling-stroke; fill: none; stroke: rgb(51, 102, 255); stroke-opacity: 1; stroke-width: 1.88976px; opacity: 1;"/><path class="js-line" d="M466.21,426.56L463.01,421.5L460.88,416.34L459.8,411.18L459.75,406.02L460.71,400.86L462.72,395.7L466.21,390.07L470.16,385.38L475.84,380.22L483.16,375.06L493.48,369.47L502.57,365.67L511.66,362.62L520.75,360.22L538.93,356.88L548.02,355.86L566.2,354.86L575.29,354.82L593.47,355.53L602.56,356.27L626.96,359.57L629.83,360.05L650.65,364.74L657.1,366.54L675.28,373.01L679.92,375.06L693.45,382.25L698.29,385.38L704.95,390.54L710.25,395.7L714.34,400.86L717.26,406.02L719.05,411.18L719.7,416.34L719.17,421.5L717.38,426.66L711.63,434.64L709.38,436.98L702.54,442.22L693.46,447.3L675.28,454.21L666.19,456.7L648.01,460.36L638.92,461.69L611.65,464.12L602.56,464.48L575.29,464.25L566.2,463.71L548.02,461.86L538.93,460.49L520.75,456.65L511.66,454.07L502.57,450.91L493.99,447.3L484.24,442.14L476.66,436.98L470.76,431.82L466.28,426.66" style="vector-effect: non-scaling-stroke; fill: none; stroke: rgb(51, 102, 255); stroke-opacity: 1; stroke-width: 1.88976px; opacity: 1;"/><path class="js-line" d="M111.72,143.28L111.6,142.83L111.08,137.67L111.72,131.18L112.69,127.35L114.98,122.19L118.33,117.03L123.12,111.87L129.72,106.71L129.9,106.59L138.99,101.83L148.08,98.7L157.17,96.64L166.26,95.53L175.34,95.16L194.98,96.38L202.61,97.49L221.88,101.55L229.88,103.79L248.06,110.11L252.32,111.87L266.24,119.49L270.12,122.19L275.62,127.35L279.31,132.51L281.38,137.67L282.01,142.83L281.31,147.99L279.32,153.15L275.33,159.1L271.4,163.47L265.26,168.63L257.23,173.79L246.35,178.95L238.97,181.59L229.88,184.2L220.79,186L202.61,187.84L193.52,187.91L175.34,186.37L166.26,184.73L157.17,182.35L148.08,179.2L136.96,173.79L129.9,169.22L123.26,163.47L120.81,160.82L115.43,153.15L113.05,147.99L111.72,143.28" style="vector-effect: non-scaling-stroke; fill: none; stroke: rgb(51, 102, 255); stroke-opacity: 1; stroke-width: 1.88976px; opacity: 1;"/><path class="js-line" d="M438.94,184.66L438.51,184.11L435.83,178.95L434.49,173.79L434.59,168.63L436.28,163.47L438.94,159.57L439.88,158.31L445.88,153.15L455.28,147.99L457.12,147.23L470.73,142.83L475.3,141.76L493.48,139.05L502.57,138.44L520.75,138.6L529.84,139.33L551.02,142.83L557.11,144.38L568.28,147.99L575.29,151.04L584.38,156.28L587.22,158.31L593.47,165.09L595.58,168.63L596.96,173.79L596.75,178.95L593.47,186.6L591.73,189.28L584.38,196.37L579.95,199.6L570.57,204.76L566.2,206.66L557.11,209.93L548.02,212.25L529.84,214.94L526.9,215.08L510.2,215.08L502.57,214.45L484.39,211.19L479.81,209.92L465.48,204.76L457.12,200.48L455.59,199.6L448.15,194.44L442.6,189.28L438.94,184.66" style="vector-effect: non-scaling-stroke; fill: none; stroke: rgb(51, 102, 255); stroke-opacity: 1; stroke-width: 1.88976px; opacity: 1;"/><path class="js-line" d="M484.39,419.58L482.81,416.34L481.61,411.18L481.7,406.02L483.07,400.86L485.84,395.7L490.15,390.54L496.25,385.38L502.57,381.37L511.66,376.99L516.74,375.06L529.84,371.21L536.11,369.9L548.02,368.01L557.11,367.12L575.29,366.49L584.38,366.68L602.56,367.98L611.65,369.09L629.83,372.32L638.92,374.5L657.1,380.41L666.19,384.44L676.83,390.54L683.49,395.7L688.38,400.86L691.75,406.02L693.65,411.18L694.07,416.34L692.97,421.5L690.18,426.66L684.37,432.72L678.38,436.98L666.19,442.88L657.1,445.98L648.01,448.42L638.92,450.31L620.74,452.94L611.65,453.75L593.47,454.52L584.38,454.49L566.2,453.59L557.11,452.67L538.93,449.68L529.84,447.54L520.75,444.76L513.7,442.14L502.57,436.76L495.15,431.82L489.43,426.66L485.37,421.5L484.39,419.58" style="vector-effect: non-scaling-stroke; fill: none; stroke: rgb(51, 102, 255); stroke-opacity: 1; stroke-width: 1.88976px; opacity: 1;"/><path class="js-line" d="M138.99,137.72L140.18,132.51L143.22,127.35L148.34,122.19L157.17,117.56L166.26,115.16L175.34,114.17L184.43,114.28L193.52,115.33L202.61,117.19L211.7,120.14L220.79,124.13L226.39,127.35L232.73,132.51L236.61,137.67L238.42,142.83L238.19,147.99L235.86,153.15L231.28,158.31L223.18,163.47L220.79,164.55L206.74,168.63L202.61,169.32L193.52,169.93L184.43,169.64L175.34,168.41L166.26,165.93L157.17,162.15L151.01,158.31L145.25,153.15L141.6,147.99L139.49,142.83L138.99,137.72" style="vector-effect: non-scaling-stroke; fill: none; stroke: rgb(51, 102, 255); stroke-opacity: 1; stroke-width: 1.88976px; opacity: 1;"/><path class="js-line" d="M475.3,185.44L473.98,184.11L471.14,178.95L470.68,173.79L472.77,168.63L478.25,163.47L484.39,160.25L493.48,157.25L502.57,155.7L511.66,155.08L520.75,155.32L529.84,156.41L538.84,158.31L551.17,163.47L557.11,167.93L557.87,168.63L560.87,173.79L561.22,178.95L559.03,184.11L553.77,189.28L548.02,192.67L538.93,196.16L529.84,198.15L520.75,199.08L511.66,198.96L502.57,197.81L493.48,195.65L484.39,191.91L479.86,189.28L475.3,185.44" style="vector-effect: non-scaling-stroke; fill: none; stroke: rgb(51, 102, 255); stroke-opacity: 1; stroke-width: 1.88976px; opacity: 1;"/><path class="js-line" d="M511.66,423.61L509.55,421.5L506.26,416.34L504.8,411.18L505.15,406.02L507.34,400.86L511.47,395.7L511.66,395.53L518.38,390.54L520.75,389.2L529.04,385.38L538.93,382.32L548.02,380.31L557.11,379.04L566.2,378.29L584.38,378.15L593.47,378.69L611.65,381L620.74,382.87L630.43,385.38L638.92,388.34L648.01,392.41L653.79,395.7L660.34,400.86L664.57,406.02L666.73,411.18L666.83,416.34L664.79,421.5L660.27,426.66L652.6,431.82L648.01,433.96L638.92,437.38L629.83,439.72L611.65,442.79L602.56,443.59L584.38,444.06L575.29,443.74L557.11,441.87L548.02,440.14L536.11,436.98L529.84,434.68L520.75,430.34L515.08,426.66L511.66,423.61" style="vector-effect: non-scaling-stroke; fill: none; stroke: rgb(51, 102, 255); stroke-opacity: 1; stroke-width: 1.88976px; opacity: 1;"/><path class="js-line" d="M538.93,419.09L536.22,416.34L534.22,411.18L535.32,406.02L538.93,401.7L539.83,400.86L548.02,396.5L557.11,393.82L566.2,392.28L584.38,391.65L593.47,392.4L611.65,395.98L620.74,399.55L623.45,400.86L629.83,405.54L630.38,406.02L633.17,411.18L632.6,416.34L629.83,419.78L628.14,421.5L620.74,425.44L611.65,428.34L602.56,430.08L584.38,431.35L575.29,430.93L557.11,427.89L552.91,426.66L541.83,421.5L538.93,419.09" style="vector-effect: non-scaling-stroke; fill: none; stroke: rgb(51, 102, 255); stroke-opacity: 1; stroke-width: 1.88976px; opacity: 1;"/></g><g class="points"/><g class="text"/></g><g class="trace scatter trace946e93" style="stroke-miterlimit: 2; opacity: 1;"><g class="fills"/><g class="errorbars"/><g class="lines"/><g class="points"/><g class="text"><g class="textpoint" transform="translate(0,2.25)"><text x="593.47" y="506.86" text-anchor="middle" style="font-family: 'Open Sans', verdana, arial, sans-serif; font-size: 9px; fill: rgb(0, 0, 0); fill-opacity: 1; white-space: pre;">0.002</text></g><g class="textpoint" transform="translate(0,2.25)"><text x="39" y="71.65" text-anchor="middle" style="font-family: 'Open Sans', verdana, arial, sans-serif; font-size: 9px; fill: rgb(0, 0, 0); fill-opacity: 1; white-space: pre;">0.002</text></g><g class="textpoint" transform="translate(0,2.25)"><text x="538.93" y="264.11" text-anchor="middle" style="font-family: 'Open Sans', verdana, arial, sans-serif; font-size: 9px; fill: rgb(0, 0, 0); fill-opacity: 1; white-space: pre;">0.004</text></g><g class="textpoint" transform="translate(0,2.25)"><text x="593.47" y="488.11" text-anchor="middle" style="font-family: 'Open Sans', verdana, arial, sans-serif; font-size: 9px; fill: rgb(0, 0, 0); fill-opacity: 1; white-space: pre;">0.004</text></g><g class="textpoint" transform="translate(0,2.25)"><text x="529.84" y="243.8" text-anchor="middle" style="font-family: 'Open Sans', verdana, arial, sans-serif; font-size: 9px; fill: rgb(0, 0, 0); fill-opacity: 1; white-space: pre;">0.006</text></g><g class="textpoint" transform="translate(0,2.25)"><text x="593.47" y="475.37" text-anchor="middle" style="font-family: 'Open Sans', verdana, arial, sans-serif; font-size: 9px; fill: rgb(0, 0, 0); fill-opacity: 1; white-space: pre;">0.006</text></g><g class="textpoint" transform="translate(0,2.25)"><text x="202.61" y="202.4" text-anchor="middle" style="font-family: 'Open Sans', verdana, arial, sans-serif; font-size: 9px; fill: rgb(0, 0, 0); fill-opacity: 1; white-space: pre;">0.008</text></g><g class="textpoint" transform="translate(0,2.25)"><text x="520.75" y="229.13" text-anchor="middle" style="font-family: 'Open Sans', verdana, arial, sans-serif; font-size: 9px; fill: rgb(0, 0, 0); fill-opacity: 1; white-space: pre;">0.008</text></g><g class="textpoint" transform="translate(0,2.25)"><text x="593.47" y="464.62" text-anchor="middle" style="font-family: 'Open Sans', verdana, arial, sans-serif; font-size: 9px; fill: rgb(0, 0, 0); fill-opacity: 1; white-space: pre;">0.008</text></g><g class="textpoint" transform="translate(0,2.25)"><text x="193.52" y="187.91" text-anchor="middle" style="font-family: 'Open Sans', verdana, arial, sans-serif; font-size: 9px; fill: rgb(0, 0, 0); fill-opacity: 1; white-space: pre;">0.01</text></g><g class="textpoint" transform="translate(0,2.25)"><text x="520.75" y="215.35" text-anchor="middle" style="font-family: 'Open Sans', verdana, arial, sans-serif; font-size: 9px; fill: rgb(0, 0, 0); fill-opacity: 1; white-space: pre;">0.01</text></g><g class="textpoint" transform="translate(0,2.25)"><text x="593.47" y="454.52" text-anchor="middle" style="font-family: 'Open Sans', verdana, arial, sans-serif; font-size: 9px; fill: rgb(0, 0, 0); fill-opacity: 1; white-space: pre;">0.01</text></g><g class="textpoint" transform="translate(0,2.25)"><text x="193.52" y="169.93" text-anchor="middle" style="font-family: 'Open Sans', verdana, arial, sans-serif; font-size: 9px; fill: rgb(0, 0, 0); fill-opacity: 1; white-space: pre;">0.012</text></g><g class="textpoint" transform="translate(0,2.25)"><text x="520.75" y="199.08" text-anchor="middle" style="font-family: 'Open Sans', verdana, arial, sans-serif; font-size: 9px; fill: rgb(0, 0, 0); fill-opacity: 1; white-space: pre;">0.012</text></g><g class="textpoint" transform="translate(0,2.25)"><text x="584.38" y="444.06" text-anchor="middle" style="font-family: 'Open Sans', verdana, arial, sans-serif; font-size: 9px; fill: rgb(0, 0, 0); fill-opacity: 1; white-space: pre;">0.012</text></g><g class="textpoint" transform="translate(0,2.25)"><text x="584.38" y="431.35" text-anchor="middle" style="font-family: 'Open Sans', verdana, arial, sans-serif; font-size: 9px; fill: rgb(0, 0, 0); fill-opacity: 1; white-space: pre;">0.014</text></g></g></g></g></g><g class="overplot"/><path class="xlines-above crisp" d="" style="fill: none; stroke-width: 1px; stroke: rgb(0, 0, 0); stroke-opacity: 0;"/><path class="ylines-above crisp" d="" style="fill: none; stroke-width: 1px; stroke: rgb(0, 0, 0); stroke-opacity: 0;"/><g class="overlines-above"/><g class="xaxislayer-above"><path class="xtick ticks crisp" d="M0,559v3.65296803652968" transform="translate(309.35,0)" style="stroke: rgb(51, 51, 51); stroke-opacity: 1; stroke-width: 0.664176px;"/><path class="xtick ticks crisp" d="M0,559v3.65296803652968" transform="translate(586.24,0)" style="stroke: rgb(51, 51, 51); stroke-opacity: 1; stroke-width: 0.664176px;"/><path class="xtick ticks crisp" d="M0,559v3.65296803652968" transform="translate(863.12,0)" style="stroke: rgb(51, 51, 51); stroke-opacity: 1; stroke-width: 0.664176px;"/><g class="xtick"><text text-anchor="middle" x="0" y="576.6803652968036" transform="translate(309.35,0)" style="font-family: 'Open Sans', verdana, arial, sans-serif; font-size: 11.6895px; fill: rgb(77, 77, 77); fill-opacity: 1; white-space: pre;">60</text></g><g class="xtick"><text text-anchor="middle" x="0" y="576.6803652968036" transform="translate(586.24,0)" style="font-family: 'Open Sans', verdana, arial, sans-serif; font-size: 11.6895px; fill: rgb(77, 77, 77); fill-opacity: 1; white-space: pre;">80</text></g><g class="xtick"><text text-anchor="middle" x="0" y="576.6803652968036" transform="translate(863.12,0)" style="font-family: 'Open Sans', verdana, arial, sans-serif; font-size: 11.6895px; fill: rgb(77, 77, 77); fill-opacity: 1; white-space: pre;">100</text></g></g><g class="yaxislayer-above"><path class="ytick ticks crisp" d="M34,0h-3.65296803652968" transform="translate(0,543.59)" style="stroke: rgb(51, 51, 51); stroke-opacity: 1; stroke-width: 0.664176px;"/><path class="ytick ticks crisp" d="M34,0h-3.65296803652968" transform="translate(0,432.93)" style="stroke: rgb(51, 51, 51); stroke-opacity: 1; stroke-width: 0.664176px;"/><path class="ytick ticks crisp" d="M34,0h-3.65296803652968" transform="translate(0,322.26)" style="stroke: rgb(51, 51, 51); stroke-opacity: 1; stroke-width: 0.664176px;"/><path class="ytick ticks crisp" d="M34,0h-3.65296803652968" transform="translate(0,211.6)" style="stroke: rgb(51, 51, 51); stroke-opacity: 1; stroke-width: 0.664176px;"/><path class="ytick ticks crisp" d="M34,0h-3.65296803652968" transform="translate(0,100.94)" style="stroke: rgb(51, 51, 51); stroke-opacity: 1; stroke-width: 0.664176px;"/><g class="ytick"><text text-anchor="end" x="28.00913242009132" y="4.09132420091325" transform="translate(0,543.59)" style="font-family: 'Open Sans', verdana, arial, sans-serif; font-size: 11.6895px; fill: rgb(77, 77, 77); fill-opacity: 1; white-space: pre;">1</text></g><g class="ytick"><text text-anchor="end" x="28.00913242009132" y="4.09132420091325" transform="translate(0,432.93)" style="font-family: 'Open Sans', verdana, arial, sans-serif; font-size: 11.6895px; fill: rgb(77, 77, 77); fill-opacity: 1; white-space: pre;">2</text></g><g class="ytick"><text text-anchor="end" x="28.00913242009132" y="4.09132420091325" transform="translate(0,322.26)" style="font-family: 'Open Sans', verdana, arial, sans-serif; font-size: 11.6895px; fill: rgb(77, 77, 77); fill-opacity: 1; white-space: pre;">3</text></g><g class="ytick"><text text-anchor="end" x="28.00913242009132" y="4.09132420091325" transform="translate(0,211.6)" style="font-family: 'Open Sans', verdana, arial, sans-serif; font-size: 11.6895px; fill: rgb(77, 77, 77); fill-opacity: 1; white-space: pre;">4</text></g><g class="ytick"><text text-anchor="end" x="28.00913242009132" y="4.09132420091325" transform="translate(0,100.94)" style="font-family: 'Open Sans', verdana, arial, sans-serif; font-size: 11.6895px; fill: rgb(77, 77, 77); fill-opacity: 1; white-space: pre;">5</text></g></g><g class="overaxes-above"/></g></g><g class="polarlayer"/><g class="ternarylayer"/><g class="geolayer"/><g class="pielayer"/><g class="glimages"/><defs id="topdefs-24f7b1"><g class="clips"/></defs><g class="layer-above"><g class="imagelayer"/><g class="shapelayer"><path data-index="0" fill-rule="evenodd" d="M35,558H893V27H35Z" style="opacity: 1; stroke: rgb(0, 0, 0); stroke-opacity: 0; fill: rgb(0, 0, 0); fill-opacity: 0; stroke-width: 0px;"/></g></g><g class="infolayer"><g class="g-gtitle"/><g class="g-xtitle" transform="translate(0,-14.851241438356055)"><text class="xtitle" x="464" y="611.835616438356" text-anchor="middle" style="font-family: 'Open Sans', verdana, arial, sans-serif; font-size: 14.61px; fill: rgb(0, 0, 0); opacity: 1; font-weight: normal; white-space: pre;">waiting</text></g><g class="g-ytitle" transform="translate(18.7236328125,0)"><text class="ytitle" transform="rotate(-90,-4.223744292237399,292.5)" x="-4.223744292237399" y="292.5" text-anchor="middle" style="font-family: 'Open Sans', verdana, arial, sans-serif; font-size: 14.61px; fill: rgb(0, 0, 0); opacity: 1; font-weight: normal; white-space: pre;">duration</text></g></g></svg>