<svg class="main-svg" xmlns="http://www.w3.org/2000/svg" xmlns:xlink="http://www.w3.org/1999/xlink" width="900" height="300" viewBox="0 0 900 300"><rect x="0" y="0" width="900" height="300" style="fill: rgb(255, 255, 255); fill-opacity: 1;"/><defs id="defs-8dbc84"><g class="clips"><clipPath id="clip8dbc84xyplot" class="plotclip"><rect width="340.8" height="235"/></clipPath><clipPath id="clip8dbc84x2y2plot" class="plotclip"><rect width="340.8" height="235"/></clipPath><clipPath class="axesclip" id="clip8dbc84x"><rect x="60" y="0" width="340.8" height="300"/></clipPath><clipPath class="axesclip" id="clip8dbc84y"><rect x="0" y="25" width="900" height="235"/></clipPath><clipPath class="axesclip" id="clip8dbc84xy"><rect x="60" y="25" width="340.8" height="235"/></clipPath><clipPath class="axesclip" id="clip8dbc84y2"><rect x="0" y="25" width="900" height="235"/></clipPath><clipPath class="axesclip" id="clip8dbc84xy2"><rect x="60" y="25" width="340.8" height="235"/></clipPath><clipPath class="axesclip" id="clip8dbc84x2"><rect x="429.2" y="0" width="340.8" height="300"/></clipPath><clipPath class="axesclip" id="clip8dbc84x2y"><rect x="429.2" y="25" width="340.8" height="235"/></clipPath><clipPath class="axesclip" id="clip8dbc84x2y2"><rect x="429.2" y="25" width="340.8" height="235"/></clipPath></g><g class="gradients"/></defs><g class="bglayer"/><g class="layer-below"><g class="imagelayer"/><g class="shapelayer"/></g><g class="cartesianlayer"><g class="subplot xy"><g class="layer-subplot"><g class="shapelayer"/><g class="imagelayer"/></g><g class="gridlayer"><g class="x"><path class="xgrid crisp" d="M0,25v235" transform="translate(77.88,0)" style="stroke: rgb(238, 238, 238); stroke-opacity: 1; stroke-width: 1px;"/><path class="xgrid crisp" d="M0,25v235" transform="translate(149.24,0)" style="stroke: rgb(238, 238, 238); stroke-opacity: 1; stroke-width: 1px;"/><path class="xgrid crisp" d="M0,25v235" transform="translate(220.62,0)" style="stroke: rgb(238, 238, 238); stroke-opacity: 1; stroke-width: 1px;"/><path class="xgrid crisp" d="M0,25v235" transform="translate(291.98,0)" style="stroke: rgb(238, 238, 238); stroke-opacity: 1; stroke-width: 1px;"/><path class="xgrid crisp" d="M0,25v235" transform="translate(363.36,0)" style="stroke: rgb(238, 238, 238); stroke-opacity: 1; stroke-width: 1px;"/></g><g class="y"><path class="ygrid crisp" d="M60,0h340.8" transform="translate(0,209.6)" style="stroke: rgb(238, 238, 238); stroke-opacity: 1; stroke-width: 1px;"/><path class="ygrid crisp" d="M60,0h340.8" transform="translate(0,126.11)" style="stroke: rgb(238, 238, 238); stroke-opacity: 1; stroke-width: 1px;"/><path class="ygrid crisp" d="M60,0h340.8" transform="translate(0,42.629999999999995)" style="stroke: rgb(238, 238, 238); stroke-opacity: 1; stroke-width: 1px;"/></g></g><g class="zerolinelayer"/><path class="xlines-below"/><path class="ylines-below"/><g class="overlines-below"/><g class="xaxislayer-below"/><g class="yaxislayer-below"/><g class="overaxes-below"/><g class="plot" transform="translate(60, 25)" clip-path="url(#clip8dbc84xyplot)"><g class="scatterlayer mlayer"><g class="trace scatter trace14feec" style="stroke-miterlimit: 2; opacity: 1;"><g class="fills"/><g class="errorbars"/><g class="lines"><path class="js-line" d="M0,218.93L1.21,218.69L1.8,215.6L3.6,220.03L4.2,217.97L5.37,222.85L5.96,222.33L6.57,219.03L8.95,223.18L9.56,222.75L10.14,223.25L10.75,222.7L11.9,222.8L12.51,222.03L13.09,222.78L13.7,221.06L14.89,220.39L15.5,217.32L16.08,217.17L16.69,220.39L17.27,219.93L17.88,214.63L20.22,202.65L20.83,200.11L23.21,191.43L23.82,186.3L24.41,183.33L25.01,184.83L25.62,186.22L26.16,184.81L26.77,185.28L27.36,184.66L27.96,185.45L28.55,184.01L29.15,182.36L29.76,183.9L30.35,185.36L30.95,181.91L31.54,182.03L32.14,184.28L32.75,185.8L33.32,183.96L34.51,185.9L35.11,185.88L36.31,185.62L36.91,187.12L37.5,186.68L38.1,191.24L38.69,192.23L39.3,195.85L39.9,193.75L40.45,194.71L41.05,193.63L41.64,195.8L42.25,195.23L42.83,196.2L44.04,195.45L44.63,198.89L46.43,190.54L47.03,189.09L48.19,190.97L48.77,189.52L49.96,183.54L50.57,184.23L52.95,157.28L53.56,142.84L54.17,142.52L54.71,134.87L55.9,127.28L56.51,130.83L58.31,135.79L58.89,136.23L60.69,142.29L61.3,145.76L61.86,147.36L62.47,145.69L63.06,150.32L63.66,145.83L64.85,142.55L65.46,144.86L66.05,144.02L66.65,140.85L67.24,142.1L67.84,146.53L68.45,143.81L69,146.08L70.19,152.69L70.79,148.97L71.38,154.06L71.99,152.46L72.59,155.36L73.18,155.16L73.78,154.29L74.37,161.45L74.98,159.73L75.58,162.59L76.13,162.27L76.73,164.89L77.93,167.43L78.51,162.74L79.12,166.56L79.72,165.81L80.31,168.78L81.5,164.09L82.11,166.08L82.71,165.01L83.26,166.08L83.87,166.75L84.45,170.57L85.64,167.97L86.25,162.56L86.86,164.73L87.44,162.96L88.05,163.93L88.63,162.47L89.85,156.18L90.41,155.73L92.21,132.87L92.8,128.44L93.4,129.81L94.01,134.16L94.59,133.04L95.2,134.12L95.79,139.21L96.39,133.32L97,133.65L97.54,134.81L98.15,136.69L98.74,131.6L99.34,132.87L99.93,136.79L101.14,130.67L101.73,123.72L104.13,106.04L104.68,102.87L107.06,86.94L107.67,86.4L110.05,66.87L110.66,75.5L111.26,75.32L111.81,77.6L113,81.84L113.61,80.31L114.19,91.96L114.8,90.71L115.4,96.4L117.79,117.68L118.39,121.3L119.57,121.78L120.15,126.89L120.76,130.73L121.34,125.54L121.95,125.84L122.56,128.38L123.14,128.14L123.75,131.2L124.94,127.44L125.55,129.15L126.7,127.91L127.28,129.46L128.48,125.94L129.08,131.23L130.27,129.53L130.88,132.37L131.47,132.2L132.07,137.93L132.68,127.79L133.22,128.11L133.83,128.43L135.02,126.02L135.61,129.18L136.21,132.25L136.82,129.33L138.01,131.85L138.6,136.46L139.81,136.76L140.36,136.81L140.96,142.15L141.55,141.62L142.15,144.56L143.95,149.5L144.54,147.41L145.73,152.27L146.34,151.99L147.51,153.27L148.11,157.86L148.7,154.89L149.31,158.78L149.89,157.8L150.5,153.82L151.69,158.42L152.3,158.93L152.88,159.25L153.49,156.51L154.64,164.48L155.25,160.09L155.83,161.64L156.44,158.27L157.63,159.37L158.24,158.05L159.43,155.79L160.01,156.76L160.62,155.34L161.23,157.03L161.77,157.91L162.38,154.59L162.96,155.51L163.57,158.05L165.37,145.06L165.95,143.54L167.75,134.26L168.36,130.08L168.91,124.72L169.51,127.18L170.1,122.22L170.7,122.95L171.29,124.72L173.69,118.96L174.28,114.5L176.06,110.13L176.66,110.88L177.85,100.44L178.44,103.62L179.65,104.77L180.24,111.16L180.84,108.38L181.43,108.51L182.04,112.38L183.19,116.87L183.79,115.97L184.38,115.32L184.99,115.79L186.78,122.58L187.37,121.98L188.56,126.54L189.17,123.99L190.32,126.66L190.93,128.98L191.51,135.93L192.12,135.72L192.71,135.41L193.31,135.62L193.92,138.95L194.5,140.65L195.11,144.94L195.69,147.36L196.3,144.94L197.45,148.65L198.06,140.43L199.25,144.07L199.84,142.4L201.05,143.22L201.63,145.73L203.43,143L204.04,145.98L204.61,145.89L205.21,144.27L205.8,144.14L206.4,149.62L206.99,145.58L207.59,153.17L209.98,146.98L210.58,148.56L211.74,151.2L212.34,153.32L212.93,156.96L213.53,154.56L214.73,157.75L215.33,156.95L216.52,162.76L217.11,159.95L218.32,162.79L218.87,160.85L219.48,168.88L220.06,167.11L220.67,164.36L221.25,163.58L221.86,164.91L222.46,162.89L223.05,163.22L223.66,166.23L224.85,168.3L225.45,166.05L226,171.52L226.61,167.83L227.19,171.31L227.8,168.72L228.39,167.48L228.99,170.6L229.6,169.32L230.18,171.61L231.38,173.69L231.98,172.78L232.59,170.27L233.15,172.36L233.76,176.57L234.35,171.94L234.95,173.73L235.54,172.12L236.14,170.35L236.75,174.16L237.33,175.68L237.94,173.93L238.53,174.01L239.13,167.52L240.89,163.37L241.48,164.13L243.88,148.83L244.47,139.62L245.66,130.2L246.26,131.47L247.42,129.43L248.02,124.5L249.22,127.94L249.8,127.99L251.01,130.31L251.6,129.38L252.79,123.82L253.4,125.82L254,124.19L254.55,124.69L255.16,120.45L255.74,118.53L256.35,113.37L257.54,119.55L258.15,119.13L259.92,129.21L260.53,128.33L261.13,131.72L261.7,126.31L262.31,131.67L262.89,130.97L263.5,129.73L265.3,135.72L265.88,133.49L267.68,138.11L268.29,134.84L269.44,139.98L270.03,140.33L271.82,145.44L272.43,141.97L273.02,143.64L273.62,141.75L274.81,150.13L275.42,148.13L275.97,150L276.57,149.2L277.16,151.54L277.76,151.19L278.35,148.28L278.96,149.68L279.56,153.76L280.15,155.76L280.75,153.34L281.34,155.18L281.95,149.27L283.1,155.69L283.7,153.71L284.29,155.11L284.9,151.55L285.48,148.71L286.09,150.08L287.28,147.25L287.89,147.2L289.08,139.77L289.68,142.9L290.25,137.48L290.86,140.57L292.05,124.91L292.63,118.86L296.23,66.75L296.83,52.72L299.18,22.52L299.77,24.29L301.56,11.75L302.17,13.97L303.36,16.86L303.97,15.74L305.12,12.2L305.71,20.15L306.31,26.41L306.9,25.78L307.5,23.5L308.7,25.71L309.3,16.27L310.49,34.11L311.1,37.33L311.65,38.72L312.25,35.04L312.84,36.75L313.44,34.96L314.03,38.28L314.64,37.36L315.24,35.19L315.83,41.1L317.63,54.41L318.23,54.14L319.4,56.93L319.99,56.7L320.6,56.16L321.18,56.76L322.39,65.8L322.98,65.65L323.59,67.63L324.78,59.85L325.38,68.55L325.93,72.91L326.54,71.73L327.12,73.5L327.73,71.88L328.92,79.76L329.53,79.91L330.11,82.14L330.72,87.97L331.91,97.74L332.51,95.28L333.06,94.77L333.67,106.09L334.25,103.47L334.86,110.13L335.45,107.66L336.05,107.81L336.66,113.43L337.24,117.98L337.85,116.31L338.44,122.53L339.04,119.43L340.19,126.09L340.8,125.72" style="vector-effect: non-scaling-stroke; fill: none; stroke: rgb(31, 119, 180); stroke-opacity: 1; stroke-width: 2px; opacity: 1;"/></g><g class="points"/><g class="text"/></g></g></g><g class="overplot"/><path class="xlines-above crisp" d="M0,0" style="fill: none;"/><path class="ylines-above crisp" d="M0,0" style="fill: none;"/><g class="overlines-above"/><g class="xaxislayer-above"><g class="xtick"><text text-anchor="middle" x="0" y="273" transform="translate(77.88,0)" style="font-family: 'Open Sans', verdana, arial, sans-serif; font-size: 12px; fill: rgb(68, 68, 68); fill-opacity: 1; white-space: pre;">1970</text></g><g class="xtick"><text text-anchor="middle" x="0" y="273" transform="translate(149.24,0)" style="font-family: 'Open Sans', verdana, arial, sans-serif; font-size: 12px; fill: rgb(68, 68, 68); fill-opacity: 1; white-space: pre;">1980</text></g><g class="xtick"><text text-anchor="middle" x="0" y="273" transform="translate(220.62,0)" style="font-family: 'Open Sans', verdana, arial, sans-serif; font-size: 12px; fill: rgb(68, 68, 68); fill-opacity: 1; white-space: pre;">1990</text></g><g class="xtick"><text text-anchor="middle" x="0" y="273" transform="translate(291.98,0)" style="font-family: 'Open Sans', verdana, arial, sans-serif; font-size: 12px; fill: rgb(68, 68, 68); fill-opacity: 1; white-space: pre;">2000</text></g><g class="xtick"><text text-anchor="middle" x="0" y="273" transform="translate(363.36,0)" style="font-family: 'Open Sans', verdana, arial, sans-serif; font-size: 12px; fill: rgb(68, 68, 68); fill-opacity: 1; white-space: pre;">2010</text></g></g><g class="yaxislayer-above"><g class="ytick"><text text-anchor="end" x="59" y="4.199999999999999" transform="translate(0,209.6)" style="font-family: 'Open Sans', verdana, arial, sans-serif; font-size: 12px; fill: rgb(68, 68, 68); fill-opacity: 1; white-space: pre;">5k</text></g><g class="ytick"><text text-anchor="end" x="59" y="4.199999999999999" transform="translate(0,126.11)" style="font-family: 'Open Sans', verdana, arial, sans-serif; font-size: 12px; fill: rgb(68, 68, 68); fill-opacity: 1; white-space: pre;">10k</text></g><g class="ytick"><text text-anchor="end" x="59" y="4.199999999999999" transform="translate(0,42.629999999999995)" style="font-family: 'Open Sans', verdana, arial, sans-serif; font-size: 12px; fill: rgb(68, 68, 68); fill-opacity: 1; white-space: pre;">15k</text></g></g><g class="overaxes-above"/></g><g class="subplot x2y2"><g class="layer-subplot"><g class="shapelayer"/><g class="imagelayer"/></g><g class="gridlayer"><g class="x2"><path class="x2grid crisp" d="M0,25v235" transform="translate(447.08,0)" style="stroke: rgb(238, 238, 238); stroke-opacity: 1; stroke-width: 1px;"/><path class="x2grid crisp" d="M0,25v235" transform="translate(518.4399999999999,0)" style="stroke: rgb(238, 238, 238); stroke-opacity: 1; stroke-width: 1px;"/><path class="x2grid crisp" d="M0,25v235" transform="translate(589.8199999999999,0)" style="stroke: rgb(238, 238, 238); stroke-opacity: 1; stroke-width: 1px;"/><path class="x2grid crisp" d="M0,25v235" transform="translate(661.18,0)" style="stroke: rgb(238, 238, 238); stroke-opacity: 1; stroke-width: 1px;"/><path class="x2grid crisp" d="M0,25v235" transform="translate(732.56,0)" style="stroke: rgb(238, 238, 238); stroke-opacity: 1; stroke-width: 1px;"/></g><g class="y2"><path class="y2grid crisp" d="M429.2,0h340.8" transform="translate(0,238.27)" style="stroke: rgb(238, 238, 238); stroke-opacity: 1; stroke-width: 1px;"/><path class="y2grid crisp" d="M429.2,0h340.8" transform="translate(0,188.39)" style="stroke: rgb(238, 238, 238); stroke-opacity: 1; stroke-width: 1px;"/><path class="y2grid crisp" d="M429.2,0h340.8" transform="translate(0,138.51)" style="stroke: rgb(238, 238, 238); stroke-opacity: 1; stroke-width: 1px;"/><path class="y2grid crisp" d="M429.2,0h340.8" transform="translate(0,88.63)" style="stroke: rgb(238, 238, 238); stroke-opacity: 1; stroke-width: 1px;"/><path class="y2grid crisp" d="M429.2,0h340.8" transform="translate(0,38.75)" style="stroke: rgb(238, 238, 238); stroke-opacity: 1; stroke-width: 1px;"/></g></g><g class="zerolinelayer"/><path class="xlines-below"/><path class="ylines-below"/><g class="overlines-below"/><g class="xaxislayer-below"/><g class="yaxislayer-below"/><g class="overaxes-below"/><g class="plot" transform="translate(429.2, 25)" clip-path="url(#clip8dbc84x2y2plot)"><g class="scatterlayer mlayer"><g class="trace scatter trace9019f4" style="stroke-miterlimit: 2; opacity: 1;"><g class="fills"/><g class="errorbars"/><g class="lines"><path class="js-line" d="M0,218.26L0.61,216.27L1.21,217.26L1.8,214.27L2.4,216.27L2.99,215.27L3.6,212.28L4.77,222.25L5.37,217.26L6.57,219.26L7.15,218.26L7.76,221.25L8.36,217.26L8.95,215.27L9.56,219.26L10.75,219.26L11.35,214.27L12.51,223.25L13.09,221.25L14.28,219.26L14.89,219.26L15.5,216.27L16.08,218.26L16.69,215.27L17.27,217.26L17.88,217.26L18.48,218.26L19.03,217.26L19.64,222.25L20.83,214.27L21.42,212.28L22.02,209.28L22.63,211.28L23.21,211.28L23.82,207.29L25.62,200.3L26.16,199.31L27.36,196.31L27.96,206.29L29.15,199.31L29.76,205.29L30.35,198.31L30.95,199.31L31.54,201.3L32.14,201.3L32.75,197.31L33.32,197.31L33.92,196.31L34.51,197.31L35.11,209.28L35.7,202.3L36.31,203.3L36.91,207.29L38.1,206.29L38.69,202.3L39.9,211.28L40.45,208.29L41.64,214.27L42.25,213.27L42.83,211.28L43.44,214.27L44.63,208.29L45.24,212.28L45.82,216.27L46.43,213.27L47.03,212.28L47.58,215.27L48.19,213.27L48.77,217.26L49.96,206.29L50.57,213.27L51.76,208.29L52.37,211.28L54.71,191.33L55.32,176.36L55.9,169.38L56.51,175.36L57.1,177.36L57.7,171.37L58.31,171.37L58.89,177.36L59.5,168.38L60.09,173.37L60.69,173.37L61.3,181.35L61.86,176.36L62.47,181.35L63.06,180.35L63.66,185.34L64.25,186.34L64.85,184.34L66.05,186.34L66.65,179.35L69,191.33L69.6,190.33L70.19,184.34L70.79,201.3L71.38,192.32L71.99,193.32L72.59,196.31L73.78,193.32L74.37,195.32L74.98,198.31L75.58,196.31L77.32,206.29L77.93,203.3L79.72,207.29L80.31,204.29L80.92,208.29L81.5,207.29L82.11,204.29L83.26,204.29L83.87,209.28L85.64,204.29L86.25,215.27L87.44,208.29L88.05,210.28L88.63,206.29L89.24,210.28L90.41,203.3L91.02,205.29L91.6,206.29L92.21,199.31L94.01,186.34L94.59,188.33L95.2,186.34L95.79,188.33L96.39,189.33L97,192.32L97.54,192.32L98.15,189.33L99.34,197.31L99.93,192.32L100.53,191.33L101.14,195.32L101.73,195.32L102.33,194.32L102.92,194.32L103.52,192.32L105.87,178.36L106.47,168.38L107.06,178.36L107.67,176.36L108.27,168.38L110.05,161.4L110.66,152.42L111.26,165.39L111.81,159.4L112.41,154.41L113,140.45L115.4,170.38L115.99,169.38L116.6,170.38L117.18,176.36L117.79,172.37L118.39,180.35L118.96,180.35L119.57,181.35L120.15,172.37L120.76,188.33L121.34,188.33L121.95,190.33L122.56,187.33L123.14,191.33L123.75,191.33L124.33,190.33L124.94,195.32L125.55,192.32L126.09,192.32L126.7,194.32L127.28,194.32L127.89,197.31L129.08,192.32L129.69,194.32L130.27,192.32L130.88,193.32L132.07,196.31L132.68,194.32L133.83,196.31L134.42,195.32L135.02,193.32L135.61,194.32L136.82,189.33L137.41,193.32L138.6,192.32L139.2,194.32L140.36,197.31L140.96,192.32L142.15,198.31L142.74,198.31L143.35,199.31L143.95,203.3L144.54,200.3L145.14,201.3L145.73,203.3L146.34,201.3L147.51,199.31L148.11,204.29L148.7,204.29L149.31,205.29L149.89,202.3L150.5,204.29L151.69,207.29L152.3,206.29L152.88,204.29L153.49,207.29L154.64,209.28L155.25,209.28L155.83,210.28L156.44,209.28L157.02,207.29L157.63,213.27L159.43,215.27L160.01,214.27L161.23,210.28L161.77,212.28L162.38,215.27L162.96,211.28L163.57,211.28L164.16,209.28L164.76,209.28L165.37,207.29L165.95,205.29L166.56,206.29L168.36,201.3L168.91,196.31L170.1,199.31L170.7,194.32L171.29,193.32L171.89,190.33L172.5,195.32L173.09,191.33L175.49,181.35L176.06,180.35L177.25,175.36L177.85,176.36L178.44,177.36L179.05,175.36L179.65,177.36L180.24,173.37L180.84,173.37L181.43,170.38L182.64,178.36L183.19,178.36L183.79,179.35L184.38,182.35L184.99,180.35L185.57,181.35L186.18,181.35L186.78,180.35L187.37,183.34L187.98,180.35L188.56,180.35L189.17,177.36L190.32,170.38L190.93,172.37L192.12,170.38L192.71,173.37L193.31,174.37L193.92,171.37L194.5,163.39L195.11,173.37L196.3,183.34L196.91,182.35L198.06,180.35L198.65,172.37L199.25,184.34L199.84,178.36L201.05,184.34L201.63,181.35L202.24,183.34L202.83,180.35L203.43,180.35L204.04,185.34L205.21,177.36L205.8,177.36L206.99,180.35L207.59,179.35L208.2,178.36L208.79,180.35L209.39,186.34L209.98,185.34L210.58,185.34L211.19,182.35L211.74,184.34L212.34,180.35L212.93,183.34L213.53,183.34L214.12,180.35L214.73,185.34L215.33,181.35L216.52,187.33L217.11,188.33L217.72,189.33L218.32,193.32L219.48,196.31L220.06,203.3L220.67,194.32L221.25,196.31L221.86,195.32L222.46,196.31L223.05,205.29L224.24,195.32L224.85,194.32L226,195.32L226.61,201.3L227.19,198.31L227.8,200.3L228.39,205.29L228.99,198.31L229.6,203.3L230.18,202.3L230.79,201.3L231.98,205.29L232.59,202.3L233.15,203.3L233.76,202.3L234.95,206.29L235.54,203.3L236.14,200.3L236.75,211.28L237.94,202.3L238.53,203.3L239.13,205.29L239.74,202.3L240.29,197.31L240.89,204.29L241.48,200.3L242.08,203.3L243.28,194.32L243.88,191.33L244.47,190.33L245.07,186.34L246.26,179.35L246.87,180.35L247.42,179.35L248.02,174.37L248.61,168.38L249.22,153.42L249.8,174.37L250.41,173.37L251.01,168.38L251.6,167.38L252.2,170.38L253.4,167.38L254,168.38L255.16,161.4L255.74,164.39L256.35,148.43L256.93,160.4L257.54,162.39L258.15,161.4L258.73,159.4L259.34,160.4L260.53,157.41L261.13,161.4L261.7,161.4L262.31,168.38L262.89,164.39L263.5,153.42L264.09,174.37L264.69,171.37L265.3,167.38L265.88,168.38L266.49,166.38L268.29,171.37L268.83,170.38L269.44,173.37L270.03,172.37L271.22,175.36L271.82,171.37L272.43,179.35L273.02,177.36L273.62,178.36L274.21,176.36L274.81,177.36L275.42,172.37L275.97,176.36L276.57,179.35L277.16,178.36L277.76,190.33L278.35,183.34L278.96,179.35L279.56,183.34L280.15,184.34L280.75,180.35L281.34,188.33L281.95,180.35L282.55,178.36L283.1,172.37L284.9,186.34L285.48,176.36L286.09,175.36L286.69,176.36L287.28,179.35L287.89,177.36L288.47,179.35L289.08,173.37L290.25,176.36L290.86,169.38L291.44,184.34L292.05,173.37L293.24,166.38L293.84,161.4L294.43,159.4L295.04,165.39L298.57,121.49L299.18,91.56L299.77,103.53L300.37,100.54L300.98,85.58L302.76,62.63L303.36,63.63L303.97,64.63L304.51,59.64L306.31,11.75L306.9,40.68L308.11,60.63L308.7,51.66L309.3,53.65L309.89,44.67L311.1,52.65L311.65,48.66L312.25,54.65L312.84,47.67L313.44,39.68L314.03,43.67L314.64,39.68L315.24,43.67L315.83,57.64L316.43,55.65L317.02,58.64L317.63,55.65L318.23,66.62L319.4,72.61L319.99,64.63L320.6,59.64L321.18,88.57L322.98,64.63L323.59,77.59L324.78,105.53L325.38,91.56L325.93,87.57L326.54,92.56L327.12,92.56L327.73,93.56L328.31,101.54L328.92,98.54L329.53,98.54L330.11,100.54L331.3,90.56L331.91,109.52L332.51,104.53L333.06,105.53L333.67,106.53L335.45,132.46L336.05,134.46L337.24,127.48L337.85,133.46L338.44,134.46L339.04,131.47L339.65,134.46L340.19,143.44L340.8,148.43" style="vector-effect: non-scaling-stroke; fill: none; stroke: rgb(255, 127, 14); stroke-opacity: 1; stroke-width: 2px; opacity: 1;"/></g><g class="points"/><g class="text"/></g></g></g><g class="overplot"/><path class="xlines-above crisp" d="M0,0" style="fill: none;"/><path class="ylines-above crisp" d="M0,0" style="fill: none;"/><g class="overlines-above"/><g class="xaxislayer-above"><g class="x2tick"><text text-anchor="middle" x="0" y="273" transform="translate(447.08,0)" style="font-family: 'Open Sans', verdana, arial, sans-serif; font-size: 12px; fill: rgb(68, 68, 68); fill-opacity: 1; white-space: pre;">1970</text></g><g class="x2tick"><text text-anchor="middle" x="0" y="273" transform="translate(518.4399999999999,0)" style="font-family: 'Open Sans', verdana, arial, sans-serif; font-size: 12px; fill: rgb(68, 68, 68); fill-opacity: 1; white-space: pre;">1980</text></g><g class="x2tick"><text text-anchor="middle" x="0" y="273" transform="translate(589.8199999999999,0)" style="font-family: 'Open Sans', verdana, arial, sans-serif; font-size: 12px; fill: rgb(68, 68, 68); fill-opacity: 1; white-space: pre;">1990</text></g><g class="x2tick"><text text-anchor="middle" x="0" y="273" transform="translate(661.18,0)" style="font-family: 'Open Sans', verdana, arial, sans-serif; font-size: 12px; fill: rgb(68, 68, 68); fill-opacity: 1; white-space: pre;">2000</text></g><g class="x2tick"><text text-anchor="middle" x="0" y="273" transform="translate(732.56,0)" style="font-family: 'Open Sans', verdana, arial, sans-serif; font-size: 12px; fill: rgb(68, 68, 68); fill-opacity: 1; white-space: pre;">2010</text></g></g><g class="yaxislayer-above"><g class="y2tick"><text text-anchor="end" x="428.2" y="4.199999999999999" transform="translate(0,238.27)" style="font-family: 'Open Sans', verdana, arial, sans-serif; font-size: 12px; fill: rgb(68, 68, 68); fill-opacity: 1; white-space: pre;">5</text></g><g class="y2tick"><text text-anchor="end" x="428.2" y="4.199999999999999" transform="translate(0,188.39)" style="font-family: 'Open Sans', verdana, arial, sans-serif; font-size: 12px; fill: rgb(68, 68, 68); fill-opacity: 1; white-space: pre;">10</text></g><g class="y2tick"><text text-anchor="end" x="428.2" y="4.199999999999999" transform="translate(0,138.51)" style="font-family: 'Open Sans', verdana, arial, sans-serif; font-size: 12px; fill: rgb(68, 68, 68); fill-opacity: 1; white-space: pre;">15</text></g><g class="y2tick"><text text-anchor="end" x="428.2" y="4.199999999999999" transform="translate(0,88.63)" style="font-family: 'Open Sans', verdana, arial, sans-serif; font-size: 12px; fill: rgb(68, 68, 68); fill-opacity: 1; white-space: pre;">20</text></g><g class="y2tick"><text text-anchor="end" x="428.2" y="4.199999999999999" transform="translate(0,38.75)" style="font-family: 'Open Sans', verdana, arial, sans-serif; font-size: 12px; fill: rgb(68, 68, 68); fill-opacity: 1; white-space: pre;">25</text></g></g><g class="overaxes-above"/></g></g><g class="polarlayer"/><g class="ternarylayer"/><g class="geolayer"/><g class="pielayer"/><g class="glimages"/><defs id="topdefs-8dbc84"><g class="clips"/><clipPath id="legend8dbc84"><rect width="106" height="48" x="0" y="0"/></clipPath></defs><g class="layer-above"><g class="imagelayer"/><g class="shapelayer"/></g><g class="infolayer"><g class="legend" pointer-events="all" transform="translate(784.2, 25)"><rect class="bg" shape-rendering="crispEdges" style="stroke: rgb(68, 68, 68); stroke-opacity: 1; fill: rgb(255, 255, 255); fill-opacity: 1; stroke-width: 0px;" width="106" height="48" x="0" y="0"/><g class="scrollbox" transform="translate(0, 0)" clip-path="url(#legend8dbc84)"><g class="groups"><g class="traces" transform="translate(0, 14.5)" style="opacity: 1;"><g class="layers" style="opacity: 1;"><g class="legendfill"/><g class="legendlines"><path class="js-line" d="M5,0h30" style="fill: none; stroke: rgb(31, 119, 180); stroke-opacity: 1; stroke-width: 2px;"/></g><g class="legendsymbols"><g class="legendpoints"/></g></g><text class="legendtext user-select-none" text-anchor="start" x="40" y="4.680000000000001" style="font-family: 'Open Sans', verdana, arial, sans-serif; font-size: 12px; fill: rgb(68, 68, 68); fill-opacity: 1; white-space: pre;">unemploy</text><rect class="legendtoggle" pointer-events="all" style="cursor: pointer; fill: rgb(0, 0, 0); fill-opacity: 0;" x="0" y="-9.5" width="146" height="19"/></g><g class="traces" transform="translate(0, 33.5)" style="opacity: 1;"><g class="layers" style="opacity: 1;"><g class="legendfill"/><g class="legendlines"><path class="js-line" d="M5,0h30" style="fill: none; stroke: rgb(255, 127, 14); stroke-opacity: 1; stroke-width: 2px;"/></g><g class="legendsymbols"><g class="legendpoints"/></g></g><text class="legendtext user-select-none" text-anchor="start" x="40" y="4.680000000000001" style="font-family: 'Open Sans', verdana, arial, sans-serif; font-size: 12px; fill: rgb(68, 68, 68); fill-opacity: 1; white-space: pre;">uempmed</text><rect class="legendtoggle" pointer-events="all" x="0" y="-9.5" width="146" height="19" style="cursor: pointer; fill: rgb(0, 0, 0); fill-opacity: 0;"/></g></g></g><rect class="scrollbar" rx="20" ry="3" width="0" height="0" style="fill: rgb(128, 139, 164); fill-opacity: 1;" x="0" y="0"/></g><g class="g-gtitle"/><g class="g-xtitle"/><g class="g-x2title"/><g class="g-ytitle"/><g class="g-y2title"/></g></svg>