<svg class="main-svg" xmlns="http://www.w3.org/2000/svg" xmlns:xlink="http://www.w3.org/1999/xlink" width="900" height="600" viewBox="0 0 900 600"><rect x="0" y="0" width="900" height="600" style="fill: rgb(255, 255, 255); fill-opacity: 1;"/><defs id="defs-0a1483"><g class="clips"><clipPath id="clip0a1483xyplot" class="plotclip"><rect width="830" height="96.30000000000003"/></clipPath><clipPath id="clip0a1483xy2plot" class="plotclip"><rect width="830" height="85.60000000000002"/></clipPath><clipPath id="clip0a1483xy3plot" class="plotclip"><rect width="830" height="85.59999999999998"/></clipPath><clipPath id="clip0a1483xy4plot" class="plotclip"><rect width="830" height="85.60000000000001"/></clipPath><clipPath id="clip0a1483xy5plot" class="plotclip"><rect width="830" height="96.3"/></clipPath><clipPath class="axesclip" id="clip0a1483x"><rect x="60" y="0" width="830" height="600"/></clipPath><clipPath class="axesclip" id="clip0a1483y"><rect x="0" y="25" width="900" height="96.30000000000003"/></clipPath><clipPath class="axesclip" id="clip0a1483xy"><rect x="60" y="25" width="830" height="96.30000000000003"/></clipPath><clipPath class="axesclip" id="clip0a1483y2"><rect x="0" y="142.7" width="900" height="85.60000000000002"/></clipPath><clipPath class="axesclip" id="clip0a1483xy2"><rect x="60" y="142.7" width="830" height="85.60000000000002"/></clipPath><clipPath class="axesclip" id="clip0a1483y3"><rect x="0" y="249.70000000000002" width="900" height="85.59999999999998"/></clipPath><clipPath class="axesclip" id="clip0a1483xy3"><rect x="60" y="249.70000000000002" width="830" height="85.59999999999998"/></clipPath><clipPath class="axesclip" id="clip0a1483y4"><rect x="0" y="356.7" width="900" height="85.60000000000001"/></clipPath><clipPath class="axesclip" id="clip0a1483xy4"><rect x="60" y="356.7" width="830" height="85.60000000000001"/></clipPath><clipPath class="axesclip" id="clip0a1483y5"><rect x="0" y="463.70000000000005" width="900" height="96.3"/></clipPath><clipPath class="axesclip" id="clip0a1483xy5"><rect x="60" y="463.70000000000005" width="830" height="96.3"/></clipPath></g><g class="gradients"/></defs><g class="bglayer"/><g class="layer-below"><g class="imagelayer"/><g class="shapelayer"/></g><g class="cartesianlayer"><g class="subplot xy"><g class="layer-subplot"><g class="shapelayer"/><g class="imagelayer"/></g><g class="gridlayer"><g class="x"><path class="xgrid crisp" d="M0,25v96.30000000000003" transform="translate(103.53999999999999,0)" style="stroke: rgb(238, 238, 238); stroke-opacity: 1; stroke-width: 1px;"/><path class="xgrid crisp" d="M0,25v96.30000000000003" transform="translate(190.44,0)" style="stroke: rgb(238, 238, 238); stroke-opacity: 1; stroke-width: 1px;"/><path class="xgrid crisp" d="M0,25v96.30000000000003" transform="translate(277.34000000000003,0)" style="stroke: rgb(238, 238, 238); stroke-opacity: 1; stroke-width: 1px;"/><path class="xgrid crisp" d="M0,25v96.30000000000003" transform="translate(364.28,0)" style="stroke: rgb(238, 238, 238); stroke-opacity: 1; stroke-width: 1px;"/><path class="xgrid crisp" d="M0,25v96.30000000000003" transform="translate(451.18,0)" style="stroke: rgb(238, 238, 238); stroke-opacity: 1; stroke-width: 1px;"/><path class="xgrid crisp" d="M0,25v96.30000000000003" transform="translate(538.0799999999999,0)" style="stroke: rgb(238, 238, 238); stroke-opacity: 1; stroke-width: 1px;"/><path class="xgrid crisp" d="M0,25v96.30000000000003" transform="translate(624.98,0)" style="stroke: rgb(238, 238, 238); stroke-opacity: 1; stroke-width: 1px;"/><path class="xgrid crisp" d="M0,25v96.30000000000003" transform="translate(711.92,0)" style="stroke: rgb(238, 238, 238); stroke-opacity: 1; stroke-width: 1px;"/><path class="xgrid crisp" d="M0,25v96.30000000000003" transform="translate(798.82,0)" style="stroke: rgb(238, 238, 238); stroke-opacity: 1; stroke-width: 1px;"/><path class="xgrid crisp" d="M0,25v96.30000000000003" transform="translate(885.72,0)" style="stroke: rgb(238, 238, 238); stroke-opacity: 1; stroke-width: 1px;"/></g><g class="y"><path class="ygrid crisp" d="M60,0h830" transform="translate(0,83.16)" style="stroke: rgb(238, 238, 238); stroke-opacity: 1; stroke-width: 1px;"/><path class="ygrid crisp" d="M60,0h830" transform="translate(0,46.08)" style="stroke: rgb(238, 238, 238); stroke-opacity: 1; stroke-width: 1px;"/></g></g><g class="zerolinelayer"><path class="yzl zl crisp" d="M60,0h830" transform="translate(0,120.24)" style="stroke: rgb(68, 68, 68); stroke-opacity: 1; stroke-width: 1px;"/></g><path class="xlines-below"/><path class="ylines-below"/><g class="overlines-below"/><g class="xaxislayer-below"/><g class="yaxislayer-below"/><g class="overaxes-below"/><g class="plot" transform="translate(60, 25)" clip-path="url(#clip0a1483xyplot)"><g class="scatterlayer mlayer"><g class="trace scatter traceff6a51" style="stroke-miterlimit: 2; opacity: 1;"><g class="fills"/><g class="errorbars"/><g class="lines"><path class="js-line" d="M0,91.49L120.26,88.36L121.69,88.29L137.63,87.63L139.06,87.53L179.7,85.4L181.12,85.34L186.88,84.89L188.31,84.77L278.11,78.15L279.59,78.03L312.9,75.1L314.37,74.83L317.28,74.81L318.75,74.69L323.13,74.33L324.46,74.3L346.21,72.46L347.64,72.29L356.39,71.41L357.87,71.35L366.53,70.27L368.01,70.21L375.29,69.38L376.62,69.3L383.9,68.39L385.38,68.38L399.8,66.9L401.27,66.7L407.08,66.61L408.55,66.76L420.12,65.69L421.54,65.76L444.81,62.94L446.15,62.97L454.9,61.79L456.33,61.63L521.48,54.09L522.96,53.81L534.52,52.32L535.95,51.95L562.07,47.5L563.5,46.75L566.45,46.15L567.83,45.66L570.74,45.5L572.21,45.23L592.48,42.52L593.96,43.24L595.39,41.79L596.86,42.09L599.76,42.04L601.24,41.71L618.61,39.36L619.94,38.89L625.75,37.86L627.22,37.14L633.03,36.44L634.5,36.01L647.54,33.14L649.02,32.8L656.2,31.13L657.63,31.14L663.49,29.35L664.91,29.04L669.29,28.06L670.77,27.83L712.69,20.31L714.17,20.38L717.07,21.38L718.55,22.41L719.97,23.08L721.45,22.69L727.16,22.95L728.64,22.52L731.54,21.37L733.01,21.95L741.63,20.42L743.1,20.25L751.81,18.82L753.29,18.45L770.66,15.45L772.08,15.36L776.41,14.03L777.89,13.82L783.7,13.64L785.17,13.21L793.78,11.98L795.26,12.14L814.06,8.12L815.53,7.61L824.24,5.79L825.72,5.91L830,4.81" style="vector-effect: non-scaling-stroke; fill: none; stroke: rgb(31, 119, 180); stroke-opacity: 1; stroke-width: 2px; opacity: 1;"/></g><g class="points"/><g class="text"/></g></g></g><g class="overplot"/><path class="xlines-above crisp" d="M0,0" style="fill: none;"/><path class="ylines-above crisp" d="M0,0" style="fill: none;"/><g class="overlines-above"/><g class="xaxislayer-above"/><g class="yaxislayer-above"><g class="ytick"><text text-anchor="end" x="59" y="4.199999999999999" transform="translate(0,120.24)" style="font-family: 'Open Sans', verdana, arial, sans-serif; font-size: 12px; fill: rgb(68, 68, 68); fill-opacity: 1; white-space: pre;">0</text></g><g class="ytick"><text text-anchor="end" x="59" y="4.199999999999999" transform="translate(0,83.16)" style="font-family: 'Open Sans', verdana, arial, sans-serif; font-size: 12px; fill: rgb(68, 68, 68); fill-opacity: 1; white-space: pre;">5k</text></g><g class="ytick"><text text-anchor="end" x="59" y="4.199999999999999" transform="translate(0,46.08)" style="font-family: 'Open Sans', verdana, arial, sans-serif; font-size: 12px; fill: rgb(68, 68, 68); fill-opacity: 1; white-space: pre;">10k</text></g></g><g class="overaxes-above"/></g><g class="subplot xy2"><g class="layer-subplot"><g class="shapelayer"/><g class="imagelayer"/></g><g class="gridlayer"><g class="x"><path class="xgrid crisp" d="M0,142.7v85.60000000000002" transform="translate(103.53999999999999,0)" style="stroke: rgb(238, 238, 238); stroke-opacity: 1; stroke-width: 1px;"/><path class="xgrid crisp" d="M0,142.7v85.60000000000002" transform="translate(190.44,0)" style="stroke: rgb(238, 238, 238); stroke-opacity: 1; stroke-width: 1px;"/><path class="xgrid crisp" d="M0,142.7v85.60000000000002" transform="translate(277.34000000000003,0)" style="stroke: rgb(238, 238, 238); stroke-opacity: 1; stroke-width: 1px;"/><path class="xgrid crisp" d="M0,142.7v85.60000000000002" transform="translate(364.28,0)" style="stroke: rgb(238, 238, 238); stroke-opacity: 1; stroke-width: 1px;"/><path class="xgrid crisp" d="M0,142.7v85.60000000000002" transform="translate(451.18,0)" style="stroke: rgb(238, 238, 238); stroke-opacity: 1; stroke-width: 1px;"/><path class="xgrid crisp" d="M0,142.7v85.60000000000002" transform="translate(538.0799999999999,0)" style="stroke: rgb(238, 238, 238); stroke-opacity: 1; stroke-width: 1px;"/><path class="xgrid crisp" d="M0,142.7v85.60000000000002" transform="translate(624.98,0)" style="stroke: rgb(238, 238, 238); stroke-opacity: 1; stroke-width: 1px;"/><path class="xgrid crisp" d="M0,142.7v85.60000000000002" transform="translate(711.92,0)" style="stroke: rgb(238, 238, 238); stroke-opacity: 1; stroke-width: 1px;"/><path class="xgrid crisp" d="M0,142.7v85.60000000000002" transform="translate(798.82,0)" style="stroke: rgb(238, 238, 238); stroke-opacity: 1; stroke-width: 1px;"/><path class="xgrid crisp" d="M0,142.7v85.60000000000002" transform="translate(885.72,0)" style="stroke: rgb(238, 238, 238); stroke-opacity: 1; stroke-width: 1px;"/></g><g class="y2"><path class="y2grid crisp" d="M60,0h830" transform="translate(0,223.2)" style="stroke: rgb(238, 238, 238); stroke-opacity: 1; stroke-width: 1px;"/><path class="y2grid crisp" d="M60,0h830" transform="translate(0,191.54999999999998)" style="stroke: rgb(238, 238, 238); stroke-opacity: 1; stroke-width: 1px;"/><path class="y2grid crisp" d="M60,0h830" transform="translate(0,159.89999999999998)" style="stroke: rgb(238, 238, 238); stroke-opacity: 1; stroke-width: 1px;"/></g></g><g class="zerolinelayer"/><path class="xlines-below"/><path class="ylines-below"/><g class="overlines-below"/><g class="xaxislayer-below"/><g class="yaxislayer-below"/><g class="overaxes-below"/><g class="plot" transform="translate(60, 142.7)" clip-path="url(#clip0a1483xy2plot)"><g class="scatterlayer mlayer"><g class="trace scatter trace19684f" style="stroke-miterlimit: 2; opacity: 1;"><g class="fills"/><g class="errorbars"/><g class="lines"><path class="js-line" d="M0,81.32L99.98,73.27L101.41,73.18L211.53,64.33L212.96,64.17L273.78,59.12L275.21,59.03L405.65,48L407.08,47.82L619.94,23.58L621.42,23.45L775.03,8.75L776.41,8.65L830,4.28" style="vector-effect: non-scaling-stroke; fill: none; stroke: rgb(255, 127, 14); stroke-opacity: 1; stroke-width: 2px; opacity: 1;"/></g><g class="points"/><g class="text"/></g></g></g><g class="overplot"/><path class="xlines-above crisp" d="M0,0" style="fill: none;"/><path class="ylines-above crisp" d="M0,0" style="fill: none;"/><g class="overlines-above"/><g class="xaxislayer-above"/><g class="yaxislayer-above"><g class="y2tick"><text text-anchor="end" x="59" y="4.199999999999999" transform="translate(0,223.2)" style="font-family: 'Open Sans', verdana, arial, sans-serif; font-size: 12px; fill: rgb(68, 68, 68); fill-opacity: 1; white-space: pre;">200k</text></g><g class="y2tick"><text text-anchor="end" x="59" y="4.199999999999999" transform="translate(0,191.54999999999998)" style="font-family: 'Open Sans', verdana, arial, sans-serif; font-size: 12px; fill: rgb(68, 68, 68); fill-opacity: 1; white-space: pre;">250k</text></g><g class="y2tick"><text text-anchor="end" x="59" y="4.199999999999999" transform="translate(0,159.89999999999998)" style="font-family: 'Open Sans', verdana, arial, sans-serif; font-size: 12px; fill: rgb(68, 68, 68); fill-opacity: 1; white-space: pre;">300k</text></g></g><g class="overaxes-above"/></g><g class="subplot xy3"><g class="layer-subplot"><g class="shapelayer"/><g class="imagelayer"/></g><g class="gridlayer"><g class="x"><path class="xgrid crisp" d="M0,249.70000000000002v85.59999999999998" transform="translate(103.53999999999999,0)" style="stroke: rgb(238, 238, 238); stroke-opacity: 1; stroke-width: 1px;"/><path class="xgrid crisp" d="M0,249.70000000000002v85.59999999999998" transform="translate(190.44,0)" style="stroke: rgb(238, 238, 238); stroke-opacity: 1; stroke-width: 1px;"/><path class="xgrid crisp" d="M0,249.70000000000002v85.59999999999998" transform="translate(277.34000000000003,0)" style="stroke: rgb(238, 238, 238); stroke-opacity: 1; stroke-width: 1px;"/><path class="xgrid crisp" d="M0,249.70000000000002v85.59999999999998" transform="translate(364.28,0)" style="stroke: rgb(238, 238, 238); stroke-opacity: 1; stroke-width: 1px;"/><path class="xgrid crisp" d="M0,249.70000000000002v85.59999999999998" transform="translate(451.18,0)" style="stroke: rgb(238, 238, 238); stroke-opacity: 1; stroke-width: 1px;"/><path class="xgrid crisp" d="M0,249.70000000000002v85.59999999999998" transform="translate(538.0799999999999,0)" style="stroke: rgb(238, 238, 238); stroke-opacity: 1; stroke-width: 1px;"/><path class="xgrid crisp" d="M0,249.70000000000002v85.59999999999998" transform="translate(624.98,0)" style="stroke: rgb(238, 238, 238); stroke-opacity: 1; stroke-width: 1px;"/><path class="xgrid crisp" d="M0,249.70000000000002v85.59999999999998" transform="translate(711.92,0)" style="stroke: rgb(238, 238, 238); stroke-opacity: 1; stroke-width: 1px;"/><path class="xgrid crisp" d="M0,249.70000000000002v85.59999999999998" transform="translate(798.82,0)" style="stroke: rgb(238, 238, 238); stroke-opacity: 1; stroke-width: 1px;"/><path class="xgrid crisp" d="M0,249.70000000000002v85.59999999999998" transform="translate(885.72,0)" style="stroke: rgb(238, 238, 238); stroke-opacity: 1; stroke-width: 1px;"/></g><g class="y3"><path class="y3grid crisp" d="M60,0h830" transform="translate(0,316.73)" style="stroke: rgb(238, 238, 238); stroke-opacity: 1; stroke-width: 1px;"/><path class="y3grid crisp" d="M60,0h830" transform="translate(0,291.22)" style="stroke: rgb(238, 238, 238); stroke-opacity: 1; stroke-width: 1px;"/><path class="y3grid crisp" d="M60,0h830" transform="translate(0,265.71000000000004)" style="stroke: rgb(238, 238, 238); stroke-opacity: 1; stroke-width: 1px;"/></g></g><g class="zerolinelayer"/><path class="xlines-below"/><path class="ylines-below"/><g class="overlines-below"/><g class="xaxislayer-below"/><g class="yaxislayer-below"/><g class="overaxes-below"/><g class="plot" transform="translate(60, 249.70000000000002)" clip-path="url(#clip0a1483xy3plot)"><g class="scatterlayer mlayer"><g class="trace scatter trace561070" style="stroke-miterlimit: 2; opacity: 1;"><g class="fills"/><g class="errorbars"/><g class="lines"><path class="js-line" d="M0,28.26L1.48,28.26L2.95,31.83L4.38,26.73L5.85,27.24L7.28,32.34L8.76,32.85L10.23,29.79L11.61,32.85L13.09,29.79L14.51,31.32L15.99,32.85L17.42,37.95L18.89,38.97L20.37,38.46L21.8,37.44L23.27,38.46L24.7,35.91L26.17,39.99L27.65,43.06L28.98,40.5L30.46,43.06L31.88,41.01L34.79,32.34L36.26,33.87L37.74,33.36L39.17,34.38L42.07,32.34L43.54,32.34L45.02,32.85L46.35,29.28L47.83,24.69L49.25,29.28L50.73,29.79L52.16,23.67L53.63,24.18L55.11,26.73L56.54,25.71L58.01,23.16L59.44,25.2L60.91,24.69L62.39,24.69L63.72,23.67L65.2,25.2L66.62,23.16L68.1,17.55L69.53,22.14L72.48,24.69L73.91,24.69L76.81,26.22L78.28,28.77L79.76,27.24L81.14,32.34L82.61,33.87L84.04,32.85L86.95,32.85L88.42,31.32L89.9,30.3L91.32,26.22L92.8,23.16L94.23,22.65L95.7,29.28L97.18,28.77L98.51,27.75L99.98,25.2L101.41,25.2L102.89,23.16L104.32,25.2L105.79,21.63L107.27,25.71L108.69,19.08L110.17,19.08L111.6,17.03L113.07,19.59L114.55,20.1L115.88,24.18L117.35,25.71L118.78,27.24L120.26,27.24L121.69,27.24L123.16,30.81L126.06,24.18L127.54,22.14L128.97,21.12L130.44,25.2L131.92,28.77L133.25,27.75L134.72,20.1L136.15,4.28L139.06,28.26L140.53,26.22L142.01,26.22L143.43,24.18L146.34,31.32L147.81,32.85L149.29,29.79L150.67,30.3L152.14,32.85L153.57,29.79L155.05,34.38L156.47,32.85L157.95,32.85L159.42,34.38L160.85,35.91L162.33,34.38L163.75,38.46L165.23,38.46L166.7,45.1L168.04,38.97L169.51,38.97L170.94,39.99L172.41,38.46L173.84,38.97L176.79,35.91L178.22,36.42L181.12,34.38L182.6,31.83L184.07,35.91L185.41,36.42L186.88,37.44L188.31,39.99L189.78,41.52L191.21,36.93L192.69,38.97L194.16,38.46L195.59,37.95L197.07,38.97L198.49,39.48L199.97,35.91L202.78,35.4L204.25,36.42L207.15,42.03L208.58,38.46L210.06,43.06L211.53,44.59L212.96,43.06L214.44,43.06L215.86,41.01L217.34,42.03L220.19,40.5L221.67,34.89L223.1,34.38L224.57,35.4L227.48,34.89L228.95,32.85L230.38,34.89L231.85,33.36L233.28,34.38L234.76,36.93L237.56,37.44L239.04,36.93L240.47,36.42L241.94,37.44L243.37,29.79L244.85,31.32L249.22,25.2L250.65,28.77L252.13,27.75L253.6,30.81L254.93,30.3L256.41,26.73L257.84,29.79L259.31,29.79L262.22,28.26L263.69,32.34L266.59,36.93L268.02,36.93L269.5,35.91L270.97,35.91L273.78,39.99L275.21,42.03L276.68,46.12L278.11,43.57L279.59,45.61L281.06,43.57L282.49,43.06L283.96,39.99L286.87,41.52L288.34,32.85L289.72,33.87L291.2,33.87L292.62,35.91L294.1,35.91L295.53,33.36L297,32.34L299.91,32.85L301.38,36.93L302.81,35.4L304.28,39.99L305.76,46.12L307.09,48.16L309.99,35.91L311.47,43.57L312.9,46.12L314.37,50.71L315.85,55.3L317.28,46.12L318.75,46.63L320.18,48.67L321.65,48.67L323.13,45.1L324.46,42.03L325.94,43.06L327.36,45.1L328.84,44.59L330.27,45.1L331.74,46.63L333.22,55.81L334.65,49.69L336.12,47.65L337.55,56.83L339.02,43.06L340.5,49.18L341.83,49.18L343.31,69.59L344.73,50.71L346.21,53.26L349.11,55.81L350.59,53.77L352.02,50.2L353.49,49.18L354.92,48.16L356.39,51.22L357.87,48.67L359.25,50.71L360.72,47.65L362.15,49.69L363.63,49.69L365.06,48.67L366.53,49.69L368.01,47.14L370.91,49.69L372.34,50.2L373.81,49.18L375.29,46.63L376.62,44.08L378.09,49.69L379.52,51.22L381,50.71L382.43,50.71L383.9,53.77L386.8,49.18L388.28,48.67L389.71,52.75L391.18,51.73L392.66,48.67L393.99,50.2L395.46,47.65L396.89,48.16L398.37,48.67L399.8,48.16L401.27,51.22L402.75,51.22L404.17,52.75L405.65,52.24L408.55,45.1L410.03,47.65L411.36,51.73L412.83,48.67L414.26,49.69L415.74,47.14L417.17,50.71L418.64,48.67L420.12,47.65L421.54,45.1L423.02,46.63L424.45,43.06L425.92,44.59L427.4,42.54L428.78,43.06L430.25,42.03L431.68,42.03L433.16,41.01L434.58,43.57L436.06,43.06L438.96,51.73L440.44,51.73L441.86,38.46L443.34,48.67L444.81,47.14L446.15,47.14L447.62,48.16L449.05,50.2L451.95,53.77L453.43,53.26L456.33,60.4L457.81,60.4L459.23,46.12L460.71,56.32L462.18,59.38L463.52,57.85L464.99,59.89L466.42,53.77L467.9,57.34L469.32,56.83L470.8,59.38L472.27,57.85L473.7,56.32L475.18,56.83L478.08,54.28L479.55,52.75L480.89,54.28L482.36,57.34L483.79,56.32L485.27,58.36L486.69,56.32L488.17,58.36L489.64,57.85L491.07,56.32L493.97,61.42L495.45,58.36L498.3,58.87L499.78,63.46L501.21,58.36L502.68,56.32L504.11,58.36L505.59,58.87L507.06,58.36L508.49,59.89L511.39,59.89L512.87,60.91L514.34,60.91L515.67,59.89L517.15,59.38L518.58,57.85L520.05,58.87L521.48,61.42L522.96,61.93L524.43,60.91L525.86,60.91L527.33,59.89L528.76,59.89L530.24,54.79L533.04,54.28L534.52,55.81L537.42,57.85L538.85,57.34L540.33,57.85L541.8,59.89L543.23,60.91L544.7,60.4L546.13,62.95L547.61,59.89L550.41,62.44L551.89,66.01L554.79,68.05L556.22,68.05L557.7,68.57L559.17,71.12L562.07,68.05L563.5,70.1L564.98,64.99L566.45,68.05L567.83,69.59L569.31,67.03L572.21,67.54L573.64,66.01L575.11,66.01L576.59,69.59L578.02,69.08L579.49,69.59L580.92,71.12L582.39,68.05L583.87,67.54L585.2,65.5L586.68,67.03L588.11,69.59L589.58,69.59L591.01,63.97L592.48,57.85L593.96,56.83L595.39,75.2L596.86,71.63L598.29,69.59L599.76,61.42L601.24,62.95L602.57,62.44L604.05,62.95L605.48,59.38L606.95,59.89L608.38,64.48L609.85,64.99L611.33,63.46L614.23,63.46L615.66,64.48L618.61,63.97L619.94,65.5L621.42,65.5L622.85,62.95L624.32,63.97L625.75,60.4L627.22,61.93L628.7,66.01L633.03,64.99L634.5,67.03L637.36,67.54L638.83,65.5L640.26,65.5L641.74,62.95L643.17,65.5L644.64,66.01L646.12,69.08L647.54,69.59L649.02,71.63L650.45,57.34L651.92,73.67L653.4,75.2L654.73,74.18L656.2,76.73L657.63,74.69L659.11,77.75L660.54,81.32L662.01,78.77L663.49,78.77L664.91,76.73L669.29,71.12L670.77,71.12L672.1,71.12L673.57,72.14L675,73.16L676.48,72.14L677.91,75.2L679.38,74.18L682.28,74.18L683.76,72.65L685.19,73.67L686.66,73.67L689.47,70.1L690.94,71.12L696.75,75.2L698.23,74.69L699.65,75.2L701.13,76.73L702.56,74.18L704.03,73.67L705.51,71.63L706.89,72.14L708.36,75.2L709.79,52.75L712.69,70.1L714.17,73.16L718.55,59.89L719.97,59.89L721.45,60.91L722.92,64.48L724.26,62.44L725.73,57.85L727.16,50.71L728.64,58.36L731.54,67.54L733.01,62.44L734.44,64.99L735.92,62.44L737.34,62.44L738.82,61.42L741.63,63.46L743.1,59.89L744.53,56.83L746.01,57.34L747.43,57.85L748.91,57.34L751.81,58.87L753.29,58.87L756.19,54.79L757.66,53.77L759,56.83L760.47,57.34L761.9,57.34L763.38,55.81L764.8,55.3L766.28,55.81L767.75,57.85L769.18,57.85L770.66,56.83L772.08,52.75L773.56,51.73L775.03,51.73L776.41,49.18L777.89,48.16L779.32,47.65L780.79,46.12L782.22,50.71L783.7,51.73L785.17,50.71L786.6,47.65L788.07,43.06L789.5,31.32L790.98,60.4L792.45,62.95L793.78,62.44L795.26,59.89L798.16,57.85L799.59,58.87L802.54,57.85L803.97,60.4L805.44,60.91L806.87,59.89L808.35,56.32L809.82,55.3L812.63,54.79L814.06,54.79L816.96,54.28L818.44,55.81L819.91,54.79L821.34,55.81L822.81,55.3L824.24,53.77L827.19,52.24L828.52,54.79L830,53.77" style="vector-effect: non-scaling-stroke; fill: none; stroke: rgb(44, 160, 44); stroke-opacity: 1; stroke-width: 2px; opacity: 1;"/></g><g class="points"/><g class="text"/></g></g></g><g class="overplot"/><path class="xlines-above crisp" d="M0,0" style="fill: none;"/><path class="ylines-above crisp" d="M0,0" style="fill: none;"/><g class="overlines-above"/><g class="xaxislayer-above"/><g class="yaxislayer-above"><g class="y3tick"><text text-anchor="end" x="59" y="4.199999999999999" transform="translate(0,316.73)" style="font-family: 'Open Sans', verdana, arial, sans-serif; font-size: 12px; fill: rgb(68, 68, 68); fill-opacity: 1; white-space: pre;">5</text></g><g class="y3tick"><text text-anchor="end" x="59" y="4.199999999999999" transform="translate(0,291.22)" style="font-family: 'Open Sans', verdana, arial, sans-serif; font-size: 12px; fill: rgb(68, 68, 68); fill-opacity: 1; white-space: pre;">10</text></g><g class="y3tick"><text text-anchor="end" x="59" y="4.199999999999999" transform="translate(0,265.71000000000004)" style="font-family: 'Open Sans', verdana, arial, sans-serif; font-size: 12px; fill: rgb(68, 68, 68); fill-opacity: 1; white-space: pre;">15</text></g></g><g class="overaxes-above"/></g><g class="subplot xy4"><g class="layer-subplot"><g class="shapelayer"/><g class="imagelayer"/></g><g class="gridlayer"><g class="x"><path class="xgrid crisp" d="M0,356.7v85.60000000000001" transform="translate(103.53999999999999,0)" style="stroke: rgb(238, 238, 238); stroke-opacity: 1; stroke-width: 1px;"/><path class="xgrid crisp" d="M0,356.7v85.60000000000001" transform="translate(190.44,0)" style="stroke: rgb(238, 238, 238); stroke-opacity: 1; stroke-width: 1px;"/><path class="xgrid crisp" d="M0,356.7v85.60000000000001" transform="translate(277.34000000000003,0)" style="stroke: rgb(238, 238, 238); stroke-opacity: 1; stroke-width: 1px;"/><path class="xgrid crisp" d="M0,356.7v85.60000000000001" transform="translate(364.28,0)" style="stroke: rgb(238, 238, 238); stroke-opacity: 1; stroke-width: 1px;"/><path class="xgrid crisp" d="M0,356.7v85.60000000000001" transform="translate(451.18,0)" style="stroke: rgb(238, 238, 238); stroke-opacity: 1; stroke-width: 1px;"/><path class="xgrid crisp" d="M0,356.7v85.60000000000001" transform="translate(538.0799999999999,0)" style="stroke: rgb(238, 238, 238); stroke-opacity: 1; stroke-width: 1px;"/><path class="xgrid crisp" d="M0,356.7v85.60000000000001" transform="translate(624.98,0)" style="stroke: rgb(238, 238, 238); stroke-opacity: 1; stroke-width: 1px;"/><path class="xgrid crisp" d="M0,356.7v85.60000000000001" transform="translate(711.92,0)" style="stroke: rgb(238, 238, 238); stroke-opacity: 1; stroke-width: 1px;"/><path class="xgrid crisp" d="M0,356.7v85.60000000000001" transform="translate(798.82,0)" style="stroke: rgb(238, 238, 238); stroke-opacity: 1; stroke-width: 1px;"/><path class="xgrid crisp" d="M0,356.7v85.60000000000001" transform="translate(885.72,0)" style="stroke: rgb(238, 238, 238); stroke-opacity: 1; stroke-width: 1px;"/></g><g class="y4"><path class="y4grid crisp" d="M60,0h830" transform="translate(0,434.39)" style="stroke: rgb(238, 238, 238); stroke-opacity: 1; stroke-width: 1px;"/><path class="y4grid crisp" d="M60,0h830" transform="translate(0,416.21999999999997)" style="stroke: rgb(238, 238, 238); stroke-opacity: 1; stroke-width: 1px;"/><path class="y4grid crisp" d="M60,0h830" transform="translate(0,398.05)" style="stroke: rgb(238, 238, 238); stroke-opacity: 1; stroke-width: 1px;"/><path class="y4grid crisp" d="M60,0h830" transform="translate(0,379.88)" style="stroke: rgb(238, 238, 238); stroke-opacity: 1; stroke-width: 1px;"/><path class="y4grid crisp" d="M60,0h830" transform="translate(0,361.71)" style="stroke: rgb(238, 238, 238); stroke-opacity: 1; stroke-width: 1px;"/></g></g><g class="zerolinelayer"/><path class="xlines-below"/><path class="ylines-below"/><g class="overlines-below"/><g class="xaxislayer-below"/><g class="yaxislayer-below"/><g class="overaxes-below"/><g class="plot" transform="translate(60, 356.7)" clip-path="url(#clip0a1483xy4plot)"><g class="scatterlayer mlayer"><g class="trace scatter trace4cd265" style="stroke-miterlimit: 2; opacity: 1;"><g class="fills"/><g class="errorbars"/><g class="lines"><path class="js-line" d="M0,79.5L1.48,78.78L2.95,79.14L4.38,78.05L5.85,78.78L8.76,77.32L10.23,79.5L11.61,80.96L13.09,79.14L15.99,79.87L17.42,79.5L18.89,80.59L20.37,79.14L21.8,78.41L23.27,79.87L26.17,79.87L27.65,78.05L28.98,81.32L30.46,81.32L34.79,79.87L36.26,79.87L37.74,78.78L39.17,79.5L40.64,78.41L42.07,79.14L46.35,79.14L47.83,80.96L49.25,78.78L50.73,78.05L53.63,76.23L55.11,76.96L56.54,76.96L58.01,75.51L62.39,72.96L63.72,72.6L66.62,71.51L68.1,75.14L71,72.6L72.48,74.78L73.91,72.24L75.38,72.6L78.28,73.33L79.76,71.87L84.04,71.87L85.52,76.23L86.95,73.69L88.42,74.05L89.9,75.51L91.32,75.14L92.8,75.14L94.23,73.69L97.18,76.96L98.51,75.87L99.98,77.69L101.41,78.05L104.32,76.96L105.79,78.05L107.27,76.23L108.69,75.87L111.6,78.78L113.07,77.69L114.55,77.32L115.88,78.41L117.35,77.69L118.78,79.14L121.69,75.14L123.16,77.69L126.06,75.87L127.54,76.96L130.44,72.96L131.92,70.05L133.25,69.69L134.72,64.24L136.15,61.7L137.63,63.88L139.06,64.6L140.53,62.42L142.01,62.42L143.43,64.6L144.91,61.33L146.34,63.15L147.81,63.15L149.29,66.06L150.67,64.24L152.14,66.06L153.57,65.69L155.05,67.51L156.47,67.87L157.95,67.15L160.85,67.87L162.33,65.33L166.7,69.69L168.04,69.69L169.51,69.33L170.94,67.15L172.41,73.33L173.84,70.05L176.79,71.51L178.22,70.78L179.7,70.42L181.12,71.14L182.6,72.24L184.07,71.51L185.41,73.33L186.88,73.69L188.31,75.14L189.78,74.05L194.16,75.51L195.59,74.42L197.07,75.87L198.49,75.51L199.97,74.42L201.44,74.42L202.78,74.42L204.25,76.23L208.58,74.42L210.06,78.41L211.53,75.87L212.96,75.87L214.44,76.6L215.86,75.14L217.34,76.6L218.81,74.78L220.19,74.05L221.67,74.78L223.1,75.14L224.57,72.6L227.48,68.6L228.95,67.87L230.38,68.6L231.85,67.87L237.56,70.05L239.04,68.96L241.94,71.87L243.37,70.05L244.85,69.69L246.32,71.14L250.65,70.78L252.13,70.05L257.84,64.97L259.31,61.33L260.74,64.97L262.22,64.24L263.69,61.33L265.12,60.61L268.02,58.79L269.5,55.52L270.97,60.24L272.3,58.06L273.78,56.25L275.21,51.16L279.59,62.06L281.06,62.06L283.96,62.06L285.39,64.24L286.87,62.79L288.34,65.69L291.2,66.06L292.62,62.79L294.1,68.6L295.53,68.6L297,69.33L298.48,68.24L299.91,69.69L301.38,69.69L302.81,69.33L304.28,71.14L305.76,70.05L307.09,70.05L311.47,71.87L312.9,70.78L314.37,70.05L315.85,70.78L317.28,70.05L318.75,70.42L321.65,71.51L323.13,70.78L325.94,71.51L327.36,71.14L328.84,70.42L330.27,70.78L333.22,68.96L334.65,70.42L337.55,70.05L339.02,70.78L340.5,71.87L341.83,71.87L343.31,70.05L344.73,71.87L349.11,72.6L350.59,74.05L352.02,72.96L353.49,73.33L354.92,74.05L356.39,73.33L359.25,72.6L360.72,74.42L363.63,74.78L365.06,73.69L369.43,75.51L370.91,75.14L372.34,74.42L373.81,75.51L376.62,76.23L378.09,76.23L381,76.23L382.43,75.51L383.9,77.69L385.38,78.05L389.71,78.05L391.18,77.32L392.66,76.6L393.99,77.32L395.46,78.41L396.89,76.96L401.27,76.23L402.75,75.51L404.17,74.78L405.65,75.14L410.03,73.33L411.36,71.51L414.26,72.6L415.74,70.78L418.64,69.33L420.12,71.14L424.45,67.51L425.92,66.42L430.25,64.97L431.68,63.88L434.58,64.6L436.06,63.88L437.53,64.6L438.96,63.15L440.44,63.15L441.86,62.06L443.34,64.6L444.81,64.97L447.62,65.33L449.05,66.42L450.53,65.69L451.95,66.06L454.9,65.69L456.33,66.78L457.81,65.69L459.23,65.69L460.71,64.6L462.18,62.42L463.52,62.06L464.99,62.79L467.9,62.06L469.32,63.15L470.8,63.51L472.27,62.42L473.7,59.52L475.18,63.15L476.6,64.24L478.08,66.78L482.36,65.69L483.79,62.79L485.27,67.15L486.69,64.97L489.64,67.15L491.07,66.06L492.55,66.78L493.97,65.69L495.45,65.69L496.92,67.51L499.78,64.6L501.21,64.6L502.68,65.69L504.11,65.69L507.06,64.97L508.49,65.69L509.96,67.87L511.39,67.51L512.87,67.51L514.34,66.42L515.67,67.15L517.15,65.69L518.58,66.78L520.05,66.78L521.48,65.69L522.96,67.51L524.43,66.06L525.86,67.87L530.24,68.96L531.71,70.42L534.52,71.51L535.95,74.05L537.42,70.78L538.85,71.51L541.8,71.51L543.23,74.78L544.7,71.87L546.13,71.14L549.08,71.14L550.41,71.14L551.89,73.33L553.32,72.24L554.79,72.96L556.22,74.78L557.7,72.24L559.17,74.05L562.07,73.33L563.5,74.78L564.98,74.78L566.45,73.69L572.21,75.14L573.64,74.05L575.11,72.96L576.59,76.96L578.02,73.69L579.49,73.69L582.39,74.78L583.87,73.69L585.2,71.87L586.68,74.42L588.11,72.96L589.58,74.05L591.01,71.14L592.48,70.78L596.86,67.87L598.29,66.06L599.76,65.33L601.24,65.69L602.57,65.33L604.05,63.51L605.48,61.33L606.95,55.88L608.38,63.51L609.85,63.15L611.33,61.33L612.76,60.97L614.23,62.06L615.66,60.97L619.94,60.61L621.42,58.79L622.85,59.88L624.32,54.07L625.75,58.43L627.22,59.15L634.5,57.34L635.98,58.79L637.36,58.79L638.83,61.33L640.26,59.88L641.74,55.88L643.17,63.51L644.64,62.42L646.12,60.97L647.54,61.33L649.02,60.61L650.45,61.33L660.54,63.88L662.01,62.42L663.49,65.33L664.91,64.6L666.39,64.97L667.82,64.24L669.29,64.6L670.77,62.79L673.57,65.33L675,64.97L676.48,69.33L677.91,66.78L679.38,65.33L680.86,66.78L682.28,67.15L683.76,65.69L685.19,68.6L686.66,65.69L688.14,64.97L689.47,62.79L693.85,67.87L695.28,64.24L698.23,64.24L699.65,65.33L701.13,64.6L702.56,65.33L704.03,63.15L705.51,64.24L706.89,64.24L708.36,61.7L709.79,67.15L711.27,63.15L712.69,60.61L714.17,60.61L717.07,58.06L718.55,60.24L719.97,57.7L721.45,56.97L727.16,44.25L728.64,33.35L730.06,37.71L731.54,36.62L734.44,27.17L735.92,23.9L737.34,22.81L738.82,23.18L740.29,23.54L741.63,21.72L743.1,15.55L744.53,14.82L746.01,4.28L747.43,14.82L750.38,22.09L751.81,18.82L753.29,19.54L754.71,16.27L757.66,19.18L759,17.73L760.47,19.91L761.9,17.36L763.38,14.46L764.8,15.91L766.28,14.46L767.75,15.91L769.18,21L770.66,20.27L772.08,21.36L773.56,20.27L776.41,26.08L777.89,26.45L780.79,21.72L782.22,32.26L786.6,23.54L788.07,28.26L789.5,31.53L790.98,38.44L792.45,33.35L793.78,31.9L795.26,33.72L796.69,33.72L798.16,34.08L799.59,36.99L801.07,35.9L802.54,35.9L803.97,36.62L805.44,33.72L806.87,32.99L808.35,39.89L809.82,38.08L811.15,38.44L812.63,38.8L814.06,42.8L816.96,48.25L818.44,48.98L821.34,46.43L822.81,48.61L824.24,48.98L825.72,47.89L827.19,48.98L828.52,52.25L830,54.07" style="vector-effect: non-scaling-stroke; fill: none; stroke: rgb(214, 39, 40); stroke-opacity: 1; stroke-width: 2px; opacity: 1;"/></g><g class="points"/><g class="text"/></g></g></g><g class="overplot"/><path class="xlines-above crisp" d="M0,0" style="fill: none;"/><path class="ylines-above crisp" d="M0,0" style="fill: none;"/><g class="overlines-above"/><g class="xaxislayer-above"/><g class="yaxislayer-above"><g class="y4tick"><text text-anchor="end" x="59" y="4.199999999999999" transform="translate(0,434.39)" style="font-family: 'Open Sans', verdana, arial, sans-serif; font-size: 12px; fill: rgb(68, 68, 68); fill-opacity: 1; white-space: pre;">5</text></g><g class="y4tick"><text text-anchor="end" x="59" y="4.199999999999999" transform="translate(0,416.21999999999997)" style="font-family: 'Open Sans', verdana, arial, sans-serif; font-size: 12px; fill: rgb(68, 68, 68); fill-opacity: 1; white-space: pre;">10</text></g><g class="y4tick"><text text-anchor="end" x="59" y="4.199999999999999" transform="translate(0,398.05)" style="font-family: 'Open Sans', verdana, arial, sans-serif; font-size: 12px; fill: rgb(68, 68, 68); fill-opacity: 1; white-space: pre;">15</text></g><g class="y4tick"><text text-anchor="end" x="59" y="4.199999999999999" transform="translate(0,379.88)" style="font-family: 'Open Sans', verdana, arial, sans-serif; font-size: 12px; fill: rgb(68, 68, 68); fill-opacity: 1; white-space: pre;">20</text></g><g class="y4tick"><text text-anchor="end" x="59" y="4.199999999999999" transform="translate(0,361.71)" style="font-family: 'Open Sans', verdana, arial, sans-serif; font-size: 12px; fill: rgb(68, 68, 68); fill-opacity: 1; white-space: pre;">25</text></g></g><g class="overaxes-above"/></g><g class="subplot xy5"><g class="layer-subplot"><g class="shapelayer"/><g class="imagelayer"/></g><g class="gridlayer"><g class="x"><path class="xgrid crisp" d="M0,463.70000000000005v96.3" transform="translate(103.53999999999999,0)" style="stroke: rgb(238, 238, 238); stroke-opacity: 1; stroke-width: 1px;"/><path class="xgrid crisp" d="M0,463.70000000000005v96.3" transform="translate(190.44,0)" style="stroke: rgb(238, 238, 238); stroke-opacity: 1; stroke-width: 1px;"/><path class="xgrid crisp" d="M0,463.70000000000005v96.3" transform="translate(277.34000000000003,0)" style="stroke: rgb(238, 238, 238); stroke-opacity: 1; stroke-width: 1px;"/><path class="xgrid crisp" d="M0,463.70000000000005v96.3" transform="translate(364.28,0)" style="stroke: rgb(238, 238, 238); stroke-opacity: 1; stroke-width: 1px;"/><path class="xgrid crisp" d="M0,463.70000000000005v96.3" transform="translate(451.18,0)" style="stroke: rgb(238, 238, 238); stroke-opacity: 1; stroke-width: 1px;"/><path class="xgrid crisp" d="M0,463.70000000000005v96.3" transform="translate(538.0799999999999,0)" style="stroke: rgb(238, 238, 238); stroke-opacity: 1; stroke-width: 1px;"/><path class="xgrid crisp" d="M0,463.70000000000005v96.3" transform="translate(624.98,0)" style="stroke: rgb(238, 238, 238); stroke-opacity: 1; stroke-width: 1px;"/><path class="xgrid crisp" d="M0,463.70000000000005v96.3" transform="translate(711.92,0)" style="stroke: rgb(238, 238, 238); stroke-opacity: 1; stroke-width: 1px;"/><path class="xgrid crisp" d="M0,463.70000000000005v96.3" transform="translate(798.82,0)" style="stroke: rgb(238, 238, 238); stroke-opacity: 1; stroke-width: 1px;"/><path class="xgrid crisp" d="M0,463.70000000000005v96.3" transform="translate(885.72,0)" style="stroke: rgb(238, 238, 238); stroke-opacity: 1; stroke-width: 1px;"/></g><g class="y5"><path class="y5grid crisp" d="M60,0h830" transform="translate(0,539.35)" style="stroke: rgb(238, 238, 238); stroke-opacity: 1; stroke-width: 1px;"/><path class="y5grid crisp" d="M60,0h830" transform="translate(0,505.13000000000005)" style="stroke: rgb(238, 238, 238); stroke-opacity: 1; stroke-width: 1px;"/><path class="y5grid crisp" d="M60,0h830" transform="translate(0,470.9200000000001)" style="stroke: rgb(238, 238, 238); stroke-opacity: 1; stroke-width: 1px;"/></g></g><g class="zerolinelayer"/><path class="xlines-below"/><path class="ylines-below"/><g class="overlines-below"/><g class="xaxislayer-below"/><g class="yaxislayer-below"/><g class="overaxes-below"/><g class="plot" transform="translate(60, 463.70000000000005)" clip-path="url(#clip0a1483xy5plot)"><g class="scatterlayer mlayer"><g class="trace scatter trace7f9eba" style="stroke-miterlimit: 2; opacity: 1;"><g class="fills"/><g class="errorbars"/><g class="lines"><path class="js-line" d="M0,89.71L2.95,89.62L4.38,88.35L8.76,90.16L10.23,89.32L13.09,91.32L14.51,91.11L15.99,89.75L17.42,90.13L20.37,91.48L21.8,91.46L30.46,90.99L31.88,91.29L34.79,90.23L36.26,90.31L37.74,89.06L39.17,88.99L40.64,90.31L42.07,90.12L46.35,84.98L47.83,83.88L56.54,78.44L58.01,76.34L59.44,75.13L60.91,75.74L62.39,76.31L63.72,75.73L68.1,75.99L69.53,75.41L71,74.73L72.48,75.36L73.91,75.96L75.38,74.54L76.81,74.59L78.28,75.52L79.76,76.14L81.14,75.39L84.04,76.18L85.52,76.17L91.32,76.5L92.8,78.37L94.23,78.77L95.7,80.26L97.18,79.39L98.51,79.79L99.98,79.35L101.41,80.24L104.32,80.4L105.79,80.4L107.27,80.09L108.69,81.5L111.6,79.14L113.07,78.08L114.55,77.49L115.88,78.15L118.78,77.66L120.26,76.14L121.69,75.21L123.16,75.49L124.64,72.66L126.06,72.07L130.44,58.53L131.92,58.4L134.72,53.68L136.15,52.16L140.53,55.61L142.01,55.65L146.34,56.87L147.81,58.31L150.67,60.39L152.14,59.7L153.57,61.6L155.05,59.76L156.47,58.61L157.95,58.42L159.42,59.36L160.85,59.02L162.33,57.72L163.75,58.23L165.23,60.05L166.7,58.93L170.94,62.57L172.41,61.04L173.84,63.13L175.32,62.47L176.79,63.66L178.22,63.58L179.7,63.23L181.12,66.16L182.6,65.46L184.07,66.63L185.41,66.5L186.88,67.57L189.78,68.61L191.21,66.69L192.69,68.26L194.16,67.95L195.59,69.17L197.07,68.28L198.49,67.24L199.97,68.06L201.44,67.62L202.78,68.06L204.25,68.33L205.68,69.9L208.58,68.83L210.06,66.61L211.53,67.5L212.96,66.78L214.44,67.17L215.86,66.58L217.34,64.13L218.81,64L220.19,63.82L221.67,59.51L223.1,55.23L224.57,54.45L226,52.64L227.48,53.2L228.95,54.98L230.38,54.52L231.85,54.96L233.28,57.05L234.76,54.63L236.23,54.77L239.04,56.02L240.47,53.93L241.94,54.45L243.37,56.06L246.32,53.55L247.75,50.7L250.65,46.45L252.13,45.56L256.41,39.76L257.84,39.14L260.74,35.63L262.22,35.41L266.59,28.17L268.02,27.4L269.5,30.94L270.97,30.86L275.21,33.54L276.68,32.91L278.11,37.68L279.59,37.17L286.87,48.22L288.34,49.71L291.2,49.91L292.62,52L294.1,53.57L295.53,51.44L297,51.57L298.48,52.61L299.91,52.51L301.38,53.76L304.28,52.22L305.76,52.92L308.57,52.42L309.99,53.05L312.9,51.61L314.37,53.78L317.28,53.08L318.75,54.24L320.18,54.17L321.65,56.52L323.13,52.37L324.46,52.5L327.36,52.12L328.84,51.64L331.74,54.2L333.22,53L336.12,54.03L337.55,55.92L341.83,56.06L343.31,58.25L344.73,58.03L346.21,59.24L350.59,61.26L352.02,60.41L354.92,62.4L356.39,62.28L359.25,62.81L360.72,64.69L362.15,63.47L363.63,65.07L365.06,64.66L366.53,63.04L368.01,64.67L369.43,64.92L372.34,65.26L373.81,64.14L376.62,67.4L378.09,65.6L379.52,66.24L381,64.86L383.9,65.31L385.38,64.77L391.18,63.66L392.66,64.35L393.99,64.71L395.46,63.35L398.37,64.77L399.8,62.49L402.75,59.44L404.17,58.82L407.08,55.8L408.55,55.02L411.36,51.11L412.83,52.12L414.26,50.08L415.74,50.38L417.17,51.11L418.64,50.56L423.02,48.75L424.45,46.92L428.78,45.13L430.25,45.44L433.16,41.16L434.58,42.46L437.53,42.93L438.96,45.55L440.44,44.41L441.86,44.47L444.81,47.02L446.15,47.89L450.53,47.45L451.95,48.76L454.9,50.23L456.33,49.99L459.23,51.86L460.71,50.81L463.52,51.9L464.99,52.85L466.42,55.7L467.9,55.62L470.8,55.58L472.27,56.94L473.7,57.64L475.18,59.4L476.6,60.39L478.08,59.4L480.89,60.91L482.36,57.55L483.79,59.02L485.27,59.04L486.69,58.36L488.17,58.65L489.64,58.69L491.07,59.72L493.97,59.07L495.45,58.6L496.92,59.82L498.3,59.79L501.21,59.07L502.68,61.31L504.11,59.66L505.59,62.77L511.39,60.23L512.87,60.88L515.67,61.96L517.15,62.83L518.58,64.32L520.05,63.34L522.96,64.64L524.43,64.31L527.33,66.7L528.76,65.55L531.71,66.71L533.04,65.92L534.52,69.21L535.95,68.48L538.85,67.03L540.33,67.58L541.8,66.75L543.23,66.89L546.13,68.58L547.61,68.97L549.08,68.04L550.41,70.29L551.89,68.78L553.32,70.2L556.22,68.63L557.7,69.91L559.17,69.38L560.6,70.32L563.5,71.18L564.98,70.8L566.45,69.77L567.83,70.63L569.31,72.35L570.74,70.46L572.21,71.19L573.64,70.53L575.11,69.81L576.59,71.37L578.02,71.99L579.49,71.27L580.92,71.31L582.39,68.65L588.11,67.26L589.58,65.49L591.01,64.81L592.48,61.67L593.96,60.99L595.39,57.21L598.29,53.35L599.76,53.87L602.57,53.04L604.05,51.02L605.48,52.39L606.95,52.43L609.85,53.04L611.33,53.4L612.76,53.02L614.23,51.56L615.66,50.74L617.13,51.56L619.94,51.1L621.42,49.36L622.85,48.57L624.32,46.46L627.22,48.99L628.7,48.82L633.03,52.95L634.5,52.59L635.98,53.98L637.36,51.76L638.83,53.96L640.26,53.67L641.74,53.16L643.17,54.19L646.12,55.62L647.54,54.7L651.92,56.6L653.4,55.26L654.73,56.92L656.2,57.36L659.11,58.38L660.54,59.18L662.01,59.6L663.49,58.18L664.91,58.86L666.39,58.09L669.29,61.52L670.77,60.7L672.1,61.47L673.57,61.14L675,62.1L676.48,61.95L677.91,60.76L679.38,61.34L682.28,63.83L683.76,62.84L685.19,63.59L686.66,61.17L689.47,63.8L690.94,62.99L692.37,63.56L693.85,62.1L695.28,60.94L696.75,61.5L699.65,60.34L701.13,60.32L702.56,57.55L704.03,57.27L705.51,58.56L706.89,56.34L708.36,57.6L709.79,52.42L711.27,51.18L712.69,48.71L714.17,45.28L715.64,44.9L719.97,32.64L721.45,27.35L724.26,17.99L725.73,15.07L727.16,10.65L728.64,9.23L730.06,9.95L731.54,8.5L733.01,7.16L734.44,4.81L738.82,6.91L740.29,6.45L743.1,5L744.53,8.26L746.01,10.82L747.43,10.56L748.91,9.63L750.38,10.1L751.81,10.54L753.29,6.67L754.71,11.68L756.19,13.98L759,15.87L760.47,14.36L761.9,15.06L763.38,14.33L764.8,15.69L766.28,15.31L767.75,14.42L769.18,16.84L773.56,22.3L775.03,22.19L777.89,23.33L779.32,23.23L782.22,23.26L783.7,24.53L785.17,26.96L786.6,26.9L788.07,27.72L789.5,25.71L790.98,24.53L792.45,28.09L793.78,29.88L795.26,29.39L796.69,30.12L798.16,29.45L799.59,32.3L801.07,32.68L802.54,32.74L803.97,33.66L808.35,40.05L809.82,39.05L811.15,38.83L812.63,43.47L814.06,42.4L815.53,45.13L816.96,44.12L818.44,44.18L821.34,48.35L822.81,47.66L824.24,50.21L825.72,48.94L828.52,51.67L830,51.52" style="vector-effect: non-scaling-stroke; fill: none; stroke: rgb(148, 103, 189); stroke-opacity: 1; stroke-width: 2px; opacity: 1;"/></g><g class="points"/><g class="text"/></g></g></g><g class="overplot"/><path class="xlines-above crisp" d="M0,0" style="fill: none;"/><path class="ylines-above crisp" d="M0,0" style="fill: none;"/><g class="overlines-above"/><g class="xaxislayer-above"><g class="xtick"><text text-anchor="middle" x="0" y="573" transform="translate(103.53999999999999,0)" style="font-family: 'Open Sans', verdana, arial, sans-serif; font-size: 12px; fill: rgb(68, 68, 68); fill-opacity: 1; white-space: pre;">1970</text></g><g class="xtick"><text text-anchor="middle" x="0" y="573" transform="translate(190.44,0)" style="font-family: 'Open Sans', verdana, arial, sans-serif; font-size: 12px; fill: rgb(68, 68, 68); fill-opacity: 1; white-space: pre;">1975</text></g><g class="xtick"><text text-anchor="middle" x="0" y="573" transform="translate(277.34000000000003,0)" style="font-family: 'Open Sans', verdana, arial, sans-serif; font-size: 12px; fill: rgb(68, 68, 68); fill-opacity: 1; white-space: pre;">1980</text></g><g class="xtick"><text text-anchor="middle" x="0" y="573" transform="translate(364.28,0)" style="font-family: 'Open Sans', verdana, arial, sans-serif; font-size: 12px; fill: rgb(68, 68, 68); fill-opacity: 1; white-space: pre;">1985</text></g><g class="xtick"><text text-anchor="middle" x="0" y="573" transform="translate(451.18,0)" style="font-family: 'Open Sans', verdana, arial, sans-serif; font-size: 12px; fill: rgb(68, 68, 68); fill-opacity: 1; white-space: pre;">1990</text></g><g class="xtick"><text text-anchor="middle" x="0" y="573" transform="translate(538.0799999999999,0)" style="font-family: 'Open Sans', verdana, arial, sans-serif; font-size: 12px; fill: rgb(68, 68, 68); fill-opacity: 1; white-space: pre;">1995</text></g><g class="xtick"><text text-anchor="middle" x="0" y="573" transform="translate(624.98,0)" style="font-family: 'Open Sans', verdana, arial, sans-serif; font-size: 12px; fill: rgb(68, 68, 68); fill-opacity: 1; white-space: pre;">2000</text></g><g class="xtick"><text text-anchor="middle" x="0" y="573" transform="translate(711.92,0)" style="font-family: 'Open Sans', verdana, arial, sans-serif; font-size: 12px; fill: rgb(68, 68, 68); fill-opacity: 1; white-space: pre;">2005</text></g><g class="xtick"><text text-anchor="middle" x="0" y="573" transform="translate(798.82,0)" style="font-family: 'Open Sans', verdana, arial, sans-serif; font-size: 12px; fill: rgb(68, 68, 68); fill-opacity: 1; white-space: pre;">2010</text></g><g class="xtick"><text text-anchor="middle" x="0" y="573" transform="translate(885.72,0)" style="font-family: 'Open Sans', verdana, arial, sans-serif; font-size: 12px; fill: rgb(68, 68, 68); fill-opacity: 1; white-space: pre;">2015</text></g></g><g class="yaxislayer-above"><g class="y5tick"><text text-anchor="end" x="59" y="4.199999999999999" transform="translate(0,539.35)" style="font-family: 'Open Sans', verdana, arial, sans-serif; font-size: 12px; fill: rgb(68, 68, 68); fill-opacity: 1; white-space: pre;">5k</text></g><g class="y5tick"><text text-anchor="end" x="59" y="4.199999999999999" transform="translate(0,505.13000000000005)" style="font-family: 'Open Sans', verdana, arial, sans-serif; font-size: 12px; fill: rgb(68, 68, 68); fill-opacity: 1; white-space: pre;">10k</text></g><g class="y5tick"><text text-anchor="end" x="59" y="4.199999999999999" transform="translate(0,470.9200000000001)" style="font-family: 'Open Sans', verdana, arial, sans-serif; font-size: 12px; fill: rgb(68, 68, 68); fill-opacity: 1; white-space: pre;">15k</text></g></g><g class="overaxes-above"/></g></g><g class="polarlayer"/><g class="ternarylayer"/><g class="geolayer"/><g class="pielayer"/><g class="glimages"/><defs id="topdefs-0a1483"><g class="clips"/></defs><g class="layer-above"><g class="imagelayer"/><g class="shapelayer"><path data-index="0" fill-rule="evenodd" d="M60,25H890V9H60Z" style="opacity: 1; stroke: rgb(0, 0, 0); stroke-opacity: 0; fill: rgb(204, 204, 204); fill-opacity: 1; stroke-width: 2px;"/><path data-index="1" fill-rule="evenodd" d="M60,142.7H890V126.69999999999999H60Z" style="opacity: 1; stroke: rgb(0, 0, 0); stroke-opacity: 0; fill: rgb(204, 204, 204); fill-opacity: 1; stroke-width: 2px;"/><path data-index="2" fill-rule="evenodd" d="M60,249.70000000000002H890V233.70000000000002H60Z" style="opacity: 1; stroke: rgb(0, 0, 0); stroke-opacity: 0; fill: rgb(204, 204, 204); fill-opacity: 1; stroke-width: 2px;"/><path data-index="3" fill-rule="evenodd" d="M60,356.7H890V340.7H60Z" style="opacity: 1; stroke: rgb(0, 0, 0); stroke-opacity: 0; fill: rgb(204, 204, 204); fill-opacity: 1; stroke-width: 2px;"/><path data-index="4" fill-rule="evenodd" d="M60,463.70000000000005H890V447.70000000000005H60Z" style="opacity: 1; stroke: rgb(0, 0, 0); stroke-opacity: 0; fill: rgb(204, 204, 204); fill-opacity: 1; stroke-width: 2px;"/></g></g><g class="infolayer"><g class="g-gtitle"/><g class="g-xtitle" transform="translate(0,-15)"><text class="xtitle" x="475" y="612" text-anchor="middle" style="font-family: 'Open Sans', verdana, arial, sans-serif; font-size: 14px; fill: rgb(68, 68, 68); opacity: 1; font-weight: normal; white-space: pre;">date</text></g><g class="g-ytitle"/><g class="g-y2title"/><g class="g-y3title"/><g class="g-y4title"/><g class="g-y5title"/><g class="annotation" data-index="0" style="opacity: 1;"><g class="annotation-text-g" transform="rotate(0,475,13.999999999999998)"><g class="cursor-pointer" transform="translate(460, 3)"><rect class="bg" x="0.5" y="0.5" width="29" height="21" style="stroke-width: 1px; stroke: rgb(0, 0, 0); stroke-opacity: 0; fill: rgb(0, 0, 0); fill-opacity: 0;"/><text class="annotation-text" text-anchor="middle" x="15.046875" y="17" style="font-family: 'Open Sans', verdana, arial, sans-serif; font-size: 15px; fill: rgb(68, 68, 68); fill-opacity: 1; white-space: pre;">pce</text></g></g></g><g class="annotation" data-index="1" style="opacity: 1;"><g class="annotation-text-g" transform="rotate(0,475,131.7)"><g class="cursor-pointer" transform="translate(459, 121)"><rect class="bg" x="0.5" y="0.5" width="31" height="21" style="stroke-width: 1px; stroke: rgb(0, 0, 0); stroke-opacity: 0; fill: rgb(0, 0, 0); fill-opacity: 0;"/><text class="annotation-text" text-anchor="middle" x="15.890625" y="17" style="font-family: 'Open Sans', verdana, arial, sans-serif; font-size: 15px; fill: rgb(68, 68, 68); fill-opacity: 1; white-space: pre;">pop</text></g></g></g><g class="annotation" data-index="2" style="opacity: 1;"><g class="annotation-text-g" transform="rotate(0,475,238.70000000000002)"><g class="cursor-pointer" transform="translate(445, 228)"><rect class="bg" x="0.5" y="0.5" width="59" height="21" style="stroke-width: 1px; stroke: rgb(0, 0, 0); stroke-opacity: 0; fill: rgb(0, 0, 0); fill-opacity: 0;"/><text class="annotation-text" text-anchor="middle" x="30.140625" y="17" style="font-family: 'Open Sans', verdana, arial, sans-serif; font-size: 15px; fill: rgb(68, 68, 68); fill-opacity: 1; white-space: pre;">psavert</text></g></g></g><g class="annotation" data-index="3" style="opacity: 1;"><g class="annotation-text-g" transform="rotate(0,475,345.7)"><g class="cursor-pointer" transform="translate(436, 335)"><rect class="bg" x="0.5" y="0.5" width="78" height="21" style="stroke-width: 1px; stroke: rgb(0, 0, 0); stroke-opacity: 0; fill: rgb(0, 0, 0); fill-opacity: 0;"/><text class="annotation-text" text-anchor="middle" x="39.609375" y="17" style="font-family: 'Open Sans', verdana, arial, sans-serif; font-size: 15px; fill: rgb(68, 68, 68); fill-opacity: 1; white-space: pre;">uempmed</text></g></g></g><g class="annotation" data-index="4" style="opacity: 1;"><g class="annotation-text-g" transform="rotate(0,475,452.70000000000005)"><g class="cursor-pointer" transform="translate(436, 442)"><rect class="bg" x="0.5" y="0.5" width="77" height="21" style="stroke-width: 1px; stroke: rgb(0, 0, 0); stroke-opacity: 0; fill: rgb(0, 0, 0); fill-opacity: 0;"/><text class="annotation-text" text-anchor="middle" x="38.96875" y="17" style="font-family: 'Open Sans', verdana, arial, sans-serif; font-size: 15px; fill: rgb(68, 68, 68); fill-opacity: 1; white-space: pre;">unemploy</text></g></g></g></g></svg>