<svg class="main-svg" xmlns="http://www.w3.org/2000/svg" xmlns:xlink="http://www.w3.org/1999/xlink" width="900" height="600" viewBox="0 0 900 600"><rect x="0" y="0" width="900" height="600" style="fill: rgb(255, 255, 255); fill-opacity: 1;"/><defs id="defs-116be0"><g class="clips"><clipPath id="clip116be0xyplot" class="plotclip"><rect width="850" height="535"/></clipPath><clipPath class="axesclip" id="clip116be0x"><rect x="43" y="0" width="850" height="600"/></clipPath><clipPath class="axesclip" id="clip116be0y"><rect x="0" y="23" width="900" height="535"/></clipPath><clipPath class="axesclip" id="clip116be0xy"><rect x="43" y="23" width="850" height="535"/></clipPath></g><g class="gradients"/></defs><g class="bglayer"><rect class="bg" x="43" y="23" width="850" height="535" style="fill: rgb(235, 235, 235); fill-opacity: 1; stroke-width: 0;"/></g><g class="layer-below"><g class="imagelayer"/><g class="shapelayer"/></g><g class="cartesianlayer"><g class="subplot xy"><g class="layer-subplot"><g class="shapelayer"/><g class="imagelayer"/></g><g class="gridlayer"><g class="x"><path class="xgrid crisp" d="M0,23v535" transform="translate(210.42,0)" style="stroke: rgb(255, 255, 255); stroke-opacity: 1; stroke-width: 0.664176px;"/><path class="xgrid crisp" d="M0,23v535" transform="translate(425.07,0)" style="stroke: rgb(255, 255, 255); stroke-opacity: 1; stroke-width: 0.664176px;"/><path class="xgrid crisp" d="M0,23v535" transform="translate(639.72,0)" style="stroke: rgb(255, 255, 255); stroke-opacity: 1; stroke-width: 0.664176px;"/><path class="xgrid crisp" d="M0,23v535" transform="translate(854.36,0)" style="stroke: rgb(255, 255, 255); stroke-opacity: 1; stroke-width: 0.664176px;"/></g><g class="y"><path class="ygrid crisp" d="M43,0h850" transform="translate(0,469.3)" style="stroke: rgb(255, 255, 255); stroke-opacity: 1; stroke-width: 0.664176px;"/><path class="ygrid crisp" d="M43,0h850" transform="translate(0,308.35)" style="stroke: rgb(255, 255, 255); stroke-opacity: 1; stroke-width: 0.664176px;"/><path class="ygrid crisp" d="M43,0h850" transform="translate(0,147.4)" style="stroke: rgb(255, 255, 255); stroke-opacity: 1; stroke-width: 0.664176px;"/></g></g><g class="zerolinelayer"/><path class="xlines-below"/><path class="ylines-below"/><g class="overlines-below"/><g class="xaxislayer-below"/><g class="yaxislayer-below"/><g class="overaxes-below"/><g class="plot" transform="translate(43, 23)" clip-path="url(#clip116be0xyplot)"><g class="scatterlayer mlayer"><g class="trace scatter trace416420" style="stroke-miterlimit: 2; opacity: 1;"><g class="fills"/><g class="errorbars"/><g class="lines"/><g class="points"><path class="point" transform="translate(38.64,484.93)" d="M2.83,0A2.83,2.83 0 1,1 0,-2.83A2.83,2.83 0 0,1 2.83,0Z" style="opacity: 1; stroke-width: 1.88976px; fill: rgb(0, 0, 0); fill-opacity: 1; stroke: rgb(0, 0, 0); stroke-opacity: 1;"/><path class="point" transform="translate(124.49,491.37)" d="M2.83,0A2.83,2.83 0 1,1 0,-2.83A2.83,2.83 0 0,1 2.83,0Z" style="opacity: 1; stroke-width: 1.88976px; fill: rgb(0, 0, 0); fill-opacity: 1; stroke: rgb(0, 0, 0); stroke-opacity: 1;"/><path class="point" transform="translate(210.35,497.81)" d="M2.83,0A2.83,2.83 0 1,1 0,-2.83A2.83,2.83 0 0,1 2.83,0Z" style="opacity: 1; stroke-width: 1.88976px; fill: rgb(0, 0, 0); fill-opacity: 1; stroke: rgb(0, 0, 0); stroke-opacity: 1;"/><path class="point" transform="translate(296.21,504.24)" d="M2.83,0A2.83,2.83 0 1,1 0,-2.83A2.83,2.83 0 0,1 2.83,0Z" style="opacity: 1; stroke-width: 1.88976px; fill: rgb(0, 0, 0); fill-opacity: 1; stroke: rgb(0, 0, 0); stroke-opacity: 1;"/><path class="point" transform="translate(382.07,510.68)" d="M2.83,0A2.83,2.83 0 1,1 0,-2.83A2.83,2.83 0 0,1 2.83,0Z" style="opacity: 1; stroke-width: 1.88976px; fill: rgb(0, 0, 0); fill-opacity: 1; stroke: rgb(0, 0, 0); stroke-opacity: 1;"/><path class="point" transform="translate(467.93,439.86)" d="M2.83,0A2.83,2.83 0 1,1 0,-2.83A2.83,2.83 0 0,1 2.83,0Z" style="opacity: 1; stroke-width: 1.88976px; fill: rgb(0, 0, 0); fill-opacity: 1; stroke: rgb(0, 0, 0); stroke-opacity: 1;"/><path class="point" transform="translate(553.79,459.18)" d="M2.83,0A2.83,2.83 0 1,1 0,-2.83A2.83,2.83 0 0,1 2.83,0Z" style="opacity: 1; stroke-width: 1.88976px; fill: rgb(0, 0, 0); fill-opacity: 1; stroke: rgb(0, 0, 0); stroke-opacity: 1;"/><path class="point" transform="translate(639.65,414.11)" d="M2.83,0A2.83,2.83 0 1,1 0,-2.83A2.83,2.83 0 0,1 2.83,0Z" style="opacity: 1; stroke-width: 1.88976px; fill: rgb(0, 0, 0); fill-opacity: 1; stroke: rgb(0, 0, 0); stroke-opacity: 1;"/><path class="point" transform="translate(725.51,420.55)" d="M2.83,0A2.83,2.83 0 1,1 0,-2.83A2.83,2.83 0 0,1 2.83,0Z" style="opacity: 1; stroke-width: 1.88976px; fill: rgb(0, 0, 0); fill-opacity: 1; stroke: rgb(0, 0, 0); stroke-opacity: 1;"/><path class="point" transform="translate(811.36,478.49)" d="M2.83,0A2.83,2.83 0 1,1 0,-2.83A2.83,2.83 0 0,1 2.83,0Z" style="opacity: 1; stroke-width: 1.88976px; fill: rgb(0, 0, 0); fill-opacity: 1; stroke: rgb(0, 0, 0); stroke-opacity: 1;"/><path class="point" transform="translate(38.64,285.35)" d="M2.83,0A2.83,2.83 0 1,1 0,-2.83A2.83,2.83 0 0,1 2.83,0Z" style="opacity: 1; stroke-width: 1.88976px; fill: rgb(0, 0, 0); fill-opacity: 1; stroke: rgb(0, 0, 0); stroke-opacity: 1;"/><path class="point" transform="translate(124.49,298.23)" d="M2.83,0A2.83,2.83 0 1,1 0,-2.83A2.83,2.83 0 0,1 2.83,0Z" style="opacity: 1; stroke-width: 1.88976px; fill: rgb(0, 0, 0); fill-opacity: 1; stroke: rgb(0, 0, 0); stroke-opacity: 1;"/><path class="point" transform="translate(210.35,388.36)" d="M2.83,0A2.83,2.83 0 1,1 0,-2.83A2.83,2.83 0 0,1 2.83,0Z" style="opacity: 1; stroke-width: 1.88976px; fill: rgb(0, 0, 0); fill-opacity: 1; stroke: rgb(0, 0, 0); stroke-opacity: 1;"/><path class="point" transform="translate(296.21,336.85)" d="M2.83,0A2.83,2.83 0 1,1 0,-2.83A2.83,2.83 0 0,1 2.83,0Z" style="opacity: 1; stroke-width: 1.88976px; fill: rgb(0, 0, 0); fill-opacity: 1; stroke: rgb(0, 0, 0); stroke-opacity: 1;"/><path class="point" transform="translate(382.07,259.6)" d="M2.83,0A2.83,2.83 0 1,1 0,-2.83A2.83,2.83 0 0,1 2.83,0Z" style="opacity: 1; stroke-width: 1.88976px; fill: rgb(0, 0, 0); fill-opacity: 1; stroke: rgb(0, 0, 0); stroke-opacity: 1;"/><path class="point" transform="translate(467.93,311.1)" d="M2.83,0A2.83,2.83 0 1,1 0,-2.83A2.83,2.83 0 0,1 2.83,0Z" style="opacity: 1; stroke-width: 1.88976px; fill: rgb(0, 0, 0); fill-opacity: 1; stroke: rgb(0, 0, 0); stroke-opacity: 1;"/><path class="point" transform="translate(553.79,401.24)" d="M2.83,0A2.83,2.83 0 1,1 0,-2.83A2.83,2.83 0 0,1 2.83,0Z" style="opacity: 1; stroke-width: 1.88976px; fill: rgb(0, 0, 0); fill-opacity: 1; stroke: rgb(0, 0, 0); stroke-opacity: 1;"/><path class="point" transform="translate(639.65,375.48)" d="M2.83,0A2.83,2.83 0 1,1 0,-2.83A2.83,2.83 0 0,1 2.83,0Z" style="opacity: 1; stroke-width: 1.88976px; fill: rgb(0, 0, 0); fill-opacity: 1; stroke: rgb(0, 0, 0); stroke-opacity: 1;"/><path class="point" transform="translate(725.51,349.73)" d="M2.83,0A2.83,2.83 0 1,1 0,-2.83A2.83,2.83 0 0,1 2.83,0Z" style="opacity: 1; stroke-width: 1.88976px; fill: rgb(0, 0, 0); fill-opacity: 1; stroke: rgb(0, 0, 0); stroke-opacity: 1;"/><path class="point" transform="translate(811.36,272.47)" d="M2.83,0A2.83,2.83 0 1,1 0,-2.83A2.83,2.83 0 0,1 2.83,0Z" style="opacity: 1; stroke-width: 1.88976px; fill: rgb(0, 0, 0); fill-opacity: 1; stroke: rgb(0, 0, 0); stroke-opacity: 1;"/><path class="point" transform="translate(38.64,124.4)" d="M2.83,0A2.83,2.83 0 1,1 0,-2.83A2.83,2.83 0 0,1 2.83,0Z" style="opacity: 1; stroke-width: 1.88976px; fill: rgb(0, 0, 0); fill-opacity: 1; stroke: rgb(0, 0, 0); stroke-opacity: 1;"/><path class="point" transform="translate(124.49,220.97)" d="M2.83,0A2.83,2.83 0 1,1 0,-2.83A2.83,2.83 0 0,1 2.83,0Z" style="opacity: 1; stroke-width: 1.88976px; fill: rgb(0, 0, 0); fill-opacity: 1; stroke: rgb(0, 0, 0); stroke-opacity: 1;"/><path class="point" transform="translate(210.35,298.23)" d="M2.83,0A2.83,2.83 0 1,1 0,-2.83A2.83,2.83 0 0,1 2.83,0Z" style="opacity: 1; stroke-width: 1.88976px; fill: rgb(0, 0, 0); fill-opacity: 1; stroke: rgb(0, 0, 0); stroke-opacity: 1;"/><path class="point" transform="translate(296.21,182.34)" d="M2.83,0A2.83,2.83 0 1,1 0,-2.83A2.83,2.83 0 0,1 2.83,0Z" style="opacity: 1; stroke-width: 1.88976px; fill: rgb(0, 0, 0); fill-opacity: 1; stroke: rgb(0, 0, 0); stroke-opacity: 1;"/><path class="point" transform="translate(382.07,66.46)" d="M2.83,0A2.83,2.83 0 1,1 0,-2.83A2.83,2.83 0 0,1 2.83,0Z" style="opacity: 1; stroke-width: 1.88976px; fill: rgb(0, 0, 0); fill-opacity: 1; stroke: rgb(0, 0, 0); stroke-opacity: 1;"/><path class="point" transform="translate(467.93,27.83)" d="M2.83,0A2.83,2.83 0 1,1 0,-2.83A2.83,2.83 0 0,1 2.83,0Z" style="opacity: 1; stroke-width: 1.88976px; fill: rgb(0, 0, 0); fill-opacity: 1; stroke: rgb(0, 0, 0); stroke-opacity: 1;"/><path class="point" transform="translate(553.79,47.14)" d="M2.83,0A2.83,2.83 0 1,1 0,-2.83A2.83,2.83 0 0,1 2.83,0Z" style="opacity: 1; stroke-width: 1.88976px; fill: rgb(0, 0, 0); fill-opacity: 1; stroke: rgb(0, 0, 0); stroke-opacity: 1;"/><path class="point" transform="translate(639.65,143.71)" d="M2.83,0A2.83,2.83 0 1,1 0,-2.83A2.83,2.83 0 0,1 2.83,0Z" style="opacity: 1; stroke-width: 1.88976px; fill: rgb(0, 0, 0); fill-opacity: 1; stroke: rgb(0, 0, 0); stroke-opacity: 1;"/><path class="point" transform="translate(725.51,278.91)" d="M2.83,0A2.83,2.83 0 1,1 0,-2.83A2.83,2.83 0 0,1 2.83,0Z" style="opacity: 1; stroke-width: 1.88976px; fill: rgb(0, 0, 0); fill-opacity: 1; stroke: rgb(0, 0, 0); stroke-opacity: 1;"/><path class="point" transform="translate(811.36,201.66)" d="M2.83,0A2.83,2.83 0 1,1 0,-2.83A2.83,2.83 0 0,1 2.83,0Z" style="opacity: 1; stroke-width: 1.88976px; fill: rgb(0, 0, 0); fill-opacity: 1; stroke: rgb(0, 0, 0); stroke-opacity: 1;"/></g><g class="text"/></g><g class="trace scatter trace34b7b7" style="stroke-miterlimit: 2; opacity: 1;"><g class="fills"/><g class="errorbars"/><g class="lines"><path class="js-line" d="M38.64,482.22L87.54,490.31L97.32,491.74L156.01,499.16L165.79,500.27L195.14,503.01L204.92,503.63L224.48,504.89L234.26,505.92L273.39,510.07L283.17,510.48L302.73,509.67L312.51,508.35L332.08,504.37L341.86,501.94L410.33,483.91L420.11,480.62L459.23,467.31L469.02,464.46L498.36,455.14L508.14,451.81L537.49,442.41L547.27,439.79L605.96,426.24L615.74,424.64L635.3,423.06L645.08,423.21L674.42,425.2L684.21,426.38L703.77,429.65L713.55,431.77L733.11,437.07L742.89,440.2L762.46,447.38L772.24,451.44L791.8,460.51L801.58,465.54L811.36,470.89" style="vector-effect: non-scaling-stroke; fill: none; stroke: rgb(248, 118, 109); stroke-opacity: 1; stroke-width: 1.88976px; opacity: 1; stroke-dasharray: 9px, 9px;"/></g><g class="points"/><g class="text"/></g><g class="trace scatter trace9e5f1a" style="stroke-miterlimit: 2; opacity: 1;"><g class="fills"/><g class="errorbars"/><g class="lines"><path class="js-line" d="M38.64,276.5L58.2,291.31L67.98,298.09L87.54,310.4L97.32,315.93L116.89,325.72L126.67,329.97L146.23,336.89L156.01,339.6L175.58,343.73L185.36,345.24L204.92,347.37L214.7,348.03L234.26,347.35L244.04,346.11L263.61,342.31L273.39,339.94L292.95,334.75L302.73,331.47L312.51,325.84L322.3,318.43L351.64,293.02L361.42,285.99L371.2,280.93L380.98,278.58L390.77,279.04L400.55,281.36L410.33,285.16L420.11,290.02L459.23,312.23L469.02,316.52L478.8,321.78L488.58,328.94L508.14,346.53L517.92,355.74L527.7,364.42L537.49,371.95L547.27,377.74L557.05,381.29L576.61,385.9L586.39,387.42L605.96,388.84L615.74,388.74L635.3,386.87L645.08,385.1L664.64,379.89L674.42,376.47L693.99,367.97L703.77,362.9L723.33,351.13L733.11,344.43L752.68,329.38L762.46,321.05L782.02,302.75L791.8,292.8L811.36,271.27" style="vector-effect: non-scaling-stroke; fill: none; stroke: rgb(0, 186, 56); stroke-opacity: 1; stroke-width: 1.88976px; opacity: 1; stroke-dasharray: 9px, 9px;"/></g><g class="points"/><g class="text"/></g><g class="trace scatter trace1b8f28" style="stroke-miterlimit: 2; opacity: 1;"><g class="fills"/><g class="errorbars"/><g class="lines"><path class="js-line" d="M38.64,127.17L58.2,157.02L67.98,170.43L87.54,194.24L97.32,204.65L116.89,222.52L126.67,229.98L136.45,236.27L146.23,241.36L156.01,245.34L165.79,248.3L175.58,250.32L185.36,251.48L204.92,251.58L214.7,250.52L224.48,247.58L234.26,242.81L244.04,236.55L253.83,229.11L273.39,212.02L283.17,203.03L302.73,184.9L312.51,172.91L322.3,158.79L332.08,143.35L351.64,111.76L361.42,97.24L371.2,84.66L380.98,74.82L410.33,52.04L420.11,45.21L439.67,33.75L449.45,29.48L459.23,26.41L469.02,24.73L478.8,24.32L488.58,24.99L498.36,26.66L508.14,29.27L527.7,36.99L537.49,41.96L557.05,53.88L566.83,62.45L576.61,73.16L586.39,85.33L615.74,123.54L625.52,134.5L635.3,143.4L645.08,150.1L703.77,190.15L713.55,196.07L733.11,206.38L742.89,211.07L772.24,223.67L782.02,227.34L801.58,233.76L811.36,236.48" style="vector-effect: non-scaling-stroke; fill: none; stroke: rgb(97, 156, 255); stroke-opacity: 1; stroke-width: 1.88976px; opacity: 1; stroke-dasharray: 9px, 9px;"/></g><g class="points"/><g class="text"/></g><g class="trace scatter trace2bb30a" style="stroke-miterlimit: 2; opacity: 1;"><g class="fills"/><g class="errorbars"/><g class="lines"><path class="js-line" d="M38.64,484.93L66.15,486.99L69.02,487.21L327.3,505.85L328.98,505.86L347.75,505.14L349.44,504.99L364.16,502.86L365.73,502.54L379.27,498.81L380.73,498.3L392.56,493.32L394.09,492.58L411.92,483.06L413.62,482.1L449.33,462.38L450.93,461.61L464.69,455.92L466.18,455.43L478.34,452.42L480.12,452.11L495.04,450.55L496.99,450.45L520.95,450.09L522.93,450.09L545.29,449.42L547.04,449.26L559.73,447.4L561.24,447.09L576.96,442.93L578.61,442.42L604.35,433.65L606.07,433.05L633.43,424.23L634.92,423.84L649.26,420.88L650.66,420.67L665.35,419.37L666.88,419.32L682.64,419.71L684.24,419.84L699.93,421.98L701.45,422.27L716.01,425.91L717.41,426.34L731.45,431.5L732.95,432.14L747.52,439.28L749.32,440.25L772.54,453.85L774.92,455.32L811.36,478.49L811.36,478.49" style="vector-effect: non-scaling-stroke; fill: none; stroke: rgb(248, 118, 109); stroke-opacity: 1; stroke-width: 1.88976px; opacity: 1;"/></g><g class="points"/><g class="text"/></g><g class="trace scatter tracef7f5f4" style="stroke-miterlimit: 2; opacity: 1;"><g class="fills"/><g class="errorbars"/><g class="lines"><path class="js-line" d="M38.64,285.35L67.36,291.18L69.79,291.72L94.62,298.15L96.58,298.76L110.58,303.92L112.16,304.62L122.74,310.07L124.22,310.94L136.52,319L138.07,320.1L185.23,353.75L186.88,354.73L199.59,361.23L201.12,361.85L210.35,364.75L211.83,365.06L220.84,366.02L222.37,366.03L231.89,365.2L233.53,364.92L243.61,362.35L245.33,361.79L257.46,356.87L259.19,356.05L272.74,348.65L274.38,347.65L289.99,337.14L291.49,336.06L322.7,312.31L324.38,311.06L343.32,297.87L345.05,296.78L358.6,289.07L360.24,288.27L371.31,283.7L372.83,283.2L382.07,281.06L383.55,280.86L392.56,280.48L394.09,280.56L403.61,281.87L405.24,282.23L417.05,285.86L418.77,286.53L430.91,292.14L432.64,293.06L446.1,301.18L447.72,302.27L463.21,313.71L464.69,314.9L484.64,331.87L486.23,333.27L516.77,359.13L518.49,360.48L535.19,372.36L536.78,373.36L549.06,379.97L550.55,380.62L560.5,384.07L561.86,384.42L573.12,386.29L574.58,386.42L586.64,386.56L588.19,386.48L602.26,384.88L603.82,384.61L618.98,381.34L620.44,380.97L647.09,373.24L648.61,372.78L678.08,363.08L679.81,362.45L702.03,353.39L703.67,352.64L720.78,343.9L722.27,343.05L737.55,333.34L739.13,332.23L757.02,318.6L759.08,316.94L791.65,289.59L793.88,287.68L811.36,272.47L811.36,272.47" style="vector-effect: non-scaling-stroke; fill: none; stroke: rgb(0, 186, 56); stroke-opacity: 1; stroke-width: 1.88976px; opacity: 1;"/></g><g class="points"/><g class="text"/></g><g class="trace scatter trace1abead" style="stroke-miterlimit: 2; opacity: 1;"><g class="fills"/><g class="errorbars"/><g class="lines"><path class="js-line" d="M38.64,124.4L57.93,145.88L60.22,148.42L112.16,205.04L113.72,206.67L138.07,231.08L139.63,232.55L156.05,246.62L157.76,247.93L169.87,256.21L171.6,257.25L181.88,262.44L183.56,263.12L193.35,266.07L194.93,266.37L202.63,266.96L204.13,266.91L211.83,265.67L213.32,265.25L220.84,262.2L222.37,261.41L231.89,255.32L233.53,254.08L243.61,245.48L245.33,243.85L257.46,231.29L259.19,229.36L274.38,211.15L276,209.09L300.66,176.34L302.16,174.32L334.64,131.78L336.38,129.61L356.94,105.08L358.6,103.22L374.35,86.61L375.85,85.14L389.52,72.94L391.03,71.72L405.24,61.41L406.89,60.35L420.5,52.5L422.24,51.62L436.07,45.48L437.77,44.83L450.93,40.65L452.51,40.25L464.69,37.89L466.18,37.7L479.5,36.76L480.99,36.75L495,37.63L496.62,37.83L511.54,40.78L513.22,41.23L526.42,45.6L528.03,46.24L540.45,52.01L541.94,52.81L553.79,60.02L555.27,61.03L568.92,71.48L570.5,72.81L585.34,86.45L587.05,88.13L604.35,106.46L606.07,108.39L624.22,130.05L625.79,132.03L645.59,158.26L647.09,160.32L678.08,201.81L679.81,203.95L693.64,219.82L695.34,221.6L706.91,232.41L708.5,233.7L717.78,240.01L719.29,240.83L726.99,243.97L728.47,244.36L734.47,245.21L736,245.23L742.38,244.52L744.05,244.14L753.06,240.98L755.02,240.1L767.86,233.07L770.18,231.64L787,220.24L789.36,218.53L811.36,201.66L811.36,201.66" style="vector-effect: non-scaling-stroke; fill: none; stroke: rgb(97, 156, 255); stroke-opacity: 1; stroke-width: 1.88976px; opacity: 1;"/></g><g class="points"/><g class="text"/></g></g></g><g class="overplot"/><path class="xlines-above crisp" d="" style="fill: none; stroke-width: 1px; stroke: rgb(0, 0, 0); stroke-opacity: 0;"/><path class="ylines-above crisp" d="" style="fill: none; stroke-width: 1px; stroke: rgb(0, 0, 0); stroke-opacity: 0;"/><g class="overlines-above"/><g class="xaxislayer-above"><path class="xtick ticks crisp" d="M0,559v3.65296803652968" transform="translate(210.42,0)" style="stroke: rgb(51, 51, 51); stroke-opacity: 1; stroke-width: 0.664176px;"/><path class="xtick ticks crisp" d="M0,559v3.65296803652968" transform="translate(425.07,0)" style="stroke: rgb(51, 51, 51); stroke-opacity: 1; stroke-width: 0.664176px;"/><path class="xtick ticks crisp" d="M0,559v3.65296803652968" transform="translate(639.72,0)" style="stroke: rgb(51, 51, 51); stroke-opacity: 1; stroke-width: 0.664176px;"/><path class="xtick ticks crisp" d="M0,559v3.65296803652968" transform="translate(854.36,0)" style="stroke: rgb(51, 51, 51); stroke-opacity: 1; stroke-width: 0.664176px;"/><g class="xtick"><text text-anchor="middle" x="0" y="576.6803652968036" transform="translate(210.42,0)" style="font-family: 'Open Sans', verdana, arial, sans-serif; font-size: 11.6895px; fill: rgb(77, 77, 77); fill-opacity: 1; white-space: pre;">2.5</text></g><g class="xtick"><text text-anchor="middle" x="0" y="576.6803652968036" transform="translate(425.07,0)" style="font-family: 'Open Sans', verdana, arial, sans-serif; font-size: 11.6895px; fill: rgb(77, 77, 77); fill-opacity: 1; white-space: pre;">5.0</text></g><g class="xtick"><text text-anchor="middle" x="0" y="576.6803652968036" transform="translate(639.72,0)" style="font-family: 'Open Sans', verdana, arial, sans-serif; font-size: 11.6895px; fill: rgb(77, 77, 77); fill-opacity: 1; white-space: pre;">7.5</text></g><g class="xtick"><text text-anchor="middle" x="0" y="576.6803652968036" transform="translate(854.36,0)" style="font-family: 'Open Sans', verdana, arial, sans-serif; font-size: 11.6895px; fill: rgb(77, 77, 77); fill-opacity: 1; white-space: pre;">10.0</text></g></g><g class="yaxislayer-above"><path class="ytick ticks crisp" d="M42,0h-3.65296803652968" transform="translate(0,469.3)" style="stroke: rgb(51, 51, 51); stroke-opacity: 1; stroke-width: 0.664176px;"/><path class="ytick ticks crisp" d="M42,0h-3.65296803652968" transform="translate(0,308.35)" style="stroke: rgb(51, 51, 51); stroke-opacity: 1; stroke-width: 0.664176px;"/><path class="ytick ticks crisp" d="M42,0h-3.65296803652968" transform="translate(0,147.4)" style="stroke: rgb(51, 51, 51); stroke-opacity: 1; stroke-width: 0.664176px;"/><g class="ytick"><text text-anchor="end" x="36.00913242009132" y="4.09132420091325" transform="translate(0,469.3)" style="font-family: 'Open Sans', verdana, arial, sans-serif; font-size: 11.6895px; fill: rgb(77, 77, 77); fill-opacity: 1; white-space: pre;">25</text></g><g class="ytick"><text text-anchor="end" x="36.00913242009132" y="4.09132420091325" transform="translate(0,308.35)" style="font-family: 'Open Sans', verdana, arial, sans-serif; font-size: 11.6895px; fill: rgb(77, 77, 77); fill-opacity: 1; white-space: pre;">50</text></g><g class="ytick"><text text-anchor="end" x="36.00913242009132" y="4.09132420091325" transform="translate(0,147.4)" style="font-family: 'Open Sans', verdana, arial, sans-serif; font-size: 11.6895px; fill: rgb(77, 77, 77); fill-opacity: 1; white-space: pre;">75</text></g></g><g class="overaxes-above"/></g></g><g class="polarlayer"/><g class="ternarylayer"/><g class="geolayer"/><g class="pielayer"/><g class="glimages"/><defs id="topdefs-116be0"><g class="clips"/></defs><g class="layer-above"><g class="imagelayer"/><g class="shapelayer"><path data-index="0" fill-rule="evenodd" d="M43,558H893V23H43Z" style="opacity: 1; stroke: rgb(0, 0, 0); stroke-opacity: 0; fill: rgb(0, 0, 0); fill-opacity: 0; stroke-width: 0px;"/></g></g><g class="infolayer"><g class="g-gtitle"/><g class="g-xtitle" transform="translate(0,-14.835616438356055)"><text class="xtitle" x="468" y="611.835616438356" text-anchor="middle" style="font-family: 'Open Sans', verdana, arial, sans-serif; font-size: 14.61px; fill: rgb(0, 0, 0); opacity: 1; font-weight: normal; white-space: pre;">x</text></g><g class="g-ytitle" transform="translate(10.7236328125,0)"><text class="ytitle" transform="rotate(-90,3.7762557077626013,290.5)" x="3.7762557077626013" y="290.5" text-anchor="middle" style="font-family: 'Open Sans', verdana, arial, sans-serif; font-size: 14.61px; fill: rgb(0, 0, 0); opacity: 1; font-weight: normal; white-space: pre;">y</text></g></g></svg>